<svg width="18" height="16" viewBox="0 0 18 16" fill="none" xmlns="http://www.w3.org/2000/svg">
<path d="M14.8333 3.41671H12.3333V2.58337C12.3333 1.92033 12.0699 1.28445 11.6011 0.815607C11.1322 0.346766 10.4963 0.083374 9.83329 0.083374H8.16663C7.50358 0.083374 6.8677 0.346766 6.39886 0.815607C5.93002 1.28445 5.66663 1.92033 5.66663 2.58337V3.41671H3.16663C2.50358 3.41671 1.8677 3.6801 1.39886 4.14894C0.930018 4.61778 0.666626 5.25367 0.666626 5.91671V13.4167C0.666626 14.0797 0.930018 14.7156 1.39886 15.1845C1.8677 15.6533 2.50358 15.9167 3.16663 15.9167H14.8333C15.4963 15.9167 16.1322 15.6533 16.6011 15.1845C17.0699 14.7156 17.3333 14.0797 17.3333 13.4167V5.91671C17.3333 5.25367 17.0699 4.61778 16.6011 4.14894C16.1322 3.6801 15.4963 3.41671 14.8333 3.41671ZM7.33329 2.58337C7.33329 2.36236 7.42109 2.1504 7.57737 1.99412C7.73365 1.83784 7.94561 1.75004 8.16663 1.75004H9.83329C10.0543 1.75004 10.2663 1.83784 10.4225 1.99412C10.5788 2.1504 10.6666 2.36236 10.6666 2.58337V3.41671H7.33329V2.58337ZM15.6666 13.4167C15.6666 13.6377 15.5788 13.8497 15.4225 14.006C15.2663 14.1622 15.0543 14.25 14.8333 14.25H3.16663C2.94561 14.25 2.73365 14.1622 2.57737 14.006C2.42109 13.8497 2.33329 13.6377 2.33329 13.4167V9.20837H4.83329V10.0834C4.83329 10.3044 4.92109 10.5163 5.07737 10.6726C5.23365 10.8289 5.44561 10.9167 5.66663 10.9167C5.88764 10.9167 6.0996 10.8289 6.25588 10.6726C6.41216 10.5163 6.49996 10.3044 6.49996 10.0834V9.20837H11.5V10.0834C11.5 10.3044 11.5878 10.5163 11.744 10.6726C11.9003 10.8289 12.1123 10.9167 12.3333 10.9167C12.5543 10.9167 12.7663 10.8289 12.9225 10.6726C13.0788 10.5163 13.1666 10.3044 13.1666 10.0834V9.20837H15.6666V13.4167ZM15.6666 7.58337H2.33329V5.91671C2.33329 5.69569 2.42109 5.48373 2.57737 5.32745C2.73365 5.17117 2.94561 5.08337 3.16663 5.08337H14.8333C15.0543 5.08337 15.2663 5.17117 15.4225 5.32745C15.5788 5.48373 15.6666 5.69569 15.6666 5.91671V7.58337Z" fill="black"/>
</svg>
