<svg width="12" height="16" viewBox="0 0 12 16" fill="none" xmlns="http://www.w3.org/2000/svg">
<path d="M0 15.5V1.615C0 1.155 0.154333 0.771 0.463 0.463C0.771667 0.155 1.15567 0.000666667 1.615 0H10.385C10.845 0 11.229 0.154333 11.537 0.463C11.845 0.771667 11.9993 1.15567 12 1.615V15.5L6 12.923L0 15.5ZM1 13.95L6 11.8L11 13.95V1.615C11 1.46167 10.936 1.32067 10.808 1.192C10.68 1.06333 10.539 0.999333 10.385 1H1.615C1.46167 1 1.32067 1.064 1.192 1.192C1.06333 1.32 0.999333 1.461 1 1.615V13.95Z" fill="#F60CA6"/>
</svg>
