<svg width="30" height="30" viewBox="0 0 30 30" fill="none" xmlns="http://www.w3.org/2000/svg">
<path fill-rule="evenodd" clip-rule="evenodd" d="M3.57129 20.7142V12.1428C3.57129 11.385 3.87231 10.6583 4.40813 10.1225C4.94394 9.58666 5.67067 9.28564 6.42843 9.28564H23.5713C24.3291 9.28564 25.0558 9.58666 25.5916 10.1225C26.1274 10.6583 26.4284 11.385 26.4284 12.1428V20.7142C26.4284 21.472 26.1274 22.1987 25.5916 22.7345C25.0558 23.2703 24.3291 23.5714 23.5713 23.5714H6.42843C5.67067 23.5714 4.94394 23.2703 4.40813 22.7345C3.87231 22.1987 3.57129 21.472 3.57129 20.7142Z" stroke="white" stroke-width="1.5" stroke-linecap="round" stroke-linejoin="round"/>
<path fill-rule="evenodd" clip-rule="evenodd" d="M24.2854 12.857C24.2854 12.4782 24.1349 12.1148 23.8669 11.8469C23.599 11.579 23.2357 11.4285 22.8568 11.4285C22.4779 11.4285 22.1146 11.579 21.8466 11.8469C21.5787 12.1148 21.4282 12.4782 21.4282 12.857C21.4282 13.2359 21.5787 13.5993 21.8466 13.8672C22.1146 14.1351 22.4779 14.2856 22.8568 14.2856C23.2357 14.2856 23.599 14.1351 23.8669 13.8672C24.1349 13.5993 24.2854 13.2359 24.2854 12.857Z" fill="white"/>
<path fill-rule="evenodd" clip-rule="evenodd" d="M19.2858 16.4285C19.2858 15.2918 18.8343 14.2017 18.0305 13.398C17.2268 12.5943 16.1367 12.1428 15.0001 12.1428C13.8634 12.1428 12.7733 12.5943 11.9696 13.398C11.1659 14.2017 10.7144 15.2918 10.7144 16.4285C10.7144 17.5651 11.1659 18.6552 11.9696 19.4589C12.7733 20.2627 13.8634 20.7142 15.0001 20.7142C16.1367 20.7142 17.2268 20.2627 18.0305 19.4589C18.8343 18.6552 19.2858 17.5651 19.2858 16.4285ZM13.5715 6.42847H16.4286C16.8075 6.42847 17.1709 6.57898 17.4388 6.84689C17.7067 7.1148 17.8572 7.47816 17.8572 7.85704V9.28561H12.1429V7.85704C12.1429 7.47816 12.2934 7.1148 12.5613 6.84689C12.8293 6.57898 13.1926 6.42847 13.5715 6.42847Z" stroke="white" stroke-width="1.5" stroke-linecap="round" stroke-linejoin="round"/>
</svg>
