<svg width="34" height="34" viewBox="0 0 34 34" fill="none" xmlns="http://www.w3.org/2000/svg">
<path d="M29.75 6.375C29.75 5.81141 29.5261 5.27091 29.1276 4.8724C28.7291 4.47388 28.1886 4.25 27.625 4.25H23.375V2.125H21.25V4.25H12.75V2.125H10.625V4.25H6.375C5.81141 4.25 5.27091 4.47388 4.8724 4.8724C4.47388 5.27091 4.25 5.81141 4.25 6.375V27.625C4.25 28.1886 4.47388 28.7291 4.8724 29.1276C5.27091 29.5261 5.81141 29.75 6.375 29.75H10.625V27.625H6.375V6.375H10.625V8.5H12.75V6.375H21.25V8.5H23.375V6.375H27.625V12.75H29.75V6.375Z" fill="#9DB2CE"/>
<path d="M22.3125 15.9375L25.0208 21.1841L30.8125 22.0246L26.5625 26.1088L27.625 31.875L22.3125 29.1529L17 31.875L18.0625 26.1088L13.8125 22.0246L19.7625 21.1841L22.3125 15.9375Z" fill="#9DB2CE"/>
</svg>
