<svg width="33" height="33" viewBox="0 0 33 33" fill="none" xmlns="http://www.w3.org/2000/svg">
<g clip-path="url(#clip0_942_18153)">
<path d="M30.9006 15.8492L17.1506 2.0992C16.9789 1.92847 16.7465 1.83264 16.5044 1.83264C16.2622 1.83264 16.0299 1.92847 15.8581 2.0992L2.10811 15.8492C1.95794 16.0246 1.87947 16.2501 1.88838 16.4808C1.89729 16.7115 1.99293 16.9304 2.15618 17.0936C2.31943 17.2569 2.53828 17.3525 2.76898 17.3614C2.99969 17.3703 3.22525 17.2919 3.40061 17.1417L16.4998 4.04253L29.5989 17.1509C29.7743 17.301 29.9999 17.3795 30.2306 17.3706C30.4613 17.3617 30.6801 17.2661 30.8434 17.1028C31.0066 16.9395 31.1023 16.7207 31.1112 16.49C31.1201 16.2593 31.0416 16.0337 30.8914 15.8584L30.9006 15.8492Z" fill="#F60CA6"/>
<path d="M25.6667 29.3334H21.0833V20.1667H11.9167V29.3334H7.33333V16.5L5.5 18.3334V29.3334C5.5 29.8196 5.69315 30.2859 6.03697 30.6297C6.38079 30.9735 6.8471 31.1667 7.33333 31.1667H13.75V22H19.25V31.1667H25.6667C26.1529 31.1667 26.6192 30.9735 26.963 30.6297C27.3068 30.2859 27.5 29.8196 27.5 29.3334V18.1134L25.6667 16.28V29.3334Z" fill="#F60CA6"/>
</g>
<defs>
<clipPath id="clip0_942_18153">
<rect width="33" height="33" fill="white"/>
</clipPath>
</defs>
</svg>
