<svg width="20" height="20" viewBox="0 0 20 20" fill="none" xmlns="http://www.w3.org/2000/svg">
<path d="M4.86573 8.44625C3.03117 8.88254 1.66669 10.5319 1.66669 12.5C1.66669 14.8012 3.53217 16.6667 5.83335 16.6667C6.2281 16.6667 6.61002 16.6118 6.9719 16.5092" stroke="white" stroke-width="2" stroke-linecap="round" stroke-linejoin="round"/>
<path d="M15.0228 8.44625C16.8574 8.88254 18.2218 10.5319 18.2218 12.5C18.2218 14.8012 16.3564 16.6667 14.0552 16.6667C13.6604 16.6667 13.2785 16.6118 12.9166 16.5092" stroke="white" stroke-width="2" stroke-linecap="round" stroke-linejoin="round"/>
<path d="M15 8.33334C15 5.57192 12.7614 3.33334 10 3.33334C7.23858 3.33334 5 5.57192 5 8.33334" stroke="white" stroke-width="2" stroke-linecap="round" stroke-linejoin="round"/>
<path d="M7.1106 11.6172L9.99997 8.71825L12.9716 11.6668" stroke="white" stroke-width="2" stroke-linecap="round" stroke-linejoin="round"/>
<path d="M10 15.8334V10.1925" stroke="white" stroke-width="2" stroke-linecap="round" stroke-linejoin="round"/>
</svg>
