<svg width="11" height="10" viewBox="0 0 11 10" fill="none" xmlns="http://www.w3.org/2000/svg">
<path d="M1 5C1 3.80653 1.47411 2.66193 2.31802 1.81802C3.16193 0.974106 4.30653 0.5 5.5 0.5C6.69347 0.5 7.83807 0.974106 8.68198 1.81802C9.52589 2.66193 10 3.80653 10 5V7.86313C10 8.34013 10 8.5775 9.92913 8.76819C9.87277 8.91929 9.78458 9.05651 9.67055 9.17055C9.55651 9.28458 9.41929 9.37277 9.26819 9.42913C9.0775 9.5 8.83956 9.5 8.36313 9.5H5.5C4.30653 9.5 3.16193 9.02589 2.31802 8.18198C1.47411 7.33807 1 6.19347 1 5Z" stroke="black"/>
<path d="M4 4.5H7M5.5 6.5H7" stroke="black" stroke-linecap="round" stroke-linejoin="round"/>
</svg>
