<svg width="12" height="12" viewBox="0 0 12 12" fill="none" xmlns="http://www.w3.org/2000/svg">
<path d="M6 11.25C7.03835 11.25 8.05339 10.9421 8.91674 10.3652C9.7801 9.78834 10.453 8.9684 10.8504 8.00909C11.2477 7.04978 11.3517 5.99418 11.1491 4.97578C10.9466 3.95738 10.4465 3.02192 9.71231 2.28769C8.97809 1.55347 8.04262 1.05345 7.02422 0.85088C6.00582 0.648307 4.95022 0.752275 3.99091 1.14963C3.0316 1.54699 2.21166 2.2199 1.63478 3.08326C1.05791 3.94662 0.75 4.96165 0.75 6C0.75 6.868 0.96 7.68642 1.33333 8.40742L0.75 11.25L3.59258 10.6667C4.31358 11.04 5.13258 11.25 6 11.25Z" stroke="black" stroke-linecap="round" stroke-linejoin="round"/>
</svg>
