<svg width="9" height="9" viewBox="0 0 9 9" fill="none" xmlns="http://www.w3.org/2000/svg">
<path d="M4.5 8C5.19223 8 5.86892 7.79473 6.44449 7.41014C7.02007 7.02556 7.46867 6.47893 7.73358 5.83939C7.99848 5.19985 8.06779 4.49612 7.93275 3.81718C7.7977 3.13825 7.46436 2.51461 6.97487 2.02513C6.48539 1.53564 5.86175 1.2023 5.18281 1.06725C4.50388 0.932205 3.80015 1.00152 3.16061 1.26642C2.52107 1.53133 1.97444 1.97993 1.58986 2.55551C1.20527 3.13108 1 3.80777 1 4.5C1 5.07867 1.14 5.62428 1.38889 6.10495L1 8L2.89506 7.61111C3.37572 7.86 3.92172 8 4.5 8Z" fill="#E83FA6" stroke="#E52A9C" stroke-width="0.5" stroke-linecap="round" stroke-linejoin="round"/>
</svg>
