<svg width="180" height="149" viewBox="0 0 180 149" fill="none" xmlns="http://www.w3.org/2000/svg">
<g clip-path="url(#clip0_764_10576)">
<path d="M16.9455 24.7735C21.1447 22.1813 22.7066 17.0657 20.4342 13.3476C18.1617 9.62951 12.9154 8.71681 8.71615 11.309C4.51693 13.9013 2.95499 19.0168 5.22745 22.7349C7.49991 26.453 12.7462 27.3657 16.9455 24.7735Z" fill="#FFE4F9"/>
<path d="M29.601 9.50152C31.5649 8.28918 32.2852 5.88008 31.2099 4.12065C30.1345 2.36122 27.6707 1.91771 25.7068 3.13006C23.7429 4.3424 23.0226 6.7515 24.098 8.51093C25.1733 10.2704 27.6371 10.7139 29.601 9.50152Z" fill="#FFE4F9"/>
<path d="M165.08 128.557C175.327 121.06 177.787 103.951 174.308 91.8781C171.295 81.4209 165.203 71.861 165.544 60.5961C165.852 50.3812 171.042 43.3565 171.561 33.201C172.594 12.9958 153.004 -3.61002 130.175 4.58994C120.028 8.23456 110.642 15.3951 100.232 17.3523C85.6325 20.0978 75.2158 9.60152 61.306 9.15681C49.1688 8.7698 36.9866 12.9825 27.129 22.221C19.377 29.4872 13.5513 39.466 10.4812 50.2853C7.80328 59.7262 9.16962 69.4564 12.6592 77.9848L165.078 128.558L165.08 128.557Z" fill="#FFE4F9"/>
<path d="M59.4504 71.7936L12.6602 77.984C20.0209 97.4684 44.8137 121.811 77.6456 132.704C110.478 143.598 149.722 139.698 165.079 128.556L164.475 115.722L59.4504 71.7927V71.7936Z" fill="#FFE4F9"/>
<path d="M8.25909 128.207C3.00394 122.406 -0.0210866 114.409 0.000110661 106.377C0.00805963 103.313 0.470866 100.167 1.94584 97.5287C3.42082 94.8907 6.04751 92.8394 8.94447 92.7515C13.0196 92.6272 16.2752 96.1298 18.9717 99.3617C20.7725 101.52 22.5725 103.676 24.3734 105.834C27.0169 109.002 30.4402 111.303 34.2337 112.63C37.1342 113.645 39.7547 115.199 41.2641 117.927C43.5066 121.979 42.2957 127.44 39.3272 130.931C37.5325 133.042 35.3112 134.947 32.7561 135.887C30.3157 136.784 26.1346 137.666 21.0887 136.519C18.765 135.991 16.6276 134.76 14.5803 133.484C12.261 132.038 10.1227 130.264 8.25997 128.208L8.25909 128.207Z" fill="#FFE4F9"/>
<path d="M123.35 139.637C108.954 139.637 94.425 137.403 81.6651 133.169C66.2856 128.066 51.7311 119.71 39.5727 109.003C28.551 99.297 20.3901 88.4173 16.5931 78.3666C13.8825 71.7413 11.3026 61.5397 14.4116 50.5792C17.524 39.6098 23.4495 29.6204 31.0973 22.451C40.5425 13.5986 52.7123 8.93853 65.3733 9.34861C71.4366 9.54212 76.9028 11.6636 82.1898 13.7158C89.002 16.3591 96.0475 19.0931 104.269 17.5468C110.438 16.3867 116.36 13.335 122.087 10.3836C126.011 8.36156 130.068 6.27119 134.19 4.78972C144.86 0.956921 155.742 2.31944 164.049 8.52755C171.884 14.3842 176.263 23.7336 175.762 33.5393C175.506 38.5358 174.105 42.8364 172.751 46.9958C171.35 51.2964 169.901 55.7435 169.744 60.9317C169.516 68.4979 172.254 75.4303 174.903 82.1346C176.189 85.3904 177.519 88.7581 178.503 92.1702C182.017 104.366 179.506 121.477 169.223 129.001C161.544 134.572 147.973 138.348 131.987 139.364C129.123 139.546 126.239 139.636 123.349 139.636L123.35 139.637ZM63.855 9.60425C51.815 9.60425 40.3022 14.2057 31.2872 22.6551C23.6756 29.7899 17.7775 39.7341 14.6792 50.6555C11.5923 61.5388 14.1563 71.6756 16.8519 78.2636C20.6347 88.2753 28.7683 99.1159 39.7564 108.793C51.8865 119.476 66.4093 127.813 81.7534 132.904C97.042 137.977 114.875 140.174 131.971 139.086C147.906 138.073 161.425 134.316 169.061 128.775C179.246 121.325 181.724 104.352 178.237 92.2483C177.258 88.8487 175.93 85.4881 174.646 82.2384C171.987 75.5084 169.238 68.5485 169.468 60.9237C169.626 55.6955 171.08 51.229 172.487 46.9088C173.837 42.7671 175.232 38.4843 175.485 33.5251C175.981 23.8126 171.645 14.5528 163.884 8.75212C155.653 2.60082 144.866 1.25339 134.285 5.05335C130.179 6.5286 126.131 8.61454 122.215 10.6321C116.469 13.5924 110.53 16.6538 104.321 17.822C96.0219 19.3798 88.9393 16.6334 82.09 13.9767C76.8251 11.9334 71.3809 9.82083 65.3644 9.62822C64.8601 9.61224 64.3567 9.60425 63.8541 9.60425H63.855Z" fill="#FF30C5"/>
<path d="M29.9625 137.535C28.4884 137.535 26.8615 137.383 25.1198 136.987C22.7175 136.441 20.4785 135.124 18.5681 133.934C16.209 132.463 14.0725 130.679 12.2186 128.632C6.92551 122.789 3.90225 114.798 3.92345 106.707C3.93317 103.052 4.57615 100.137 5.88685 97.7905C7.51197 94.8835 10.2385 93.0257 13.0021 92.9414C17.1346 92.8091 20.3964 96.3135 23.1405 99.6013L28.5423 106.073C31.1063 109.145 34.4952 111.481 38.3416 112.827C41.7968 114.037 44.1214 115.79 45.448 118.188C47.8389 122.51 46.2756 128.082 43.4952 131.352C41.3958 133.821 39.1656 135.503 36.8657 136.348C35.4623 136.865 33.0458 137.534 29.9616 137.534L29.9625 137.535ZM13.2167 93.2183C13.1487 93.2183 13.0798 93.2192 13.0109 93.2219C10.3436 93.3035 7.70716 95.1063 6.12885 97.9281C4.842 100.231 4.21138 103.103 4.20166 106.709C4.18047 114.73 7.17723 122.652 12.4244 128.445C14.2615 130.472 16.3777 132.24 18.7147 133.696C20.6057 134.875 22.8208 136.178 25.1808 136.714C30.4977 137.923 34.7239 136.839 36.7695 136.087C39.0234 135.258 41.2147 133.604 43.2832 131.172C46.0009 127.975 47.5341 122.535 45.2051 118.325C43.9129 115.99 41.6378 114.278 38.2506 113.092C34.3565 111.729 30.9261 109.365 28.3294 106.254L22.9277 99.7824C20.2718 96.6002 17.1179 93.2183 13.2167 93.2183Z" fill="#FF30C5"/>
<path d="M22.9344 149.001C30.2761 149.001 36.2278 148.584 36.2278 148.07C36.2278 147.556 30.2761 147.139 22.9344 147.139C15.5927 147.139 9.64111 147.556 9.64111 148.07C9.64111 148.584 15.5927 149.001 22.9344 149.001Z" fill="#FFE4F9"/>
<path d="M146.515 17.9098C146.29 17.9569 146.056 17.9196 145.858 17.8051C145.625 17.6711 145.46 17.4438 145.405 17.1802C145.359 16.9548 145.396 16.7195 145.51 16.5198C146.168 15.3641 146.38 14.0078 146.108 12.7012C145.835 11.3946 145.099 10.238 144.035 9.44537C143.619 9.13647 143.532 8.54442 143.839 8.12723C143.976 7.94172 144.176 7.8139 144.4 7.76686C144.663 7.71182 144.936 7.77218 145.151 7.93196C146.584 9.00067 147.575 10.5567 147.942 12.3151C148.308 14.0735 148.022 15.8994 147.136 17.4554C147.002 17.6888 146.776 17.8548 146.514 17.9098H146.515Z" fill="#FF30C5"/>
<path d="M150.686 20.3001C150.461 20.3472 150.228 20.3108 150.029 20.1963C149.58 19.9389 149.424 19.3619 149.68 18.911C150.92 16.7292 151.32 14.1728 150.808 11.7123C150.295 9.25176 148.907 7.07174 146.9 5.57341C146.717 5.43583 146.589 5.23611 146.542 5.01065C146.487 4.74614 146.547 4.47097 146.707 4.25527C146.844 4.06976 147.043 3.94194 147.267 3.89489C147.529 3.83986 147.804 3.90022 148.019 4.06088C150.394 5.83349 152.036 8.41384 152.644 11.3262C153.251 14.2385 152.777 17.2644 151.309 19.8466C151.177 20.08 150.95 20.246 150.687 20.301L150.686 20.3001Z" fill="#FF30C5"/>
<path d="M154.858 22.6914C154.634 22.7385 154.401 22.7021 154.201 22.5876C153.984 22.4624 153.828 22.26 153.761 22.0177C153.695 21.7745 153.727 21.5207 153.852 21.3023C155.673 18.0988 156.262 14.3415 155.507 10.7217C154.753 7.10281 152.714 3.89846 149.766 1.6989C149.582 1.56132 149.455 1.3616 149.407 1.13614C149.352 0.872511 149.412 0.597345 149.572 0.380762C149.709 0.195247 149.908 0.0674274 150.132 0.0203828C150.394 -0.0346505 150.668 0.0257086 150.884 0.18637C154.2 2.66021 156.494 6.26489 157.343 10.3365C158.191 14.4072 157.53 18.6341 155.48 22.2379C155.348 22.4713 155.121 22.6373 154.858 22.6923V22.6914Z" fill="#FF30C5"/>
<path d="M130.241 21.684L128.178 22.1181C127.13 22.3391 126.102 21.6636 125.883 20.61L124.424 13.6145C124.205 12.5609 124.877 11.5277 125.925 11.3076L127.988 10.8735L130.241 21.6849V21.684Z" fill="#FF30C5"/>
<path d="M143.942 25.7263L131.74 21.3681L129.487 10.5576L138.923 1.64307L143.942 25.7263Z" fill="#FF30C5"/>
<path d="M24.0553 146.578L24.0332 145.62C26.9407 145.551 29.0472 144.391 29.9631 142.355C30.7977 140.502 30.4604 138.18 29.1232 136.578C28.3583 135.661 27.3938 134.897 26.462 134.159C24.4253 132.544 22.3188 130.874 22.3188 127.604H23.2727C23.2727 130.41 25.0241 131.798 27.0529 133.407C28.0227 134.176 29.026 134.971 29.8545 135.963C31.4213 137.841 31.8143 140.569 30.8322 142.751C30.2095 144.136 28.5005 146.475 24.0553 146.579V146.578Z" fill="#E12799"/>
<path d="M23.7047 125.148H20.9058V146.967H23.7047V125.148Z" fill="#E12799"/>
<path d="M29.1893 147.907C27.6719 145.723 25.1565 144.291 22.3046 144.291C19.4527 144.291 16.9373 145.723 15.4199 147.907H29.1884H29.1893Z" fill="#FF30C5"/>
<path d="M27.9078 118.852C27.5148 118.852 27.195 118.531 27.195 118.136C27.195 117.741 27.5148 117.42 27.9078 117.42H30.7005V115.509H27.9078C27.5148 115.509 27.195 115.187 27.195 114.792C27.195 114.397 27.5148 114.076 27.9078 114.076H30.7005V112.165H27.9078C27.5148 112.165 27.195 111.844 27.195 111.449C27.195 111.054 27.5148 110.732 27.9078 110.732H30.7005V108.821H27.9078C27.5148 108.821 27.195 108.5 27.195 108.105C27.195 107.71 27.5148 107.389 27.9078 107.389H30.7005V105.904C30.7005 102.407 27.8795 99.572 24.3997 99.572H20.2106C16.7307 99.572 13.9097 102.407 13.9097 105.904V107.389H16.7024C17.0954 107.389 17.4152 107.71 17.4152 108.105C17.4152 108.5 17.0954 108.821 16.7024 108.821H13.9097V110.732H16.7024C17.0954 110.732 17.4152 111.054 17.4152 111.449C17.4152 111.844 17.0954 112.165 16.7024 112.165H13.9097V114.076H16.7024C17.0954 114.076 17.4152 114.397 17.4152 114.792C17.4152 115.187 17.0954 115.509 16.7024 115.509H13.9097V117.42H16.7024C17.0954 117.42 17.4152 117.741 17.4152 118.136C17.4152 118.531 17.0954 118.852 16.7024 118.852H13.9097V120.336C13.9097 123.834 16.7307 126.669 20.2106 126.669H24.3997C27.8795 126.669 30.7005 123.834 30.7005 120.336V118.852H27.9078Z" fill="#FF30C5"/>
<path d="M23.4971 123.557H21.1132C20.6308 123.557 20.2397 123.95 20.2397 124.435V128.902C20.2397 129.387 20.6308 129.78 21.1132 129.78H23.4971C23.9795 129.78 24.3706 129.387 24.3706 128.902V124.435C24.3706 123.95 23.9795 123.557 23.4971 123.557Z" fill="#FF30C5"/>
<path d="M23.3012 124.631H21.3096V128.705H23.3012V124.631Z" fill="#E4289B"/>
<path d="M17.1255 45.3049L29.1249 47.2364V51.7376L17.1255 50.9281V45.3049Z" fill="#FF30C5"/>
<path d="M17.1257 54.5867C20.6817 54.5867 23.5643 51.6896 23.5643 48.1159C23.5643 44.5421 20.6817 41.645 17.1257 41.645C13.5697 41.645 10.687 44.5421 10.687 48.1159C10.687 51.6896 13.5697 54.5867 17.1257 54.5867Z" fill="#FF30C5"/>
<path d="M17.1258 50.9272C18.6706 50.9272 19.9229 49.6686 19.9229 48.1161C19.9229 46.5635 18.6706 45.3049 17.1258 45.3049C15.5809 45.3049 14.3286 46.5635 14.3286 48.1161C14.3286 49.6686 15.5809 50.9272 17.1258 50.9272Z" fill="#FFE4F9"/>
<path d="M17.1257 47.0569C17.3237 47.0569 17.4843 46.8956 17.4843 46.6966C17.4843 46.4975 17.3237 46.3362 17.1257 46.3362C16.9276 46.3362 16.7671 46.4975 16.7671 46.6966C16.7671 46.8956 16.9276 47.0569 17.1257 47.0569Z" fill="#FF30C5"/>
<path d="M18.611 48.1417C18.8091 48.1417 18.9696 47.9803 18.9696 47.7813C18.9696 47.5822 18.8091 47.4209 18.611 47.4209C18.413 47.4209 18.2524 47.5822 18.2524 47.7813C18.2524 47.9803 18.413 48.1417 18.611 48.1417Z" fill="#FF30C5"/>
<path d="M18.0441 49.8965C18.2422 49.8965 18.4027 49.7352 18.4027 49.5362C18.4027 49.3371 18.2422 49.1758 18.0441 49.1758C17.8461 49.1758 17.6855 49.3371 17.6855 49.5362C17.6855 49.7352 17.8461 49.8965 18.0441 49.8965Z" fill="#FF30C5"/>
<path d="M16.2077 49.8965C16.4057 49.8965 16.5663 49.7352 16.5663 49.5362C16.5663 49.3371 16.4057 49.1758 16.2077 49.1758C16.0097 49.1758 15.8491 49.3371 15.8491 49.5362C15.8491 49.7352 16.0097 49.8965 16.2077 49.8965Z" fill="#FF30C5"/>
<path d="M15.6398 48.1417C15.8379 48.1417 15.9984 47.9803 15.9984 47.7813C15.9984 47.5822 15.8379 47.4209 15.6398 47.4209C15.4418 47.4209 15.2812 47.5822 15.2812 47.7813C15.2812 47.9803 15.4418 48.1417 15.6398 48.1417Z" fill="#FF30C5"/>
<path d="M29.1251 54.6684C31.9723 54.6684 34.2804 52.3487 34.2804 49.4873C34.2804 46.6258 31.9723 44.3062 29.1251 44.3062C26.2779 44.3062 23.9697 46.6258 23.9697 49.4873C23.9697 52.3487 26.2779 54.6684 29.1251 54.6684Z" fill="#FF30C5"/>
<path d="M29.1251 51.7384C30.3621 51.7384 31.3649 50.7306 31.3649 49.4874C31.3649 48.2442 30.3621 47.2363 29.1251 47.2363C27.8881 47.2363 26.8853 48.2442 26.8853 49.4874C26.8853 50.7306 27.8881 51.7384 29.1251 51.7384Z" fill="#FFE4F9"/>
<path d="M29.1249 48.6387C29.2835 48.6387 29.412 48.5096 29.412 48.3502C29.412 48.1909 29.2835 48.0618 29.1249 48.0618C28.9664 48.0618 28.8379 48.1909 28.8379 48.3502C28.8379 48.5096 28.9664 48.6387 29.1249 48.6387Z" fill="#FF30C5"/>
<path d="M30.3139 49.5069C30.4724 49.5069 30.6009 49.3777 30.6009 49.2184C30.6009 49.0591 30.4724 48.9299 30.3139 48.9299C30.1554 48.9299 30.0269 49.0591 30.0269 49.2184C30.0269 49.3777 30.1554 49.5069 30.3139 49.5069Z" fill="#FF30C5"/>
<path d="M29.8598 50.9119C30.0183 50.9119 30.1468 50.7828 30.1468 50.6234C30.1468 50.4641 30.0183 50.335 29.8598 50.335C29.7013 50.335 29.5728 50.4641 29.5728 50.6234C29.5728 50.7828 29.7013 50.9119 29.8598 50.9119Z" fill="#FF30C5"/>
<path d="M28.3891 50.9119C28.5476 50.9119 28.6761 50.7828 28.6761 50.6234C28.6761 50.4641 28.5476 50.335 28.3891 50.335C28.2306 50.335 28.1021 50.4641 28.1021 50.6234C28.1021 50.7828 28.2306 50.9119 28.3891 50.9119Z" fill="#FF30C5"/>
<path d="M27.9355 49.5069C28.094 49.5069 28.2225 49.3777 28.2225 49.2184C28.2225 49.0591 28.094 48.9299 27.9355 48.9299C27.777 48.9299 27.6484 49.0591 27.6484 49.2184C27.6484 49.3777 27.777 49.5069 27.9355 49.5069Z" fill="#FF30C5"/>
<path d="M35.3128 71.7253H27.3664L23.5386 64.3748L24.1268 64.0659L27.7683 71.0587H35.3128V71.7253Z" fill="#FF30C5"/>
<path d="M34.6725 70.6531H38.6444C38.9597 70.6531 39.2158 70.9105 39.2158 71.2274V71.5576C39.2158 71.8745 38.9597 72.1319 38.6444 72.1319H34.6725C34.3572 72.1319 34.1011 71.8745 34.1011 71.5576V71.2274C34.1011 70.9105 34.3572 70.6531 34.6725 70.6531Z" fill="#FF30C5"/>
<path d="M5.05306 62.1201H8.44727V56.7047H5.05306V62.1201Z" fill="#FF30C5"/>
<path d="M1.18506 53.3813L5.71156 56.7055V62.1201L1.18506 65.4443V53.3813Z" fill="#FF30C5"/>
<path d="M37.4705 61.3975H31.7021V57.4822H39.0276L37.4705 61.3975Z" fill="#FF30C5"/>
<path d="M11.1028 53.3813H30.7597C32.3627 53.3813 33.6637 54.6897 33.6637 56.2999V66.355C33.6637 67.9661 32.3618 69.2735 30.7597 69.2735H11.1028C9.49971 69.2735 8.19873 67.9652 8.19873 66.355V56.2999C8.19873 54.6888 9.50059 53.3813 11.1028 53.3813Z" fill="#FF30C5"/>
<path d="M10.6869 67.8951C11.203 67.8951 11.6213 67.4746 11.6213 66.956C11.6213 66.4373 11.203 66.0168 10.6869 66.0168C10.1708 66.0168 9.75244 66.4373 9.75244 66.956C9.75244 67.4746 10.1708 67.8951 10.6869 67.8951Z" fill="#FFE4F9"/>
<path d="M137.014 146.914C144.971 146.914 151.422 140.431 151.422 132.435C151.422 124.438 144.971 117.956 137.014 117.956C129.058 117.956 122.607 124.438 122.607 132.435C122.607 140.431 129.058 146.914 137.014 146.914Z" fill="#FF30C5"/>
<path d="M137.014 133.208C137.439 133.208 137.784 132.862 137.784 132.435C137.784 132.008 137.439 131.662 137.014 131.662C136.59 131.662 136.245 132.008 136.245 132.435C136.245 132.862 136.59 133.208 137.014 133.208Z" fill="#FFE4F9"/>
<path d="M139.916 123.855C139.916 122.109 138.503 120.689 136.767 120.689C135.03 120.689 133.616 122.109 133.616 123.855C133.616 125.601 135.029 127.021 136.767 127.021C138.504 127.021 139.916 125.601 139.916 123.855Z" fill="#FFE4F9"/>
<path d="M144.873 126.609C143.135 126.609 141.722 128.03 141.722 129.776C141.722 131.522 143.135 132.942 144.873 132.942C146.61 132.942 148.023 131.522 148.023 129.776C148.023 128.03 146.61 126.609 144.873 126.609Z" fill="#FFE4F9"/>
<path d="M141.776 136.187C140.039 136.187 138.625 137.607 138.625 139.353C138.625 141.099 140.039 142.519 141.776 142.519C143.513 142.519 144.926 141.099 144.926 139.353C144.926 137.607 143.513 136.187 141.776 136.187Z" fill="#FFE4F9"/>
<path d="M131.755 136.187C130.018 136.187 128.605 137.607 128.605 139.353C128.605 141.099 130.019 142.519 131.755 142.519C133.491 142.519 134.905 141.099 134.905 139.353C134.905 137.607 133.492 136.187 131.755 136.187Z" fill="#FFE4F9"/>
<path d="M131.809 129.776C131.809 128.03 130.396 126.609 128.659 126.609C126.923 126.609 125.509 128.03 125.509 129.776C125.509 131.522 126.922 132.942 128.659 132.942C130.397 132.942 131.809 131.522 131.809 129.776Z" fill="#FFE4F9"/>
<path d="M158.51 135.44C156.404 135.994 154.697 135.225 153.157 133.821C154.475 136.581 156.189 138.693 159.334 138.784C165.11 138.952 166.283 133.638 166.283 133.638L163.08 130.289C162.799 131.996 161.819 134.567 158.51 135.44Z" fill="#FF30C5"/>
<path d="M146.053 121.44L142.098 122.223C146.833 123.662 149.525 130.513 153.157 133.821C151.129 129.573 150.182 124.04 146.053 121.439V121.44Z" fill="#FF30C5"/>
<path d="M42.0933 107.866V32.9569C42.0933 29.5262 44.8604 26.7444 48.2749 26.7444H157.871C161.285 26.7435 164.053 29.5245 164.053 32.956V107.866C164.053 111.297 161.285 114.079 157.871 114.079H48.2749C44.8613 114.079 42.0933 111.298 42.0933 107.866Z" fill="#E3289A"/>
<path d="M50.1343 109.928V30.8949H50.1352L156.012 30.894V109.928H50.1343Z" fill="white"/>
<path d="M46.1137 63.8066C45.8655 63.8066 45.665 64.009 45.665 64.2576V76.5646C45.665 76.814 45.8655 77.0155 46.1137 77.0155C46.3619 77.0155 46.5624 76.8131 46.5624 76.5646V64.2576C46.5624 64.0081 46.3619 63.8066 46.1137 63.8066Z" fill="white"/>
<path d="M152.395 106.719V34.1038L53.7509 34.1038V106.719H152.395Z" fill="#FFE4F9"/>
<path d="M102.974 95.78C118.023 95.78 130.222 83.5196 130.222 68.3956C130.222 53.2716 118.023 41.0112 102.974 41.0112C87.925 41.0112 75.7256 53.2716 75.7256 68.3956C75.7256 83.5196 87.925 95.78 102.974 95.78Z" fill="#FF30C5"/>
<path d="M102.974 90.7481C90.7093 90.7481 80.7324 80.7205 80.7324 68.3948C80.7324 56.0691 90.7101 46.0415 102.974 46.0415C115.237 46.0415 125.215 56.0691 125.215 68.3948C125.215 80.7205 115.237 90.7481 102.974 90.7481ZM102.974 47.823C91.6861 47.823 82.5033 57.0517 82.5033 68.3957C82.5033 79.7396 91.6861 88.9684 102.974 88.9684C114.261 88.9684 123.444 79.7396 123.444 68.3957C123.444 57.0517 114.261 47.823 102.974 47.823Z" fill="white"/>
<path d="M116.557 68.385L96.1333 56.5342V80.2349L116.557 68.385Z" fill="white"/>
<path d="M75.7221 142.261C66.3361 142.262 56.9537 138.672 49.8085 131.491C42.8867 124.535 39.0747 115.286 39.0747 105.448C39.0747 95.6106 42.8867 86.3615 49.8085 79.4051C56.7303 72.4487 65.9334 68.6177 75.7221 68.6177C85.5108 68.6177 94.714 72.4487 101.636 79.4051C108.558 86.3615 112.369 95.6106 112.369 105.448C112.369 115.286 108.558 124.535 101.636 131.491C94.4923 138.671 85.1054 142.261 75.7221 142.261ZM75.7221 74.8471C67.5894 74.8471 59.9425 78.0301 54.1919 83.8095C48.4404 89.5889 45.2731 97.2732 45.2731 105.447C45.2731 113.622 48.4404 121.306 54.1919 127.085C66.0641 139.017 85.381 139.017 97.2523 127.085C103.004 121.306 106.171 113.622 106.171 105.447C106.171 97.2732 103.004 89.5889 97.2523 83.8095C91.5017 78.0293 83.8557 74.8471 75.7221 74.8471Z" fill="#7D064F"/>
<path d="M53.4016 79.4043L49.0181 83.8098L96.4617 131.491L100.845 127.085L53.4016 79.4043Z" fill="#7D064F"/>
</g>
<defs>
<clipPath id="clip0_764_10576">
<rect width="180" height="149" fill="white"/>
</clipPath>
</defs>
</svg>
