<svg width="23" height="23" viewBox="0 0 23 23" fill="none" xmlns="http://www.w3.org/2000/svg">
<path d="M5.03125 12.2188H19.4062C19.5969 12.2188 19.7797 12.143 19.9145 12.0082C20.0493 11.8734 20.125 11.6906 20.125 11.5C20.125 11.3094 20.0493 11.1266 19.9145 10.9918C19.7797 10.857 19.5969 10.7812 19.4062 10.7812H5.03125C4.84063 10.7812 4.65781 10.857 4.52302 10.9918C4.38823 11.1266 4.3125 11.3094 4.3125 11.5C4.3125 11.6906 4.38823 11.8734 4.52302 12.0082C4.65781 12.143 4.84063 12.2188 5.03125 12.2188Z" fill="black"/>
<path d="M5.32882 11.4999L11.2901 5.54007C11.4251 5.40511 11.5009 5.22206 11.5009 5.0312C11.5009 4.84033 11.4251 4.65728 11.2901 4.52232C11.1552 4.38736 10.9721 4.31154 10.7813 4.31154C10.5904 4.31154 10.4073 4.38736 10.2724 4.52232L3.80363 10.9911C3.73669 11.0578 3.68359 11.1372 3.64735 11.2245C3.61112 11.3118 3.59247 11.4054 3.59247 11.4999C3.59247 11.5945 3.61112 11.6881 3.64735 11.7754C3.68359 11.8627 3.73669 11.9421 3.80363 12.0088L10.2724 18.4776C10.4073 18.6125 10.5904 18.6884 10.7813 18.6884C10.9721 18.6884 11.1552 18.6125 11.2901 18.4776C11.4251 18.3426 11.5009 18.1596 11.5009 17.9687C11.5009 17.7778 11.4251 17.5948 11.2901 17.4598L5.32882 11.4999Z" fill="black"/>
</svg>
