<svg width="19" height="19" viewBox="0 0 19 19" fill="none" xmlns="http://www.w3.org/2000/svg">
<path d="M14.8438 10.0938L2.96875 10.0938C2.81128 10.0938 2.66025 10.0312 2.5489 9.91985C2.43756 9.8085 2.375 9.65747 2.375 9.5C2.375 9.34253 2.43756 9.19151 2.5489 9.08016C2.66025 8.96881 2.81128 8.90625 2.96875 8.90625L14.8437 8.90625C15.0012 8.90625 15.1522 8.96881 15.2636 9.08016C15.3749 9.1915 15.4375 9.34253 15.4375 9.5C15.4375 9.65747 15.3749 9.8085 15.2636 9.91984C15.1522 10.0312 15.0012 10.0938 14.8438 10.0938Z" fill="white"/>
<path d="M14.5979 9.5L9.67329 4.57663C9.5618 4.46514 9.49916 4.31392 9.49916 4.15625C9.49916 3.99858 9.5618 3.84737 9.67329 3.73588C9.78478 3.62439 9.93599 3.56175 10.0937 3.56175C10.2513 3.56175 10.4025 3.62439 10.514 3.73588L15.8578 9.07963C15.9131 9.13478 15.957 9.2003 15.9869 9.27244C16.0168 9.34457 16.0322 9.4219 16.0322 9.5C16.0322 9.5781 16.0168 9.65543 15.9869 9.72757C15.957 9.7997 15.9131 9.86522 15.8578 9.92038L10.514 15.2641C10.4026 15.3756 10.2513 15.4383 10.0937 15.4383C9.93599 15.4383 9.78478 15.3756 9.67329 15.2641C9.5618 15.1526 9.49917 15.0014 9.49917 14.8438C9.49917 14.6861 9.5618 14.5349 9.67329 14.4234L14.5979 9.5Z" fill="white"/>
</svg>
