<svg width="16" height="12" viewBox="0 0 16 12" fill="none" xmlns="http://www.w3.org/2000/svg">
<path d="M1.26973 11.625H10.25C10.3992 11.625 10.5423 11.5657 10.6478 11.4602C10.7533 11.3548 10.8125 11.2117 10.8125 11.0625V10.5C10.8125 10.3508 10.8718 10.2077 10.9773 10.1023C11.0828 9.99676 11.2259 9.9375 11.375 9.9375C11.5242 9.9375 11.6673 9.99676 11.7728 10.1023C11.8783 10.2077 11.9375 10.3508 11.9375 10.5V11.0625C11.9375 11.2117 11.9968 11.3548 12.1023 11.4602C12.2078 11.5657 12.3509 11.625 12.5 11.625H14.7304C15.0335 11.625 15.3242 11.5048 15.5388 11.2907C15.7534 11.0767 15.8743 10.7862 15.875 10.4831V9.16125C15.8826 8.66129 15.7143 8.17456 15.3997 7.78594C14.9814 7.28593 14.7522 6.65475 14.7522 6.00281C14.7522 5.35087 14.9814 4.71969 15.3997 4.21969C15.7143 3.83106 15.8826 3.34433 15.875 2.84438V1.5225C15.8754 1.37194 15.8461 1.22279 15.7887 1.08358C15.7314 0.944379 15.6471 0.817857 15.5408 0.711265C15.4344 0.604673 15.3081 0.520104 15.1691 0.462402C15.03 0.404701 14.8809 0.375 14.7304 0.375H12.5C12.3509 0.375 12.2078 0.434263 12.1023 0.539753C11.9968 0.645242 11.9375 0.788316 11.9375 0.9375V1.5C11.9375 1.64918 11.8783 1.79226 11.7728 1.89775C11.6673 2.00324 11.5242 2.0625 11.375 2.0625C11.2259 2.0625 11.0828 2.00324 10.9773 1.89775C10.8718 1.79226 10.8125 1.64918 10.8125 1.5V0.9375C10.8125 0.788316 10.7533 0.645242 10.6478 0.539753C10.5423 0.434263 10.3992 0.375 10.25 0.375H1.26973C1.11917 0.375 0.970089 0.404701 0.831025 0.462402C0.691962 0.520104 0.565647 0.604673 0.459316 0.711265C0.352985 0.817857 0.268727 0.944379 0.211367 1.08358C0.154006 1.22279 0.124671 1.37194 0.125041 1.5225V2.84438C0.117518 3.34433 0.285734 3.83106 0.600354 4.21969C1.01969 4.71817 1.24975 5.3486 1.25004 6C1.25041 6.65237 1.02031 7.2839 0.600354 7.78312C0.28511 8.17249 0.116855 8.66033 0.125041 9.16125V10.4831C0.125786 10.7862 0.246715 11.0767 0.461305 11.2907C0.675895 11.5048 0.966625 11.625 1.26973 11.625ZM10.8125 3.75C10.8125 3.60082 10.8718 3.45774 10.9773 3.35225C11.0828 3.24676 11.2259 3.1875 11.375 3.1875C11.5242 3.1875 11.6673 3.24676 11.7728 3.35225C11.8783 3.45774 11.9375 3.60082 11.9375 3.75V4.875C11.9375 5.02418 11.8783 5.16726 11.7728 5.27275C11.6673 5.37824 11.5242 5.4375 11.375 5.4375C11.2259 5.4375 11.0828 5.37824 10.9773 5.27275C10.8718 5.16726 10.8125 5.02418 10.8125 4.875V3.75ZM10.8125 7.125C10.8125 6.97582 10.8718 6.83274 10.9773 6.72725C11.0828 6.62176 11.2259 6.5625 11.375 6.5625C11.5242 6.5625 11.6673 6.62176 11.7728 6.72725C11.8783 6.83274 11.9375 6.97582 11.9375 7.125V8.25C11.9375 8.39918 11.8783 8.54226 11.7728 8.64775C11.6673 8.75324 11.5242 8.8125 11.375 8.8125C11.2259 8.8125 11.0828 8.75324 10.9773 8.64775C10.8718 8.54226 10.8125 8.39918 10.8125 8.25V7.125ZM3.69973 4.20281C3.82755 4.05927 3.98344 3.94345 4.15777 3.86251C4.3321 3.78157 4.52118 3.73723 4.71332 3.73222C4.90546 3.72721 5.09658 3.76165 5.27489 3.8334C5.45321 3.90514 5.61492 4.01268 5.75004 4.14937L6.10442 4.50094L6.40254 4.20281C6.6584 3.93678 7.00571 3.77778 7.37429 3.75794C7.74286 3.7381 8.10523 3.8589 8.38817 4.09594C8.52952 4.22362 8.64346 4.37868 8.72308 4.55173C8.80269 4.72478 8.84632 4.91219 8.85132 5.10261C8.85632 5.29303 8.82258 5.48247 8.75215 5.65946C8.68172 5.83644 8.57607 5.99727 8.4416 6.13219L6.47285 8.10094C6.42582 8.14813 6.36994 8.18558 6.3084 8.21113C6.24686 8.23668 6.18089 8.24984 6.11426 8.24984C6.04763 8.24984 5.98166 8.23668 5.92012 8.21113C5.85858 8.18558 5.8027 8.14813 5.75567 8.10094L3.80942 6.19125C3.54218 5.93563 3.38215 5.58795 3.36178 5.2187C3.34141 4.84945 3.46223 4.48628 3.69973 4.20281Z" fill="#B5B5B5"/>
</svg>
