<svg width="22" height="22" viewBox="0 0 22 22" fill="none" xmlns="http://www.w3.org/2000/svg">
<path d="M8.25016 20.1668C7.70016 20.1668 7.3335 19.8002 7.3335 19.2502V16.5002H3.66683C2.6585 16.5002 1.8335 15.6752 1.8335 14.6668V3.66683C1.8335 2.6585 2.6585 1.8335 3.66683 1.8335H18.3335C19.3418 1.8335 20.1668 2.6585 20.1668 3.66683V14.6668C20.1668 15.6752 19.3418 16.5002 18.3335 16.5002H12.7418L9.35016 19.8918C9.16683 20.0752 8.9835 20.1668 8.7085 20.1668H8.25016ZM9.16683 14.6668V17.5085L12.0085 14.6668H18.3335V3.66683H3.66683V14.6668H9.16683ZM14.9418 5.50016L13.6585 8.25016H15.5835V11.9168H11.9168V8.06683L13.1085 5.50016H14.9418ZM9.44183 5.50016L8.1585 8.25016H10.0835V11.9168H6.41683V8.06683L7.6085 5.50016H9.44183Z" fill="black"/>
</svg>
