<svg width="11" height="13" viewBox="0 0 11 13" fill="none" xmlns="http://www.w3.org/2000/svg">
<path d="M9.50939 5.93333C9.34647 5.72083 9.14814 5.53667 8.96397 5.3525C8.48939 4.9275 7.95105 4.62292 7.49772 4.17667C6.4423 3.1425 6.20855 1.43542 6.88147 0.125C6.20855 0.287917 5.62064 0.65625 5.11772 1.06C3.28314 2.53333 2.56063 5.13292 3.4248 7.36417C3.45313 7.435 3.48147 7.50583 3.48147 7.59792C3.48147 7.75375 3.37522 7.89542 3.23355 7.95208C3.07064 8.02292 2.90064 7.98042 2.76605 7.86708C2.72561 7.83365 2.69195 7.79277 2.66689 7.74667C1.86647 6.73375 1.73897 5.28167 2.2773 4.12C1.09438 5.08333 0.449802 6.7125 0.541885 8.24958C0.584385 8.60375 0.626885 8.95792 0.747302 9.31208C0.846468 9.73708 1.03772 10.1621 1.25022 10.5375C2.01522 11.7629 3.3398 12.6412 4.76355 12.8183C6.27939 13.0096 7.90147 12.7333 9.06314 11.685C10.3594 10.5092 10.8127 8.625 10.1469 7.01L10.0548 6.82583C9.90605 6.5 9.50939 5.93333 9.50939 5.93333ZM7.27105 10.3958C7.07272 10.5658 6.74688 10.75 6.49189 10.8208C5.69855 11.1042 4.90522 10.7075 4.43772 10.24C5.28064 10.0417 5.78355 9.41833 5.9323 8.78792C6.05272 8.22125 5.82605 7.75375 5.73397 7.20833C5.64897 6.68417 5.66314 6.23792 5.85439 5.74917C5.98897 6.01833 6.13064 6.2875 6.30064 6.5C6.84605 7.20833 7.70314 7.52 7.8873 8.48333C7.91564 8.5825 7.9298 8.68167 7.9298 8.78792C7.95105 9.36875 7.69605 10.0062 7.27105 10.3958Z" fill="#570035"/>
</svg>
