<svg width="18" height="14" viewBox="0 0 18 14" fill="none" xmlns="http://www.w3.org/2000/svg">
<path d="M7.78359 0.868774C3.6 0.868774 0.210938 3.40354 0.210938 6.53245C0.210938 8.39924 1.42383 10.0586 3.29062 11.0887C3.10781 11.725 2.68242 12.516 1.69805 13.0715C1.69805 13.0715 3.55781 13.5461 5.13984 11.8375C5.9625 12.066 6.85547 12.1926 7.78711 12.1926C11.9707 12.1926 15.3598 9.65784 15.3598 6.53245C15.3598 3.40706 11.9672 0.868774 7.78359 0.868774ZM4.29961 5.3301C4.96406 5.3301 5.49844 5.86799 5.49844 6.52893C5.49844 7.19338 4.96055 7.72776 4.29961 7.72776C3.63516 7.72776 3.10078 7.18987 3.10078 6.52893C3.09727 5.86799 3.63516 5.3301 4.29961 5.3301ZM7.78359 7.73127C7.11914 7.73127 6.58477 7.19338 6.58477 6.53245C6.58477 5.86799 7.12266 5.33362 7.78359 5.33362C8.44453 5.33362 8.98242 5.87151 8.98242 6.53245C8.98594 7.19338 8.44805 7.73127 7.78359 7.73127ZM11.2711 7.73127C10.6066 7.73127 10.0723 7.19338 10.0723 6.53245C10.0723 5.86799 10.6102 5.33362 11.2711 5.33362C11.9355 5.33362 12.4699 5.87151 12.4699 6.53245C12.4699 7.19338 11.932 7.73127 11.2711 7.73127Z" fill="#F60CA6"/>
<path d="M15.996 11.6337C17.0859 11.0325 17.789 10.0657 17.789 8.97937C17.789 7.79109 16.9453 6.74695 15.6832 6.16687C15.6937 6.28992 15.6972 6.40945 15.6972 6.53249C15.6972 8.15671 14.8605 9.67546 13.3417 10.8075C12.7406 11.2575 12.0621 11.6231 11.3308 11.9009C11.9425 12.1399 12.6386 12.277 13.3734 12.277C13.9148 12.277 14.4351 12.2032 14.9167 12.0696C15.8378 13.0645 16.9207 12.7868 16.9207 12.7868C16.3476 12.4669 16.1015 12.0028 15.996 11.6337Z" fill="#F60CA6"/>
</svg>
