<svg width="179" height="179" viewBox="0 0 179 179" fill="none" xmlns="http://www.w3.org/2000/svg">
<path d="M65.0736 155.017C74.5713 160.742 81.3469 158.365 83.9409 153.775C88.9572 144.897 105.636 126.744 132.068 120.608C167.076 112.481 159.765 90.9038 138.244 79.581C116.724 68.2581 100.633 52.5909 103.068 35.5556C105.503 18.5202 81.3733 12.6476 70.6422 45.4178C63.7076 66.5952 51.2802 72.2687 43.3556 73.6325C35.8867 74.9178 27.7167 76.5305 23.7326 82.9774C18.8982 90.7997 20.5852 98.7124 40.8258 104.14C69.5089 111.83 43.7852 142.185 65.0736 155.017Z" fill="#FFE4F9"/>
<path d="M40.3965 117.9C40.7984 117.67 45.335 115.749 67.9037 126.271C67.8379 126.36 67.81 126.402 67.81 126.402C67.81 126.402 44.3476 134.304 39.7507 124.57C38.3779 121.672 38.7713 119.677 40.3573 117.922L40.3965 117.9Z" fill="#FF30C5"/>
<path d="M116.251 121.881C111.348 126.003 103.659 128.995 96.2393 125.017C97.4117 124.268 98.6227 123.496 99.8578 122.698C107.309 117.91 113.872 121.113 116.251 121.881Z" fill="#FF30C5"/>
<path d="M125.034 71.1837C130.044 112.898 118.139 120.469 116.813 121.619C116.43 121.952 116.274 121.928 115.694 121.778L115.684 121.784C113.229 121.133 107.309 117.91 99.8578 122.697C98.6227 123.495 97.4113 124.267 96.2392 125.016C88.638 129.837 82.4997 133.234 78.0774 131.262C74.3264 129.349 70.9443 127.693 67.9037 126.27C45.335 115.749 40.7984 117.669 40.3965 117.9C40.8629 117.646 45.1412 115.274 50.902 111.104C50.9216 111.092 50.9412 111.081 50.9454 111.066C58.6454 105.485 68.9574 96.6915 76.3696 85.3792C81.4155 77.6869 86.3519 58.1859 95.8764 54.3596C115.451 47.0573 124.222 62.6988 125.034 71.1837Z" fill="#FF9CEA"/>
<path d="M103.39 70.4519C103.998 68.8475 103.939 67.3379 103.258 67.0801C102.577 66.8223 101.533 67.914 100.925 69.5185C100.318 71.1229 100.377 72.6326 101.058 72.8903C101.738 73.1481 102.783 72.0564 103.39 70.4519Z" fill="white"/>
<path d="M115.854 72.499C116.284 70.8383 116.062 69.3439 115.358 69.1612C114.653 68.9785 113.733 70.1767 113.302 71.8374C112.872 73.4982 113.094 74.9926 113.798 75.1753C114.503 75.358 115.423 74.1598 115.854 72.499Z" fill="white"/>
<path d="M108.267 78.5968C108.165 78.5967 108.066 78.5617 107.986 78.4976C107.907 78.4335 107.852 78.3441 107.83 78.2444C107.75 77.8832 107.395 76.8144 106.833 76.6555C106.27 76.4966 105.166 77.1134 104.719 77.4369C104.623 77.5065 104.503 77.5351 104.386 77.5164C104.269 77.4976 104.164 77.4331 104.094 77.3369C104.025 77.2408 103.996 77.1209 104.015 77.0037C104.034 76.8865 104.098 76.7816 104.194 76.712C104.37 76.5845 105.947 75.4755 107.076 75.7941C108.253 76.1263 108.662 77.8576 108.705 78.054C108.719 78.1194 108.718 78.1871 108.703 78.2522C108.687 78.3173 108.658 78.3782 108.616 78.4302C108.574 78.4823 108.521 78.5243 108.46 78.5531C108.4 78.582 108.334 78.5969 108.267 78.5968H108.267Z" fill="white"/>
</svg>
