<svg width="21" height="21" viewBox="0 0 21 21" fill="none" xmlns="http://www.w3.org/2000/svg">
<path d="M18.0402 5.32006L12.2802 1.29006C10.7102 0.19006 8.30023 0.25006 6.79023 1.42006L1.78023 5.33006C0.780234 6.11006 -0.00976562 7.71006 -0.00976562 8.97006V15.8701C-0.00976562 18.4201 2.06023 20.5001 4.61023 20.5001H15.3902C17.9402 20.5001 20.0102 18.4301 20.0102 15.8801V9.10006C20.0102 7.75006 19.1402 6.09006 18.0402 5.32006ZM10.7502 16.5001C10.7502 16.9101 10.4102 17.2501 10.0002 17.2501C9.59023 17.2501 9.25023 16.9101 9.25023 16.5001V13.5001C9.25023 13.0901 9.59023 12.7501 10.0002 12.7501C10.4102 12.7501 10.7502 13.0901 10.7502 13.5001V16.5001Z" fill="#F60CA6"/>
</svg>
