<svg width="28" height="28" viewBox="0 0 28 28" fill="none" xmlns="http://www.w3.org/2000/svg">
<path d="M10.5002 2.33337H3.50016C3.19074 2.33337 2.894 2.45629 2.6752 2.67508C2.45641 2.89388 2.3335 3.19062 2.3335 3.50004V10.5C2.3335 10.8095 2.45641 11.1062 2.6752 11.325C2.894 11.5438 3.19074 11.6667 3.50016 11.6667H10.5002C10.8096 11.6667 11.1063 11.5438 11.3251 11.325C11.5439 11.1062 11.6668 10.8095 11.6668 10.5V3.50004C11.6668 3.19062 11.5439 2.89388 11.3251 2.67508C11.1063 2.45629 10.8096 2.33337 10.5002 2.33337ZM10.5002 16.3334H3.50016C3.19074 16.3334 2.894 16.4563 2.6752 16.6751C2.45641 16.8939 2.3335 17.1906 2.3335 17.5V24.5C2.3335 24.8095 2.45641 25.1062 2.6752 25.325C2.894 25.5438 3.19074 25.6667 3.50016 25.6667H10.5002C10.8096 25.6667 11.1063 25.5438 11.3251 25.325C11.5439 25.1062 11.6668 24.8095 11.6668 24.5V17.5C11.6668 17.1906 11.5439 16.8939 11.3251 16.6751C11.1063 16.4563 10.8096 16.3334 10.5002 16.3334ZM24.5002 2.33337H17.5002C17.1907 2.33337 16.894 2.45629 16.6752 2.67508C16.4564 2.89388 16.3335 3.19062 16.3335 3.50004V10.5C16.3335 10.8095 16.4564 11.1062 16.6752 11.325C16.894 11.5438 17.1907 11.6667 17.5002 11.6667H24.5002C24.8096 11.6667 25.1063 11.5438 25.3251 11.325C25.5439 11.1062 25.6668 10.8095 25.6668 10.5V3.50004C25.6668 3.19062 25.5439 2.89388 25.3251 2.67508C25.1063 2.45629 24.8096 2.33337 24.5002 2.33337Z" stroke="#9DB2CE" stroke-width="2" stroke-linejoin="round"/>
<path d="M16.3335 16.3334H25.6668M21.0002 21H25.6668M16.3335 25.6667H25.6668" stroke="#9DB2CE" stroke-width="2" stroke-linecap="round" stroke-linejoin="round"/>
</svg>
