<svg width="30" height="30" viewBox="0 0 30 30" fill="none" xmlns="http://www.w3.org/2000/svg">
<path d="M14.375 26.25H5.625C5.29348 26.25 4.97554 26.1183 4.74112 25.8839C4.5067 25.6495 4.375 25.3315 4.375 25V5C4.375 4.66848 4.5067 4.35054 4.74112 4.11612C4.97554 3.8817 5.29348 3.75 5.625 3.75H23.125C23.4565 3.75 23.7745 3.8817 24.0089 4.11612C24.2433 4.35054 24.375 4.66848 24.375 5V12.1875" stroke="#9DB2CE" stroke-width="2" stroke-linecap="round" stroke-linejoin="round"/>
<path d="M22.8975 16.8751C24.4038 16.8751 25.625 18.0501 25.625 19.5001C25.625 21.3876 23.8063 23.0001 22.8975 23.8751C22.2913 24.4582 21.5344 25.0419 20.625 25.6251C19.7163 25.0419 18.9581 24.4582 18.3525 23.8751C17.4431 23.0001 15.625 21.3876 15.625 19.5001C15.625 18.0501 16.8463 16.8751 18.3525 16.8751C19.3006 16.8751 20.1362 17.3413 20.625 18.0488C20.8806 17.6839 21.2209 17.3865 21.6167 17.1821C22.0125 16.9776 22.452 16.8723 22.8975 16.8751Z" stroke="#9DB2CE" stroke-width="2" stroke-linejoin="round"/>
<path d="M9.375 8.75H19.375" stroke="#9DB2CE" stroke-width="2" stroke-linecap="round"/>
</svg>
