<svg width="15" height="15" viewBox="0 0 15 15" fill="none" xmlns="http://www.w3.org/2000/svg">
<g clip-path="url(#clip0_202_1977)">
<path d="M0 11.25C0 11.692 0.175595 12.1159 0.488155 12.4285C0.800716 12.7411 1.22464 12.9167 1.66667 12.9167H13.3333C13.7754 12.9167 14.1993 12.7411 14.5118 12.4285C14.8244 12.1159 15 11.692 15 11.25V9.16666H0V11.25Z" fill="#138808"/>
<path d="M15 5.83334V3.75C15 3.30798 14.8244 2.88405 14.5118 2.57149C14.1993 2.25893 13.7754 2.08334 13.3333 2.08334H1.66667C1.22464 2.08334 0.800716 2.25893 0.488155 2.57149C0.175595 2.88405 0 3.30798 0 3.75L0 5.83334H15Z" fill="#FF9933"/>
<path d="M0 5.69458H15V9.30583H0V5.69458Z" fill="#F7F7F7"/>
<path d="M7.49992 9.16667C8.42039 9.16667 9.16659 8.42048 9.16659 7.5C9.16659 6.57953 8.42039 5.83334 7.49992 5.83334C6.57944 5.83334 5.83325 6.57953 5.83325 7.5C5.83325 8.42048 6.57944 9.16667 7.49992 9.16667Z" fill="#000080"/>
<path d="M7.5 8.90625C8.27665 8.90625 8.90625 8.27665 8.90625 7.5C8.90625 6.72335 8.27665 6.09375 7.5 6.09375C6.72335 6.09375 6.09375 6.72335 6.09375 7.5C6.09375 8.27665 6.72335 8.90625 7.5 8.90625Z" fill="#F7F7F7"/>
<path d="M7.54175 6.97916L7.50008 7.25L7.45841 6.97916L7.50008 6.16666L7.54175 6.97916ZM7.15508 6.21208L7.32508 7.0075L7.4355 7.25833L7.4055 6.98625L7.15508 6.21208ZM6.83341 6.34541L7.20341 7.06958L7.37508 7.28333L7.27591 7.02791L6.83341 6.34541ZM6.55716 6.55708L7.10216 7.16125L7.32341 7.32333L7.16133 7.10208L6.55716 6.55708ZM6.3455 6.83333L7.028 7.27583L7.28341 7.375L7.06966 7.20333L6.3455 6.83333ZM6.21216 7.155L6.98633 7.40541L7.25841 7.43541L7.00758 7.325L6.21216 7.155ZM6.16675 7.5L6.97925 7.54166L7.25008 7.5L6.97925 7.45833L6.16675 7.5ZM6.21216 7.845L7.00758 7.675L7.25841 7.56458L6.98633 7.59458L6.21216 7.845ZM6.3455 8.16666L7.06966 7.79666L7.28341 7.625L7.028 7.72416L6.3455 8.16666ZM6.55716 8.44291L7.16133 7.89791L7.32341 7.67666L7.10216 7.83875L6.55716 8.44291ZM6.83341 8.65458L7.27591 7.97208L7.37508 7.71666L7.20341 7.93041L6.83341 8.65458ZM7.15508 8.78791L7.4055 8.01375L7.4355 7.74166L7.32508 7.9925L7.15508 8.78791ZM7.50008 8.83333L7.54175 8.02083L7.50008 7.75L7.45841 8.02083L7.50008 8.83333ZM7.84508 8.78791L7.67508 7.9925L7.56466 7.74166L7.59466 8.01375L7.84508 8.78791ZM8.16675 8.65458L7.79675 7.93041L7.62508 7.71666L7.72425 7.97208L8.16675 8.65458ZM8.443 8.44291L7.898 7.83875L7.67675 7.67666L7.83883 7.89791L8.443 8.44291ZM8.65466 8.16666L7.97216 7.72416L7.71675 7.625L7.9305 7.79666L8.65466 8.16666ZM8.788 7.845L8.01383 7.59458L7.74175 7.56458L7.99258 7.675L8.788 7.845ZM8.83342 7.5L8.02091 7.45833L7.75008 7.5L8.02091 7.54166L8.83342 7.5ZM8.788 7.155L7.99258 7.325L7.74175 7.43541L8.01383 7.40541L8.788 7.155ZM8.65466 6.83333L7.9305 7.20333L7.71675 7.375L7.97216 7.27583L8.65466 6.83333ZM8.443 6.55708L7.83883 7.10208L7.67675 7.32333L7.898 7.16125L8.443 6.55708ZM8.16675 6.34541L7.72425 7.02791L7.62508 7.28333L7.79675 7.06958L8.16675 6.34541ZM7.84508 6.21208L7.59466 6.98625L7.56466 7.25833L7.67508 7.0075L7.84508 6.21208Z" fill="#6666B3"/>
<path d="M7.31673 6.19125C7.36276 6.19125 7.40006 6.15394 7.40006 6.10792C7.40006 6.06189 7.36276 6.02458 7.31673 6.02458C7.27071 6.02458 7.2334 6.06189 7.2334 6.10792C7.2334 6.15394 7.27071 6.19125 7.31673 6.19125Z" fill="#000080"/>
<path d="M6.96248 6.28625C7.00851 6.28625 7.04582 6.24894 7.04582 6.20292C7.04582 6.15689 7.00851 6.11958 6.96248 6.11958C6.91646 6.11958 6.87915 6.15689 6.87915 6.20292C6.87915 6.24894 6.91646 6.28625 6.96248 6.28625Z" fill="#000080"/>
<path d="M6.6451 6.46916C6.69112 6.46916 6.72843 6.43185 6.72843 6.38583C6.72843 6.33981 6.69112 6.3025 6.6451 6.3025C6.59908 6.3025 6.56177 6.33981 6.56177 6.38583C6.56177 6.43185 6.59908 6.46916 6.6451 6.46916Z" fill="#000080"/>
<path d="M6.38582 6.72834C6.43185 6.72834 6.46916 6.69103 6.46916 6.645C6.46916 6.59898 6.43185 6.56167 6.38582 6.56167C6.3398 6.56167 6.30249 6.59898 6.30249 6.645C6.30249 6.69103 6.3398 6.72834 6.38582 6.72834Z" fill="#000080"/>
<path d="M6.20296 7.04583C6.24899 7.04583 6.2863 7.00852 6.2863 6.9625C6.2863 6.91647 6.24899 6.87917 6.20296 6.87917C6.15694 6.87917 6.11963 6.91647 6.11963 6.9625C6.11963 7.00852 6.15694 7.04583 6.20296 7.04583Z" fill="#000080"/>
<path d="M6.10799 7.4C6.15402 7.4 6.19133 7.36269 6.19133 7.31666C6.19133 7.27064 6.15402 7.23333 6.10799 7.23333C6.06197 7.23333 6.02466 7.27064 6.02466 7.31666C6.02466 7.36269 6.06197 7.4 6.10799 7.4Z" fill="#000080"/>
<path d="M6.10799 7.76666C6.15402 7.76666 6.19133 7.72936 6.19133 7.68333C6.19133 7.63731 6.15402 7.6 6.10799 7.6C6.06197 7.6 6.02466 7.63731 6.02466 7.68333C6.02466 7.72936 6.06197 7.76666 6.10799 7.76666Z" fill="#000080"/>
<path d="M6.20296 8.12083C6.24899 8.12083 6.2863 8.08352 6.2863 8.0375C6.2863 7.99147 6.24899 7.95416 6.20296 7.95416C6.15694 7.95416 6.11963 7.99147 6.11963 8.0375C6.11963 8.08352 6.15694 8.12083 6.20296 8.12083Z" fill="#000080"/>
<path d="M6.38582 8.43833C6.43185 8.43833 6.46916 8.40102 6.46916 8.355C6.46916 8.30898 6.43185 8.27167 6.38582 8.27167C6.3398 8.27167 6.30249 8.30898 6.30249 8.355C6.30249 8.40102 6.3398 8.43833 6.38582 8.43833Z" fill="#000080"/>
<path d="M6.6451 8.6975C6.69112 8.6975 6.72843 8.66019 6.72843 8.61416C6.72843 8.56814 6.69112 8.53083 6.6451 8.53083C6.59908 8.53083 6.56177 8.56814 6.56177 8.61416C6.56177 8.66019 6.59908 8.6975 6.6451 8.6975Z" fill="#000080"/>
<path d="M6.96248 8.88041C7.00851 8.88041 7.04582 8.8431 7.04582 8.79708C7.04582 8.75106 7.00851 8.71375 6.96248 8.71375C6.91646 8.71375 6.87915 8.75106 6.87915 8.79708C6.87915 8.8431 6.91646 8.88041 6.96248 8.88041Z" fill="#000080"/>
<path d="M7.31673 8.97541C7.36276 8.97541 7.40006 8.9381 7.40006 8.89208C7.40006 8.84606 7.36276 8.80875 7.31673 8.80875C7.27071 8.80875 7.2334 8.84606 7.2334 8.89208C7.2334 8.9381 7.27071 8.97541 7.31673 8.97541Z" fill="#000080"/>
<path d="M7.68343 8.97541C7.72946 8.97541 7.76676 8.9381 7.76676 8.89208C7.76676 8.84606 7.72946 8.80875 7.68343 8.80875C7.63741 8.80875 7.6001 8.84606 7.6001 8.89208C7.6001 8.9381 7.63741 8.97541 7.68343 8.97541Z" fill="#000080"/>
<path d="M8.03768 8.88041C8.0837 8.88041 8.12101 8.8431 8.12101 8.79708C8.12101 8.75106 8.0837 8.71375 8.03768 8.71375C7.99166 8.71375 7.95435 8.75106 7.95435 8.79708C7.95435 8.8431 7.99166 8.88041 8.03768 8.88041Z" fill="#000080"/>
<path d="M8.35506 8.6975C8.40109 8.6975 8.4384 8.66019 8.4384 8.61416C8.4384 8.56814 8.40109 8.53083 8.35506 8.53083C8.30904 8.53083 8.27173 8.56814 8.27173 8.61416C8.27173 8.66019 8.30904 8.6975 8.35506 8.6975Z" fill="#000080"/>
<path d="M8.61434 8.43833C8.66036 8.43833 8.69767 8.40102 8.69767 8.355C8.69767 8.30898 8.66036 8.27167 8.61434 8.27167C8.56831 8.27167 8.53101 8.30898 8.53101 8.355C8.53101 8.40102 8.56831 8.43833 8.61434 8.43833Z" fill="#000080"/>
<path d="M8.7972 8.12083C8.84322 8.12083 8.88053 8.08352 8.88053 8.0375C8.88053 7.99147 8.84322 7.95416 8.7972 7.95416C8.75118 7.95416 8.71387 7.99147 8.71387 8.0375C8.71387 8.08352 8.75118 8.12083 8.7972 8.12083Z" fill="#000080"/>
<path d="M8.89217 7.76666C8.93819 7.76666 8.9755 7.72936 8.9755 7.68333C8.9755 7.63731 8.93819 7.6 8.89217 7.6C8.84615 7.6 8.80884 7.63731 8.80884 7.68333C8.80884 7.72936 8.84615 7.76666 8.89217 7.76666Z" fill="#000080"/>
<path d="M8.89217 7.4C8.93819 7.4 8.9755 7.36269 8.9755 7.31666C8.9755 7.27064 8.93819 7.23333 8.89217 7.23333C8.84615 7.23333 8.80884 7.27064 8.80884 7.31666C8.80884 7.36269 8.84615 7.4 8.89217 7.4Z" fill="#000080"/>
<path d="M8.7972 7.04583C8.84322 7.04583 8.88053 7.00852 8.88053 6.9625C8.88053 6.91647 8.84322 6.87917 8.7972 6.87917C8.75118 6.87917 8.71387 6.91647 8.71387 6.9625C8.71387 7.00852 8.75118 7.04583 8.7972 7.04583Z" fill="#000080"/>
<path d="M8.61434 6.72834C8.66036 6.72834 8.69767 6.69103 8.69767 6.645C8.69767 6.59898 8.66036 6.56167 8.61434 6.56167C8.56831 6.56167 8.53101 6.59898 8.53101 6.645C8.53101 6.69103 8.56831 6.72834 8.61434 6.72834Z" fill="#000080"/>
<path d="M8.35506 6.46916C8.40109 6.46916 8.4384 6.43185 8.4384 6.38583C8.4384 6.33981 8.40109 6.3025 8.35506 6.3025C8.30904 6.3025 8.27173 6.33981 8.27173 6.38583C8.27173 6.43185 8.30904 6.46916 8.35506 6.46916Z" fill="#000080"/>
<path d="M8.03768 6.28625C8.0837 6.28625 8.12101 6.24894 8.12101 6.20292C8.12101 6.15689 8.0837 6.11958 8.03768 6.11958C7.99166 6.11958 7.95435 6.15689 7.95435 6.20292C7.95435 6.24894 7.99166 6.28625 8.03768 6.28625Z" fill="#000080"/>
<path d="M7.68343 6.19125C7.72946 6.19125 7.76676 6.15394 7.76676 6.10792C7.76676 6.06189 7.72946 6.02458 7.68343 6.02458C7.63741 6.02458 7.6001 6.06189 7.6001 6.10792C7.6001 6.15394 7.63741 6.19125 7.68343 6.19125Z" fill="#000080"/>
<path d="M7.5 7.875C7.70711 7.875 7.875 7.70711 7.875 7.5C7.875 7.29289 7.70711 7.125 7.5 7.125C7.29289 7.125 7.125 7.29289 7.125 7.5C7.125 7.70711 7.29289 7.875 7.5 7.875Z" fill="#000080"/>
</g>
<defs>
<clipPath id="clip0_202_1977">
<rect width="15" height="15" fill="white"/>
</clipPath>
</defs>
</svg>
