<svg width="24" height="22" viewBox="0 0 24 22" fill="none" xmlns="http://www.w3.org/2000/svg">
<path d="M15.5 6.33329V3.99996C15.5 3.38112 15.2542 2.78763 14.8166 2.35004C14.379 1.91246 13.7855 1.66663 13.1667 1.66663H10.8333C10.2145 1.66663 9.621 1.91246 9.18342 2.35004C8.74583 2.78763 8.5 3.38112 8.5 3.99996V6.33329M15.5 6.33329H20.1667C20.7855 6.33329 21.379 6.57913 21.8166 7.01671C22.2542 7.4543 22.5 8.04779 22.5 8.66663V18C22.5 18.6188 22.2542 19.2123 21.8166 19.6499C21.379 20.0875 20.7855 20.3333 20.1667 20.3333H6.16667M15.5 6.33329H8.5M8.5 6.33329H6.16667M6.16667 20.3333H3.83333C3.21449 20.3333 2.621 20.0875 2.18342 19.6499C1.74583 19.2123 1.5 18.6188 1.5 18V8.66663C1.5 8.04779 1.74583 7.4543 2.18342 7.01671C2.621 6.57913 3.21449 6.33329 3.83333 6.33329H6.16667M6.16667 20.3333V6.33329M17.8333 6.33329V20.3333" stroke="#9DB2CE" stroke-width="1.5" stroke-linecap="round" stroke-linejoin="round"/>
</svg>
