<svg width="9" height="9" viewBox="0 0 9 9" fill="none" xmlns="http://www.w3.org/2000/svg">
<path d="M5.33992 3.76305H7.61817C8.6665 3.76305 7.30358 7.99999 6.55254 7.99999H1.39693C1.2926 8.00082 1.19219 7.96249 1.11776 7.89344C1.04334 7.82438 1.00098 7.73024 1 7.63171V3.982C1 3.84705 1.07947 3.723 1.2067 3.65844C2.05574 3.22833 3.05178 2.876 3.54466 2.05272L4.07171 1.1715C4.10326 1.11925 4.14893 1.07584 4.20405 1.04571C4.25917 1.01558 4.32178 0.999809 4.38546 1C5.69485 1 5.30656 2.80055 5.12868 3.51611C5.12153 3.5459 5.12161 3.57684 5.12893 3.6066C5.13625 3.63635 5.15061 3.66416 5.17094 3.68792C5.19127 3.71169 5.21703 3.73079 5.2463 3.7438C5.27556 3.75682 5.30757 3.7634 5.33992 3.76305Z" fill="#E83FA6" stroke="#E52A9C" stroke-width="0.5" stroke-linecap="round" stroke-linejoin="round"/>
</svg>
