<svg width="13" height="13" viewBox="0 0 13 13" fill="none" xmlns="http://www.w3.org/2000/svg">
<path d="M7.66285 5.02048H10.9594C12.4763 5.02048 10.5042 11.5117 9.41747 11.5117H1.95752C1.80656 11.5129 1.66127 11.4542 1.55358 11.3484C1.44588 11.2426 1.38459 11.0984 1.38318 10.9474V5.35591C1.38318 5.14917 1.49817 4.95911 1.68227 4.86021C2.9108 4.20126 4.35202 3.66147 5.06519 2.40017L5.8278 1.0501C5.87346 0.970051 5.93954 0.903549 6.0193 0.857389C6.09906 0.811228 6.18965 0.787061 6.2818 0.787356C8.17643 0.787356 7.61459 3.54588 7.35721 4.64215C7.34686 4.68779 7.34698 4.73519 7.35757 4.78078C7.36816 4.82637 7.38894 4.86897 7.41835 4.90538C7.44776 4.94178 7.48504 4.97105 7.52739 4.99099C7.56974 5.01092 7.61605 5.021 7.66285 5.02048Z" stroke="black" stroke-linecap="round" stroke-linejoin="round"/>
</svg>
