<svg width="237" height="188" viewBox="0 0 237 188" fill="none" xmlns="http://www.w3.org/2000/svg">
<path d="M69.8717 187.488C69.3882 187.728 68.2849 188 66.8752 188C63.3748 188 61.2092 185.993 61.2092 183.009C61.2092 180.025 63.62 177.798 67.134 177.798C68.5369 177.798 69.5244 178.078 69.9534 178.297L69.5176 179.772C68.9659 179.526 68.1555 179.327 67.2089 179.327C64.8322 179.327 63.2318 180.67 63.2318 182.936C63.2318 184.95 64.6211 186.465 67.1749 186.465C68.0466 186.465 68.9591 186.299 69.5244 186.046L69.8717 187.495V187.488Z" fill="#E83FA6"/>
<path d="M84.5272 182.813C84.5272 185.974 82.322 188 79.3316 188C76.3411 188 74.3257 185.861 74.3257 183.006C74.3257 179.957 76.472 177.798 79.469 177.798C82.466 177.798 84.5207 179.937 84.5207 182.806L84.5272 182.813ZM76.2888 182.959C76.2888 184.925 77.4863 186.539 79.4232 186.539C81.3601 186.539 82.5576 184.971 82.5576 182.879C82.5576 180.993 81.4452 179.266 79.4297 179.266C77.4143 179.266 76.2822 180.94 76.2822 182.952L76.2888 182.959Z" fill="#E83FA6"/>
<path d="M98.4333 183.759C98.372 182.384 98.3039 180.734 98.3039 179.263H98.2631C97.8817 180.555 97.4118 181.978 96.9147 183.374L95.2871 187.869H93.7616L92.311 183.415C91.8684 182.019 91.4802 180.589 91.1874 179.263H91.1601C91.1057 180.658 91.0512 182.384 90.9626 183.827L90.7243 187.993H88.8992L89.5734 177.798H92.2361L93.6662 181.882C94.0476 183.05 94.3949 184.308 94.6537 185.436H94.7014C95.0078 184.329 95.3892 183.03 95.8182 181.875L97.3709 177.805H99.986L100.558 188H98.6444L98.4469 183.765L98.4333 183.759Z" fill="#E83FA6"/>
<path d="M114.464 183.759C114.403 182.384 114.335 180.734 114.335 179.263H114.294C113.913 180.555 113.443 181.978 112.946 183.374L111.318 187.869H109.793L108.342 183.415C107.899 182.019 107.511 180.589 107.218 179.263H107.191C107.137 180.658 107.082 182.384 106.994 183.827L106.755 187.993H104.93L105.604 177.798H108.267L109.697 181.882C110.079 183.05 110.426 184.308 110.685 185.436H110.732C111.039 184.329 111.42 183.03 111.849 181.875L113.402 177.805H116.017L116.589 188H114.675L114.478 183.765L114.464 183.759Z" fill="#E83FA6"/>
<path d="M124.361 177.805V183.392C124.361 185.46 125.288 186.507 126.756 186.507C128.308 186.507 129.22 185.473 129.22 183.392V177.805H131.163V183.325C131.163 186.575 129.358 188 126.667 188C124.155 188 122.419 186.683 122.419 183.311V177.798H124.361V177.805Z" fill="#E83FA6"/>
<path d="M136.992 188V177.798H139.29L142.182 182.187C142.946 183.384 143.554 184.519 144.067 185.668L144.108 185.654C143.959 184.285 143.946 183.054 143.946 181.582V177.798H145.736V188H143.696L140.776 183.467C140.047 182.284 139.31 181.038 138.749 179.855L138.695 179.869C138.769 181.245 138.783 182.559 138.783 184.086V188H136.992Z" fill="#E83FA6"/>
<path d="M151.566 177.798V188H150.108V177.798H151.566Z" fill="#E83FA6"/>
<path d="M158.735 179.394H155.938V177.798H163.225V179.394H160.398V188H158.735V179.394Z" fill="#E83FA6"/>
<path d="M170.961 188V183.701L167.597 177.798H169.744L171.026 180.461C171.396 181.238 171.657 181.747 171.95 182.414H171.976C172.242 181.795 172.542 181.21 172.899 180.468L174.22 177.798H176.341L172.795 183.652V188H170.954H170.961Z" fill="#E83FA6"/>
<path d="M183.709 10.4394C188.958 6.16657 194.341 2.11618 200.906 0C201.156 0.424584 201.183 0.862646 200.987 1.31419C195.037 8.35014 192.929 16.8688 192.409 25.6907C191.93 33.8521 189.349 41.0431 184.871 47.7219C184.371 48.4632 183.98 49.2652 183.662 50.1009C183.453 50.7276 183.162 51.3207 182.771 51.8531C182.5 52.1901 182.19 52.4866 181.852 52.7562C177.739 56.2944 173.395 59.6102 170.809 64.5704C166.236 71.2357 161.244 77.591 157.063 84.5528C148.1 99.4806 143.858 115.911 140.954 132.821C140.704 134.263 140.9 135.86 139.637 136.992C138.516 130.206 137.388 123.419 136.266 116.626C136.658 111.174 135.301 105.795 135.571 100.337C135.767 96.3468 135.929 92.384 137.253 88.5762C138.151 88.1179 138.563 87.471 138.799 86.3657C143.609 64.1323 153.031 44.0219 167.371 26.3444C172.153 20.4474 178.103 15.5815 183.703 10.4326L183.709 10.4394Z" fill="#AA0C6D"/>
<path d="M99.8016 117.495C98.5317 123.965 98.4315 130.644 96.4865 136.992C94.2474 132.652 94.2809 127.759 93.3986 123.129C89.5087 102.695 80.8265 84.5865 68.1875 68.2771C67.2785 67.0977 66.3494 65.925 65.641 64.6041C63.2214 59.6843 58.9037 56.5235 55.0205 52.9584C54.6729 52.7225 54.3588 52.4462 54.0647 52.1429C53.4832 51.4892 53.1557 50.6939 52.8683 49.8785C49.9341 44.3656 46.1712 39.2437 45.1085 32.8682C44.42 28.7436 44.2329 24.5652 43.6113 20.4272C42.5753 13.5193 40.7306 6.98878 35.6777 1.83312C35.2098 1.31419 34.8556 0.748076 35.016 0C40.764 0.727858 44.8077 4.6502 49.3059 7.72338C52.9485 11.1942 57.0456 14.1124 60.6682 17.6236C77.7987 34.2093 88.2053 54.6702 94.8022 77.3618C96.3862 82.8005 97.7631 88.2932 98.2777 93.9475C98.3847 95.1269 99.1266 95.1943 99.688 95.6998C101.292 101.63 100.276 107.575 99.8083 113.505C99.7014 114.847 99.434 116.161 99.8083 117.495H99.8016Z" fill="#AA0C6D"/>
<path d="M66.3303 64.142C77.4421 77.4765 86.6351 91.883 91.7838 108.414C94.6894 117.728 97.2086 127.169 97.6434 136.992C91.6527 136.577 85.9381 134.835 80.1268 133.561C78.146 132.811 78.1529 131.096 78.0425 129.467C76.5103 105.814 68.2559 84.5457 53.928 65.442C52.2301 63.1771 50.9119 60.6108 48.6412 58.7681C41.9742 50.2917 33.7681 43.4301 24.7751 37.3995C26.8181 35.5367 28.9093 36.7964 30.7037 37.634C39.2273 41.6142 47.5508 45.9429 54.3628 52.5096L54.3214 52.4761C58.7384 55.9672 62.7621 59.8402 66.3303 64.1555V64.142Z" fill="#570035"/>
<path d="M139.907 136.992C142.104 112.117 150.726 89.6931 166.381 69.949C167.857 68.0915 169.278 66.1873 170.72 64.303C174.31 60.0936 178.2 56.1849 182.559 52.7305L182.518 52.7639C189.053 46.3696 197.051 42.1535 205.204 38.2114C206.823 37.4296 211.318 36.4341 211.318 36.4341C211.318 36.4341 204.177 42.5077 201.314 45.3407C197.867 48.7483 194.351 52.0824 190.869 55.4499C172.882 76.4702 161.281 100.19 159.2 127.919C159.043 130.01 158.86 132.068 157.126 133.591C151.42 134.874 145.789 136.525 139.921 136.979L139.907 136.992Z" fill="#570035"/>
<path d="M133.349 100.551C130.414 88.994 127.472 77.4435 124.536 65.8861C123.179 58.4186 124.22 50.9918 124.939 43.5582C125.913 33.5201 127.687 23.6313 130.024 13.8374C130.81 10.5411 132.389 8.3232 136.177 8.81154C137.071 8.97432 137.998 9.27275 138.501 10.0256C142.888 16.591 146.905 23.3396 148.651 31.2005C140.859 46.6578 137.353 63.2613 135.66 80.3599C135.129 85.7181 134.538 91.0695 134.706 96.4751C134.753 97.9401 134.726 99.5137 133.356 100.558L133.349 100.551Z" fill="#7D064F"/>
<path d="M136.992 9.55365C133.356 8.90311 131.856 10.5498 131.093 14.2023C128.187 28.0805 125.632 41.979 125.42 56.2366C125.373 59.3538 124.869 62.4642 124.577 65.5814C123.144 61.5494 121.684 57.531 120.29 53.4854C119.866 52.2521 119.806 50.8494 118.446 50.1717C116.415 47.6915 115.997 44.493 114.909 41.6198C111.956 33.8405 109.01 26.0746 104.922 18.8238C104.119 17.394 103.509 15.8761 103.621 14.1616C103.137 10.9089 103.681 8.22546 107.629 8.34066C115.884 8.57784 124.066 6.89728 132.314 7.37163C134.066 7.47328 136.309 6.89728 136.992 9.56042V9.55365Z" fill="#9D0F67"/>
<path d="M35.5403 0.107685C35.8259 0.376898 36.1115 0.63938 36.404 0.908593C38.9533 5.54578 38.0896 10.5868 37.4488 15.3047C36.411 22.9436 36.6896 30.0778 41.2867 36.6668C42.032 37.7369 42.7216 39.0089 41.8718 40.4021C41.4678 40.6175 40.9803 40.9338 40.5832 40.7521C29.6546 35.7582 17.5139 32.7766 9.28781 23.2532C7.29571 20.9515 5.50561 18.5353 4.621 15.6076C3.91053 13.2655 4.69762 11.4012 7.28178 11.5829C18.5448 12.3905 26.4993 6.21881 34.4816 0C34.8368 0.0336516 35.1851 0.0740335 35.5403 0.107685Z" fill="#570035"/>
<path d="M200.796 0.828207C200.823 0.579072 200.85 0.323203 200.877 0.0740673C201.492 0.0471337 202.107 0.0269336 202.723 0C204.475 1.36688 206.295 2.64622 208 4.08717C213.492 8.71974 219.625 11.5208 226.997 11.5814C231.94 11.6218 232.789 13.2513 230.542 17.7156C226.843 25.0751 220.709 29.903 213.492 33.4044C208.703 35.7274 203.672 37.5454 198.977 40.0973C197.96 40.6495 196.83 41.2016 195.626 40.4138C194.669 38.4342 195.947 36.9596 196.87 35.5186C200.268 30.2329 200.836 24.523 200.107 18.3956C199.412 12.5376 198.529 6.59199 200.796 0.821474V0.828207Z" fill="#570035"/>
<path d="M110.504 73.0786C109.285 77.8686 108.06 82.6519 106.842 87.4418C104.264 87.4081 104.251 85.3707 104.084 83.6436C102.37 65.7857 98.2861 48.6024 90.0183 32.5863C89.2685 31.1291 88.6392 29.6111 89.0074 27.8975C90.7949 21.7313 93.4727 15.936 96.2844 10.2015C100.388 17.0087 102.765 24.5175 104.8 32.1276C107.893 43.6573 109.386 55.4771 110.718 67.3171C110.939 69.2601 110.196 71.1491 110.504 73.0854V73.0786Z" fill="#7D064F"/>
<path d="M132.62 101.081C132.682 82.9453 134.633 65.0631 140.176 47.7005C141.685 42.9752 143.615 38.373 145.47 33.7572C146.001 32.4374 146.325 30.7278 148.31 30.6047C148.937 30.6525 149.006 31.2475 149.303 31.6167C150.881 35.2479 152.46 38.8791 154.039 42.5102C154.928 43.8984 154.307 45.1909 153.646 46.367C146.09 59.6608 141.713 74.0897 138.128 88.8126C136.219 94.7346 136.577 100.855 136.405 106.948C136.301 110.647 137.177 114.415 135.764 118.047C134.716 112.391 133.675 106.736 132.627 101.081H132.62Z" fill="#570035"/>
<path d="M110.664 74.3256C108.772 68.3679 109.017 62.085 108.078 55.982C105.9 41.8039 103.491 27.7228 97.217 14.6795C96.4616 13.1088 96.1009 11.5381 96.203 9.82202C96.4888 8.32741 97.0673 6.9781 98.0744 5.82947C102.436 7.40711 102.477 11.6142 103.58 15.1777C108.425 24.5882 112.841 34.1925 116.305 44.2327C117.094 46.523 118.136 48.7234 118.04 51.2283C115.584 58.9228 113.12 66.6242 110.664 74.3256Z" fill="#570035"/>
<path d="M157.395 134.077C158.908 121.3 160.61 108.59 165.088 96.3704C170.417 81.8232 178.481 68.9649 188.443 57.2033C189.084 56.4429 190.084 55.9787 190.915 55.3798C185.437 63.2321 180.865 71.5621 177.312 80.4506C172.855 92.589 169.876 105.057 168.526 117.936C168.019 122.733 168.573 127.719 166.398 132.281C163.399 132.88 160.394 133.479 157.395 134.071V134.077Z" fill="#7C064F"/>
<path d="M49.5503 58.2946C55.2124 62.0216 58.1843 68.05 61.6459 73.5014C70.1524 86.8752 75.2308 101.688 77.9679 117.302C78.9407 122.849 79.4371 128.484 80.1549 134.077C77.183 133.473 74.2044 132.876 71.2325 132.272C69.1126 128.293 69.5218 123.84 69.173 119.604C68.0392 105.965 65.1008 92.7882 60.3579 79.9982C57.3927 72.4423 53.6828 65.2666 49.557 58.2946H49.5503Z" fill="#7C064F"/>
<path d="M88.6758 27.6899C97.6647 43.6754 101.893 61.201 104.739 79.1812C105.184 81.9902 103.376 85.2945 106.388 87.581C104.985 93.3618 103.575 99.1427 102.172 104.93C99.9584 101.47 100.397 97.4125 100.125 93.6604C98.6952 73.9432 93.6223 55.3456 84.5271 37.8946C85.91 34.4953 87.2929 31.096 88.6758 27.6967V27.6899Z" fill="#9B1065"/>
<path d="M198.624 38.7519C206.029 35.0532 210.903 33.7589 218.105 29.6991C224.438 26.1298 228.898 20.6804 231.239 12.99C219.137 13.7733 209.613 9.26395 202.323 0C208.052 2.05033 213.496 4.95213 219.748 5.36764C225.368 5.73548 230.791 4.96575 236.093 2.87455C236.113 14.6861 228.389 30.4076 208.812 36.7016C199.628 39.038 192.833 45.2163 185.17 50.3932C183.955 51.2106 184.695 50.9586 183.018 51.0062C183.31 50.3727 176.196 53.6492 198.63 38.7451L198.624 38.7519Z" fill="#E3289A"/>
<path d="M34.2892 0C26.9647 9.05741 17.6208 13.7795 5.17587 12.7686C7.31162 20.5437 11.9596 25.951 18.3943 29.574C25.6298 33.6515 33.2693 37.0302 40.7307 40.7142C46.4535 42.4443 51.1015 45.6534 54.5036 50.579C54.798 51.21 55.0855 51.8409 55.3798 52.4651C49.7803 48.9439 44.2903 45.2328 38.5471 41.9626C34.6726 39.7576 30.8255 37.1455 26.0337 37.1659C11.4052 31.3922 2.51986 20.9915 0.0555253 5.44123C-0.0608461 4.72885 0.0418346 3.98255 0.0418346 2.75454C12.0965 7.90403 23.2887 4.93239 34.2892 0Z" fill="#E4289B"/>
<path d="M85.5247 37.8915C87.4036 37.9185 87.9781 39.3922 88.6066 40.7443C95.0409 54.6161 99.8868 68.9746 101.59 84.2525C102.347 91.0465 102.847 97.8742 103.469 104.688C103.564 109.265 101.968 113.578 101.387 118.047C99.8936 112.307 100.204 106.52 99.7989 100.741C99.6773 99.0167 99.1231 98.0365 99.8125 95.5555C97.1766 78.5943 92.432 62.3159 84.2406 47.1326C83.4836 45.7265 82.4631 44.2528 83.5309 42.5222C84.2 40.9809 84.8691 39.4396 85.545 37.8982L85.5247 37.8915Z" fill="#7E0750"/>
<path d="M174.862 93.2811C174.862 99.2906 174.557 105.314 174.911 111.296C175.48 120.853 182.799 124.434 190.874 119.374C191.291 124.529 188.488 128.131 182.965 129.44C180.295 130.078 177.589 130.593 174.897 131.163C172.649 129.325 171.574 126.734 171.248 124.109C170.055 114.436 170.11 104.785 172.934 95.3159C173.232 94.3053 173.385 93.2065 174.855 93.2743L174.862 93.2811Z" fill="#E52A9C"/>
<path d="M62.6518 131.156C60.0086 130.565 57.3518 130.05 54.736 129.364C49.4633 127.986 47.0319 124.966 46.6357 119.21C50.0712 121.748 53.7047 122.753 57.5089 120.703C61.5727 118.517 62.686 114.635 62.7338 110.393C62.7952 104.691 62.7269 98.9826 62.7133 93.281C63.3758 93.2199 64.0041 93.4439 64.168 94.0683C67.1117 105.254 68.4913 116.488 64.8579 127.81C64.4344 129.12 63.7446 130.28 62.6518 131.163V131.156Z" fill="#E52A9C"/>
<path d="M82.7959 42.3732C86.6522 51.3866 91.4151 59.9953 94.1078 69.53C96.5772 78.2758 98.6609 87.0629 99.1007 96.186C96.5501 90.7121 96.3065 84.6277 94.6828 78.8863C87.3896 53.0672 74.6773 30.6709 54.9356 12.5549C53.0886 10.8606 50.4298 10.0032 49.5503 7.2868C61.8973 15.2164 71.484 25.9035 79.6093 38.0791C80.5971 39.5539 81.1789 41.3648 82.7959 42.3663V42.3732Z" fill="#E22799"/>
<path d="M62.6775 130.794C67.364 118.892 66.0343 106.834 63.6766 94.7548C63.54 94.0667 63.0584 93.4331 62.7422 92.7723C61.743 88.5688 60.7511 84.3585 59.752 80.155C62.9075 83.6909 63.9497 88.1464 65.2723 92.3839C69.3551 105.492 71.1449 118.961 71.4109 132.62C68.435 132.286 65.488 131.837 62.6847 130.794H62.6775Z" fill="#9B1066"/>
<path d="M173.766 92.7417C170.615 104.504 169.454 116.308 173.216 128.2C173.481 129.038 173.608 129.923 173.803 130.788C171.253 131.401 168.696 132.014 166.14 132.62C166.342 115.599 168.734 99.0079 174.599 83.111C175.009 82.0008 175.268 80.8021 176.341 80.155C175.483 84.3506 174.624 88.5462 173.766 92.7417Z" fill="#9B1066"/>
<path d="M138.45 88.7623C140.377 74.0682 145.267 60.3413 152.199 47.2792C152.862 46.0368 153.403 44.7272 153.992 43.4445C154.039 43.3438 154.891 42.1416 155.256 41.638C161.005 33.6462 166.781 25.6814 174.207 19.0664C177.196 16.407 180.023 13.5393 183.628 11.6589C183.141 12.3842 182.776 13.2506 182.147 13.8147C157.096 34.0089 146.2 59.0854 139.505 88.1041C139.444 88.3728 139.41 88.7354 139.227 88.863C139.072 88.9705 138.72 88.8093 138.456 88.7623H138.45Z" fill="#E12799"/>
<path d="M196.728 41.099C191.963 44.3771 187.241 47.7296 182.477 51.0077C182.371 50.8996 182.151 50.7103 182.172 50.69C190.28 40.4163 191.012 28.1082 193.035 16.0771C193.98 10.4874 196.28 5.12073 201.392 1.45734C201.726 7.95952 201.08 14.4549 202.244 20.9774C203.31 26.9794 201.776 32.7516 197.835 37.7803C197.075 38.7536 195.606 39.5512 196.728 41.099Z" fill="#7D064F"/>
<path d="M182.171 52.4651C178.287 56.3491 174.402 60.2399 170.512 64.124L182.171 52.4651Z" fill="#E3289A"/>
<path d="M53.5899 51.0077C49.1371 47.7247 44.6908 44.4484 40.238 41.1653C41.313 40.0417 40.2844 39.1684 39.7602 38.4441C35.0286 31.8509 34.1991 24.6892 35.5794 16.7218C36.4355 11.7736 35.7984 6.55453 35.8316 1.45734C41.9899 6.12807 43.868 13.1951 44.5316 20.208C45.5469 31.0251 47.3055 41.3616 53.9084 50.2631C53.9881 50.3714 53.7094 50.7505 53.5965 51.001L53.5899 51.0077Z" fill="#7D064F"/>
<path d="M67.0388 64.124C63.1525 60.2377 59.2662 56.3514 55.3799 52.4651C60.4187 55.2076 64.2514 59.1407 67.0388 64.124Z" fill="#E4289B"/>
<path d="M14.4494 26.1757C17.4649 28.6845 22.8796 31.5447 23.9875 32.135C25.6853 33.0345 26.9374 33.6178 27.5602 33.9059C34.9153 37.3775 42.7883 42.3037 43.9486 43.0416C56.4039 50.9335 65.5814 64.124 65.5814 64.124C65.5814 64.124 51.2841 51.6854 47.2263 47.9608C43.9093 44.9179 39.3599 41.6361 32.1489 38.1224C29.6317 36.8926 28.609 37.2299 26.9046 36.7169C13.1776 32.6128 7.91366 20.7364 14.4494 26.1757Z" fill="#E4289B"/>
<path d="M209.035 33.8664C209.035 33.8664 200.873 37.3363 197.813 39.0713C194.752 40.8062 182.171 50.869 179.79 53.2979C177.41 55.7269 171.969 62.6667 171.969 62.6667C171.969 62.6667 186.251 47.3991 202.574 39.0713C208.695 35.9483 212.775 33.5194 212.775 33.5194L209.035 33.8664Z" fill="#E3289A"/>
<path d="M144.279 68.4961C143.804 70.2235 143.099 72.8147 142.301 75.9772C138.906 89.416 137.297 99.1482 137.027 99.1006C136.862 99.0734 137.317 95.5232 137.686 92.9797C138.563 86.92 140.093 78.5616 142.96 68.4961H144.279Z" fill="#E12799"/>
<path d="M97.6433 5.82947H139.545L151.566 36.4341C150.632 34.5635 146.071 26.1179 146.071 26.1179C146.071 26.1179 142.608 17.5899 137.828 9.61207L104.512 11.3314L108.977 26.8057L97.6433 5.82947Z" fill="#E3289A"/>
<path d="M98.8093 95.7376L100.558 116.589L96.186 90.3566L98.8093 95.7376Z" fill="#E3289A"/>
<path d="M61.4868 169.048L56.8372 151.566H61.4322L62.9594 158.845C63.3889 160.953 63.832 163.313 64.1456 164.951H64.2002C64.5002 163.134 64.9433 160.98 65.4274 158.785L67.0499 151.573H71.8632L73.3835 159.11C73.7857 161.179 74.0925 163.015 74.3652 164.831H74.4198C74.7197 162.995 75.1493 160.913 75.5992 158.792L77.2423 151.573H81.6124L76.4855 169.054H71.8427L70.1588 160.927C69.777 159.137 69.4906 157.599 69.2725 155.67H69.2179C68.918 157.585 68.6316 159.15 68.1817 160.933L66.2932 169.054H61.5004L61.4868 169.048Z" fill="#570035"/>
<path d="M87.3447 164.399L85.9546 169.054H81.6123L87.4506 151.566H92.9844L99.1007 169.054H94.5333L92.991 164.399H87.3447ZM92.3092 161.348L91.0515 157.614C90.7073 156.593 90.3697 155.426 90.0719 154.451H90.0189C89.7409 155.432 89.4761 156.6 89.165 157.621L87.9868 161.348H92.3092Z" fill="#570035"/>
<path d="M117.852 162.177C117.768 159.909 117.698 157.296 117.698 154.504H117.622C116.953 156.865 116.083 159.458 115.276 161.759L112.811 168.769H109.351L107.221 161.806C106.552 159.531 105.898 156.944 105.383 154.504H105.327C105.223 157.037 105.132 159.902 105.014 162.23L104.659 169.054H100.558L101.686 151.566H107.805L109.706 157.249C110.312 159.186 110.911 161.467 111.349 163.543H111.447C112.024 161.494 112.714 159.073 113.382 157.216L115.498 151.566H121.479L122.419 169.054H118.102L117.831 162.177H117.852Z" fill="#570035"/>
<path d="M129.705 151.566V169.054H125.333V151.566H129.705Z" fill="#570035"/>
<path d="M132.62 151.566H137.208V159.246H137.275C137.743 158.609 138.264 158.019 138.754 157.462L143.803 151.566H149.67L142.487 158.954L150.108 169.054H144.621L139.141 161.414L137.215 163.377V169.054H132.628V151.566H132.62Z" fill="#570035"/>
<path d="M155.841 164.399L154.451 169.054H150.108L155.947 151.566H161.48L167.597 169.054H163.029L161.487 164.399H155.841ZM160.805 161.348L159.548 157.614C159.203 156.593 158.866 155.426 158.568 154.451H158.515C158.237 155.432 157.972 156.6 157.661 157.621L156.483 161.348H160.805Z" fill="#570035"/>
<path d="M171.412 164.254C172.588 164.899 174.402 165.544 176.364 165.544C178.326 165.544 179.307 164.781 179.307 163.581C179.307 162.519 178.447 161.86 176.122 161.16C172.984 160.23 170.72 158.648 170.72 155.638C170.72 152.46 173.475 150.109 177.789 150.109C180.094 150.109 181.673 150.546 182.896 151.114L181.901 154.521C181.135 154.167 179.684 153.57 177.722 153.57C175.887 153.57 175.014 154.375 175.014 155.298C175.014 156.484 176.143 156.976 178.575 157.774C181.975 158.905 183.628 160.528 183.628 163.338C183.628 166.293 181.404 169.054 176.055 169.054C173.851 169.054 171.634 168.423 170.512 167.785L171.426 164.254H171.412Z" fill="#570035"/>
</svg>
