<svg width="251" height="250" viewBox="0 0 251 250" fill="none" xmlns="http://www.w3.org/2000/svg">
<g clip-path="url(#clip0_145_5441)">
<path d="M230.545 149.48V175.549C230.545 180.264 226.722 184.087 222.007 184.087H128.525C123.811 184.087 119.987 180.264 119.987 175.549V153.518L108.351 141.292L221.983 140.936C226.709 140.924 230.551 144.747 230.551 149.474L230.545 149.48Z" fill="#F5F5F5"/>
<path d="M133.769 156.733L218.589 156.34L218.583 153.734L133.756 154.127L133.769 156.733Z" fill="#E6E6E6"/>
<path d="M133.769 165.308L218.589 164.921L218.583 162.315L133.756 162.702L133.769 165.308Z" fill="#E6E6E6"/>
<path d="M167.31 170.906L133.748 171.07L133.761 173.676L167.322 173.512L167.31 170.906Z" fill="#E6E6E6"/>
<path d="M64.8804 0H120.018C122.747 0 124.96 2.21288 124.96 4.9421V31.9085C124.96 34.6377 122.747 36.8506 120.018 36.8506H73.234C70.5048 36.8506 68.2919 34.6377 68.2919 31.9085V3.40537L64.8865 0H64.8804Z" fill="#F5F5F5"/>
<path d="M134.15 49.089V58.7704C134.15 60.1289 135.25 61.2291 136.608 61.2291H190.738C192.096 61.2291 193.197 60.1289 193.197 58.7704V53.4779L199.411 46.827L136.615 46.6241C135.25 46.6241 134.143 47.7244 134.143 49.0829L134.15 49.089Z" fill="#F0F0F0"/>
<path d="M97.6556 29.8186V47.1097C97.6556 50.2385 95.1169 52.7772 91.9881 52.7772H29.9968C26.868 52.7772 24.3294 50.2385 24.3294 47.1097V32.4986L16.6089 24.3909L91.9759 24.1573C95.1108 24.145 97.6556 26.6836 97.6556 29.8186Z" fill="#E0E0E0"/>
<path d="M33.4698 34.6316L89.7323 34.3734L89.7261 32.6461L33.4637 32.9043L33.4698 34.6316Z" fill="#F0F0F0"/>
<path d="M33.4698 40.3236L89.7323 40.0592L89.7261 38.332L33.4637 38.5901L33.4698 40.3236Z" fill="#F0F0F0"/>
<path d="M55.715 44.0339L33.4574 44.1427L33.4658 45.87L55.7234 45.7612L55.715 44.0339Z" fill="#F0F0F0"/>
<path d="M6.28213 86.8801V112.949C6.28213 117.664 10.1055 121.487 14.8202 121.487H108.296C113.011 121.487 116.834 117.664 116.834 112.949V90.9186L128.47 78.6924L14.8386 78.3359C10.1116 78.3236 6.26984 82.147 6.26984 86.8739L6.28213 86.8801Z" fill="#F0F0F0"/>
<path d="M103.059 94.1334L18.2379 93.7462L18.244 91.1399L103.071 91.5271L103.059 94.1334Z" fill="#E6E6E6"/>
<path d="M103.059 102.714L18.2379 102.321L18.244 99.7148L103.071 100.108L103.059 102.714Z" fill="#E6E6E6"/>
<path d="M69.5057 108.302L69.4929 110.908L103.055 111.072L103.067 108.466L69.5057 108.302Z" fill="#E6E6E6"/>
<path d="M190.775 20.5491C190.904 26.8189 185.925 32.0007 179.661 32.1298C173.391 32.2589 168.21 27.2799 168.08 21.0162C167.951 14.7464 172.93 9.56458 179.194 9.4355C185.464 9.30641 190.646 14.2854 190.775 20.5491Z" fill="#F5F5F5"/>
<path d="M175.512 17.9243C175.942 17.8874 176.33 18.3607 176.385 18.9816C176.434 19.6024 176.127 20.1372 175.696 20.1679C175.266 20.2048 174.873 19.7315 174.824 19.1107C174.774 18.4898 175.082 17.9551 175.512 17.9243Z" fill="#E0E0E0"/>
<path d="M176.508 15.0476C176.502 15.1459 175.549 15.0537 174.486 15.4594C173.416 15.8467 172.752 16.529 172.678 16.4614C172.605 16.4184 173.213 15.5762 174.369 15.1521C175.524 14.7218 176.532 14.9677 176.502 15.0476H176.508Z" fill="#E0E0E0"/>
<path d="M182.728 17.7768C182.298 17.7584 181.929 18.2501 181.899 18.871C181.874 19.4918 182.2 20.0143 182.636 20.0327C183.067 20.0512 183.435 19.5594 183.466 18.9386C183.491 18.3177 183.165 17.7952 182.728 17.7768Z" fill="#E0E0E0"/>
<path d="M181.61 14.9431C181.579 14.8632 182.575 14.5743 183.749 14.9615C184.923 15.3365 185.562 16.154 185.495 16.1971C185.427 16.2708 184.739 15.6131 183.651 15.2689C182.569 14.9124 181.628 15.0414 181.616 14.9431H181.61Z" fill="#E0E0E0"/>
<path d="M185.027 20.6658C185.027 20.6658 185.034 20.8871 184.948 21.2744C184.861 21.6616 184.665 22.2087 184.29 22.8172C183.915 23.4258 183.343 24.0712 182.556 24.606C181.776 25.1408 180.774 25.5403 179.673 25.6079C178.573 25.6571 177.528 25.3621 176.698 24.9133C175.862 24.4646 175.223 23.8745 174.793 23.309C174.356 22.7435 174.104 22.221 173.975 21.846C173.846 21.4711 173.816 21.2559 173.834 21.2498C173.902 21.2191 174.08 22.1042 174.971 23.1615C175.408 23.684 176.041 24.231 176.84 24.6429C177.639 25.0609 178.622 25.3252 179.655 25.276C180.688 25.2145 181.64 24.8457 182.39 24.354C183.146 23.8561 183.712 23.2537 184.093 22.6882C184.868 21.5448 184.954 20.6412 185.027 20.6658Z" fill="#E0E0E0"/>
<path d="M23.4258 148.38H25.067L28.6568 143.597V140.456C28.6568 140.456 31.1954 140.309 30.9004 144.415C30.5992 148.527 30.925 147.476 30.925 147.476C30.925 147.476 36.3219 147.495 36.7707 147.943C37.0965 148.269 37.244 153.396 37.2993 156.174C37.33 157.575 36.4326 158.872 35.068 159.204C34.8774 159.254 34.6807 159.278 34.4902 159.278C33.144 159.278 26.2718 158.233 26.2718 158.233H23.4319V148.367L23.4258 148.38Z" fill="#F0F0F0"/>
<path d="M18.7234 147.519L19.7315 158.27H22.5468V147.734L18.7234 147.519Z" fill="#F0F0F0"/>
<path d="M249.428 54.9163C248.66 54.0004 247.277 54.0373 246.386 54.7688C245.494 55.5002 245.113 56.3362 245.003 57.5779C244.732 56.3669 244.167 55.5924 243.183 54.9839C242.2 54.3692 240.81 54.5229 240.165 55.531C239.79 56.1211 239.71 56.914 239.858 57.6271C239.999 58.3462 240.251 59.0777 240.731 59.5879C242.433 61.4012 243.312 61.684 245.421 62.9134C247.338 61.4197 247.959 61.0386 249.398 59.0224C249.803 58.4569 249.957 57.6947 250 56.9632C250.049 56.2317 249.871 55.4634 249.422 54.9224L249.428 54.9163Z" fill="#F0F0F0"/>
<path d="M148.128 220.765L84.1509 220.47C76.455 220.434 70.2466 214.17 70.2773 206.474L70.9535 46.0832C70.9842 38.3873 77.2541 32.1728 84.9561 32.2035L148.933 32.4986C156.629 32.5355 162.837 38.7992 162.806 46.4951L162.13 206.886C162.1 214.582 155.83 220.796 148.128 220.765Z" fill="#263238"/>
<path d="M148.847 38.037L136.442 37.9816C134.777 37.9755 133.424 39.377 133.418 41.1165L133.406 43.3663C133.4 45.1059 132.041 46.5074 130.382 46.5012L106.206 46.3906C104.54 46.3844 103.2 44.9645 103.206 43.2311L103.219 40.9813C103.225 39.2417 101.885 37.828 100.219 37.8218L95.8545 37.8034L84.9991 37.7542C79.6083 37.7296 75.2194 42.0816 75.1949 47.4724L74.531 204.021C74.5064 209.412 78.8584 213.801 84.2431 213.826L148.091 214.121C153.482 214.145 157.87 209.793 157.895 204.402L158.559 47.8535C158.584 42.4627 154.232 38.08 148.847 38.0554V38.037Z" fill="white"/>
<path d="M113.748 194.352C113.748 195.09 113.146 195.692 112.408 195.692C111.67 195.692 111.068 195.09 111.068 194.352C111.068 193.615 111.67 193.012 112.408 193.012C113.146 193.012 113.748 193.615 113.748 194.352Z" fill="#455A64"/>
<path d="M118.838 194.352C118.838 195.09 118.235 195.692 117.498 195.692C116.76 195.692 116.158 195.09 116.158 194.352C116.158 193.615 116.76 193.012 117.498 193.012C118.235 193.012 118.838 193.615 118.838 194.352Z" fill="#455A64"/>
<path d="M123.927 194.352C123.927 195.09 123.325 195.692 122.587 195.692C121.85 195.692 121.247 195.09 121.247 194.352C121.247 193.615 121.85 193.012 122.587 193.012C123.325 193.012 123.927 193.615 123.927 194.352Z" fill="#455A64"/>
<path d="M87.0829 81.7105C87.0829 81.7105 87.0829 81.5938 87.0829 81.3663C87.089 81.1389 87.1321 80.8008 87.2489 80.3705C87.378 79.9464 87.5869 79.4301 87.9803 78.9014C88.3676 78.3789 88.9331 77.838 89.7138 77.4753C90.476 77.0697 91.4718 76.9774 92.4922 77.0143C93.5248 77.0143 94.6497 77.0143 95.8607 77.0143C98.2825 77.0143 101.049 77.0143 104.122 77.0143C116.428 77.0389 133.639 77.0758 153.285 77.1127H153.648L153.396 77.377C151.392 79.4854 149.259 81.729 147.095 84.0033L147.138 83.8927C147.138 85.9949 147.138 88.2447 147.138 90.5129C147.138 91.9759 147.138 93.4265 147.138 94.871C147.138 95.5779 147.181 96.334 146.972 97.0532C146.788 97.7724 146.431 98.4424 145.939 98.9894C145.454 99.5365 144.845 99.9852 144.169 100.256C143.499 100.538 142.749 100.631 142.042 100.612C140.641 100.612 139.252 100.612 137.875 100.612C132.367 100.612 127.05 100.606 121.991 100.6C111.867 100.588 102.751 100.575 95.0923 100.563C94.1334 100.563 93.1991 100.563 92.2893 100.563C91.3919 100.594 90.4391 100.502 89.6584 100.09C88.0541 99.3275 87.0829 97.7048 87.003 96.1619C86.9784 93.1069 87.0091 90.5006 87.0153 88.3553C87.0276 86.2224 87.0399 84.5627 87.046 83.4255C87.0522 82.8662 87.0583 82.442 87.0645 82.1408C87.0645 81.8519 87.0829 81.7044 87.0829 81.7044C87.0829 81.7044 87.0952 81.8519 87.1013 82.1408C87.1013 82.442 87.1075 82.8662 87.1198 83.4255C87.1259 84.5627 87.1382 86.2224 87.1505 88.3553C87.169 90.4945 87.1505 93.1192 87.1935 96.1496C87.2735 97.6371 88.2201 99.18 89.7568 99.9053C90.519 100.299 91.3919 100.379 92.3016 100.348C93.2113 100.348 94.1457 100.348 95.1046 100.348C102.764 100.336 111.879 100.329 122.003 100.311C127.068 100.311 132.379 100.311 137.887 100.299C139.264 100.299 140.653 100.299 142.055 100.299C142.749 100.311 143.425 100.225 144.058 99.9607C144.692 99.7025 145.257 99.2906 145.712 98.7743C146.173 98.2641 146.505 97.6371 146.677 96.9671C146.868 96.3033 146.824 95.5902 146.831 94.8649V90.5067C146.831 88.2385 146.831 85.9949 146.831 83.8865V83.8251L146.874 83.7759C149.044 81.5016 151.176 79.2579 153.18 77.1557L153.291 77.42C133.646 77.334 116.434 77.2664 104.128 77.211C101.055 77.1926 98.2887 77.1741 95.8668 77.1619C94.6559 77.1557 93.531 77.1434 92.4983 77.1373C91.4656 77.0942 90.5252 77.1741 89.7691 77.5614C89.0069 77.9118 88.4475 78.4281 88.0541 78.9383C87.6607 79.4485 87.4456 79.9587 87.3103 80.3767C87.0645 81.2249 87.1136 81.6983 87.089 81.6983L87.0829 81.7105Z" fill="#455A64"/>
<path d="M139.522 85.6446L93.5618 85.4294L93.5679 84.0156L139.528 84.2308L139.522 85.6446Z" fill="#455A64"/>
<path d="M139.522 90.2916L93.5618 90.0765L93.5679 88.6627L139.528 88.8779L139.522 90.2916Z" fill="#455A64"/>
<path d="M121.34 93.3147L121.333 94.7285L139.515 94.8174L139.522 93.4036L121.34 93.3147Z" fill="#455A64"/>
<path d="M149.572 112.838V126.964C149.572 129.521 147.501 131.593 144.944 131.593H94.2932C91.7361 131.593 89.6646 129.521 89.6646 126.964V115.027L83.3579 108.4L144.925 108.21C147.488 108.204 149.566 110.275 149.566 112.838H149.572Z" fill="#E4289B"/>
<path d="M97.1331 116.772L143.093 116.557L143.087 115.143L97.127 115.359L97.1331 116.772Z" fill="white"/>
<path d="M97.1331 121.419L143.093 121.204L143.087 119.791L97.127 120.006L97.1331 121.419Z" fill="white"/>
<path d="M115.308 124.45L97.1256 124.539L97.1325 125.953L115.315 125.864L115.308 124.45Z" fill="white"/>
<path d="M121.997 58.7274C122.858 58.3647 123.472 57.4796 123.479 56.4284C123.479 55.0577 122.446 53.9389 121.161 53.9328C119.877 53.9328 118.825 55.0331 118.819 56.4039C118.819 57.4611 119.434 58.3586 120.301 58.7212C116.717 59.2622 116.877 63.1593 116.877 63.1593L125.353 63.1962C125.353 63.1962 125.544 59.256 121.991 58.7212L121.997 58.7274Z" fill="#E4289B"/>
<path opacity="0.5" d="M121.997 58.7274C122.858 58.3647 123.472 57.4796 123.479 56.4284C123.479 55.0577 122.446 53.9389 121.161 53.9328C119.877 53.9328 118.825 55.0331 118.819 56.4039C118.819 57.4611 119.434 58.3586 120.301 58.7212C116.717 59.2622 116.877 63.1593 116.877 63.1593L125.353 63.1962C125.353 63.1962 125.544 59.256 121.991 58.7212L121.997 58.7274Z" fill="white"/>
<path d="M117.344 58.7274C118.205 58.3647 118.819 57.4796 118.825 56.4284C118.825 55.0577 117.793 53.9389 116.508 53.9328C115.223 53.9328 114.172 55.0331 114.166 56.4039C114.166 57.4611 114.781 58.3586 115.647 58.7212C112.064 59.2622 112.224 63.1593 112.224 63.1593L120.7 63.1962C120.7 63.1962 120.891 59.256 117.338 58.7212L117.344 58.7274Z" fill="#E4289B"/>
<path d="M130.301 64.9485L107.515 64.8451L107.502 67.6726L130.288 67.776L130.301 64.9485Z" fill="#E4289B"/>
<path opacity="0.3" d="M130.301 64.9485L107.515 64.8451L107.502 67.6726L130.288 67.776L130.301 64.9485Z" fill="white"/>
<path d="M88.1525 145.03C88.1525 145.03 88.1402 144.913 88.1648 144.692C88.1894 144.47 88.257 144.132 88.4783 143.757C88.6934 143.382 89.0868 142.958 89.6831 142.706C90.2916 142.43 91.0538 142.54 91.8714 142.516C95.1907 142.516 99.9914 142.516 105.966 142.516C117.934 142.54 134.598 142.577 153.42 142.614H153.783L153.531 142.878C151.545 145.005 149.443 147.249 147.316 149.529L147.359 149.419V149.947C147.359 151.263 147.359 152.572 147.359 153.875C147.359 154.207 147.365 154.514 147.353 154.859C147.335 155.203 147.249 155.541 147.101 155.854C146.806 156.475 146.253 156.967 145.607 157.188C145.288 157.305 144.931 157.342 144.612 157.336H143.653C143.013 157.336 142.38 157.336 141.747 157.336C140.481 157.336 139.233 157.336 137.991 157.336C133.025 157.336 128.23 157.33 123.669 157.323C114.541 157.311 106.323 157.299 99.4136 157.287C97.6863 157.287 96.0451 157.28 94.4899 157.274C93.7093 157.274 92.9594 157.274 92.2217 157.274C91.8529 157.274 91.4964 157.274 91.1399 157.274C90.7895 157.268 90.433 157.299 90.0765 157.213C89.3757 157.065 88.7918 156.617 88.4475 156.057C88.2754 155.774 88.1586 155.467 88.1095 155.16C88.0541 154.846 88.0787 154.539 88.0726 154.25C88.0726 153.076 88.0849 152.006 88.0849 151.035C88.0972 149.111 88.1095 147.617 88.1156 146.591C88.1218 146.093 88.1279 145.706 88.1341 145.435C88.1341 145.177 88.1525 145.042 88.1525 145.042C88.1525 145.042 88.1648 145.177 88.1709 145.435C88.1709 145.706 88.1771 146.093 88.1894 146.591C88.1955 147.617 88.2078 149.117 88.2201 151.035C88.2201 152 88.2263 153.076 88.2324 154.25C88.2324 154.545 88.2201 154.846 88.2754 155.135C88.3246 155.424 88.4353 155.713 88.6012 155.977C88.927 156.5 89.4802 156.912 90.1256 157.047C90.4453 157.121 90.7895 157.09 91.1522 157.096C91.5087 157.096 91.8652 157.096 92.234 157.096C92.9655 157.096 93.7216 157.096 94.5022 157.096C96.0574 157.096 97.6986 157.09 99.4259 157.084C106.335 157.071 114.553 157.059 123.682 157.047C128.249 157.047 133.037 157.047 138.004 157.035C139.245 157.035 140.499 157.035 141.759 157.035C142.393 157.035 143.026 157.035 143.665 157.035H144.624C144.937 157.035 145.226 157.004 145.515 156.905C146.081 156.709 146.566 156.278 146.825 155.731C146.954 155.461 147.034 155.16 147.046 154.859C147.058 154.551 147.046 154.213 147.052 153.893C147.052 152.59 147.052 151.281 147.052 149.966V149.375L147.095 149.326C149.228 147.046 151.324 144.802 153.309 142.675L153.426 142.94C134.605 142.86 117.94 142.786 105.972 142.737C99.9975 142.7 95.1968 142.663 91.8775 142.645C91.0538 142.663 90.3039 142.546 89.72 142.804C89.136 143.038 88.7487 143.444 88.5336 143.806C88.3062 144.169 88.2324 144.501 88.2017 144.716C88.1709 144.931 88.1709 145.048 88.1586 145.048L88.1525 145.03Z" fill="#455A64"/>
<path d="M141.581 148.755L95.621 148.546L95.6271 147.132L141.587 147.347L141.581 148.755Z" fill="#455A64"/>
<path d="M122.94 151.798L122.933 153.212L141.583 153.303L141.59 151.889L122.94 151.798Z" fill="#455A64"/>
<path d="M147.956 170.244V179.926C147.956 181.284 146.855 182.384 145.497 182.384H91.3673C90.0088 182.384 88.9085 181.284 88.9085 179.926V174.633L82.694 167.982L145.491 167.779C146.855 167.779 147.962 168.88 147.962 170.238L147.956 170.244Z" fill="#E4289B"/>
<path d="M94.5207 173.969L140.481 173.76L140.475 172.346L94.5145 172.555L94.5207 173.969Z" fill="white"/>
<path d="M94.5207 178.518L140.481 178.303L140.475 176.895L94.5145 177.104L94.5207 178.518Z" fill="white"/>
<path d="M222.032 54.1848C226.014 54.1848 229.242 50.9567 229.242 46.9745C229.242 42.9924 226.014 39.7642 222.032 39.7642C218.05 39.7642 214.821 42.9924 214.821 46.9745C214.821 50.9567 218.05 54.1848 222.032 54.1848Z" fill="#E4289B"/>
<path opacity="0.5" d="M222.032 54.1848C226.014 54.1848 229.242 50.9567 229.242 46.9745C229.242 42.9924 226.014 39.7642 222.032 39.7642C218.05 39.7642 214.821 42.9924 214.821 46.9745C214.821 50.9567 218.05 54.1848 222.032 54.1848Z" fill="white"/>
<path d="M219.641 44.9092C219.911 44.8907 220.157 45.1981 220.181 45.5915C220.206 45.9849 220.003 46.323 219.733 46.3353C219.456 46.3537 219.216 46.0463 219.192 45.6529C219.167 45.2595 219.37 44.9215 219.641 44.9092Z" fill="#263238"/>
<path d="M220.311 43.0958C220.292 43.2003 219.708 43.1696 219.044 43.4031C218.38 43.6244 217.938 44.0117 217.858 43.9441C217.778 43.8887 218.159 43.3232 218.921 43.0651C219.684 42.8007 220.335 43.0097 220.304 43.1019L220.311 43.0958Z" fill="#263238"/>
<path d="M225.535 46.034C225.456 46.0955 225.068 45.6836 224.447 45.616C223.827 45.5484 223.359 45.8681 223.298 45.7943C223.267 45.7574 223.341 45.6222 223.55 45.4808C223.753 45.3394 224.097 45.2165 224.484 45.2595C224.872 45.3025 225.185 45.4931 225.351 45.6775C225.523 45.8558 225.566 46.0094 225.529 46.0402L225.535 46.034Z" fill="#263238"/>
<path d="M226.156 44.8293C226.101 44.9215 225.517 44.6141 224.736 44.5895C223.956 44.5527 223.347 44.8108 223.304 44.7186C223.243 44.6449 223.857 44.19 224.755 44.233C225.652 44.2638 226.224 44.7678 226.162 44.8354L226.156 44.8293Z" fill="#263238"/>
<path d="M225.646 46.8331C225.677 46.8331 225.689 47.4294 225.197 48.2162C224.73 48.9846 223.648 49.9127 222.185 49.9742C220.722 50.0049 219.585 49.1444 219.069 48.4067C218.528 47.6507 218.497 47.0483 218.528 47.0544C218.589 47.0298 218.712 47.5892 219.266 48.2531C219.794 48.9046 220.864 49.6484 222.167 49.6177C223.47 49.5685 224.49 48.7633 224.976 48.0748C225.486 47.3802 225.572 46.8147 225.64 46.8331H225.646Z" fill="#263238"/>
<path d="M20.2724 174.516C20.1126 180.116 15.4471 184.523 9.84731 184.364C4.2475 184.204 -0.159818 179.538 1.26986e-06 173.938C0.15982 168.339 4.82531 163.931 10.4251 164.091C16.0249 164.251 20.4323 168.916 20.2724 174.516Z" fill="#E4289B"/>
<path opacity="0.5" d="M20.2724 174.516C20.1126 180.116 15.4471 184.523 9.84731 184.364C4.2475 184.204 -0.159818 179.538 1.26986e-06 173.938C0.15982 168.339 4.82531 163.931 10.4251 164.091C16.0249 164.251 20.4323 168.916 20.2724 174.516Z" fill="white"/>
<path d="M8.13845 171.418C7.78808 170.908 7.07504 170.859 6.58329 171.197C6.09154 171.535 5.85181 171.941 5.73502 172.574C5.65511 171.935 5.40309 171.51 4.92363 171.148C4.45032 170.785 3.72499 170.791 3.34388 171.283C3.12259 171.566 3.04268 171.971 3.07956 172.346C3.11644 172.721 3.21479 173.115 3.43608 173.398C4.22288 174.412 4.65931 174.602 5.68584 175.334C6.74311 174.658 7.08119 174.492 7.91716 173.527C8.15074 173.256 8.26754 172.869 8.329 172.5C8.39047 172.125 8.329 171.719 8.1323 171.424L8.13845 171.418Z" fill="#E4289B"/>
<path d="M17.0883 171.67C16.738 171.16 16.0249 171.111 15.5332 171.449C15.0414 171.781 14.8017 172.193 14.6849 172.826C14.605 172.187 14.353 171.762 13.8735 171.4C13.4002 171.037 12.6749 171.043 12.2938 171.535C12.0725 171.818 11.9926 172.223 12.0295 172.598C12.0663 172.973 12.1647 173.367 12.386 173.65C13.1728 174.664 13.6092 174.854 14.6357 175.586C15.693 174.91 16.0311 174.744 16.8671 173.779C17.1006 173.508 17.2174 173.121 17.2789 172.752C17.3404 172.377 17.285 171.971 17.0822 171.676L17.0883 171.67Z" fill="#E4289B"/>
<path d="M13.4248 176.705C13.222 178.358 11.6176 179.71 9.95183 179.637C8.28602 179.563 6.81077 178.069 6.7616 176.403L13.4248 176.705Z" fill="white"/>
<path d="M48.5727 175.69C48.7509 174.651 48.3575 170.853 48.3575 170.853C48.3575 170.853 44.3744 170.429 44.1346 166.482C43.8949 162.536 44.1346 153.426 44.1346 153.426L51.3879 149.88L59.3666 155.922L58.1557 175.666L48.5727 175.684V175.69Z" fill="#B78876"/>
<path d="M45.2288 160.028C45.2288 160.305 45.4562 160.532 45.7328 160.532C46.0094 160.532 46.2368 160.305 46.2368 160.028C46.2368 159.751 46.0094 159.524 45.7328 159.524C45.4562 159.524 45.2288 159.751 45.2288 160.028Z" fill="#263238"/>
<path d="M44.4911 159.665C44.5588 159.733 44.9276 159.413 45.4746 159.383C46.0156 159.346 46.4274 159.616 46.4827 159.542C46.5135 159.512 46.4459 159.389 46.2614 159.266C46.0832 159.143 45.7881 159.032 45.4501 159.051C45.112 159.069 44.8292 159.217 44.6694 159.358C44.5096 159.499 44.4543 159.628 44.485 159.659L44.4911 159.665Z" fill="#263238"/>
<path d="M51.6154 160.44C51.8937 160.44 52.1194 160.214 52.1194 159.936C52.1194 159.657 51.8937 159.432 51.6154 159.432C51.337 159.432 51.1113 159.657 51.1113 159.936C51.1113 160.214 51.337 160.44 51.6154 160.44Z" fill="#263238"/>
<path d="M50.3676 159.567C50.4352 159.635 50.804 159.315 51.3511 159.284C51.892 159.247 52.3039 159.518 52.3592 159.444C52.3899 159.413 52.3223 159.29 52.1379 159.167C51.9597 159.045 51.6646 158.934 51.3265 158.952C50.9884 158.971 50.7057 159.118 50.5459 159.26C50.3861 159.401 50.3307 159.53 50.3615 159.561L50.3676 159.567Z" fill="#263238"/>
<path d="M48.4989 164.11C48.4989 164.11 48.1609 164.036 47.6076 163.999C47.4663 163.993 47.331 163.968 47.3064 163.87C47.2696 163.765 47.3249 163.606 47.3864 163.433C47.5031 163.077 47.6261 162.702 47.7613 162.302C48.2776 160.698 48.6526 159.383 48.5911 159.364C48.5297 159.346 48.0625 160.63 47.5462 162.235C47.4232 162.628 47.3003 163.009 47.1897 163.366C47.1405 163.532 47.0606 163.722 47.1343 163.937C47.1774 164.042 47.2757 164.116 47.3679 164.134C47.4601 164.159 47.5339 164.153 47.6015 164.153C48.1547 164.153 48.4989 164.14 48.4989 164.11Z" fill="#263238"/>
<path d="M50.3 164.626C50.0295 164.78 48.7387 165.548 47.6691 165.529C47.6691 165.529 48.3514 166.513 49.4763 166.04C50.6381 165.548 50.3061 164.62 50.3061 164.62L50.3 164.626Z" fill="white"/>
<path d="M48.3514 170.853C48.3514 170.853 51.013 170.883 53.5824 169.082C53.5824 169.082 52.396 171.984 48.4374 171.818L48.3514 170.847V170.853Z" fill="#A36957"/>
<path d="M64.6099 158.848C64.6099 158.848 66.2142 167.951 58.5245 169.599L58.7519 158.627L64.6037 158.848H64.6099Z" fill="#263238"/>
<path d="M64.3579 156.832C63.7678 154.563 62.815 152.824 61.7209 151.49C62.8335 151.951 63.5895 152.418 63.7248 152.265C63.7985 152.172 63.5895 151.84 63.1162 151.435C62.6429 151.029 61.8991 150.568 60.9894 150.273C60.8665 150.23 60.7497 150.205 60.6267 150.175C61.1308 149.966 61.5979 149.677 61.9913 149.296C62.9134 148.392 63.3252 146.917 62.7597 145.761C62.2495 144.728 61.0263 144.132 59.883 144.255C58.7396 144.378 57.7131 145.146 57.1537 146.155C57.0185 146.4 56.914 146.652 56.828 146.917C56.8464 146.523 56.8833 146.087 56.9632 145.614C57.2091 144.095 57.7746 142.952 57.6824 142.909C57.6148 142.86 56.8894 143.972 56.6313 145.558C56.6067 145.706 56.5944 145.847 56.5759 145.989C56.4407 145.552 56.287 145.165 56.1334 144.839C55.7522 144.046 55.4019 143.622 55.2974 143.671C55.0822 143.782 55.783 145.441 56.0719 147.691C55.1007 147.39 54.32 147.298 53.9328 147.298C52.5927 147.298 50.3676 146.652 47.2142 149.21C46.2737 149.818 45.2964 150.672 44.5096 151.81C43.2802 153.592 42.8499 155.572 42.8192 156.961C42.8008 157.662 42.8561 158.227 42.9237 158.614C42.9913 159.002 43.0528 159.204 43.0774 159.204C43.1388 159.198 42.9606 158.35 43.0528 156.979C43.1081 156.143 43.3048 155.092 43.7228 154.01C42.936 156.758 44.024 158.971 44.024 158.971L51.0622 157.87C50.6073 156.328 50.9392 153.881 51.1544 152.683C52.396 158.43 57.332 161.19 57.332 161.19L64.739 160.022C64.6406 159.352 64.5177 157.428 64.364 156.832H64.3579Z" fill="#263238"/>
<path d="M81.3909 244.867C81.6184 244.978 99.7763 248.537 99.1063 246.127C98.4362 243.718 81.5569 239.808 81.5569 239.808L81.3971 244.867H81.3909Z" fill="#E4289B"/>
<path d="M89.6523 243.263C89.7384 243.251 89.8613 243.687 89.8613 244.234C89.8613 244.781 89.7261 245.212 89.64 245.199C89.554 245.187 89.5355 244.757 89.5417 244.228C89.5417 243.706 89.5663 243.269 89.6523 243.263Z" fill="#263238"/>
<path d="M88.6811 242.931C88.7672 242.913 88.9208 243.423 88.8655 244.056C88.8102 244.695 88.5705 245.162 88.4906 245.132C88.4045 245.101 88.4906 244.622 88.5459 244.025C88.6012 243.435 88.5951 242.937 88.6811 242.925V242.931Z" fill="#263238"/>
<path d="M87.5071 242.833C87.5931 242.827 87.7161 243.312 87.7284 243.927C87.7407 244.542 87.6362 245.04 87.5501 245.033C87.464 245.033 87.421 244.535 87.4087 243.933C87.3964 243.331 87.421 242.839 87.5071 242.833Z" fill="#263238"/>
<path d="M85.2758 241.056C85.2758 241.056 85.3741 241.056 85.5585 241.093C85.7429 241.124 86.0134 241.179 86.3576 241.259C87.0522 241.413 88.048 241.646 89.2774 241.984C90.5006 242.316 91.9513 242.753 93.5433 243.288C94.3363 243.564 95.1723 243.835 96.0205 244.197C96.8626 244.56 97.7293 245.027 98.4424 245.722C98.5284 245.808 98.6329 245.888 98.7067 246.054C98.7989 246.22 98.7067 246.478 98.553 246.564C98.2703 246.742 98.0121 246.711 97.7847 246.736C97.3114 246.773 96.8442 246.791 96.3893 246.804C95.4734 246.822 94.5883 246.791 93.7462 246.736C92.0681 246.631 90.5682 246.416 89.3143 246.22C88.0603 246.017 87.0522 245.826 86.3576 245.685C86.0441 245.617 85.7798 245.562 85.5585 245.513C85.3741 245.47 85.2819 245.445 85.2819 245.433C85.2819 245.408 85.6753 245.457 86.3761 245.562C87.126 245.673 88.1279 245.814 89.345 245.992C90.599 246.158 92.0927 246.349 93.7646 246.435C94.6006 246.478 95.4734 246.502 96.3832 246.478C96.8381 246.466 97.2991 246.447 97.7662 246.41C97.9998 246.392 98.2457 246.392 98.3748 246.3C98.4301 246.257 98.4362 246.232 98.4178 246.177C98.3932 246.115 98.3133 246.035 98.2273 245.955C97.5511 245.298 96.7274 244.849 95.9037 244.486C95.0739 244.13 94.2441 243.847 93.4573 243.564C91.8775 243.011 90.4391 242.562 89.2282 242.2C88.0173 241.837 87.0276 241.566 86.3453 241.376C85.663 241.185 85.2819 241.081 85.2881 241.056H85.2758Z" fill="#263238"/>
<path d="M94.9387 243.755C95.0309 243.786 94.8465 244.474 94.9141 245.322C94.9694 246.171 95.246 246.828 95.16 246.871C95.0924 246.92 94.6559 246.275 94.5945 245.347C94.5268 244.419 94.8649 243.718 94.9387 243.755Z" fill="#263238"/>
<path d="M21.3358 241.271C21.0838 241.241 2.75995 243.798 4.17989 245.863C5.59982 247.922 22.8357 246.109 22.8357 246.109L21.3358 241.271Z" fill="#E4289B"/>
<path d="M14.0579 245.482C13.978 245.519 13.7198 245.15 13.5477 244.634C13.3695 244.117 13.3572 243.663 13.4432 243.65C13.5293 243.632 13.683 244.038 13.8551 244.535C14.021 245.033 14.144 245.445 14.0641 245.488L14.0579 245.482Z" fill="#263238"/>
<path d="M15.0783 245.476C15.0045 245.519 14.691 245.089 14.5374 244.468C14.3776 243.847 14.4513 243.325 14.5374 243.325C14.6296 243.325 14.7033 243.81 14.8447 244.388C14.9861 244.966 15.1521 245.427 15.0721 245.47L15.0783 245.476Z" fill="#263238"/>
<path d="M16.2216 245.187C16.1417 245.224 15.8651 244.8 15.6561 244.222C15.441 243.644 15.3795 243.146 15.4655 243.122C15.5516 243.097 15.7483 243.552 15.9573 244.111C16.1601 244.677 16.3015 245.15 16.2216 245.187Z" fill="#263238"/>
<path d="M18.9078 246.14C18.9078 246.14 18.8156 246.171 18.6251 246.201C18.4407 246.232 18.1641 246.269 17.8137 246.306C17.1068 246.386 16.0864 246.49 14.8202 246.57C13.5539 246.65 12.0418 246.718 10.3637 246.73C9.52154 246.73 8.64254 246.742 7.7205 246.675C6.80462 246.607 5.83341 246.447 4.92982 246.023C4.81917 245.968 4.69624 245.931 4.5733 245.796C4.43192 245.666 4.43807 245.396 4.54871 245.267C4.75771 245.009 5.01587 244.953 5.21872 244.855C5.65515 244.665 6.09158 244.499 6.51571 244.339C7.37628 244.019 8.22455 243.761 9.03594 243.54C10.6587 243.091 12.1463 242.802 13.3941 242.581C14.6419 242.359 15.6623 242.212 16.363 242.12C16.6827 242.083 16.9531 242.046 17.1744 242.021C17.3588 242.003 17.4572 241.997 17.4633 242.009C17.4633 242.034 17.0822 242.114 16.3876 242.249C15.6377 242.39 14.648 242.581 13.4433 242.808C12.2016 243.06 10.7263 243.368 9.12199 243.829C8.3229 244.062 7.48078 244.32 6.63251 244.64C6.20837 244.8 5.77809 244.966 5.34781 245.156C5.13266 245.248 4.89908 245.328 4.81303 245.464C4.77615 245.525 4.77615 245.55 4.81303 245.593C4.85606 245.642 4.96055 245.691 5.0712 245.74C5.92561 246.14 6.85379 246.3 7.74509 246.367C8.64254 246.435 9.52769 246.429 10.3575 246.441C12.0295 246.447 13.5355 246.404 14.8017 246.355C16.068 246.3 17.0884 246.232 17.7952 246.189C18.5021 246.146 18.8955 246.121 18.8955 246.146L18.9078 246.14Z" fill="#263238"/>
<path d="M8.89453 246.736C8.80233 246.736 8.74701 246.029 8.40893 245.249C8.08314 244.462 7.60368 243.933 7.6713 243.865C7.72047 243.798 8.34131 244.265 8.70398 245.126C9.07279 245.98 8.98059 246.748 8.89453 246.742V246.736Z" fill="#263238"/>
<path d="M78.1823 219.026H68.8574L34.4472 219.917L24.6367 218.645C23.1 218.307 22.0981 218.165 21.7723 218.276C20.8195 218.589 19.5164 219.505 18.41 220.827C14.6603 225.308 17.0146 232.205 22.6574 233.729L27.9622 235.161L16.363 238.886L20.2786 250C20.2786 250 37.5882 246.257 54.3754 242.304L81.2434 249.57L85.116 237.098C85.116 237.098 83.4071 236.538 80.5611 235.616C83.4133 234.743 85.2266 234.055 85.4909 233.643C87.1752 231.018 90.1748 218.841 78.1823 219.032" fill="#455A64"/>
<path opacity="0.2" d="M80.3828 235.672L60.4178 243.939L54.3754 242.304L80.3828 235.672Z" fill="black"/>
<path opacity="0.2" d="M28.0114 219.96L53.5763 227.281L73.0373 220.643L28.0114 219.96Z" fill="black"/>
<path d="M24.3724 249.189C24.3355 249.207 24.0159 248.592 23.561 247.578C23.1061 246.564 22.516 245.144 21.9321 243.552C21.3481 241.96 20.8871 240.491 20.5798 239.421C20.2724 238.352 20.1249 237.682 20.1679 237.669C20.2109 237.657 20.4384 238.309 20.7949 239.354C21.1514 240.405 21.6493 241.855 22.2271 243.441C22.8049 245.033 23.3581 246.459 23.7638 247.492C24.1634 248.525 24.4093 249.17 24.3662 249.189H24.3724Z" fill="#263238"/>
<path d="M85.9888 223.169C85.9888 223.169 85.9334 223.2 85.829 223.243C85.706 223.292 85.5462 223.347 85.3495 223.421C84.9008 223.575 84.2861 223.796 83.4993 224.072C81.8642 224.626 79.5345 225.419 76.6639 226.39C70.8859 228.32 62.8826 230.932 54.0127 233.717C45.1366 236.501 37.078 238.929 31.2323 240.651C28.3248 241.493 25.9583 242.175 24.2986 242.654C23.4934 242.876 22.8603 243.054 22.4054 243.177C22.2025 243.232 22.0427 243.275 21.9136 243.306C21.803 243.331 21.7415 243.343 21.7415 243.337C21.7415 243.337 21.7968 243.312 21.9013 243.269C22.0304 243.226 22.1902 243.177 22.3869 243.109C22.8357 242.968 23.4626 242.777 24.2617 242.525C25.9153 242.021 28.2695 241.308 31.1647 240.423C36.9919 238.653 45.0444 236.188 53.9143 233.403C62.7843 230.619 70.7937 228.043 76.5963 226.162C79.4792 225.228 81.8212 224.472 83.4624 223.943C84.2553 223.691 84.8823 223.495 85.3311 223.353C85.5339 223.292 85.6937 223.243 85.8228 223.206C85.9334 223.175 85.9888 223.163 85.9949 223.169H85.9888Z" fill="#263238"/>
<path d="M67.3822 222.72C67.3822 222.72 67.2531 222.788 66.9888 222.886C66.6937 222.991 66.3188 223.132 65.8455 223.304C64.8497 223.661 63.399 224.165 61.6041 224.773C58.0143 225.99 53.0415 227.625 47.54 229.39C42.0324 231.154 37.035 232.709 33.4084 233.803C31.595 234.35 30.1259 234.78 29.1055 235.069C28.6199 235.204 28.2265 235.309 27.9315 235.395C27.661 235.469 27.5196 235.5 27.5135 235.487C27.5135 235.475 27.6487 235.426 27.913 235.334C28.2081 235.235 28.5953 235.112 29.0748 234.952C30.1198 234.621 31.5704 234.153 33.3469 233.588C36.9858 232.426 41.9587 230.84 47.4478 229.088C52.937 227.324 57.9037 225.732 61.5365 224.564C63.313 223.993 64.7636 223.532 65.8086 223.193C66.288 223.046 66.6753 222.923 66.9703 222.831C67.2408 222.751 67.3822 222.714 67.3822 222.726V222.72Z" fill="#263238"/>
<path d="M53.441 227.238C53.4164 227.324 47.706 225.763 40.6801 223.753C33.6542 221.743 27.9806 220.046 28.0052 219.96C28.0298 219.874 33.7402 221.435 40.7661 223.445C47.7859 225.456 53.4595 227.152 53.4349 227.238H53.441Z" fill="#263238"/>
<path d="M81.3602 236.262C81.4401 236.292 80.4566 239.028 79.1596 242.372C77.8626 245.716 76.7439 248.402 76.6578 248.365C76.5779 248.334 77.5614 245.599 78.8584 242.255C80.1554 238.911 81.2741 236.225 81.3602 236.262Z" fill="#263238"/>
<path d="M78.9629 241.413C78.9383 241.499 76.6886 240.97 73.9409 240.239C71.1871 239.507 68.9742 238.843 68.9988 238.757C69.0234 238.671 71.2731 239.2 74.0208 239.931C76.7746 240.663 78.9875 241.327 78.9629 241.413Z" fill="#263238"/>
<path d="M40.7292 231.221C40.7292 231.221 40.385 231.172 39.7765 231.031C39.1126 230.865 38.252 230.656 37.2071 230.398C35.0434 229.844 32.0498 229.094 28.7858 228.111C25.5157 227.134 22.6205 226.033 20.5797 225.105C19.5594 224.638 18.7541 224.232 18.2009 223.931C17.6538 223.63 17.3526 223.452 17.3649 223.433C17.3772 223.415 17.6907 223.55 18.2562 223.82C18.8217 224.085 19.6393 224.46 20.6658 224.896C22.7189 225.769 25.6079 226.826 28.8719 227.804C32.1297 228.787 35.111 229.568 37.2624 230.176C38.2951 230.471 39.1495 230.717 39.8072 230.908C40.4035 231.086 40.7354 231.197 40.7292 231.215V231.221Z" fill="#263238"/>
<path d="M59.6187 175.143L58.8442 175.156L58.7335 172.537L48.3514 173.17C48.3514 173.17 48.4559 174.412 48.4498 175.254C42.0632 175.887 31.8102 179.151 31.5704 193.541L39.7704 193.725C39.0696 200.327 39.1803 204.267 38.4857 206.751C37.3424 210.844 33.7157 219.481 34.4472 219.917C35.1787 220.354 68.8206 220.981 70.4249 220.102C72.0292 219.229 69.1095 207.955 68.378 204.888C67.9108 202.939 67.8186 198.458 67.8063 194.998L77.2234 194.58C77.2234 194.58 77.8934 175.094 59.6248 175.143H59.6187Z" fill="#E4289B"/>
<path d="M58.8073 175.039C58.8073 175.082 58.2295 175.192 57.2828 175.297C56.3362 175.408 55.0208 175.506 53.564 175.537C52.1072 175.567 50.7856 175.518 49.8328 175.451C48.88 175.383 48.2961 175.297 48.2961 175.254C48.2961 175.211 48.8862 175.211 49.839 175.223C50.7917 175.235 52.101 175.248 53.5517 175.217C55.0023 175.186 56.3116 175.119 57.2582 175.069C58.2049 175.02 58.795 174.99 58.8011 175.033L58.8073 175.039Z" fill="#263238"/>
<path d="M50.2323 173.053C50.3184 173.053 50.3922 173.557 50.3922 174.184C50.3922 174.811 50.3184 175.315 50.2323 175.315C50.1463 175.315 50.0725 174.811 50.0725 174.184C50.0725 173.557 50.1463 173.053 50.2323 173.053Z" fill="#263238"/>
<path d="M53.0046 172.857C53.0906 172.857 53.1767 173.41 53.1951 174.098C53.2136 174.787 53.1582 175.346 53.066 175.346C52.98 175.346 52.8939 174.793 52.8755 174.104C52.857 173.416 52.9124 172.857 53.0046 172.857Z" fill="#263238"/>
<path d="M55.869 172.758C55.9551 172.752 56.078 173.305 56.0965 174C56.1149 174.695 56.0104 175.254 55.9243 175.248C55.8321 175.248 55.7891 174.688 55.7768 174.006C55.7645 173.324 55.783 172.771 55.869 172.758Z" fill="#263238"/>
<path d="M57.9467 172.66C58.0389 172.66 58.1004 173.201 58.1864 173.859C58.2664 174.516 58.3401 175.057 58.2541 175.082C58.168 175.106 57.9529 174.584 57.873 173.902C57.7869 173.219 57.8607 172.66 57.9467 172.66Z" fill="#263238"/>
<path d="M41.0797 193.547C40.9936 193.547 40.9075 192.164 40.8953 190.455C40.883 188.746 40.9383 187.363 41.0305 187.363C41.1165 187.363 41.2026 188.746 41.2149 190.455C41.2272 192.164 41.1719 193.547 41.0797 193.547Z" fill="#263238"/>
<path d="M67.4805 194.574C67.3944 194.58 67.1977 193.092 67.0379 191.254C66.8842 189.41 66.8289 187.91 66.915 187.904C67.001 187.898 67.1977 189.386 67.3576 191.224C67.5112 193.068 67.5666 194.561 67.4805 194.574Z" fill="#263238"/>
<path d="M41.0796 193.547C41.0796 193.59 40.5387 193.596 39.672 193.59C38.6824 193.584 37.539 193.572 36.2789 193.565C35.0188 193.565 33.8816 193.578 32.8858 193.584C32.0191 193.584 31.4782 193.584 31.4782 193.535C31.4782 193.492 32.013 193.418 32.8797 193.356C33.7464 193.295 34.9512 193.246 36.2789 193.246C37.6067 193.246 38.8114 193.301 39.6782 193.363C40.5449 193.43 41.0796 193.504 41.0796 193.547Z" fill="#263238"/>
<path d="M77.2233 194.574C77.2233 194.66 74.9797 194.733 72.2075 194.733C69.4352 194.733 67.1916 194.66 67.1916 194.574C67.1916 194.487 69.4352 194.414 72.2075 194.414C74.9797 194.414 77.2233 194.487 77.2233 194.574Z" fill="#263238"/>
<path d="M76.8054 194.653C76.8054 194.653 79.258 217.6 72.2321 219.856C65.2062 222.112 51.3204 211.422 51.3204 211.422L55.3158 203.333C55.3158 203.333 64.5608 209.738 66.5278 208.293C68.4948 206.849 67.4744 194.647 67.4744 194.647H76.7992L76.8054 194.653Z" fill="#B78876"/>
<path d="M31.6995 193.547C31.6995 193.547 29.1977 216.266 36.2236 218.522C43.2495 220.778 57.1353 210.088 57.1353 210.088L53.1398 201.999C53.1398 201.999 43.8642 207.925 41.9402 206.425C40.8276 205.558 40.7969 193.658 40.7969 193.658C37.5144 193.516 34.484 193.375 31.7056 193.541L31.6995 193.547Z" fill="#B78876"/>
<path d="M72.4349 198.28L67.7694 221.147C67.7694 221.147 39.1003 220.925 38.7991 220.839C38.5041 220.753 35.738 198.286 35.738 198.286H72.4349V198.28Z" fill="#263238"/>
<path d="M51.8428 209.861C51.8428 210.746 52.6112 211.465 53.5578 211.465C54.5044 211.465 55.2789 210.746 55.2789 209.861C55.2789 208.976 54.5106 208.257 53.5578 208.257C52.605 208.257 51.8428 208.976 51.8428 209.861Z" fill="white"/>
<path d="M57.8606 159.696C58.1803 159.383 59.2375 159.327 59.6064 159.585C59.9752 159.844 60.1719 160.286 60.2579 160.729C60.3993 161.46 60.2579 162.272 59.7354 162.813C59.213 163.354 58.3155 163.519 57.707 163.089" fill="#B78876"/>
<path d="M58.6044 162.468C58.6044 162.419 58.795 162.388 59.0286 162.216C59.2621 162.05 59.4957 161.718 59.4527 161.294C59.422 160.87 59.1208 160.587 58.8626 160.471C58.6044 160.348 58.4077 160.348 58.4016 160.299C58.3893 160.262 58.5983 160.157 58.9425 160.249C59.2744 160.317 59.7416 160.692 59.7785 161.264C59.8461 161.835 59.4527 162.29 59.1392 162.419C58.8196 162.567 58.5921 162.505 58.5983 162.468H58.6044Z" fill="#A36957"/>
<path d="M199.995 239.323L198.796 232.826L187.142 234.891L188.838 244.621L189.57 244.542C192.822 244.16 206.019 242.138 208.048 241.075C210.31 239.888 199.995 239.317 199.995 239.317V239.323Z" fill="#E4289B"/>
<path d="M208.213 240.435C208.232 240.546 203.898 241.437 198.526 242.427C193.154 243.417 188.789 244.13 188.765 244.019C188.746 243.908 193.08 243.017 198.452 242.027C203.818 241.038 208.189 240.325 208.213 240.435Z" fill="#263238"/>
<path d="M200.444 240.614C200.339 240.583 200.358 240.22 200.548 239.839C200.733 239.452 201.003 239.218 201.095 239.28C201.188 239.341 201.083 239.661 200.911 240.017C200.739 240.374 200.554 240.651 200.45 240.62L200.444 240.614Z" fill="#263238"/>
<path d="M201.267 240.903C201.157 240.884 201.138 240.491 201.292 240.042C201.446 239.593 201.704 239.298 201.802 239.347C201.901 239.397 201.815 239.759 201.673 240.171C201.532 240.589 201.378 240.921 201.267 240.903Z" fill="#263238"/>
<path d="M192.268 243.331C192.232 243.374 192.023 243.232 191.721 242.993C191.414 242.753 191.008 242.415 190.51 242.157C190.019 241.898 189.509 241.818 189.152 241.837C188.789 241.855 188.568 241.954 188.537 241.898C188.507 241.862 188.697 241.659 189.109 241.554C189.515 241.45 190.129 241.499 190.695 241.794C191.254 242.089 191.654 242.488 191.918 242.777C192.176 243.072 192.312 243.281 192.268 243.324V243.331Z" fill="#263238"/>
<path d="M200.259 239.384C200.333 239.464 200.173 239.729 199.866 239.913C199.559 240.097 199.251 240.11 199.214 240.005C199.178 239.901 199.393 239.729 199.663 239.569C199.934 239.409 200.186 239.304 200.259 239.39V239.384Z" fill="#263238"/>
<path d="M199.958 238.788C199.989 238.893 199.694 239.046 199.307 239.12C198.913 239.2 198.587 239.169 198.575 239.059C198.563 238.948 198.858 238.8 199.227 238.727C199.602 238.653 199.927 238.677 199.958 238.788Z" fill="#263238"/>
<path d="M214.016 170.693C210.402 163.409 191.07 135.231 191.07 135.231L180.749 136.307L180.737 136.246L169.187 137.512L162.819 138.213L185.876 238.917L201.821 238.628L197.985 219.997C200.641 213.389 216.02 174.719 214.022 170.687L214.016 170.693ZM197.567 175.039L191.869 190.338L185.409 158.971L197.567 175.039Z" fill="#263238"/>
<path d="M184.769 88.718C184.622 87.6669 185.187 83.2964 185.187 83.2964C185.187 83.2964 189.201 83.0014 189.576 79.0428C189.945 75.0781 190 65.9192 190 65.9192L182.827 62.1204L174.615 67.9415L172.488 73.4737L175.285 80.3459L175.199 82.6203L175.186 87.8267L184.775 88.7241L184.769 88.718Z" fill="#FFBE9D"/>
<path d="M189.459 72.5578C189.453 72.8406 189.213 73.0557 188.937 73.0496C188.654 73.0434 188.439 72.8037 188.445 72.5271C188.451 72.2443 188.691 72.0292 188.968 72.0353C189.25 72.0415 189.465 72.2812 189.459 72.5578Z" fill="#263238"/>
<path d="M189.496 72.023C189.429 72.0845 189.066 71.7526 188.519 71.7096C187.972 71.6542 187.554 71.9124 187.498 71.8386C187.474 71.8079 187.541 71.685 187.726 71.5682C187.904 71.4514 188.205 71.3469 188.55 71.3776C188.888 71.4084 189.164 71.5682 189.324 71.7157C189.484 71.8632 189.533 71.9923 189.496 72.023Z" fill="#263238"/>
<path d="M183.042 71.937C183.269 72.103 183.319 72.4226 183.153 72.65C182.987 72.8775 182.667 72.9266 182.44 72.7607C182.212 72.5947 182.163 72.2751 182.329 72.0476C182.495 71.8202 182.815 71.771 183.042 71.937Z" fill="#263238"/>
<path d="M183.435 71.8325C183.368 71.894 183.005 71.562 182.458 71.519C181.911 71.4637 181.493 71.7219 181.438 71.6481C181.413 71.6174 181.481 71.4944 181.665 71.3776C181.843 71.2608 182.145 71.1563 182.489 71.1871C182.827 71.2178 183.103 71.3776 183.263 71.5252C183.423 71.6727 183.472 71.8018 183.435 71.8325Z" fill="#263238"/>
<path d="M185.261 76.5164C185.261 76.5164 185.605 76.4549 186.158 76.4303C186.3 76.4303 186.435 76.4119 186.466 76.3074C186.509 76.2029 186.46 76.0369 186.404 75.8648C186.3 75.5022 186.183 75.121 186.066 74.7215C185.599 73.0926 185.267 71.7587 185.323 71.7403C185.353 71.7341 185.476 72.0538 185.648 72.5824C185.82 73.111 186.048 73.8425 186.281 74.66C186.392 75.0596 186.503 75.4468 186.601 75.8095C186.644 75.9816 186.718 76.1722 186.638 76.3812C186.595 76.4857 186.49 76.5533 186.398 76.5717C186.306 76.5902 186.226 76.584 186.158 76.584C185.605 76.5656 185.261 76.541 185.261 76.5102V76.5164Z" fill="#263238"/>
<path d="M183.435 76.9713C182.895 76.584 184.935 77.9302 186.048 77.9671C186.048 77.9671 185.329 78.9321 184.216 78.4219C183.067 77.8933 183.429 76.9713 183.429 76.9713H183.435Z" fill="white"/>
<path d="M185.187 83.2964C185.187 83.2964 182.513 83.2411 179.987 81.354C179.987 81.354 181.087 84.3045 185.07 84.2676L185.187 83.2964Z" fill="#EB996E"/>
<path d="M175.746 74.574C175.746 74.574 175.69 74.617 175.592 74.6724C175.5 74.7215 175.334 74.7646 175.149 74.7092C174.787 74.5986 174.449 74.0515 174.393 73.443C174.369 73.1356 174.412 72.8406 174.51 72.5886C174.596 72.3365 174.75 72.1521 174.928 72.1091C175.106 72.0599 175.235 72.1583 175.285 72.2505C175.334 72.3427 175.322 72.4103 175.334 72.4164C175.346 72.4226 175.401 72.355 175.365 72.2197C175.346 72.1521 175.303 72.0784 175.217 72.0169C175.131 71.9554 175.008 71.9308 174.885 71.9493C174.627 71.9862 174.406 72.2382 174.301 72.5087C174.184 72.7853 174.123 73.1172 174.154 73.4614C174.215 74.1437 174.602 74.7584 175.1 74.8691C175.34 74.9182 175.537 74.8322 175.635 74.7461C175.733 74.6539 175.746 74.5802 175.733 74.574H175.746Z" fill="#EB996E"/>
<path d="M191.045 66.5769C190.805 66.6568 190.584 66.6937 190.381 66.706C191.119 66.3126 191.752 65.7102 192.146 64.9664C192.705 63.9276 192.779 62.5876 192.146 61.5979C191.506 60.6083 190.08 60.1411 189.066 60.7374C189.558 59.926 189.164 58.7888 188.384 58.254C187.603 57.7254 186.552 57.7192 185.654 58.0143C184.757 58.3093 183.97 58.8687 183.202 59.4158C183.116 58.7765 182.655 58.2294 182.083 57.9405C181.505 57.6516 180.835 57.6025 180.202 57.7008C178.358 57.9774 176.778 59.5326 176.471 61.3766C175.893 60.7804 175.002 60.5161 174.197 60.7005C173.391 60.8849 172.703 61.5119 172.445 62.2987C172.432 62.3294 172.432 62.354 172.42 62.3847C172.082 62.5261 171.756 62.7843 171.535 63.1531C171.203 63.6879 171.099 64.4378 171.344 65.1201C171.566 65.8085 172.088 66.331 172.562 66.663C172.789 66.8412 172.992 67.0133 173.121 67.21C173.25 67.4006 173.311 67.6034 173.336 67.8001C173.287 69.1279 172.605 70.3818 172.273 71.6911C171.818 73.4922 172.82 75.9632 173.398 77.7335C173.975 79.5038 174.178 80.2107 175.297 80.3336L175.475 75.5759C174.233 76.584 172.605 73.1172 173.68 71.7341C174.756 70.3511 175.899 70.8244 176.096 71.6973C176.225 72.2812 176.385 72.6869 176.385 72.6869H177.633L177.497 71.6419C177.497 71.6419 177.245 67.0256 179.452 66.7429C180.233 66.6445 180.411 66.7183 181.124 67.0564C181.831 67.3944 182.581 67.3944 183.368 67.3699C184.155 67.3453 185.212 66.4786 185.187 65.6918C186.072 66.7429 187.498 67.3207 188.869 67.1793C189.226 67.1424 189.576 67.0564 189.908 66.9273C190.228 67.0256 190.695 67.0502 191.168 66.8904C191.66 66.7244 192.035 66.4109 192.225 66.1343C192.422 65.8577 192.459 65.6487 192.422 65.6303C192.342 65.5811 191.949 66.288 191.064 66.5708L191.045 66.5769ZM172.727 66.4294C172.266 66.0729 171.842 65.6303 171.633 65.0156C171.418 64.4193 171.498 63.7801 171.775 63.3129C171.916 63.0609 172.113 62.8642 172.322 62.7228C172.113 64.1182 173.023 65.5319 173.262 66.9826C173.115 66.7736 172.924 66.5953 172.727 66.4294Z" fill="#E4289B"/>
<path d="M212.154 72.3488V80.266C212.154 82.0609 213.61 83.5177 215.405 83.5177H229.113V88.048L231.572 83.7205C233.084 83.6099 234.252 82.3498 234.252 80.8315V72.3488C234.252 70.5539 232.795 69.0971 231 69.0971H215.405C213.61 69.0971 212.154 70.5539 212.154 72.3488Z" fill="#E4289B"/>
<path d="M219.622 76.7316C219.622 77.4692 219.02 78.0716 218.282 78.0716C217.544 78.0716 216.942 77.4692 216.942 76.7316C216.942 75.9939 217.544 75.3915 218.282 75.3915C219.02 75.3915 219.622 75.9939 219.622 76.7316Z" fill="white"/>
<path d="M224.712 76.7316C224.712 77.4692 224.109 78.0716 223.372 78.0716C222.634 78.0716 222.032 77.4692 222.032 76.7316C222.032 75.9939 222.634 75.3915 223.372 75.3915C224.109 75.3915 224.712 75.9939 224.712 76.7316Z" fill="white"/>
<path d="M229.801 76.7316C229.801 77.4692 229.199 78.0716 228.461 78.0716C227.724 78.0716 227.121 77.4692 227.121 76.7316C227.121 75.9939 227.724 75.3915 228.461 75.3915C229.199 75.3915 229.801 75.9939 229.801 76.7316Z" fill="white"/>
<path d="M222.984 95.8976C222.714 95.2706 205.251 110.693 201.778 111.222L191.592 97.9629C191.592 97.9629 189.478 94.6067 184.941 88.8655C182.015 85.1589 173.932 85.9273 171.806 90.4453C168.197 98.1166 168.068 108.302 165.284 124.604L162.917 138.446C162.917 138.446 166.402 138.041 166.39 138.065L191.174 135.465L191.789 118.899C196.688 123.866 198.206 124.899 200.757 124.505C207.169 123.509 229.599 103.335 229.599 103.335C229.599 103.335 223.255 96.5245 222.984 95.8976Z" fill="#455A64"/>
<path d="M226.58 106.157C226.556 106.187 226.058 105.831 225.32 105.185C224.583 104.54 223.611 103.587 222.64 102.444C221.669 101.301 220.882 100.188 220.36 99.3582C219.837 98.5284 219.567 97.9813 219.598 97.9629C219.641 97.9383 219.979 98.4424 220.544 99.2353C221.11 100.028 221.915 101.11 222.88 102.241C223.845 103.372 224.779 104.343 225.474 105.026C226.169 105.714 226.605 106.126 226.574 106.163L226.58 106.157Z" fill="#263238"/>
<path d="M200.788 116.477C200.702 116.459 200.837 115.273 201.095 113.822C201.354 112.371 201.63 111.209 201.722 111.222C201.808 111.24 201.673 112.427 201.415 113.877C201.157 115.328 200.88 116.49 200.788 116.477Z" fill="#263238"/>
<path d="M203.007 115.93C202.921 115.955 202.571 114.934 202.226 113.656C201.882 112.377 201.667 111.32 201.753 111.295C201.839 111.271 202.19 112.291 202.534 113.57C202.878 114.848 203.093 115.906 203.007 115.93Z" fill="#263238"/>
<path opacity="0.2" d="M178.629 101.479L191.531 125.87L191.82 118.635L178.629 101.479Z" fill="black"/>
<path d="M177.793 100.293C177.793 100.293 178.02 100.545 178.389 101.03C178.788 101.565 179.305 102.26 179.926 103.096C181.223 104.841 183.036 107.232 185.07 109.845C187.093 112.439 188.925 114.781 190.295 116.539C190.928 117.369 191.457 118.051 191.863 118.58C192.225 119.065 192.422 119.342 192.404 119.354C192.385 119.366 192.158 119.12 191.764 118.653C191.34 118.143 190.787 117.473 190.117 116.674C188.74 114.996 186.853 112.654 184.812 110.035C182.778 107.417 180.989 105.001 179.741 103.218C179.114 102.327 178.616 101.602 178.284 101.092C177.952 100.581 177.774 100.299 177.793 100.28V100.293Z" fill="#263238"/>
<path d="M178.198 107.915C178.198 107.915 178.094 107.65 177.971 107.165C177.848 106.679 177.688 105.985 177.497 105.136L177.688 105.222C176.932 105.634 176.078 106.101 175.156 106.605L174.983 106.698L174.928 106.507C174.836 106.169 174.731 105.825 174.633 105.468C174.479 104.921 174.332 104.386 174.19 103.876L174.418 103.968C173.496 104.491 172.648 104.964 171.916 105.376L171.762 105.462L171.738 105.29C171.535 103.882 171.437 102.997 171.48 102.991C171.529 102.985 171.713 103.852 171.971 105.253L171.793 105.167C172.512 104.737 173.348 104.239 174.258 103.698L174.43 103.593L174.485 103.79C174.633 104.3 174.781 104.829 174.94 105.382C175.039 105.739 175.137 106.089 175.235 106.421L175.008 106.323C175.942 105.837 176.809 105.382 177.571 104.989L177.731 104.909L177.762 105.081C177.922 105.935 178.045 106.642 178.124 107.134C178.204 107.626 178.235 107.909 178.211 107.909L178.198 107.915Z" fill="#263238"/>
<path d="M181.229 94.1273C181.229 94.1273 180.97 94.0105 180.546 93.7462C180.122 93.4819 179.52 93.0946 178.794 92.6151L178.991 92.5475C178.733 93.3651 178.444 94.2994 178.131 95.3013L178.069 95.4919L177.897 95.3935C177.596 95.2214 177.282 95.037 176.963 94.8526C176.471 94.5637 175.992 94.2871 175.537 94.0166L175.764 93.9244C175.463 94.9387 175.186 95.8669 174.947 96.6721L174.897 96.8442L174.762 96.7397C173.637 95.8669 172.955 95.3013 172.98 95.2645C173.01 95.2276 173.742 95.7193 174.904 96.5492L174.719 96.6106C174.94 95.7992 175.192 94.8649 175.469 93.8445L175.524 93.654L175.703 93.7523C176.164 94.0166 176.643 94.2932 177.135 94.5821C177.454 94.7666 177.768 94.951 178.069 95.1292L177.842 95.2153C178.174 94.2195 178.481 93.2913 178.758 92.4738L178.813 92.3078L178.954 92.4062C179.661 92.9102 180.245 93.3282 180.639 93.6294C181.038 93.9306 181.253 94.1088 181.241 94.1334L181.229 94.1273Z" fill="#263238"/>
<path d="M190.283 98.8665C190.283 98.8665 190.056 98.6944 189.699 98.3502C189.343 97.9998 188.845 97.4896 188.236 96.8626L188.445 96.838C188.015 97.5818 187.529 98.4301 187.001 99.3398L186.902 99.5119L186.755 99.3767C186.497 99.1431 186.232 98.8911 185.962 98.6452C185.544 98.258 185.138 97.8769 184.751 97.5142L184.991 97.4773C184.474 98.3993 184.001 99.2476 183.589 99.9791L183.503 100.133L183.392 99.9975C182.489 98.8972 181.942 98.2026 181.979 98.1719C182.015 98.1412 182.624 98.7866 183.577 99.8439L183.38 99.8623C183.773 99.1185 184.222 98.2641 184.714 97.3236L184.806 97.1454L184.954 97.2806C185.341 97.6371 185.753 98.0121 186.171 98.3993C186.441 98.6514 186.706 98.8972 186.964 99.137L186.718 99.1738C187.259 98.2764 187.763 97.4343 188.212 96.7028L188.304 96.5491L188.421 96.6782C189.004 97.3236 189.478 97.8584 189.797 98.2395C190.123 98.6206 190.295 98.8419 190.271 98.8604L190.283 98.8665Z" fill="#E0E0E0"/>
<path d="M214.158 114.387C214.158 114.387 213.949 114.191 213.641 113.797C213.334 113.404 212.897 112.838 212.381 112.138H212.59C212.074 112.826 211.477 113.607 210.844 114.443L210.728 114.596L210.598 114.443C210.377 114.178 210.144 113.896 209.904 113.613C209.541 113.176 209.185 112.746 208.847 112.34H209.092C208.466 113.183 207.888 113.963 207.39 114.639L207.285 114.781L207.193 114.633C206.431 113.428 205.976 112.666 206.019 112.642C206.056 112.617 206.585 113.33 207.39 114.498H207.193C207.673 113.81 208.232 113.017 208.84 112.144L208.957 111.978L209.086 112.132C209.431 112.537 209.787 112.961 210.15 113.398C210.389 113.681 210.617 113.963 210.844 114.228H210.598C211.25 113.41 211.859 112.642 212.387 111.966L212.498 111.824L212.596 111.966C213.094 112.679 213.494 113.269 213.77 113.687C214.041 114.105 214.188 114.344 214.164 114.363L214.158 114.387Z" fill="#263238"/>
<path d="M199.38 113.146C199.38 113.146 199.135 113.004 198.741 112.697C198.348 112.39 197.788 111.941 197.118 111.394L197.321 111.345C196.983 112.131 196.596 113.029 196.184 114L196.104 114.178L195.944 114.062C195.662 113.859 195.367 113.644 195.071 113.428C194.61 113.09 194.168 112.765 193.738 112.451L193.971 112.384C193.565 113.361 193.197 114.258 192.877 115.033L192.809 115.199L192.686 115.082C191.66 114.098 191.033 113.465 191.07 113.435C191.101 113.398 191.783 113.969 192.852 114.91L192.662 114.953C192.963 114.172 193.313 113.269 193.695 112.279L193.768 112.095L193.934 112.211C194.365 112.525 194.813 112.845 195.274 113.183C195.576 113.404 195.864 113.619 196.147 113.822L195.907 113.883C196.344 112.924 196.743 112.033 197.1 111.252L197.174 111.093L197.303 111.209C197.954 111.781 198.489 112.261 198.852 112.599C199.214 112.937 199.411 113.14 199.399 113.158L199.38 113.146Z" fill="#E0E0E0"/>
<path d="M220.532 109.679C220.532 109.679 220.452 109.408 220.372 108.911C220.298 108.419 220.2 107.712 220.089 106.845L220.268 106.95C219.481 107.288 218.583 107.675 217.618 108.093L217.44 108.173L217.403 107.976C217.342 107.632 217.274 107.275 217.206 106.913C217.102 106.353 217.004 105.806 216.911 105.284L217.126 105.395C216.161 105.825 215.276 106.224 214.508 106.562L214.348 106.636V106.464C214.268 105.044 214.25 104.159 214.299 104.153C214.348 104.153 214.453 105.032 214.576 106.446L214.403 106.347C215.159 105.985 216.032 105.567 216.991 105.112L217.17 105.026L217.206 105.222C217.305 105.745 217.403 106.286 217.508 106.845C217.575 107.208 217.637 107.564 217.704 107.909L217.489 107.792C218.46 107.392 219.37 107.023 220.163 106.704L220.329 106.636L220.347 106.808C220.427 107.675 220.489 108.388 220.52 108.886C220.55 109.384 220.556 109.667 220.532 109.667V109.679Z" fill="#E0E0E0"/>
<path d="M191.058 103.12C191.058 103.12 190.83 103.292 190.4 103.538C189.97 103.784 189.336 104.128 188.574 104.54L188.611 104.337C189.207 104.952 189.89 105.653 190.621 106.409L190.756 106.55L190.59 106.655C190.295 106.839 189.982 107.023 189.668 107.22C189.183 107.515 188.709 107.804 188.255 108.075L188.285 107.829C189.035 108.579 189.717 109.267 190.314 109.857L190.437 109.98L190.277 110.048C188.974 110.619 188.15 110.951 188.132 110.908C188.113 110.865 188.9 110.453 190.179 109.826L190.148 110.023C189.539 109.445 188.838 108.775 188.07 108.044L187.923 107.909L188.095 107.804C188.55 107.527 189.017 107.239 189.502 106.937C189.822 106.747 190.129 106.556 190.424 106.378L190.394 106.624C189.674 105.855 189.004 105.142 188.421 104.515L188.298 104.386L188.451 104.313C189.232 103.932 189.877 103.618 190.332 103.415C190.787 103.206 191.045 103.102 191.058 103.126V103.12Z" fill="#263238"/>
<path d="M202.343 116.477C202.343 116.477 202.116 116.649 201.685 116.895C201.255 117.141 200.622 117.485 199.86 117.897L199.897 117.694C200.493 118.309 201.175 119.01 201.907 119.766L202.042 119.907L201.87 120.012C201.575 120.196 201.261 120.381 200.948 120.577C200.462 120.872 199.989 121.161 199.534 121.432L199.565 121.186C200.315 121.936 200.997 122.618 201.593 123.214L201.716 123.337L201.556 123.405C200.253 123.977 199.43 124.308 199.411 124.265C199.393 124.222 200.179 123.811 201.458 123.184L201.427 123.38C200.819 122.802 200.118 122.132 199.35 121.401L199.202 121.266L199.374 121.161C199.829 120.885 200.296 120.596 200.782 120.295C201.102 120.104 201.409 119.913 201.704 119.735L201.673 119.981C200.954 119.213 200.284 118.5 199.7 117.873L199.577 117.744L199.731 117.67C200.511 117.289 201.157 116.975 201.612 116.772C202.067 116.563 202.325 116.459 202.337 116.483L202.343 116.477Z" fill="#E0E0E0"/>
<path d="M179.938 116.299C179.938 116.299 179.833 116.035 179.71 115.549C179.587 115.064 179.428 114.369 179.237 113.521L179.428 113.607C178.672 114.019 177.817 114.486 176.895 114.99L176.723 115.082L176.668 114.891C176.569 114.553 176.471 114.209 176.373 113.853C176.219 113.306 176.071 112.771 175.93 112.261L176.157 112.353C175.235 112.875 174.387 113.349 173.662 113.76L173.508 113.846L173.484 113.674C173.281 112.267 173.182 111.382 173.225 111.375C173.275 111.369 173.459 112.236 173.717 113.637L173.539 113.551C174.258 113.121 175.094 112.623 176.004 112.082L176.176 111.978L176.231 112.174C176.379 112.685 176.526 113.213 176.686 113.767C176.784 114.123 176.883 114.473 176.975 114.805L176.748 114.707C177.682 114.221 178.549 113.767 179.311 113.373L179.464 113.293L179.495 113.465C179.655 114.32 179.778 115.027 179.858 115.518C179.938 116.01 179.969 116.293 179.944 116.293L179.938 116.299Z" fill="#E0E0E0"/>
<path d="M190.203 122.102C190.203 122.102 190.099 121.837 189.976 121.352C189.853 120.866 189.693 120.172 189.502 119.323L189.693 119.409C188.937 119.821 188.082 120.288 187.16 120.792L186.988 120.885L186.933 120.694C186.841 120.356 186.736 120.012 186.638 119.655C186.484 119.108 186.337 118.573 186.195 118.063L186.423 118.155C185.501 118.678 184.652 119.151 183.927 119.563L183.773 119.649L183.749 119.477C183.546 118.069 183.448 117.184 183.491 117.178C183.54 117.172 183.724 118.039 183.982 119.434L183.804 119.348C184.523 118.918 185.359 118.42 186.269 117.879L186.441 117.774L186.497 117.971C186.644 118.481 186.792 119.016 186.951 119.563C187.05 119.92 187.148 120.27 187.24 120.602L187.013 120.504C187.947 120.018 188.814 119.563 189.576 119.17L189.73 119.09L189.761 119.262C189.92 120.116 190.043 120.823 190.123 121.315C190.203 121.807 190.234 122.083 190.209 122.089L190.203 122.102Z" fill="#263238"/>
<path d="M175.174 134.9C175.174 134.9 175.069 134.635 174.947 134.15C174.824 133.664 174.664 132.969 174.473 132.121L174.664 132.207C173.908 132.619 173.053 133.086 172.131 133.59L171.959 133.682L171.904 133.492C171.805 133.16 171.707 132.81 171.609 132.453C171.455 131.906 171.308 131.371 171.166 130.861L171.394 130.953C170.472 131.476 169.623 131.949 168.898 132.361L168.744 132.447L168.72 132.275C168.517 130.867 168.419 129.982 168.462 129.976C168.511 129.97 168.695 130.836 168.953 132.238L168.775 132.152C169.494 131.722 170.33 131.224 171.24 130.683L171.412 130.578L171.467 130.775C171.615 131.285 171.762 131.814 171.922 132.367C172.021 132.724 172.119 133.074 172.211 133.406L171.984 133.307C172.918 132.822 173.785 132.367 174.547 131.974L174.701 131.894L174.731 132.066C174.891 132.92 175.014 133.627 175.094 134.119C175.174 134.611 175.205 134.893 175.18 134.893L175.174 134.9Z" fill="#E0E0E0"/>
<path d="M175.463 121.469C175.463 121.469 175.211 121.327 174.817 121.026C174.418 120.725 173.859 120.282 173.182 119.741L173.385 119.692C173.053 120.485 172.678 121.389 172.273 122.36L172.199 122.538L172.039 122.421C171.756 122.218 171.461 122.01 171.16 121.794C170.699 121.462 170.25 121.137 169.814 120.829L170.047 120.762C169.654 121.745 169.291 122.643 168.978 123.423L168.91 123.589L168.787 123.472C167.749 122.501 167.122 121.874 167.152 121.837C167.183 121.801 167.871 122.36 168.947 123.294L168.757 123.337C169.052 122.55 169.39 121.647 169.759 120.651L169.826 120.46L169.992 120.577C170.422 120.885 170.877 121.204 171.338 121.536C171.639 121.751 171.935 121.966 172.217 122.169L171.978 122.237C172.402 121.272 172.795 120.381 173.139 119.594L173.213 119.434L173.342 119.545C174 120.11 174.541 120.583 174.91 120.915C175.278 121.253 175.475 121.45 175.463 121.469Z" fill="#263238"/>
<path d="M180.823 121.831C180.823 121.831 180.608 122.022 180.196 122.298C179.784 122.575 179.182 122.962 178.444 123.423L178.463 123.214C179.102 123.786 179.833 124.438 180.614 125.138L180.761 125.267L180.602 125.384C180.319 125.587 180.024 125.796 179.723 126.011C179.256 126.343 178.807 126.657 178.37 126.964L178.383 126.718C179.182 127.413 179.913 128.052 180.546 128.599L180.682 128.716L180.528 128.796C179.268 129.46 178.475 129.847 178.45 129.81C178.426 129.767 179.182 129.3 180.411 128.587L180.393 128.783C179.747 128.249 178.997 127.634 178.18 126.958L178.026 126.829L178.192 126.712C178.622 126.405 179.071 126.085 179.538 125.753C179.839 125.538 180.135 125.329 180.423 125.126L180.411 125.372C179.643 124.659 178.924 123.989 178.297 123.405L178.168 123.282L178.315 123.196C179.065 122.759 179.686 122.403 180.128 122.163C180.565 121.923 180.817 121.801 180.835 121.825L180.823 121.831Z" fill="#263238"/>
<path d="M186.742 126.023C186.742 126.023 186.607 126.275 186.312 126.675C186.017 127.075 185.581 127.646 185.046 128.329L184.997 128.126C185.796 128.445 186.699 128.808 187.677 129.201L187.861 129.275L187.75 129.441C187.554 129.73 187.345 130.025 187.136 130.332C186.81 130.8 186.49 131.254 186.189 131.691L186.115 131.457C187.105 131.838 188.009 132.189 188.789 132.49L188.955 132.551L188.838 132.681C187.88 133.732 187.265 134.371 187.228 134.34C187.191 134.309 187.744 133.615 188.66 132.521L188.709 132.711C187.916 132.428 187.007 132.103 186.011 131.746L185.82 131.679L185.937 131.513C186.238 131.076 186.552 130.621 186.878 130.148C187.087 129.847 187.296 129.546 187.492 129.263L187.56 129.496C186.589 129.085 185.691 128.703 184.898 128.372L184.739 128.304L184.849 128.169C185.409 127.499 185.87 126.958 186.201 126.583C186.533 126.208 186.724 126.005 186.749 126.023H186.742Z" fill="#E0E0E0"/>
<path d="M183.374 136.043C183.374 136.043 183.405 136.111 183.448 136.246C183.491 136.399 183.552 136.596 183.626 136.848C183.773 137.383 183.995 138.17 184.247 139.196C184.493 140.223 184.812 141.477 185.027 142.977C185.163 143.72 185.089 144.593 184.714 145.38C184.351 146.173 183.823 146.923 183.14 147.611L183.171 147.507C184.782 155.147 187.037 165.861 189.533 177.719C191.961 189.379 194.131 199.94 195.662 207.586C196.43 211.41 197.038 214.508 197.438 216.653C197.641 217.729 197.788 218.559 197.881 219.124C197.973 219.69 198.004 219.997 197.979 219.997C197.979 219.997 197.93 219.702 197.819 219.136C197.702 218.553 197.53 217.729 197.315 216.678C196.866 214.526 196.227 211.434 195.44 207.63C193.842 199.977 191.648 189.429 189.22 177.78C186.761 165.917 184.536 155.197 182.95 147.55L182.938 147.488L182.981 147.445C184.284 146.136 185.163 144.489 184.849 142.995C184.652 141.514 184.351 140.254 184.124 139.221C183.884 138.207 183.694 137.42 183.564 136.86C183.503 136.602 183.454 136.399 183.417 136.246C183.386 136.104 183.374 136.037 183.374 136.037V136.043Z" fill="#455A64"/>
<path d="M170.435 137.518C170.435 137.518 170.527 137.653 170.625 137.936C170.724 138.213 170.816 138.637 170.859 139.165C170.939 140.21 170.687 141.766 169.673 143.069C168.652 144.372 167.208 144.999 166.175 145.171C165.652 145.263 165.222 145.269 164.927 145.245C164.632 145.22 164.472 145.183 164.478 145.159C164.478 145.097 165.13 145.183 166.132 144.944C167.115 144.722 168.462 144.095 169.427 142.866C170.379 141.637 170.662 140.174 170.644 139.165C170.631 138.139 170.392 137.524 170.447 137.512L170.435 137.518Z" fill="#455A64"/>
<path d="M180.731 138.176C180.731 138.176 180.755 138.09 180.878 138.01C181.001 137.93 181.222 137.869 181.487 137.93C181.739 137.979 182.071 138.225 182.114 138.612C182.163 138.975 181.985 139.424 181.561 139.608C181.13 139.774 180.694 139.584 180.466 139.301C180.221 139.006 180.245 138.612 180.362 138.379C180.614 137.881 181.02 137.869 181.001 137.912C181.026 137.955 180.706 138.053 180.571 138.465C180.503 138.661 180.516 138.92 180.688 139.11C180.854 139.301 181.173 139.418 181.438 139.313C181.696 139.209 181.843 138.895 181.819 138.649C181.806 138.391 181.616 138.219 181.419 138.151C181.013 138.004 180.755 138.225 180.731 138.182V138.176Z" fill="#455A64"/>
<path d="M193.719 139.54C193.719 139.54 193.313 139.835 192.527 139.952C191.758 140.069 190.59 139.971 189.558 139.301C188.525 138.631 187.953 137.61 187.75 136.854C187.535 136.092 187.609 135.594 187.64 135.6C187.695 135.6 187.707 136.08 187.966 136.787C188.218 137.487 188.777 138.409 189.736 139.03C190.695 139.645 191.771 139.78 192.508 139.725C193.258 139.676 193.707 139.485 193.725 139.534L193.719 139.54Z" fill="#455A64"/>
<path d="M200.468 233.52C200.468 233.52 200.253 233.569 199.854 233.594C199.387 233.619 198.827 233.649 198.182 233.686C196.682 233.76 194.776 233.846 192.662 233.95C190.547 234.061 188.636 234.159 187.142 234.233C186.49 234.264 185.937 234.289 185.47 234.307C185.077 234.319 184.855 234.313 184.855 234.295C184.855 234.27 185.07 234.233 185.464 234.184C185.857 234.135 186.429 234.073 187.13 234.012C188.537 233.883 190.492 233.741 192.65 233.631C194.807 233.526 196.762 233.471 198.182 233.465C198.889 233.465 199.46 233.465 199.86 233.471C200.253 233.483 200.475 233.496 200.475 233.52H200.468Z" fill="#455A64"/>
<path d="M172.408 144.532C172.494 144.513 177.338 164.466 183.22 189.097C189.109 213.74 193.805 233.723 193.719 233.742C193.633 233.76 188.795 213.813 182.907 189.17C177.024 164.54 172.322 144.55 172.408 144.532Z" fill="#455A64"/>
<path d="M188.138 145.3C188.138 145.3 188.181 145.343 188.248 145.429C188.328 145.534 188.427 145.669 188.55 145.829C188.826 146.204 189.207 146.726 189.687 147.39C190.683 148.773 192.09 150.746 193.83 153.174C195.576 155.627 197.647 158.547 199.946 161.78C201.095 163.403 202.294 165.105 203.542 166.87C204.753 168.646 205.994 170.625 206.333 172.967C206.665 175.309 205.976 177.559 205.263 179.581C204.525 181.616 203.788 183.564 203.069 185.421C201.636 189.127 200.266 192.434 199.079 195.201C197.893 197.96 196.891 200.18 196.184 201.704C195.834 202.448 195.557 203.032 195.36 203.456C195.268 203.64 195.194 203.788 195.139 203.905C195.09 204.003 195.059 204.058 195.053 204.052C195.053 204.052 195.065 203.997 195.108 203.892C195.158 203.769 195.225 203.616 195.305 203.425C195.489 202.995 195.748 202.405 196.073 201.649C196.743 200.106 197.715 197.881 198.87 195.108C200.026 192.336 201.372 189.023 202.792 185.316C203.499 183.46 204.23 181.511 204.962 179.477C205.669 177.461 206.333 175.26 206.007 173.01C205.687 170.76 204.476 168.812 203.278 167.048C202.036 165.277 200.837 163.575 199.7 161.946C197.426 158.694 195.373 155.768 193.645 153.303C191.943 150.851 190.56 148.859 189.582 147.458C189.121 146.781 188.752 146.247 188.494 145.859C188.384 145.687 188.291 145.552 188.218 145.441C188.156 145.343 188.125 145.294 188.132 145.294L188.138 145.3Z" fill="#455A64"/>
<path d="M219.376 96.5246L233.108 86.5051L233.778 87.5808L220.138 97.7232L219.376 96.5246Z" fill="#263238"/>
<path d="M222.769 96.2172C222.769 96.2172 224.613 91.4226 225.025 90.4023C225.437 89.3819 226.144 87.6054 226.402 87.5685C226.666 87.5317 227.625 87.6853 226.371 90.7342C225.117 93.783 227.853 91.9205 227.853 91.9205L230.496 90.0273C230.496 90.0273 232.586 96.2664 231.393 98.1473C230.109 100.176 228.259 102.118 228.259 102.118L222.763 96.2172H222.769Z" fill="#FFBE9D"/>
</g>
<defs>
<clipPath id="clip0_145_5441">
<rect width="250.012" height="250" fill="white"/>
</clipPath>
</defs>
</svg>
