<svg width="259" height="250" viewBox="0 0 259 250" fill="none" xmlns="http://www.w3.org/2000/svg">
<g clip-path="url(#clip0_471_1903)">
<path d="M234.545 149.48V175.549C234.545 180.264 230.722 184.087 226.007 184.087H132.525C127.811 184.087 123.987 180.264 123.987 175.549V153.518L112.351 141.292L225.983 140.936C230.709 140.924 234.551 144.747 234.551 149.474L234.545 149.48Z" fill="#F5F5F5"/>
<path d="M137.769 156.733L222.589 156.34L222.583 153.734L137.756 154.127L137.769 156.733Z" fill="#E6E6E6"/>
<path d="M137.769 165.308L222.589 164.921L222.583 162.315L137.756 162.702L137.769 165.308Z" fill="#E6E6E6"/>
<path d="M171.31 170.906L137.748 171.07L137.761 173.676L171.322 173.512L171.31 170.906Z" fill="#E6E6E6"/>
<path d="M68.8804 0H124.018C126.747 0 128.96 2.21288 128.96 4.9421V31.9085C128.96 34.6377 126.747 36.8506 124.018 36.8506H77.234C74.5048 36.8506 72.2919 34.6377 72.2919 31.9085V3.40537L68.8865 0H68.8804Z" fill="#F5F5F5"/>
<path d="M138.15 49.089V58.7704C138.15 60.1289 139.25 61.2291 140.608 61.2291H194.738C196.096 61.2291 197.197 60.1289 197.197 58.7704V53.4779L203.411 46.827L140.615 46.6241C139.25 46.6241 138.143 47.7244 138.143 49.0829L138.15 49.089Z" fill="#F0F0F0"/>
<path d="M101.656 29.8186V47.1097C101.656 50.2385 99.1169 52.7772 95.9881 52.7772H33.9968C30.868 52.7772 28.3294 50.2385 28.3294 47.1097V32.4986L20.6089 24.3909L95.9759 24.1573C99.1108 24.145 101.656 26.6836 101.656 29.8186Z" fill="#E0E0E0"/>
<path d="M37.4698 34.6316L93.7323 34.3734L93.7261 32.6461L37.4637 32.9043L37.4698 34.6316Z" fill="#F0F0F0"/>
<path d="M37.4698 40.3236L93.7323 40.0592L93.7261 38.332L37.4637 38.5901L37.4698 40.3236Z" fill="#F0F0F0"/>
<path d="M59.715 44.0339L37.4574 44.1427L37.4658 45.87L59.7234 45.7612L59.715 44.0339Z" fill="#F0F0F0"/>
<path d="M10.2821 86.8801V112.949C10.2821 117.664 14.1055 121.487 18.8202 121.487H112.296C117.011 121.487 120.834 117.664 120.834 112.949V90.9186L132.47 78.6924L18.8386 78.3359C14.1116 78.3236 10.2698 82.147 10.2698 86.8739L10.2821 86.8801Z" fill="#F0F0F0"/>
<path d="M107.059 94.1334L22.2379 93.7462L22.244 91.1399L107.071 91.5271L107.059 94.1334Z" fill="#E6E6E6"/>
<path d="M107.059 102.714L22.2379 102.321L22.244 99.7148L107.071 100.108L107.059 102.714Z" fill="#E6E6E6"/>
<path d="M73.5057 108.302L73.4929 110.908L107.055 111.072L107.067 108.466L73.5057 108.302Z" fill="#E6E6E6"/>
<path d="M194.775 20.5491C194.904 26.8189 189.925 32.0007 183.661 32.1298C177.391 32.2589 172.21 27.2799 172.08 21.0162C171.951 14.7464 176.93 9.56458 183.194 9.4355C189.464 9.30641 194.646 14.2854 194.775 20.5491Z" fill="#F5F5F5"/>
<path d="M179.512 17.9243C179.942 17.8874 180.33 18.3607 180.385 18.9816C180.434 19.6024 180.127 20.1372 179.696 20.1679C179.266 20.2048 178.873 19.7315 178.824 19.1107C178.774 18.4898 179.082 17.9551 179.512 17.9243Z" fill="#E0E0E0"/>
<path d="M180.508 15.0476C180.502 15.1459 179.549 15.0537 178.486 15.4594C177.416 15.8467 176.752 16.529 176.678 16.4614C176.605 16.4184 177.213 15.5762 178.369 15.1521C179.524 14.7218 180.532 14.9677 180.502 15.0476H180.508Z" fill="#E0E0E0"/>
<path d="M186.728 17.7768C186.298 17.7584 185.929 18.2501 185.899 18.871C185.874 19.4918 186.2 20.0143 186.636 20.0327C187.067 20.0512 187.435 19.5594 187.466 18.9386C187.491 18.3177 187.165 17.7952 186.728 17.7768Z" fill="#E0E0E0"/>
<path d="M185.61 14.9431C185.579 14.8632 186.575 14.5743 187.749 14.9615C188.923 15.3365 189.562 16.154 189.495 16.1971C189.427 16.2708 188.739 15.6131 187.651 15.2689C186.569 14.9124 185.628 15.0414 185.616 14.9431H185.61Z" fill="#E0E0E0"/>
<path d="M189.027 20.6658C189.027 20.6658 189.034 20.8871 188.948 21.2744C188.861 21.6616 188.665 22.2087 188.29 22.8172C187.915 23.4258 187.343 24.0712 186.556 24.606C185.776 25.1408 184.774 25.5403 183.673 25.6079C182.573 25.6571 181.528 25.3621 180.698 24.9133C179.862 24.4646 179.223 23.8745 178.793 23.309C178.356 22.7435 178.104 22.221 177.975 21.846C177.846 21.4711 177.816 21.2559 177.834 21.2498C177.902 21.2191 178.08 22.1042 178.971 23.1615C179.408 23.684 180.041 24.231 180.84 24.6429C181.639 25.0609 182.622 25.3252 183.655 25.276C184.688 25.2145 185.64 24.8457 186.39 24.354C187.146 23.8561 187.712 23.2537 188.093 22.6882C188.868 21.5448 188.954 20.6412 189.027 20.6658Z" fill="#E0E0E0"/>
<path d="M27.4258 148.38H29.067L32.6568 143.597V140.456C32.6568 140.456 35.1954 140.309 34.9004 144.415C34.5992 148.527 34.925 147.476 34.925 147.476C34.925 147.476 40.3219 147.495 40.7707 147.943C41.0965 148.269 41.244 153.396 41.2993 156.174C41.33 157.575 40.4326 158.872 39.068 159.204C38.8774 159.254 38.6807 159.278 38.4902 159.278C37.144 159.278 30.2718 158.233 30.2718 158.233H27.4319V148.367L27.4258 148.38Z" fill="#F0F0F0"/>
<path d="M22.7234 147.519L23.7315 158.27H26.5468V147.734L22.7234 147.519Z" fill="#F0F0F0"/>
<path d="M253.428 54.9163C252.66 54.0004 251.277 54.0373 250.386 54.7688C249.494 55.5002 249.113 56.3362 249.003 57.5779C248.732 56.3669 248.167 55.5924 247.183 54.9839C246.2 54.3692 244.81 54.5229 244.165 55.531C243.79 56.1211 243.71 56.914 243.858 57.6271C243.999 58.3462 244.251 59.0777 244.731 59.5879C246.433 61.4012 247.312 61.684 249.421 62.9134C251.338 61.4197 251.959 61.0386 253.398 59.0224C253.803 58.4569 253.957 57.6947 254 56.9632C254.049 56.2317 253.871 55.4634 253.422 54.9224L253.428 54.9163Z" fill="#F0F0F0"/>
<path d="M152.128 220.765L88.1509 220.47C80.455 220.434 74.2466 214.17 74.2773 206.474L74.9535 46.0832C74.9842 38.3873 81.2541 32.1728 88.9561 32.2035L152.933 32.4986C160.629 32.5355 166.837 38.7992 166.806 46.4951L166.13 206.886C166.1 214.582 159.83 220.796 152.128 220.765Z" fill="#263238"/>
<path d="M152.847 38.037L140.442 37.9816C138.777 37.9755 137.424 39.377 137.418 41.1165L137.406 43.3663C137.4 45.1059 136.041 46.5074 134.382 46.5012L110.206 46.3906C108.54 46.3844 107.2 44.9645 107.206 43.2311L107.219 40.9813C107.225 39.2417 105.885 37.828 104.219 37.8218L99.8545 37.8034L88.9991 37.7542C83.6083 37.7296 79.2194 42.0816 79.1949 47.4724L78.531 204.021C78.5064 209.412 82.8584 213.801 88.2431 213.826L152.091 214.121C157.482 214.145 161.87 209.793 161.895 204.402L162.559 47.8535C162.584 42.4627 158.232 38.08 152.847 38.0554V38.037Z" fill="white"/>
<path d="M117.748 194.352C117.748 195.09 117.146 195.692 116.408 195.692C115.67 195.692 115.068 195.09 115.068 194.352C115.068 193.615 115.67 193.012 116.408 193.012C117.146 193.012 117.748 193.615 117.748 194.352Z" fill="#455A64"/>
<path d="M122.838 194.352C122.838 195.09 122.235 195.692 121.498 195.692C120.76 195.692 120.158 195.09 120.158 194.352C120.158 193.615 120.76 193.012 121.498 193.012C122.235 193.012 122.838 193.615 122.838 194.352Z" fill="#455A64"/>
<path d="M127.927 194.352C127.927 195.09 127.325 195.692 126.587 195.692C125.85 195.692 125.247 195.09 125.247 194.352C125.247 193.615 125.85 193.012 126.587 193.012C127.325 193.012 127.927 193.615 127.927 194.352Z" fill="#455A64"/>
<path d="M91.0829 81.7105C91.0829 81.7105 91.0829 81.5938 91.0829 81.3663C91.089 81.1389 91.1321 80.8008 91.2489 80.3705C91.378 79.9464 91.5869 79.4301 91.9803 78.9014C92.3676 78.3789 92.9331 77.838 93.7138 77.4753C94.476 77.0697 95.4718 76.9774 96.4922 77.0143C97.5248 77.0143 98.6497 77.0143 99.8607 77.0143C102.283 77.0143 105.049 77.0143 108.122 77.0143C120.428 77.0389 137.639 77.0758 157.285 77.1127H157.648L157.396 77.377C155.392 79.4854 153.259 81.729 151.095 84.0033L151.138 83.8927C151.138 85.9949 151.138 88.2447 151.138 90.5129C151.138 91.9759 151.138 93.4265 151.138 94.871C151.138 95.5779 151.181 96.334 150.972 97.0532C150.788 97.7724 150.431 98.4424 149.939 98.9894C149.454 99.5365 148.845 99.9852 148.169 100.256C147.499 100.538 146.749 100.631 146.042 100.612C144.641 100.612 143.252 100.612 141.875 100.612C136.367 100.612 131.05 100.606 125.991 100.6C115.867 100.588 106.751 100.575 99.0923 100.563C98.1334 100.563 97.1991 100.563 96.2893 100.563C95.3919 100.594 94.4391 100.502 93.6584 100.09C92.0541 99.3275 91.0829 97.7048 91.003 96.1619C90.9784 93.1069 91.0091 90.5006 91.0153 88.3553C91.0276 86.2224 91.0399 84.5627 91.046 83.4255C91.0522 82.8662 91.0583 82.442 91.0645 82.1408C91.0645 81.8519 91.0829 81.7044 91.0829 81.7044C91.0829 81.7044 91.0952 81.8519 91.1013 82.1408C91.1013 82.442 91.1075 82.8662 91.1198 83.4255C91.1259 84.5627 91.1382 86.2224 91.1505 88.3553C91.169 90.4945 91.1505 93.1192 91.1935 96.1496C91.2735 97.6371 92.2201 99.18 93.7568 99.9053C94.519 100.299 95.3919 100.379 96.3016 100.348C97.2113 100.348 98.1457 100.348 99.1046 100.348C106.764 100.336 115.879 100.329 126.003 100.311C131.068 100.311 136.379 100.311 141.887 100.299C143.264 100.299 144.653 100.299 146.055 100.299C146.749 100.311 147.425 100.225 148.058 99.9607C148.692 99.7025 149.257 99.2906 149.712 98.7743C150.173 98.2641 150.505 97.6371 150.677 96.9671C150.868 96.3033 150.824 95.5902 150.831 94.8649V90.5067C150.831 88.2385 150.831 85.9949 150.831 83.8865V83.8251L150.874 83.7759C153.044 81.5016 155.176 79.2579 157.18 77.1557L157.291 77.42C137.646 77.334 120.434 77.2664 108.128 77.211C105.055 77.1926 102.289 77.1741 99.8668 77.1619C98.6559 77.1557 97.531 77.1434 96.4983 77.1373C95.4656 77.0942 94.5252 77.1741 93.7691 77.5614C93.0069 77.9118 92.4475 78.4281 92.0541 78.9383C91.6607 79.4485 91.4456 79.9587 91.3103 80.3767C91.0645 81.2249 91.1136 81.6983 91.089 81.6983L91.0829 81.7105Z" fill="#455A64"/>
<path d="M143.522 85.6446L97.5618 85.4294L97.5679 84.0156L143.528 84.2308L143.522 85.6446Z" fill="#455A64"/>
<path d="M143.522 90.2916L97.5618 90.0765L97.5679 88.6627L143.528 88.8779L143.522 90.2916Z" fill="#455A64"/>
<path d="M125.34 93.3147L125.333 94.7285L143.515 94.8174L143.522 93.4036L125.34 93.3147Z" fill="#455A64"/>
<path d="M153.572 112.838V126.964C153.572 129.521 151.501 131.593 148.944 131.593H98.2932C95.7361 131.593 93.6646 129.521 93.6646 126.964V115.027L87.3579 108.4L148.925 108.21C151.488 108.204 153.566 110.275 153.566 112.838H153.572Z" fill="#E4289B"/>
<path d="M101.133 116.772L147.093 116.557L147.087 115.143L101.127 115.359L101.133 116.772Z" fill="white"/>
<path d="M101.133 121.419L147.093 121.204L147.087 119.791L101.127 120.006L101.133 121.419Z" fill="white"/>
<path d="M119.308 124.45L101.126 124.539L101.133 125.953L119.315 125.864L119.308 124.45Z" fill="white"/>
<path d="M125.997 58.7274C126.858 58.3647 127.472 57.4796 127.479 56.4284C127.479 55.0577 126.446 53.9389 125.161 53.9328C123.877 53.9328 122.825 55.0331 122.819 56.4039C122.819 57.4611 123.434 58.3586 124.301 58.7212C120.717 59.2622 120.877 63.1593 120.877 63.1593L129.353 63.1962C129.353 63.1962 129.544 59.256 125.991 58.7212L125.997 58.7274Z" fill="#E4289B"/>
<path opacity="0.5" d="M125.997 58.7274C126.858 58.3647 127.472 57.4796 127.479 56.4284C127.479 55.0577 126.446 53.9389 125.161 53.9328C123.877 53.9328 122.825 55.0331 122.819 56.4039C122.819 57.4611 123.434 58.3586 124.301 58.7212C120.717 59.2622 120.877 63.1593 120.877 63.1593L129.353 63.1962C129.353 63.1962 129.544 59.256 125.991 58.7212L125.997 58.7274Z" fill="white"/>
<path d="M121.344 58.7274C122.205 58.3647 122.819 57.4796 122.825 56.4284C122.825 55.0577 121.793 53.9389 120.508 53.9328C119.223 53.9328 118.172 55.0331 118.166 56.4039C118.166 57.4611 118.781 58.3586 119.647 58.7212C116.064 59.2622 116.224 63.1593 116.224 63.1593L124.7 63.1962C124.7 63.1962 124.891 59.256 121.338 58.7212L121.344 58.7274Z" fill="#E4289B"/>
<path d="M134.301 64.9485L111.515 64.8451L111.502 67.6726L134.288 67.776L134.301 64.9485Z" fill="#E4289B"/>
<path opacity="0.3" d="M134.301 64.9485L111.515 64.8451L111.502 67.6726L134.288 67.776L134.301 64.9485Z" fill="white"/>
<path d="M92.1525 145.03C92.1525 145.03 92.1402 144.913 92.1648 144.692C92.1894 144.47 92.257 144.132 92.4783 143.757C92.6934 143.382 93.0868 142.958 93.6831 142.706C94.2916 142.43 95.0538 142.54 95.8714 142.516C99.1907 142.516 103.991 142.516 109.966 142.516C121.934 142.54 138.598 142.577 157.42 142.614H157.783L157.531 142.878C155.545 145.005 153.443 147.249 151.316 149.529L151.359 149.419V149.947C151.359 151.263 151.359 152.572 151.359 153.875C151.359 154.207 151.365 154.514 151.353 154.859C151.335 155.203 151.249 155.541 151.101 155.854C150.806 156.475 150.253 156.967 149.607 157.188C149.288 157.305 148.931 157.342 148.612 157.336H147.653C147.013 157.336 146.38 157.336 145.747 157.336C144.481 157.336 143.233 157.336 141.991 157.336C137.025 157.336 132.23 157.33 127.669 157.323C118.541 157.311 110.323 157.299 103.414 157.287C101.686 157.287 100.045 157.28 98.4899 157.274C97.7093 157.274 96.9594 157.274 96.2217 157.274C95.8529 157.274 95.4964 157.274 95.1399 157.274C94.7895 157.268 94.433 157.299 94.0765 157.213C93.3757 157.065 92.7918 156.617 92.4475 156.057C92.2754 155.774 92.1586 155.467 92.1095 155.16C92.0541 154.846 92.0787 154.539 92.0726 154.25C92.0726 153.076 92.0849 152.006 92.0849 151.035C92.0972 149.111 92.1095 147.617 92.1156 146.591C92.1218 146.093 92.1279 145.706 92.1341 145.435C92.1341 145.177 92.1525 145.042 92.1525 145.042C92.1525 145.042 92.1648 145.177 92.1709 145.435C92.1709 145.706 92.1771 146.093 92.1894 146.591C92.1955 147.617 92.2078 149.117 92.2201 151.035C92.2201 152 92.2263 153.076 92.2324 154.25C92.2324 154.545 92.2201 154.846 92.2754 155.135C92.3246 155.424 92.4353 155.713 92.6012 155.977C92.927 156.5 93.4802 156.912 94.1256 157.047C94.4453 157.121 94.7895 157.09 95.1522 157.096C95.5087 157.096 95.8652 157.096 96.234 157.096C96.9655 157.096 97.7216 157.096 98.5022 157.096C100.057 157.096 101.699 157.09 103.426 157.084C110.335 157.071 118.553 157.059 127.682 157.047C132.249 157.047 137.037 157.047 142.004 157.035C143.245 157.035 144.499 157.035 145.759 157.035C146.393 157.035 147.026 157.035 147.665 157.035H148.624C148.937 157.035 149.226 157.004 149.515 156.905C150.081 156.709 150.566 156.278 150.825 155.731C150.954 155.461 151.034 155.16 151.046 154.859C151.058 154.551 151.046 154.213 151.052 153.893C151.052 152.59 151.052 151.281 151.052 149.966V149.375L151.095 149.326C153.228 147.046 155.324 144.802 157.309 142.675L157.426 142.94C138.605 142.86 121.94 142.786 109.972 142.737C103.998 142.7 99.1968 142.663 95.8775 142.645C95.0538 142.663 94.3039 142.546 93.72 142.804C93.136 143.038 92.7487 143.444 92.5336 143.806C92.3062 144.169 92.2324 144.501 92.2017 144.716C92.1709 144.931 92.1709 145.048 92.1586 145.048L92.1525 145.03Z" fill="#455A64"/>
<path d="M145.581 148.755L99.621 148.546L99.6271 147.132L145.587 147.347L145.581 148.755Z" fill="#455A64"/>
<path d="M126.94 151.798L126.933 153.212L145.583 153.303L145.59 151.889L126.94 151.798Z" fill="#455A64"/>
<path d="M151.956 170.244V179.926C151.956 181.284 150.855 182.384 149.497 182.384H95.3673C94.0088 182.384 92.9085 181.284 92.9085 179.926V174.633L86.694 167.982L149.491 167.779C150.855 167.779 151.962 168.88 151.962 170.238L151.956 170.244Z" fill="#E4289B"/>
<path d="M98.5207 173.969L144.481 173.76L144.475 172.346L98.5145 172.555L98.5207 173.969Z" fill="white"/>
<path d="M98.5207 178.518L144.481 178.303L144.475 176.895L98.5145 177.104L98.5207 178.518Z" fill="white"/>
<path d="M226.032 54.1848C230.014 54.1848 233.242 50.9567 233.242 46.9745C233.242 42.9924 230.014 39.7642 226.032 39.7642C222.05 39.7642 218.821 42.9924 218.821 46.9745C218.821 50.9567 222.05 54.1848 226.032 54.1848Z" fill="#E4289B"/>
<path opacity="0.5" d="M226.032 54.1848C230.014 54.1848 233.242 50.9567 233.242 46.9745C233.242 42.9924 230.014 39.7642 226.032 39.7642C222.05 39.7642 218.821 42.9924 218.821 46.9745C218.821 50.9567 222.05 54.1848 226.032 54.1848Z" fill="white"/>
<path d="M223.641 44.9092C223.911 44.8907 224.157 45.1981 224.181 45.5915C224.206 45.9849 224.003 46.323 223.733 46.3353C223.456 46.3537 223.216 46.0463 223.192 45.6529C223.167 45.2595 223.37 44.9215 223.641 44.9092Z" fill="#263238"/>
<path d="M224.311 43.0958C224.292 43.2003 223.708 43.1696 223.044 43.4031C222.38 43.6244 221.938 44.0117 221.858 43.9441C221.778 43.8887 222.159 43.3232 222.921 43.0651C223.684 42.8007 224.335 43.0097 224.304 43.1019L224.311 43.0958Z" fill="#263238"/>
<path d="M229.535 46.034C229.456 46.0955 229.068 45.6836 228.447 45.616C227.827 45.5484 227.359 45.8681 227.298 45.7943C227.267 45.7574 227.341 45.6222 227.55 45.4808C227.753 45.3394 228.097 45.2165 228.484 45.2595C228.872 45.3025 229.185 45.4931 229.351 45.6775C229.523 45.8558 229.566 46.0094 229.529 46.0402L229.535 46.034Z" fill="#263238"/>
<path d="M230.156 44.8293C230.101 44.9215 229.517 44.6141 228.736 44.5895C227.956 44.5527 227.347 44.8108 227.304 44.7186C227.243 44.6449 227.857 44.19 228.755 44.233C229.652 44.2638 230.224 44.7678 230.162 44.8354L230.156 44.8293Z" fill="#263238"/>
<path d="M229.646 46.8331C229.677 46.8331 229.689 47.4294 229.197 48.2162C228.73 48.9846 227.648 49.9127 226.185 49.9742C224.722 50.0049 223.585 49.1444 223.069 48.4067C222.528 47.6507 222.497 47.0483 222.528 47.0544C222.589 47.0298 222.712 47.5892 223.266 48.2531C223.794 48.9046 224.864 49.6484 226.167 49.6177C227.47 49.5685 228.49 48.7633 228.976 48.0748C229.486 47.3802 229.572 46.8147 229.64 46.8331H229.646Z" fill="#263238"/>
<path d="M24.2724 174.516C24.1126 180.116 19.4471 184.523 13.8473 184.364C8.2475 184.204 3.84018 179.538 4 173.938C4.15982 168.339 8.82531 163.931 14.4251 164.091C20.0249 164.251 24.4323 168.916 24.2724 174.516Z" fill="#E4289B"/>
<path opacity="0.5" d="M24.2724 174.516C24.1126 180.116 19.4471 184.523 13.8473 184.364C8.2475 184.204 3.84018 179.538 4 173.938C4.15982 168.339 8.82531 163.931 14.4251 164.091C20.0249 164.251 24.4323 168.916 24.2724 174.516Z" fill="white"/>
<path d="M12.1385 171.418C11.7881 170.908 11.075 170.859 10.5833 171.197C10.0915 171.535 9.85181 171.941 9.73502 172.574C9.65511 171.935 9.40309 171.51 8.92363 171.148C8.45032 170.785 7.72499 170.791 7.34388 171.283C7.12259 171.566 7.04268 171.971 7.07956 172.346C7.11644 172.721 7.21479 173.115 7.43608 173.398C8.22288 174.412 8.65931 174.602 9.68584 175.334C10.7431 174.658 11.0812 174.492 11.9172 173.527C12.1507 173.256 12.2675 172.869 12.329 172.5C12.3905 172.125 12.329 171.719 12.1323 171.424L12.1385 171.418Z" fill="#E4289B"/>
<path d="M21.0883 171.67C20.738 171.16 20.0249 171.111 19.5332 171.449C19.0414 171.781 18.8017 172.193 18.6849 172.826C18.605 172.187 18.353 171.762 17.8735 171.4C17.4002 171.037 16.6749 171.043 16.2938 171.535C16.0725 171.818 15.9926 172.223 16.0295 172.598C16.0663 172.973 16.1647 173.367 16.386 173.65C17.1728 174.664 17.6092 174.854 18.6357 175.586C19.693 174.91 20.0311 174.744 20.8671 173.779C21.1006 173.508 21.2174 173.121 21.2789 172.752C21.3404 172.377 21.285 171.971 21.0822 171.676L21.0883 171.67Z" fill="#E4289B"/>
<path d="M17.4248 176.705C17.222 178.358 15.6176 179.71 13.9518 179.637C12.286 179.563 10.8108 178.069 10.7616 176.403L17.4248 176.705Z" fill="white"/>
<path d="M52.5727 175.69C52.7509 174.651 52.3575 170.853 52.3575 170.853C52.3575 170.853 48.3744 170.429 48.1346 166.482C47.8949 162.536 48.1346 153.426 48.1346 153.426L55.3879 149.88L63.3666 155.922L62.1557 175.666L52.5727 175.684V175.69Z" fill="#B78876"/>
<path d="M49.2288 160.028C49.2288 160.305 49.4562 160.532 49.7328 160.532C50.0094 160.532 50.2368 160.305 50.2368 160.028C50.2368 159.751 50.0094 159.524 49.7328 159.524C49.4562 159.524 49.2288 159.751 49.2288 160.028Z" fill="#263238"/>
<path d="M48.4911 159.665C48.5588 159.733 48.9276 159.413 49.4746 159.383C50.0156 159.346 50.4274 159.616 50.4827 159.542C50.5135 159.512 50.4459 159.389 50.2614 159.266C50.0832 159.143 49.7881 159.032 49.4501 159.051C49.112 159.069 48.8292 159.217 48.6694 159.358C48.5096 159.499 48.4543 159.628 48.485 159.659L48.4911 159.665Z" fill="#263238"/>
<path d="M55.6154 160.44C55.8937 160.44 56.1194 160.214 56.1194 159.936C56.1194 159.657 55.8937 159.432 55.6154 159.432C55.337 159.432 55.1113 159.657 55.1113 159.936C55.1113 160.214 55.337 160.44 55.6154 160.44Z" fill="#263238"/>
<path d="M54.3676 159.567C54.4352 159.635 54.804 159.315 55.3511 159.284C55.892 159.247 56.3039 159.518 56.3592 159.444C56.3899 159.413 56.3223 159.29 56.1379 159.167C55.9597 159.045 55.6646 158.934 55.3265 158.952C54.9884 158.971 54.7057 159.118 54.5459 159.26C54.3861 159.401 54.3307 159.53 54.3615 159.561L54.3676 159.567Z" fill="#263238"/>
<path d="M52.4989 164.11C52.4989 164.11 52.1609 164.036 51.6076 163.999C51.4663 163.993 51.331 163.968 51.3064 163.87C51.2696 163.765 51.3249 163.606 51.3864 163.433C51.5031 163.077 51.6261 162.702 51.7613 162.302C52.2776 160.698 52.6526 159.383 52.5911 159.364C52.5297 159.346 52.0625 160.63 51.5462 162.235C51.4232 162.628 51.3003 163.009 51.1897 163.366C51.1405 163.532 51.0606 163.722 51.1343 163.937C51.1774 164.042 51.2757 164.116 51.3679 164.134C51.4601 164.159 51.5339 164.153 51.6015 164.153C52.1547 164.153 52.4989 164.14 52.4989 164.11Z" fill="#263238"/>
<path d="M54.3 164.626C54.0295 164.78 52.7387 165.548 51.6691 165.529C51.6691 165.529 52.3514 166.513 53.4763 166.04C54.6381 165.548 54.3061 164.62 54.3061 164.62L54.3 164.626Z" fill="white"/>
<path d="M52.3514 170.853C52.3514 170.853 55.013 170.883 57.5824 169.082C57.5824 169.082 56.396 171.984 52.4374 171.818L52.3514 170.847V170.853Z" fill="#A36957"/>
<path d="M68.6099 158.848C68.6099 158.848 70.2142 167.951 62.5245 169.599L62.7519 158.627L68.6037 158.848H68.6099Z" fill="#263238"/>
<path d="M68.3579 156.832C67.7678 154.563 66.815 152.824 65.7209 151.49C66.8335 151.951 67.5895 152.418 67.7248 152.265C67.7985 152.172 67.5895 151.84 67.1162 151.435C66.6429 151.029 65.8991 150.568 64.9894 150.273C64.8665 150.23 64.7497 150.205 64.6267 150.175C65.1308 149.966 65.5979 149.677 65.9913 149.296C66.9134 148.392 67.3252 146.917 66.7597 145.761C66.2495 144.728 65.0263 144.132 63.883 144.255C62.7396 144.378 61.7131 145.146 61.1537 146.155C61.0185 146.4 60.914 146.652 60.828 146.917C60.8464 146.523 60.8833 146.087 60.9632 145.614C61.2091 144.095 61.7746 142.952 61.6824 142.909C61.6148 142.86 60.8894 143.972 60.6313 145.558C60.6067 145.706 60.5944 145.847 60.5759 145.989C60.4407 145.552 60.287 145.165 60.1334 144.839C59.7522 144.046 59.4019 143.622 59.2974 143.671C59.0822 143.782 59.783 145.441 60.0719 147.691C59.1007 147.39 58.32 147.298 57.9328 147.298C56.5927 147.298 54.3676 146.652 51.2142 149.21C50.2737 149.818 49.2964 150.672 48.5096 151.81C47.2802 153.592 46.8499 155.572 46.8192 156.961C46.8008 157.662 46.8561 158.227 46.9237 158.614C46.9913 159.002 47.0528 159.204 47.0774 159.204C47.1388 159.198 46.9606 158.35 47.0528 156.979C47.1081 156.143 47.3048 155.092 47.7228 154.01C46.936 156.758 48.024 158.971 48.024 158.971L55.0622 157.87C54.6073 156.328 54.9392 153.881 55.1544 152.683C56.396 158.43 61.332 161.19 61.332 161.19L68.739 160.022C68.6406 159.352 68.5177 157.428 68.364 156.832H68.3579Z" fill="#263238"/>
<path d="M85.3909 244.867C85.6184 244.978 103.776 248.537 103.106 246.127C102.436 243.718 85.5569 239.808 85.5569 239.808L85.3971 244.867H85.3909Z" fill="#E4289B"/>
<path d="M93.6523 243.263C93.7384 243.251 93.8613 243.687 93.8613 244.234C93.8613 244.781 93.7261 245.212 93.64 245.199C93.554 245.187 93.5355 244.757 93.5417 244.228C93.5417 243.706 93.5663 243.269 93.6523 243.263Z" fill="#263238"/>
<path d="M92.6811 242.931C92.7672 242.913 92.9208 243.423 92.8655 244.056C92.8102 244.695 92.5705 245.162 92.4906 245.132C92.4045 245.101 92.4906 244.622 92.5459 244.025C92.6012 243.435 92.5951 242.937 92.6811 242.925V242.931Z" fill="#263238"/>
<path d="M91.5071 242.833C91.5931 242.827 91.7161 243.312 91.7284 243.927C91.7407 244.542 91.6362 245.04 91.5501 245.033C91.464 245.033 91.421 244.535 91.4087 243.933C91.3964 243.331 91.421 242.839 91.5071 242.833Z" fill="#263238"/>
<path d="M89.2758 241.056C89.2758 241.056 89.3741 241.056 89.5585 241.093C89.7429 241.124 90.0134 241.179 90.3576 241.259C91.0522 241.413 92.048 241.646 93.2774 241.984C94.5006 242.316 95.9513 242.753 97.5433 243.288C98.3363 243.564 99.1723 243.835 100.021 244.197C100.863 244.56 101.729 245.027 102.442 245.722C102.528 245.808 102.633 245.888 102.707 246.054C102.799 246.22 102.707 246.478 102.553 246.564C102.27 246.742 102.012 246.711 101.785 246.736C101.311 246.773 100.844 246.791 100.389 246.804C99.4734 246.822 98.5883 246.791 97.7462 246.736C96.0681 246.631 94.5682 246.416 93.3143 246.22C92.0603 246.017 91.0522 245.826 90.3576 245.685C90.0441 245.617 89.7798 245.562 89.5585 245.513C89.3741 245.47 89.2819 245.445 89.2819 245.433C89.2819 245.408 89.6753 245.457 90.3761 245.562C91.126 245.673 92.1279 245.814 93.345 245.992C94.599 246.158 96.0927 246.349 97.7646 246.435C98.6006 246.478 99.4734 246.502 100.383 246.478C100.838 246.466 101.299 246.447 101.766 246.41C102 246.392 102.246 246.392 102.375 246.3C102.43 246.257 102.436 246.232 102.418 246.177C102.393 246.115 102.313 246.035 102.227 245.955C101.551 245.298 100.727 244.849 99.9037 244.486C99.0739 244.13 98.2441 243.847 97.4573 243.564C95.8775 243.011 94.4391 242.562 93.2282 242.2C92.0173 241.837 91.0276 241.566 90.3453 241.376C89.663 241.185 89.2819 241.081 89.2881 241.056H89.2758Z" fill="#263238"/>
<path d="M98.9387 243.755C99.0309 243.786 98.8465 244.474 98.9141 245.322C98.9694 246.171 99.246 246.828 99.16 246.871C99.0924 246.92 98.6559 246.275 98.5945 245.347C98.5268 244.419 98.8649 243.718 98.9387 243.755Z" fill="#263238"/>
<path d="M25.3358 241.271C25.0838 241.241 6.75995 243.798 8.17989 245.863C9.59982 247.922 26.8357 246.109 26.8357 246.109L25.3358 241.271Z" fill="#E4289B"/>
<path d="M18.0579 245.482C17.978 245.519 17.7198 245.15 17.5477 244.634C17.3695 244.117 17.3572 243.663 17.4432 243.65C17.5293 243.632 17.683 244.038 17.8551 244.535C18.021 245.033 18.144 245.445 18.0641 245.488L18.0579 245.482Z" fill="#263238"/>
<path d="M19.0783 245.476C19.0045 245.519 18.691 245.089 18.5374 244.468C18.3776 243.847 18.4513 243.325 18.5374 243.325C18.6296 243.325 18.7033 243.81 18.8447 244.388C18.9861 244.966 19.1521 245.427 19.0721 245.47L19.0783 245.476Z" fill="#263238"/>
<path d="M20.2216 245.187C20.1417 245.224 19.8651 244.8 19.6561 244.222C19.441 243.644 19.3795 243.146 19.4655 243.122C19.5516 243.097 19.7483 243.552 19.9573 244.111C20.1601 244.677 20.3015 245.15 20.2216 245.187Z" fill="#263238"/>
<path d="M22.9078 246.14C22.9078 246.14 22.8156 246.171 22.6251 246.201C22.4407 246.232 22.1641 246.269 21.8137 246.306C21.1068 246.386 20.0864 246.49 18.8202 246.57C17.5539 246.65 16.0418 246.718 14.3637 246.73C13.5215 246.73 12.6425 246.742 11.7205 246.675C10.8046 246.607 9.83341 246.447 8.92982 246.023C8.81917 245.968 8.69624 245.931 8.5733 245.796C8.43192 245.666 8.43807 245.396 8.54871 245.267C8.75771 245.009 9.01587 244.953 9.21872 244.855C9.65515 244.665 10.0916 244.499 10.5157 244.339C11.3763 244.019 12.2245 243.761 13.0359 243.54C14.6587 243.091 16.1463 242.802 17.3941 242.581C18.6419 242.359 19.6623 242.212 20.363 242.12C20.6827 242.083 20.9531 242.046 21.1744 242.021C21.3588 242.003 21.4572 241.997 21.4633 242.009C21.4633 242.034 21.0822 242.114 20.3876 242.249C19.6377 242.39 18.648 242.581 17.4433 242.808C16.2016 243.06 14.7263 243.368 13.122 243.829C12.3229 244.062 11.4808 244.32 10.6325 244.64C10.2084 244.8 9.77809 244.966 9.34781 245.156C9.13266 245.248 8.89908 245.328 8.81303 245.464C8.77615 245.525 8.77615 245.55 8.81303 245.593C8.85606 245.642 8.96055 245.691 9.0712 245.74C9.92561 246.14 10.8538 246.3 11.7451 246.367C12.6425 246.435 13.5277 246.429 14.3575 246.441C16.0295 246.447 17.5355 246.404 18.8017 246.355C20.068 246.3 21.0884 246.232 21.7952 246.189C22.5021 246.146 22.8955 246.121 22.8955 246.146L22.9078 246.14Z" fill="#263238"/>
<path d="M12.8945 246.736C12.8023 246.736 12.747 246.029 12.4089 245.249C12.0831 244.462 11.6037 243.933 11.6713 243.865C11.7205 243.798 12.3413 244.265 12.704 245.126C13.0728 245.98 12.9806 246.748 12.8945 246.742V246.736Z" fill="#263238"/>
<path d="M82.1823 219.026H72.8574L38.4472 219.917L28.6367 218.645C27.1 218.307 26.0981 218.165 25.7723 218.276C24.8195 218.589 23.5164 219.505 22.41 220.827C18.6603 225.308 21.0146 232.205 26.6574 233.729L31.9622 235.161L20.363 238.886L24.2786 250C24.2786 250 41.5882 246.257 58.3754 242.304L85.2434 249.57L89.116 237.098C89.116 237.098 87.4071 236.538 84.5611 235.616C87.4133 234.743 89.2266 234.055 89.4909 233.643C91.1752 231.018 94.1748 218.841 82.1823 219.032" fill="#455A64"/>
<path opacity="0.2" d="M84.3828 235.672L64.4178 243.939L58.3754 242.304L84.3828 235.672Z" fill="black"/>
<path opacity="0.2" d="M32.0114 219.96L57.5763 227.281L77.0373 220.643L32.0114 219.96Z" fill="black"/>
<path d="M28.3724 249.189C28.3355 249.207 28.0159 248.592 27.561 247.578C27.1061 246.564 26.516 245.144 25.9321 243.552C25.3481 241.96 24.8871 240.491 24.5798 239.421C24.2724 238.352 24.1249 237.682 24.1679 237.669C24.2109 237.657 24.4384 238.309 24.7949 239.354C25.1514 240.405 25.6493 241.855 26.2271 243.441C26.8049 245.033 27.3581 246.459 27.7638 247.492C28.1634 248.525 28.4093 249.17 28.3662 249.189H28.3724Z" fill="#263238"/>
<path d="M89.9888 223.169C89.9888 223.169 89.9334 223.2 89.829 223.243C89.706 223.292 89.5462 223.347 89.3495 223.421C88.9008 223.575 88.2861 223.796 87.4993 224.072C85.8642 224.626 83.5345 225.419 80.6639 226.39C74.8859 228.32 66.8826 230.932 58.0127 233.717C49.1366 236.501 41.078 238.929 35.2323 240.651C32.3248 241.493 29.9583 242.175 28.2986 242.654C27.4934 242.876 26.8603 243.054 26.4054 243.177C26.2025 243.232 26.0427 243.275 25.9136 243.306C25.803 243.331 25.7415 243.343 25.7415 243.337C25.7415 243.337 25.7968 243.312 25.9013 243.269C26.0304 243.226 26.1902 243.177 26.3869 243.109C26.8357 242.968 27.4626 242.777 28.2617 242.525C29.9153 242.021 32.2695 241.308 35.1647 240.423C40.9919 238.653 49.0444 236.188 57.9143 233.403C66.7843 230.619 74.7937 228.043 80.5963 226.162C83.4792 225.228 85.8212 224.472 87.4624 223.943C88.2553 223.691 88.8823 223.495 89.3311 223.353C89.5339 223.292 89.6937 223.243 89.8228 223.206C89.9334 223.175 89.9888 223.163 89.9949 223.169H89.9888Z" fill="#263238"/>
<path d="M71.3822 222.72C71.3822 222.72 71.2531 222.788 70.9888 222.886C70.6937 222.991 70.3188 223.132 69.8455 223.304C68.8497 223.661 67.399 224.165 65.6041 224.773C62.0143 225.99 57.0415 227.625 51.54 229.39C46.0324 231.154 41.035 232.709 37.4084 233.803C35.595 234.35 34.1259 234.78 33.1055 235.069C32.6199 235.204 32.2265 235.309 31.9315 235.395C31.661 235.469 31.5196 235.5 31.5135 235.487C31.5135 235.475 31.6487 235.426 31.913 235.334C32.2081 235.235 32.5953 235.112 33.0748 234.952C34.1198 234.621 35.5704 234.153 37.3469 233.588C40.9858 232.426 45.9587 230.84 51.4478 229.088C56.937 227.324 61.9037 225.732 65.5365 224.564C67.313 223.993 68.7636 223.532 69.8086 223.193C70.288 223.046 70.6753 222.923 70.9703 222.831C71.2408 222.751 71.3822 222.714 71.3822 222.726V222.72Z" fill="#263238"/>
<path d="M57.441 227.238C57.4164 227.324 51.706 225.763 44.6801 223.753C37.6542 221.743 31.9806 220.046 32.0052 219.96C32.0298 219.874 37.7402 221.435 44.7661 223.445C51.7859 225.456 57.4595 227.152 57.4349 227.238H57.441Z" fill="#263238"/>
<path d="M85.3602 236.262C85.4401 236.292 84.4566 239.028 83.1596 242.372C81.8626 245.716 80.7439 248.402 80.6578 248.365C80.5779 248.334 81.5614 245.599 82.8584 242.255C84.1554 238.911 85.2741 236.225 85.3602 236.262Z" fill="#263238"/>
<path d="M82.9629 241.413C82.9383 241.499 80.6886 240.97 77.9409 240.239C75.1871 239.507 72.9742 238.843 72.9988 238.757C73.0234 238.671 75.2731 239.2 78.0208 239.931C80.7746 240.663 82.9875 241.327 82.9629 241.413Z" fill="#263238"/>
<path d="M44.7292 231.221C44.7292 231.221 44.385 231.172 43.7765 231.031C43.1126 230.865 42.252 230.656 41.2071 230.398C39.0434 229.844 36.0498 229.094 32.7858 228.111C29.5157 227.134 26.6205 226.033 24.5797 225.105C23.5594 224.638 22.7541 224.232 22.2009 223.931C21.6538 223.63 21.3526 223.452 21.3649 223.433C21.3772 223.415 21.6907 223.55 22.2562 223.82C22.8217 224.085 23.6393 224.46 24.6658 224.896C26.7189 225.769 29.6079 226.826 32.8719 227.804C36.1297 228.787 39.111 229.568 41.2624 230.176C42.2951 230.471 43.1495 230.717 43.8072 230.908C44.4035 231.086 44.7354 231.197 44.7292 231.215V231.221Z" fill="#263238"/>
<path d="M63.6187 175.143L62.8442 175.156L62.7335 172.537L52.3514 173.17C52.3514 173.17 52.4559 174.412 52.4498 175.254C46.0632 175.887 35.8102 179.151 35.5704 193.541L43.7704 193.725C43.0696 200.327 43.1803 204.267 42.4857 206.751C41.3424 210.844 37.7157 219.481 38.4472 219.917C39.1787 220.354 72.8206 220.981 74.4249 220.102C76.0292 219.229 73.1095 207.955 72.378 204.888C71.9108 202.939 71.8186 198.458 71.8063 194.998L81.2234 194.58C81.2234 194.58 81.8934 175.094 63.6248 175.143H63.6187Z" fill="#E4289B"/>
<path d="M62.8073 175.039C62.8073 175.082 62.2295 175.192 61.2828 175.297C60.3362 175.408 59.0208 175.506 57.564 175.537C56.1072 175.567 54.7856 175.518 53.8328 175.451C52.88 175.383 52.2961 175.297 52.2961 175.254C52.2961 175.211 52.8862 175.211 53.839 175.223C54.7917 175.235 56.101 175.248 57.5517 175.217C59.0023 175.186 60.3116 175.119 61.2582 175.069C62.2049 175.02 62.795 174.99 62.8011 175.033L62.8073 175.039Z" fill="#263238"/>
<path d="M54.2323 173.053C54.3184 173.053 54.3922 173.557 54.3922 174.184C54.3922 174.811 54.3184 175.315 54.2323 175.315C54.1463 175.315 54.0725 174.811 54.0725 174.184C54.0725 173.557 54.1463 173.053 54.2323 173.053Z" fill="#263238"/>
<path d="M57.0046 172.857C57.0906 172.857 57.1767 173.41 57.1951 174.098C57.2136 174.787 57.1582 175.346 57.066 175.346C56.98 175.346 56.8939 174.793 56.8755 174.104C56.857 173.416 56.9124 172.857 57.0046 172.857Z" fill="#263238"/>
<path d="M59.869 172.758C59.9551 172.752 60.078 173.305 60.0965 174C60.1149 174.695 60.0104 175.254 59.9243 175.248C59.8321 175.248 59.7891 174.688 59.7768 174.006C59.7645 173.324 59.783 172.771 59.869 172.758Z" fill="#263238"/>
<path d="M61.9467 172.66C62.0389 172.66 62.1004 173.201 62.1864 173.859C62.2664 174.516 62.3401 175.057 62.2541 175.082C62.168 175.106 61.9529 174.584 61.873 173.902C61.7869 173.219 61.8607 172.66 61.9467 172.66Z" fill="#263238"/>
<path d="M45.0797 193.547C44.9936 193.547 44.9075 192.164 44.8953 190.455C44.883 188.746 44.9383 187.363 45.0305 187.363C45.1165 187.363 45.2026 188.746 45.2149 190.455C45.2272 192.164 45.1719 193.547 45.0797 193.547Z" fill="#263238"/>
<path d="M71.4805 194.574C71.3944 194.58 71.1977 193.092 71.0379 191.254C70.8842 189.41 70.8289 187.91 70.915 187.904C71.001 187.898 71.1977 189.386 71.3576 191.224C71.5112 193.068 71.5666 194.561 71.4805 194.574Z" fill="#263238"/>
<path d="M45.0796 193.547C45.0796 193.59 44.5387 193.596 43.672 193.59C42.6824 193.584 41.539 193.572 40.2789 193.565C39.0188 193.565 37.8816 193.578 36.8858 193.584C36.0191 193.584 35.4782 193.584 35.4782 193.535C35.4782 193.492 36.013 193.418 36.8797 193.356C37.7464 193.295 38.9512 193.246 40.2789 193.246C41.6067 193.246 42.8114 193.301 43.6782 193.363C44.5449 193.43 45.0796 193.504 45.0796 193.547Z" fill="#263238"/>
<path d="M81.2233 194.574C81.2233 194.66 78.9797 194.733 76.2075 194.733C73.4352 194.733 71.1916 194.66 71.1916 194.574C71.1916 194.487 73.4352 194.414 76.2075 194.414C78.9797 194.414 81.2233 194.487 81.2233 194.574Z" fill="#263238"/>
<path d="M80.8054 194.653C80.8054 194.653 83.258 217.6 76.2321 219.856C69.2062 222.112 55.3204 211.422 55.3204 211.422L59.3158 203.333C59.3158 203.333 68.5608 209.738 70.5278 208.293C72.4948 206.849 71.4744 194.647 71.4744 194.647H80.7992L80.8054 194.653Z" fill="#B78876"/>
<path d="M35.6995 193.547C35.6995 193.547 33.1977 216.266 40.2236 218.522C47.2495 220.778 61.1353 210.088 61.1353 210.088L57.1398 201.999C57.1398 201.999 47.8642 207.925 45.9402 206.425C44.8276 205.558 44.7969 193.658 44.7969 193.658C41.5144 193.516 38.484 193.375 35.7056 193.541L35.6995 193.547Z" fill="#B78876"/>
<path d="M76.4349 198.28L71.7694 221.147C71.7694 221.147 43.1003 220.925 42.7991 220.839C42.5041 220.753 39.738 198.286 39.738 198.286H76.4349V198.28Z" fill="#263238"/>
<path d="M55.8428 209.861C55.8428 210.746 56.6112 211.465 57.5578 211.465C58.5044 211.465 59.2789 210.746 59.2789 209.861C59.2789 208.976 58.5106 208.257 57.5578 208.257C56.605 208.257 55.8428 208.976 55.8428 209.861Z" fill="white"/>
<path d="M61.8606 159.696C62.1803 159.383 63.2375 159.327 63.6064 159.585C63.9752 159.844 64.1719 160.286 64.2579 160.729C64.3993 161.46 64.2579 162.272 63.7354 162.813C63.213 163.354 62.3155 163.519 61.707 163.089" fill="#B78876"/>
<path d="M62.6044 162.468C62.6044 162.419 62.795 162.388 63.0286 162.216C63.2621 162.05 63.4957 161.718 63.4527 161.294C63.422 160.87 63.1208 160.587 62.8626 160.471C62.6044 160.348 62.4077 160.348 62.4016 160.299C62.3893 160.262 62.5983 160.157 62.9425 160.249C63.2744 160.317 63.7416 160.692 63.7785 161.264C63.8461 161.835 63.4527 162.29 63.1392 162.419C62.8196 162.567 62.5921 162.505 62.5983 162.468H62.6044Z" fill="#A36957"/>
<path d="M203.995 239.323L202.796 232.826L191.142 234.891L192.838 244.621L193.57 244.542C196.822 244.16 210.019 242.138 212.048 241.075C214.31 239.888 203.995 239.317 203.995 239.317V239.323Z" fill="#E4289B"/>
<path d="M212.213 240.435C212.232 240.546 207.898 241.437 202.526 242.427C197.154 243.417 192.789 244.13 192.765 244.019C192.746 243.908 197.08 243.017 202.452 242.027C207.818 241.038 212.189 240.325 212.213 240.435Z" fill="#263238"/>
<path d="M204.444 240.614C204.339 240.583 204.358 240.22 204.548 239.839C204.733 239.452 205.003 239.218 205.095 239.28C205.188 239.341 205.083 239.661 204.911 240.017C204.739 240.374 204.554 240.651 204.45 240.62L204.444 240.614Z" fill="#263238"/>
<path d="M205.267 240.903C205.157 240.884 205.138 240.491 205.292 240.042C205.446 239.593 205.704 239.298 205.802 239.347C205.901 239.397 205.815 239.759 205.673 240.171C205.532 240.589 205.378 240.921 205.267 240.903Z" fill="#263238"/>
<path d="M196.268 243.331C196.232 243.374 196.023 243.232 195.721 242.993C195.414 242.753 195.008 242.415 194.51 242.157C194.019 241.898 193.509 241.818 193.152 241.837C192.789 241.855 192.568 241.954 192.537 241.898C192.507 241.862 192.697 241.659 193.109 241.554C193.515 241.45 194.129 241.499 194.695 241.794C195.254 242.089 195.654 242.488 195.918 242.777C196.176 243.072 196.312 243.281 196.268 243.324V243.331Z" fill="#263238"/>
<path d="M204.259 239.384C204.333 239.464 204.173 239.729 203.866 239.913C203.559 240.097 203.251 240.11 203.214 240.005C203.178 239.901 203.393 239.729 203.663 239.569C203.934 239.409 204.186 239.304 204.259 239.39V239.384Z" fill="#263238"/>
<path d="M203.958 238.788C203.989 238.893 203.694 239.046 203.307 239.12C202.913 239.2 202.587 239.169 202.575 239.059C202.563 238.948 202.858 238.8 203.227 238.727C203.602 238.653 203.927 238.677 203.958 238.788Z" fill="#263238"/>
<path d="M218.016 170.693C214.402 163.409 195.07 135.231 195.07 135.231L184.749 136.307L184.737 136.246L173.187 137.512L166.819 138.213L189.876 238.917L205.821 238.628L201.985 219.997C204.641 213.389 220.02 174.719 218.022 170.687L218.016 170.693ZM201.567 175.039L195.869 190.338L189.409 158.971L201.567 175.039Z" fill="#263238"/>
<path d="M188.769 88.718C188.622 87.6669 189.187 83.2964 189.187 83.2964C189.187 83.2964 193.201 83.0014 193.576 79.0428C193.945 75.0781 194 65.9192 194 65.9192L186.827 62.1204L178.615 67.9415L176.488 73.4737L179.285 80.3459L179.199 82.6203L179.186 87.8267L188.775 88.7241L188.769 88.718Z" fill="#FFBE9D"/>
<path d="M193.459 72.5578C193.453 72.8406 193.213 73.0557 192.937 73.0496C192.654 73.0434 192.439 72.8037 192.445 72.5271C192.451 72.2443 192.691 72.0292 192.968 72.0353C193.25 72.0415 193.465 72.2812 193.459 72.5578Z" fill="#263238"/>
<path d="M193.496 72.023C193.429 72.0845 193.066 71.7526 192.519 71.7096C191.972 71.6542 191.554 71.9124 191.498 71.8386C191.474 71.8079 191.541 71.685 191.726 71.5682C191.904 71.4514 192.205 71.3469 192.55 71.3776C192.888 71.4084 193.164 71.5682 193.324 71.7157C193.484 71.8632 193.533 71.9923 193.496 72.023Z" fill="#263238"/>
<path d="M187.042 71.937C187.269 72.103 187.319 72.4226 187.153 72.65C186.987 72.8775 186.667 72.9266 186.44 72.7607C186.212 72.5947 186.163 72.2751 186.329 72.0476C186.495 71.8202 186.815 71.771 187.042 71.937Z" fill="#263238"/>
<path d="M187.435 71.8325C187.368 71.894 187.005 71.562 186.458 71.519C185.911 71.4637 185.493 71.7219 185.438 71.6481C185.413 71.6174 185.481 71.4944 185.665 71.3776C185.843 71.2608 186.145 71.1563 186.489 71.1871C186.827 71.2178 187.103 71.3776 187.263 71.5252C187.423 71.6727 187.472 71.8018 187.435 71.8325Z" fill="#263238"/>
<path d="M189.261 76.5164C189.261 76.5164 189.605 76.4549 190.158 76.4303C190.3 76.4303 190.435 76.4119 190.466 76.3074C190.509 76.2029 190.46 76.0369 190.404 75.8648C190.3 75.5022 190.183 75.121 190.066 74.7215C189.599 73.0926 189.267 71.7587 189.323 71.7403C189.353 71.7341 189.476 72.0538 189.648 72.5824C189.82 73.111 190.048 73.8425 190.281 74.66C190.392 75.0596 190.503 75.4468 190.601 75.8095C190.644 75.9816 190.718 76.1722 190.638 76.3812C190.595 76.4857 190.49 76.5533 190.398 76.5717C190.306 76.5902 190.226 76.584 190.158 76.584C189.605 76.5656 189.261 76.541 189.261 76.5102V76.5164Z" fill="#263238"/>
<path d="M187.435 76.9713C186.895 76.584 188.935 77.9302 190.048 77.9671C190.048 77.9671 189.329 78.9321 188.216 78.4219C187.067 77.8933 187.429 76.9713 187.429 76.9713H187.435Z" fill="white"/>
<path d="M189.187 83.2964C189.187 83.2964 186.513 83.2411 183.987 81.354C183.987 81.354 185.087 84.3045 189.07 84.2676L189.187 83.2964Z" fill="#EB996E"/>
<path d="M179.746 74.574C179.746 74.574 179.69 74.617 179.592 74.6724C179.5 74.7215 179.334 74.7646 179.149 74.7092C178.787 74.5986 178.449 74.0515 178.393 73.443C178.369 73.1356 178.412 72.8406 178.51 72.5886C178.596 72.3365 178.75 72.1521 178.928 72.1091C179.106 72.0599 179.235 72.1583 179.285 72.2505C179.334 72.3427 179.322 72.4103 179.334 72.4164C179.346 72.4226 179.401 72.355 179.365 72.2197C179.346 72.1521 179.303 72.0784 179.217 72.0169C179.131 71.9554 179.008 71.9308 178.885 71.9493C178.627 71.9862 178.406 72.2382 178.301 72.5087C178.184 72.7853 178.123 73.1172 178.154 73.4614C178.215 74.1437 178.602 74.7584 179.1 74.8691C179.34 74.9182 179.537 74.8322 179.635 74.7461C179.733 74.6539 179.746 74.5802 179.733 74.574H179.746Z" fill="#EB996E"/>
<path d="M195.045 66.5769C194.805 66.6568 194.584 66.6937 194.381 66.706C195.119 66.3126 195.752 65.7102 196.146 64.9664C196.705 63.9276 196.779 62.5876 196.146 61.5979C195.506 60.6083 194.08 60.1411 193.066 60.7374C193.558 59.926 193.164 58.7888 192.384 58.254C191.603 57.7254 190.552 57.7192 189.654 58.0143C188.757 58.3093 187.97 58.8687 187.202 59.4158C187.116 58.7765 186.655 58.2294 186.083 57.9405C185.505 57.6516 184.835 57.6025 184.202 57.7008C182.358 57.9774 180.778 59.5326 180.471 61.3766C179.893 60.7804 179.002 60.5161 178.197 60.7005C177.391 60.8849 176.703 61.5119 176.445 62.2987C176.432 62.3294 176.432 62.354 176.42 62.3847C176.082 62.5261 175.756 62.7843 175.535 63.1531C175.203 63.6879 175.099 64.4378 175.344 65.1201C175.566 65.8085 176.088 66.331 176.562 66.663C176.789 66.8412 176.992 67.0133 177.121 67.21C177.25 67.4006 177.311 67.6034 177.336 67.8001C177.287 69.1279 176.605 70.3818 176.273 71.6911C175.818 73.4922 176.82 75.9632 177.398 77.7335C177.975 79.5038 178.178 80.2107 179.297 80.3336L179.475 75.5759C178.233 76.584 176.605 73.1172 177.68 71.7341C178.756 70.3511 179.899 70.8244 180.096 71.6973C180.225 72.2812 180.385 72.6869 180.385 72.6869H181.633L181.497 71.6419C181.497 71.6419 181.245 67.0256 183.452 66.7429C184.233 66.6445 184.411 66.7183 185.124 67.0564C185.831 67.3944 186.581 67.3944 187.368 67.3699C188.155 67.3453 189.212 66.4786 189.187 65.6918C190.072 66.7429 191.498 67.3207 192.869 67.1793C193.226 67.1424 193.576 67.0564 193.908 66.9273C194.228 67.0256 194.695 67.0502 195.168 66.8904C195.66 66.7244 196.035 66.4109 196.225 66.1343C196.422 65.8577 196.459 65.6487 196.422 65.6303C196.342 65.5811 195.949 66.288 195.064 66.5708L195.045 66.5769ZM176.727 66.4294C176.266 66.0729 175.842 65.6303 175.633 65.0156C175.418 64.4193 175.498 63.7801 175.775 63.3129C175.916 63.0609 176.113 62.8642 176.322 62.7228C176.113 64.1182 177.023 65.5319 177.262 66.9826C177.115 66.7736 176.924 66.5953 176.727 66.4294Z" fill="#E4289B"/>
<path d="M216.154 72.3488V80.266C216.154 82.0609 217.61 83.5177 219.405 83.5177H233.113V88.048L235.572 83.7205C237.084 83.6099 238.252 82.3498 238.252 80.8315V72.3488C238.252 70.5539 236.795 69.0971 235 69.0971H219.405C217.61 69.0971 216.154 70.5539 216.154 72.3488Z" fill="#E4289B"/>
<path d="M223.622 76.7316C223.622 77.4692 223.02 78.0716 222.282 78.0716C221.544 78.0716 220.942 77.4692 220.942 76.7316C220.942 75.9939 221.544 75.3915 222.282 75.3915C223.02 75.3915 223.622 75.9939 223.622 76.7316Z" fill="white"/>
<path d="M228.712 76.7316C228.712 77.4692 228.109 78.0716 227.372 78.0716C226.634 78.0716 226.032 77.4692 226.032 76.7316C226.032 75.9939 226.634 75.3915 227.372 75.3915C228.109 75.3915 228.712 75.9939 228.712 76.7316Z" fill="white"/>
<path d="M233.801 76.7316C233.801 77.4692 233.199 78.0716 232.461 78.0716C231.724 78.0716 231.121 77.4692 231.121 76.7316C231.121 75.9939 231.724 75.3915 232.461 75.3915C233.199 75.3915 233.801 75.9939 233.801 76.7316Z" fill="white"/>
<path d="M226.984 95.8976C226.714 95.2706 209.251 110.693 205.778 111.222L195.592 97.9629C195.592 97.9629 193.478 94.6067 188.941 88.8655C186.015 85.1589 177.932 85.9273 175.806 90.4453C172.197 98.1166 172.068 108.302 169.284 124.604L166.917 138.446C166.917 138.446 170.402 138.041 170.39 138.065L195.174 135.465L195.789 118.899C200.688 123.866 202.206 124.899 204.757 124.505C211.169 123.509 233.599 103.335 233.599 103.335C233.599 103.335 227.255 96.5245 226.984 95.8976Z" fill="#455A64"/>
<path d="M230.58 106.157C230.556 106.187 230.058 105.831 229.32 105.185C228.583 104.54 227.611 103.587 226.64 102.444C225.669 101.301 224.882 100.188 224.36 99.3582C223.837 98.5284 223.567 97.9813 223.598 97.9629C223.641 97.9383 223.979 98.4424 224.544 99.2353C225.11 100.028 225.915 101.11 226.88 102.241C227.845 103.372 228.779 104.343 229.474 105.026C230.169 105.714 230.605 106.126 230.574 106.163L230.58 106.157Z" fill="#263238"/>
<path d="M204.788 116.477C204.702 116.459 204.837 115.273 205.095 113.822C205.354 112.371 205.63 111.209 205.722 111.222C205.808 111.24 205.673 112.427 205.415 113.877C205.157 115.328 204.88 116.49 204.788 116.477Z" fill="#263238"/>
<path d="M207.007 115.93C206.921 115.955 206.571 114.934 206.226 113.656C205.882 112.377 205.667 111.32 205.753 111.295C205.839 111.271 206.19 112.291 206.534 113.57C206.878 114.848 207.093 115.906 207.007 115.93Z" fill="#263238"/>
<path opacity="0.2" d="M182.629 101.479L195.531 125.87L195.82 118.635L182.629 101.479Z" fill="black"/>
<path d="M181.793 100.293C181.793 100.293 182.02 100.545 182.389 101.03C182.788 101.565 183.305 102.26 183.926 103.096C185.223 104.841 187.036 107.232 189.07 109.845C191.093 112.439 192.925 114.781 194.295 116.539C194.928 117.369 195.457 118.051 195.863 118.58C196.225 119.065 196.422 119.342 196.404 119.354C196.385 119.366 196.158 119.12 195.764 118.653C195.34 118.143 194.787 117.473 194.117 116.674C192.74 114.996 190.853 112.654 188.812 110.035C186.778 107.417 184.989 105.001 183.741 103.218C183.114 102.327 182.616 101.602 182.284 101.092C181.952 100.581 181.774 100.299 181.793 100.28V100.293Z" fill="#263238"/>
<path d="M182.198 107.915C182.198 107.915 182.094 107.65 181.971 107.165C181.848 106.679 181.688 105.985 181.497 105.136L181.688 105.222C180.932 105.634 180.078 106.101 179.156 106.605L178.983 106.698L178.928 106.507C178.836 106.169 178.731 105.825 178.633 105.468C178.479 104.921 178.332 104.386 178.19 103.876L178.418 103.968C177.496 104.491 176.648 104.964 175.916 105.376L175.762 105.462L175.738 105.29C175.535 103.882 175.437 102.997 175.48 102.991C175.529 102.985 175.713 103.852 175.971 105.253L175.793 105.167C176.512 104.737 177.348 104.239 178.258 103.698L178.43 103.593L178.485 103.79C178.633 104.3 178.781 104.829 178.94 105.382C179.039 105.739 179.137 106.089 179.235 106.421L179.008 106.323C179.942 105.837 180.809 105.382 181.571 104.989L181.731 104.909L181.762 105.081C181.922 105.935 182.045 106.642 182.124 107.134C182.204 107.626 182.235 107.909 182.211 107.909L182.198 107.915Z" fill="#263238"/>
<path d="M185.229 94.1273C185.229 94.1273 184.97 94.0105 184.546 93.7462C184.122 93.4819 183.52 93.0946 182.794 92.6151L182.991 92.5475C182.733 93.3651 182.444 94.2994 182.131 95.3013L182.069 95.4919L181.897 95.3935C181.596 95.2214 181.282 95.037 180.963 94.8526C180.471 94.5637 179.992 94.2871 179.537 94.0166L179.764 93.9244C179.463 94.9387 179.186 95.8669 178.947 96.6721L178.897 96.8442L178.762 96.7397C177.637 95.8669 176.955 95.3013 176.98 95.2645C177.01 95.2276 177.742 95.7193 178.904 96.5492L178.719 96.6106C178.94 95.7992 179.192 94.8649 179.469 93.8445L179.524 93.654L179.703 93.7523C180.164 94.0166 180.643 94.2932 181.135 94.5821C181.454 94.7666 181.768 94.951 182.069 95.1292L181.842 95.2153C182.174 94.2195 182.481 93.2913 182.758 92.4738L182.813 92.3078L182.954 92.4062C183.661 92.9102 184.245 93.3282 184.639 93.6294C185.038 93.9306 185.253 94.1088 185.241 94.1334L185.229 94.1273Z" fill="#263238"/>
<path d="M194.283 98.8665C194.283 98.8665 194.056 98.6944 193.699 98.3502C193.343 97.9998 192.845 97.4896 192.236 96.8626L192.445 96.838C192.015 97.5818 191.529 98.4301 191.001 99.3398L190.902 99.5119L190.755 99.3767C190.497 99.1431 190.232 98.8911 189.962 98.6452C189.544 98.258 189.138 97.8769 188.751 97.5142L188.991 97.4773C188.474 98.3993 188.001 99.2476 187.589 99.9791L187.503 100.133L187.392 99.9975C186.489 98.8972 185.942 98.2026 185.979 98.1719C186.015 98.1412 186.624 98.7866 187.577 99.8439L187.38 99.8623C187.773 99.1185 188.222 98.2641 188.714 97.3236L188.806 97.1454L188.954 97.2806C189.341 97.6371 189.753 98.0121 190.171 98.3993C190.441 98.6514 190.706 98.8972 190.964 99.137L190.718 99.1738C191.259 98.2764 191.763 97.4343 192.212 96.7028L192.304 96.5491L192.421 96.6782C193.004 97.3236 193.478 97.8584 193.797 98.2395C194.123 98.6206 194.295 98.8419 194.271 98.8604L194.283 98.8665Z" fill="#E0E0E0"/>
<path d="M218.158 114.387C218.158 114.387 217.949 114.191 217.641 113.797C217.334 113.404 216.897 112.838 216.381 112.138H216.59C216.074 112.826 215.477 113.607 214.844 114.443L214.728 114.596L214.598 114.443C214.377 114.178 214.144 113.896 213.904 113.613C213.541 113.176 213.185 112.746 212.847 112.34H213.092C212.466 113.183 211.888 113.963 211.39 114.639L211.285 114.781L211.193 114.633C210.431 113.428 209.976 112.666 210.019 112.642C210.056 112.617 210.585 113.33 211.39 114.498H211.193C211.673 113.81 212.232 113.017 212.84 112.144L212.957 111.978L213.086 112.132C213.431 112.537 213.787 112.961 214.15 113.398C214.389 113.681 214.617 113.963 214.844 114.228H214.598C215.25 113.41 215.859 112.642 216.387 111.966L216.498 111.824L216.596 111.966C217.094 112.679 217.494 113.269 217.77 113.687C218.041 114.105 218.188 114.344 218.164 114.363L218.158 114.387Z" fill="#263238"/>
<path d="M203.38 113.146C203.38 113.146 203.135 113.004 202.741 112.697C202.348 112.39 201.788 111.941 201.118 111.394L201.321 111.345C200.983 112.131 200.596 113.029 200.184 114L200.104 114.178L199.944 114.062C199.662 113.859 199.367 113.644 199.071 113.428C198.61 113.09 198.168 112.765 197.738 112.451L197.971 112.384C197.565 113.361 197.197 114.258 196.877 115.033L196.809 115.199L196.686 115.082C195.66 114.098 195.033 113.465 195.07 113.435C195.101 113.398 195.783 113.969 196.852 114.91L196.662 114.953C196.963 114.172 197.313 113.269 197.695 112.279L197.768 112.095L197.934 112.211C198.365 112.525 198.813 112.845 199.274 113.183C199.576 113.404 199.864 113.619 200.147 113.822L199.907 113.883C200.344 112.924 200.743 112.033 201.1 111.252L201.174 111.093L201.303 111.209C201.954 111.781 202.489 112.261 202.852 112.599C203.214 112.937 203.411 113.14 203.399 113.158L203.38 113.146Z" fill="#E0E0E0"/>
<path d="M224.532 109.679C224.532 109.679 224.452 109.408 224.372 108.911C224.298 108.419 224.2 107.712 224.089 106.845L224.268 106.95C223.481 107.288 222.583 107.675 221.618 108.093L221.44 108.173L221.403 107.976C221.342 107.632 221.274 107.275 221.206 106.913C221.102 106.353 221.004 105.806 220.911 105.284L221.126 105.395C220.161 105.825 219.276 106.224 218.508 106.562L218.348 106.636V106.464C218.268 105.044 218.25 104.159 218.299 104.153C218.348 104.153 218.453 105.032 218.576 106.446L218.403 106.347C219.159 105.985 220.032 105.567 220.991 105.112L221.17 105.026L221.206 105.222C221.305 105.745 221.403 106.286 221.508 106.845C221.575 107.208 221.637 107.564 221.704 107.909L221.489 107.792C222.46 107.392 223.37 107.023 224.163 106.704L224.329 106.636L224.347 106.808C224.427 107.675 224.489 108.388 224.52 108.886C224.55 109.384 224.556 109.667 224.532 109.667V109.679Z" fill="#E0E0E0"/>
<path d="M195.058 103.12C195.058 103.12 194.83 103.292 194.4 103.538C193.97 103.784 193.336 104.128 192.574 104.54L192.611 104.337C193.207 104.952 193.89 105.653 194.621 106.409L194.756 106.55L194.59 106.655C194.295 106.839 193.982 107.023 193.668 107.22C193.183 107.515 192.709 107.804 192.255 108.075L192.285 107.829C193.035 108.579 193.717 109.267 194.314 109.857L194.437 109.98L194.277 110.048C192.974 110.619 192.15 110.951 192.132 110.908C192.113 110.865 192.9 110.453 194.179 109.826L194.148 110.023C193.539 109.445 192.838 108.775 192.07 108.044L191.923 107.909L192.095 107.804C192.55 107.527 193.017 107.239 193.502 106.937C193.822 106.747 194.129 106.556 194.424 106.378L194.394 106.624C193.674 105.855 193.004 105.142 192.421 104.515L192.298 104.386L192.451 104.313C193.232 103.932 193.877 103.618 194.332 103.415C194.787 103.206 195.045 103.102 195.058 103.126V103.12Z" fill="#263238"/>
<path d="M206.343 116.477C206.343 116.477 206.116 116.649 205.685 116.895C205.255 117.141 204.622 117.485 203.86 117.897L203.897 117.694C204.493 118.309 205.175 119.01 205.907 119.766L206.042 119.907L205.87 120.012C205.575 120.196 205.261 120.381 204.948 120.577C204.462 120.872 203.989 121.161 203.534 121.432L203.565 121.186C204.315 121.936 204.997 122.618 205.593 123.214L205.716 123.337L205.556 123.405C204.253 123.977 203.43 124.308 203.411 124.265C203.393 124.222 204.179 123.811 205.458 123.184L205.427 123.38C204.819 122.802 204.118 122.132 203.35 121.401L203.202 121.266L203.374 121.161C203.829 120.885 204.296 120.596 204.782 120.295C205.102 120.104 205.409 119.913 205.704 119.735L205.673 119.981C204.954 119.213 204.284 118.5 203.7 117.873L203.577 117.744L203.731 117.67C204.511 117.289 205.157 116.975 205.612 116.772C206.067 116.563 206.325 116.459 206.337 116.483L206.343 116.477Z" fill="#E0E0E0"/>
<path d="M183.938 116.299C183.938 116.299 183.833 116.035 183.71 115.549C183.587 115.064 183.428 114.369 183.237 113.521L183.428 113.607C182.672 114.019 181.817 114.486 180.895 114.99L180.723 115.082L180.668 114.891C180.569 114.553 180.471 114.209 180.373 113.853C180.219 113.306 180.071 112.771 179.93 112.261L180.157 112.353C179.235 112.875 178.387 113.349 177.662 113.76L177.508 113.846L177.484 113.674C177.281 112.267 177.182 111.382 177.225 111.375C177.275 111.369 177.459 112.236 177.717 113.637L177.539 113.551C178.258 113.121 179.094 112.623 180.004 112.082L180.176 111.978L180.231 112.174C180.379 112.685 180.526 113.213 180.686 113.767C180.784 114.123 180.883 114.473 180.975 114.805L180.748 114.707C181.682 114.221 182.549 113.767 183.311 113.373L183.464 113.293L183.495 113.465C183.655 114.32 183.778 115.027 183.858 115.518C183.938 116.01 183.969 116.293 183.944 116.293L183.938 116.299Z" fill="#E0E0E0"/>
<path d="M194.203 122.102C194.203 122.102 194.099 121.837 193.976 121.352C193.853 120.866 193.693 120.172 193.502 119.323L193.693 119.409C192.937 119.821 192.082 120.288 191.16 120.792L190.988 120.885L190.933 120.694C190.841 120.356 190.736 120.012 190.638 119.655C190.484 119.108 190.337 118.573 190.195 118.063L190.423 118.155C189.501 118.678 188.652 119.151 187.927 119.563L187.773 119.649L187.749 119.477C187.546 118.069 187.448 117.184 187.491 117.178C187.54 117.172 187.724 118.039 187.982 119.434L187.804 119.348C188.523 118.918 189.359 118.42 190.269 117.879L190.441 117.774L190.497 117.971C190.644 118.481 190.792 119.016 190.951 119.563C191.05 119.92 191.148 120.27 191.24 120.602L191.013 120.504C191.947 120.018 192.814 119.563 193.576 119.17L193.73 119.09L193.761 119.262C193.92 120.116 194.043 120.823 194.123 121.315C194.203 121.807 194.234 122.083 194.209 122.089L194.203 122.102Z" fill="#263238"/>
<path d="M179.174 134.9C179.174 134.9 179.069 134.635 178.947 134.15C178.824 133.664 178.664 132.969 178.473 132.121L178.664 132.207C177.908 132.619 177.053 133.086 176.131 133.59L175.959 133.682L175.904 133.492C175.805 133.16 175.707 132.81 175.609 132.453C175.455 131.906 175.308 131.371 175.166 130.861L175.394 130.953C174.472 131.476 173.623 131.949 172.898 132.361L172.744 132.447L172.72 132.275C172.517 130.867 172.419 129.982 172.462 129.976C172.511 129.97 172.695 130.836 172.953 132.238L172.775 132.152C173.494 131.722 174.33 131.224 175.24 130.683L175.412 130.578L175.467 130.775C175.615 131.285 175.762 131.814 175.922 132.367C176.021 132.724 176.119 133.074 176.211 133.406L175.984 133.307C176.918 132.822 177.785 132.367 178.547 131.974L178.701 131.894L178.731 132.066C178.891 132.92 179.014 133.627 179.094 134.119C179.174 134.611 179.205 134.893 179.18 134.893L179.174 134.9Z" fill="#E0E0E0"/>
<path d="M179.463 121.469C179.463 121.469 179.211 121.327 178.817 121.026C178.418 120.725 177.859 120.282 177.182 119.741L177.385 119.692C177.053 120.485 176.678 121.389 176.273 122.36L176.199 122.538L176.039 122.421C175.756 122.218 175.461 122.01 175.16 121.794C174.699 121.462 174.25 121.137 173.814 120.829L174.047 120.762C173.654 121.745 173.291 122.643 172.978 123.423L172.91 123.589L172.787 123.472C171.749 122.501 171.122 121.874 171.152 121.837C171.183 121.801 171.871 122.36 172.947 123.294L172.757 123.337C173.052 122.55 173.39 121.647 173.759 120.651L173.826 120.46L173.992 120.577C174.422 120.885 174.877 121.204 175.338 121.536C175.639 121.751 175.935 121.966 176.217 122.169L175.978 122.237C176.402 121.272 176.795 120.381 177.139 119.594L177.213 119.434L177.342 119.545C178 120.11 178.541 120.583 178.91 120.915C179.278 121.253 179.475 121.45 179.463 121.469Z" fill="#263238"/>
<path d="M184.823 121.831C184.823 121.831 184.608 122.022 184.196 122.298C183.784 122.575 183.182 122.962 182.444 123.423L182.463 123.214C183.102 123.786 183.833 124.438 184.614 125.138L184.761 125.267L184.602 125.384C184.319 125.587 184.024 125.796 183.723 126.011C183.256 126.343 182.807 126.657 182.37 126.964L182.383 126.718C183.182 127.413 183.913 128.052 184.546 128.599L184.682 128.716L184.528 128.796C183.268 129.46 182.475 129.847 182.45 129.81C182.426 129.767 183.182 129.3 184.411 128.587L184.393 128.783C183.747 128.249 182.997 127.634 182.18 126.958L182.026 126.829L182.192 126.712C182.622 126.405 183.071 126.085 183.538 125.753C183.839 125.538 184.135 125.329 184.423 125.126L184.411 125.372C183.643 124.659 182.924 123.989 182.297 123.405L182.168 123.282L182.315 123.196C183.065 122.759 183.686 122.403 184.128 122.163C184.565 121.923 184.817 121.801 184.835 121.825L184.823 121.831Z" fill="#263238"/>
<path d="M190.742 126.023C190.742 126.023 190.607 126.275 190.312 126.675C190.017 127.075 189.581 127.646 189.046 128.329L188.997 128.126C189.796 128.445 190.699 128.808 191.677 129.201L191.861 129.275L191.75 129.441C191.554 129.73 191.345 130.025 191.136 130.332C190.81 130.8 190.49 131.254 190.189 131.691L190.115 131.457C191.105 131.838 192.009 132.189 192.789 132.49L192.955 132.551L192.838 132.681C191.88 133.732 191.265 134.371 191.228 134.34C191.191 134.309 191.744 133.615 192.66 132.521L192.709 132.711C191.916 132.428 191.007 132.103 190.011 131.746L189.82 131.679L189.937 131.513C190.238 131.076 190.552 130.621 190.878 130.148C191.087 129.847 191.296 129.546 191.492 129.263L191.56 129.496C190.589 129.085 189.691 128.703 188.898 128.372L188.739 128.304L188.849 128.169C189.409 127.499 189.87 126.958 190.201 126.583C190.533 126.208 190.724 126.005 190.749 126.023H190.742Z" fill="#E0E0E0"/>
<path d="M187.374 136.043C187.374 136.043 187.405 136.111 187.448 136.246C187.491 136.399 187.552 136.596 187.626 136.848C187.773 137.383 187.995 138.17 188.247 139.196C188.493 140.223 188.812 141.477 189.027 142.977C189.163 143.72 189.089 144.593 188.714 145.38C188.351 146.173 187.823 146.923 187.14 147.611L187.171 147.507C188.782 155.147 191.037 165.861 193.533 177.719C195.961 189.379 198.131 199.94 199.662 207.586C200.43 211.41 201.038 214.508 201.438 216.653C201.641 217.729 201.788 218.559 201.881 219.124C201.973 219.69 202.004 219.997 201.979 219.997C201.979 219.997 201.93 219.702 201.819 219.136C201.702 218.553 201.53 217.729 201.315 216.678C200.866 214.526 200.227 211.434 199.44 207.63C197.842 199.977 195.648 189.429 193.22 177.78C190.761 165.917 188.536 155.197 186.95 147.55L186.938 147.488L186.981 147.445C188.284 146.136 189.163 144.489 188.849 142.995C188.652 141.514 188.351 140.254 188.124 139.221C187.884 138.207 187.694 137.42 187.564 136.86C187.503 136.602 187.454 136.399 187.417 136.246C187.386 136.104 187.374 136.037 187.374 136.037V136.043Z" fill="#455A64"/>
<path d="M174.435 137.518C174.435 137.518 174.527 137.653 174.625 137.936C174.724 138.213 174.816 138.637 174.859 139.165C174.939 140.21 174.687 141.766 173.673 143.069C172.652 144.372 171.208 144.999 170.175 145.171C169.652 145.263 169.222 145.269 168.927 145.245C168.632 145.22 168.472 145.183 168.478 145.159C168.478 145.097 169.13 145.183 170.132 144.944C171.115 144.722 172.462 144.095 173.427 142.866C174.379 141.637 174.662 140.174 174.644 139.165C174.631 138.139 174.392 137.524 174.447 137.512L174.435 137.518Z" fill="#455A64"/>
<path d="M184.731 138.176C184.731 138.176 184.755 138.09 184.878 138.01C185.001 137.93 185.222 137.869 185.487 137.93C185.739 137.979 186.071 138.225 186.114 138.612C186.163 138.975 185.985 139.424 185.561 139.608C185.13 139.774 184.694 139.584 184.466 139.301C184.221 139.006 184.245 138.612 184.362 138.379C184.614 137.881 185.02 137.869 185.001 137.912C185.026 137.955 184.706 138.053 184.571 138.465C184.503 138.661 184.516 138.92 184.688 139.11C184.854 139.301 185.173 139.418 185.438 139.313C185.696 139.209 185.843 138.895 185.819 138.649C185.806 138.391 185.616 138.219 185.419 138.151C185.013 138.004 184.755 138.225 184.731 138.182V138.176Z" fill="#455A64"/>
<path d="M197.719 139.54C197.719 139.54 197.313 139.835 196.527 139.952C195.758 140.069 194.59 139.971 193.558 139.301C192.525 138.631 191.953 137.61 191.75 136.854C191.535 136.092 191.609 135.594 191.64 135.6C191.695 135.6 191.707 136.08 191.966 136.787C192.218 137.487 192.777 138.409 193.736 139.03C194.695 139.645 195.771 139.78 196.508 139.725C197.258 139.676 197.707 139.485 197.725 139.534L197.719 139.54Z" fill="#455A64"/>
<path d="M204.468 233.52C204.468 233.52 204.253 233.569 203.854 233.594C203.387 233.619 202.827 233.649 202.182 233.686C200.682 233.76 198.776 233.846 196.662 233.95C194.547 234.061 192.636 234.159 191.142 234.233C190.49 234.264 189.937 234.289 189.47 234.307C189.077 234.319 188.855 234.313 188.855 234.295C188.855 234.27 189.07 234.233 189.464 234.184C189.857 234.135 190.429 234.073 191.13 234.012C192.537 233.883 194.492 233.741 196.65 233.631C198.807 233.526 200.762 233.471 202.182 233.465C202.889 233.465 203.46 233.465 203.86 233.471C204.253 233.483 204.475 233.496 204.475 233.52H204.468Z" fill="#455A64"/>
<path d="M176.408 144.532C176.494 144.513 181.338 164.466 187.22 189.097C193.109 213.74 197.805 233.723 197.719 233.742C197.633 233.76 192.795 213.813 186.907 189.17C181.024 164.54 176.322 144.55 176.408 144.532Z" fill="#455A64"/>
<path d="M192.138 145.3C192.138 145.3 192.181 145.343 192.248 145.429C192.328 145.534 192.427 145.669 192.55 145.829C192.826 146.204 193.207 146.726 193.687 147.39C194.683 148.773 196.09 150.746 197.83 153.174C199.576 155.627 201.647 158.547 203.946 161.78C205.095 163.403 206.294 165.105 207.542 166.87C208.753 168.646 209.994 170.625 210.333 172.967C210.665 175.309 209.976 177.559 209.263 179.581C208.525 181.616 207.788 183.564 207.069 185.421C205.636 189.127 204.266 192.434 203.079 195.201C201.893 197.96 200.891 200.18 200.184 201.704C199.834 202.448 199.557 203.032 199.36 203.456C199.268 203.64 199.194 203.788 199.139 203.905C199.09 204.003 199.059 204.058 199.053 204.052C199.053 204.052 199.065 203.997 199.108 203.892C199.158 203.769 199.225 203.616 199.305 203.425C199.489 202.995 199.748 202.405 200.073 201.649C200.743 200.106 201.715 197.881 202.87 195.108C204.026 192.336 205.372 189.023 206.792 185.316C207.499 183.46 208.23 181.511 208.962 179.477C209.669 177.461 210.333 175.26 210.007 173.01C209.687 170.76 208.476 168.812 207.278 167.048C206.036 165.277 204.837 163.575 203.7 161.946C201.426 158.694 199.373 155.768 197.645 153.303C195.943 150.851 194.56 148.859 193.582 147.458C193.121 146.781 192.752 146.247 192.494 145.859C192.384 145.687 192.291 145.552 192.218 145.441C192.156 145.343 192.125 145.294 192.132 145.294L192.138 145.3Z" fill="#455A64"/>
<path d="M223.376 96.5246L237.108 86.5051L237.778 87.5808L224.138 97.7232L223.376 96.5246Z" fill="#263238"/>
<path d="M226.769 96.2172C226.769 96.2172 228.613 91.4226 229.025 90.4023C229.437 89.3819 230.144 87.6054 230.402 87.5685C230.666 87.5317 231.625 87.6853 230.371 90.7342C229.117 93.783 231.853 91.9205 231.853 91.9205L234.496 90.0273C234.496 90.0273 236.586 96.2664 235.393 98.1473C234.109 100.176 232.259 102.118 232.259 102.118L226.763 96.2172H226.769Z" fill="#FFBE9D"/>
</g>
<path d="M258.37 245.831C258.37 245.915 200.525 245.987 129.191 245.987C57.8579 245.987 0 245.915 0 245.831C0 245.746 57.8328 245.674 129.191 245.674C200.55 245.674 258.37 245.746 258.37 245.831Z" fill="#263238"/>
<defs>
<clipPath id="clip0_471_1903">
<rect width="250.012" height="250" fill="white" transform="translate(4)"/>
</clipPath>
</defs>
</svg>
