<svg width="259" height="250" viewBox="0 0 259 250" fill="none" xmlns="http://www.w3.org/2000/svg">
<path d="M29.3063 249.831C29.3063 249.831 19.7656 200.448 19.7487 190.291C19.7206 176.234 30.4869 170.639 30.4869 170.639L26.3041 158.711H49.3209L45.6891 170.554C45.6891 170.554 57.8103 176.976 56.118 191.555C52.9584 218.814 47.921 249.831 47.921 249.831H29.3119H29.3063Z" fill="#F5F5F5"/>
<path d="M51.2605 176.234C51.2605 176.234 51.1706 176.234 51.0019 176.217C50.8332 176.201 50.5802 176.178 50.2542 176.184C49.5964 176.184 48.6125 176.302 47.46 176.796C46.3074 177.279 45.0256 178.178 43.8731 179.532C43.294 180.206 42.7487 180.987 42.2258 181.852C41.7086 182.718 41.1913 183.656 40.7809 184.695C40.3761 185.729 40.0725 186.875 40.1119 188.088C40.1513 189.285 40.601 190.532 41.4781 191.476C41.9222 191.937 42.4732 192.319 43.1085 192.499C43.7381 192.684 44.4297 192.667 45.0706 192.448C46.3524 191.993 47.4094 190.841 47.8254 189.471C48.2808 188.088 47.8254 186.51 46.864 185.347C45.9027 184.173 44.469 183.352 42.9173 183.06C41.3544 182.785 39.6959 183.038 38.161 183.633C36.6206 184.229 35.1757 185.133 33.8882 186.24C31.3133 188.454 29.4693 191.431 28.8565 194.572C28.5473 196.134 28.5529 197.74 28.952 199.224C29.3006 200.712 30.0933 202.066 31.2177 202.982C31.78 203.437 32.4321 203.763 33.1236 203.858C33.8095 203.965 34.5179 203.819 35.0857 203.471C36.2495 202.757 36.8174 201.37 36.8398 200.1C36.8567 199.46 36.733 198.825 36.4744 198.263C36.2158 197.707 35.8166 197.218 35.3725 196.819C34.4729 196.016 33.3541 195.577 32.2691 195.375C30.0708 194.965 28.0132 195.549 26.4671 196.381C24.8985 197.218 23.791 198.33 23.0432 199.325C22.2899 200.325 21.8851 201.224 21.6602 201.842C21.4297 202.46 21.3566 202.802 21.3341 202.797C21.3341 202.797 21.3847 202.448 21.5983 201.819C21.8064 201.19 22.1887 200.274 22.942 199.246C23.6841 198.229 24.7917 197.083 26.3771 196.212C27.9401 195.353 30.0371 194.735 32.3084 195.139C33.4272 195.341 34.591 195.785 35.5411 196.622C36.0078 197.044 36.4238 197.544 36.7105 198.145C36.9916 198.746 37.1209 199.42 37.1097 200.1C37.0872 201.443 36.5025 202.915 35.2319 203.712C34.6022 204.1 33.8264 204.263 33.0787 204.145C32.3253 204.044 31.6169 203.696 31.0266 203.212C29.8347 202.252 29.0083 200.83 28.6428 199.291C28.2324 197.763 28.2212 196.106 28.536 194.499C29.1601 191.268 31.0435 188.235 33.669 185.976C34.9845 184.847 36.4575 183.925 38.0373 183.313C39.6172 182.706 41.3319 182.442 42.9735 182.729C44.5983 183.038 46.0938 183.892 47.1058 185.133C47.6061 185.751 47.9828 186.47 48.174 187.235C48.3764 187.993 48.3426 188.813 48.1121 189.544C47.6567 191.01 46.5436 192.218 45.1549 192.707C44.4634 192.943 43.6988 192.959 43.0185 192.752C42.3326 192.549 41.7423 192.139 41.27 191.645C40.3424 190.639 39.887 189.324 39.8533 188.077C39.8195 186.819 40.14 185.639 40.5617 184.594C40.9889 183.543 41.5174 182.6 42.0459 181.729C42.58 180.864 43.1422 180.077 43.7325 179.397C44.9132 178.032 46.2287 177.133 47.4094 176.661C48.5844 176.178 49.5907 176.083 50.2542 176.099C50.9232 176.122 51.2605 176.217 51.2605 176.217V176.234Z" fill="#E0E0E0"/>
<path d="M51.8564 213.533C51.8564 213.533 51.9745 214.443 51.6484 216.044C51.4798 216.842 51.1818 217.803 50.6364 218.831C50.1023 219.859 49.3265 220.96 48.2246 221.932C47.1339 222.91 45.689 223.719 44.0136 224.14C42.3438 224.561 40.4323 224.623 38.5602 224.061C36.6936 223.511 34.9114 222.308 33.6465 220.6C32.3759 218.915 31.5832 216.718 31.7631 214.454C31.8643 213.336 32.2634 212.19 33.1236 211.426C33.9782 210.645 35.2375 210.494 36.2664 210.802C37.3065 211.1 38.2172 211.803 38.6951 212.746C39.1674 213.685 39.2292 214.763 39.0156 215.718C38.8019 216.685 38.3297 217.555 37.7 218.241C37.0647 218.932 36.2889 219.421 35.4905 219.763C33.8826 220.438 32.2185 220.539 30.7736 220.359C29.3175 220.185 28.0469 219.735 27.018 219.202C25.9779 218.679 25.1796 218.061 24.578 217.516C23.3749 216.404 22.9532 215.595 22.9532 215.595C22.9532 215.595 22.9982 215.634 23.0657 215.718C23.1444 215.819 23.2456 215.943 23.3693 216.095C23.6504 216.409 24.0552 216.898 24.668 217.421C25.2752 217.949 26.0735 218.539 27.1024 219.039C28.1256 219.544 29.3737 219.971 30.8017 220.129C32.2185 220.291 33.8376 220.174 35.3837 219.516C36.1483 219.185 36.8904 218.707 37.4864 218.05C38.0767 217.398 38.5208 216.567 38.7232 215.662C38.92 214.758 38.8581 213.758 38.4196 212.898C37.9867 212.044 37.1434 211.392 36.182 211.123C35.2263 210.842 34.1075 210.982 33.3485 211.679C32.5726 212.359 32.196 213.426 32.1004 214.494C31.9261 216.657 32.6907 218.791 33.9163 220.421C35.1363 222.072 36.8511 223.247 38.6558 223.78C40.4661 224.331 42.327 224.286 43.9574 223.887C45.5934 223.488 47.0046 222.707 48.084 221.763C49.1691 220.825 49.9449 219.758 50.4846 218.752C51.03 217.746 51.3448 216.803 51.5303 216.022C51.7271 215.241 51.7721 214.612 51.8171 214.19C51.8283 213.994 51.8339 213.836 51.8452 213.707C51.8508 213.6 51.8621 213.544 51.8677 213.544L51.8564 213.533Z" fill="#E0E0E0"/>
<path d="M47.5668 236.809C47.5387 236.871 46.5379 236.331 44.7951 235.826C44.3566 235.702 43.8787 235.573 43.3558 235.483C42.8386 235.365 42.2708 235.303 41.6748 235.23C40.483 235.123 39.1674 235.106 37.79 235.247C36.4182 235.41 35.1363 235.719 33.9951 236.084C33.4329 236.292 32.8931 236.472 32.4153 236.702C31.9205 236.904 31.4876 237.14 31.0884 237.354C29.4974 238.23 28.6428 238.977 28.5979 238.921C28.581 238.904 28.7946 238.713 29.1882 238.387C29.3849 238.219 29.6267 238.022 29.9303 237.826C30.2339 237.623 30.5656 237.371 30.9704 237.157C31.3695 236.927 31.8024 236.674 32.3028 236.46C32.7863 236.213 33.3317 236.022 33.8995 235.803C35.052 235.415 36.3563 235.09 37.7506 234.927C39.1505 234.781 40.4942 234.809 41.7029 234.932C42.3045 235.017 42.878 235.09 43.4064 235.219C43.9405 235.32 44.4184 235.466 44.8569 235.606C45.3011 235.73 45.6778 235.899 46.0207 236.033C46.3637 236.163 46.6448 236.297 46.8697 236.421C47.325 236.657 47.5724 236.792 47.5612 236.814L47.5668 236.809Z" fill="#E0E0E0"/>
<path d="M45.9645 171.257C45.9645 171.257 45.7059 171.465 45.2055 171.79C44.7052 172.122 43.9574 172.56 43.0129 173.06C41.1239 174.066 38.3972 175.251 35.232 176.099C32.0667 176.942 29.1095 177.285 26.9731 177.358C25.9049 177.397 25.0391 177.392 24.4375 177.358C23.8416 177.33 23.5099 177.302 23.5099 177.279C23.5099 177.257 23.8416 177.24 24.4375 177.229C25.0335 177.229 25.8937 177.195 26.9562 177.128C29.0814 176.993 32.0049 176.622 35.142 175.785C38.2735 174.942 40.9946 173.802 42.9005 172.852C43.8506 172.38 44.6152 171.976 45.1325 171.684C45.6553 171.391 45.9477 171.24 45.9589 171.262L45.9645 171.257Z" fill="#E0E0E0"/>
<path d="M48.8599 159.279C48.8599 159.313 48.2921 159.228 47.2745 159.223C46.2569 159.223 44.7726 159.341 43.041 159.914C42.1809 160.2 41.2645 160.599 40.3481 161.144C39.8927 161.419 39.4373 161.728 38.9931 162.082C38.5434 162.431 38.1105 162.818 37.7563 163.285C37.3965 163.745 37.0985 164.285 36.9973 164.874C36.8961 165.459 37.0816 166.082 37.5314 166.504C37.9699 166.936 38.594 167.184 39.2349 167.363C39.8758 167.526 40.5617 167.734 41.1858 167.588C41.8154 167.448 42.1809 166.83 42.2315 166.195C42.2989 165.549 42.1246 164.914 41.8435 164.341C41.2926 163.183 40.3143 162.318 39.2799 161.762C38.2342 161.195 37.1097 160.936 36.0528 160.891C34.9958 160.863 34.0063 161.049 33.1462 161.318C31.4146 161.874 30.1777 162.723 29.3569 163.313C28.9465 163.616 28.6372 163.869 28.4292 164.037C28.2212 164.212 28.1088 164.296 28.1031 164.285C28.0975 164.279 28.1931 164.172 28.3842 163.987C28.581 163.801 28.879 163.532 29.2782 163.212C30.0821 162.588 31.3134 161.695 33.0731 161.099C33.9501 160.807 34.9565 160.605 36.0584 160.616C37.1547 160.65 38.3241 160.914 39.4204 161.492C40.5055 162.065 41.5399 162.964 42.1359 164.195C42.4339 164.796 42.6306 165.504 42.5575 166.223C42.5126 166.577 42.4226 166.948 42.1977 167.262C41.9841 167.577 41.6355 167.813 41.2645 167.903C40.4999 168.071 39.8027 167.835 39.1449 167.672C38.4871 167.481 37.8125 167.228 37.3065 166.728C36.7893 166.24 36.5644 165.481 36.6881 164.818C36.8061 164.15 37.1322 163.577 37.5201 163.094C37.9024 162.599 38.3635 162.2 38.8188 161.852C39.2742 161.498 39.7465 161.183 40.2131 160.908C41.152 160.363 42.0909 159.97 42.9736 159.695C44.7389 159.138 46.2569 159.065 47.2801 159.099C47.7917 159.122 48.1909 159.155 48.4607 159.2C48.7306 159.24 48.8655 159.268 48.8655 159.279H48.8599Z" fill="#E0E0E0"/>
<path d="M34.9958 85.1761C40.6236 79.9513 46.2457 74.7264 51.8734 69.5016C54.0098 67.5128 56.8096 65.3779 59.5588 66.3555C60.88 66.8274 61.8751 67.9566 63.1738 68.496C65.7656 69.5746 68.7228 68.0184 70.7186 66.0408C72.7089 64.0633 74.283 61.5913 76.6949 60.1587C79.1068 58.7261 82.8567 58.9059 84.0542 61.4452V78.5074L59.525 89.002L34.9958 85.1761Z" fill="#F5F5F5"/>
<path d="M85.4598 99.4236H19.0629V100.71H85.4598V99.4236Z" fill="#E0E0E0"/>
<path d="M78.6467 3.50006H7.2124V131.733H78.6467V3.50006Z" fill="#EBEBEB"/>
<path d="M75.0486 7.21924H10.0629V127.913H75.0486V7.21924Z" fill="#FAFAFA"/>
<path d="M81.6658 132.885L78.6411 131.733V1.32587H81.6658V132.885Z" fill="#E0E0E0"/>
<path d="M10.0629 75.3725C16.2809 72.8387 22.4877 74.9905 26.9404 80.0187C27.8793 81.0749 28.7282 82.2996 30.0157 82.8839C31.7585 83.676 33.7712 83.0805 35.6771 82.867C40.8776 82.2771 46.3029 84.9064 49.0633 89.3503L28.3009 99.5584L10.0629 99.4236V75.3725Z" fill="#E0E0E0"/>
<path d="M75.0543 75.4568C70.9557 73.4792 67.352 75.8725 63.5739 78.4006C59.7959 80.9288 56.2821 84.1761 51.8519 85.1929C48.889 85.8727 45.7182 85.4963 42.8509 86.5132C37.0152 88.5919 33.6419 95.9909 27.4632 96.3449C24.1068 96.5359 21.0934 94.5021 18.0968 92.9796C15.1003 91.4515 12.739 90.0076 10.0685 92.047V127.907H75.0543V75.4511V75.4568Z" fill="#EBEBEB"/>
<path d="M76.4598 41.9391H10.0629V43.2257H76.4598V41.9391Z" fill="#E0E0E0"/>
<path d="M76.4598 70.6814H10.0629V71.9679H76.4598V70.6814Z" fill="#E0E0E0"/>
<path d="M40.9169 42.5796L40.9169 131.334H44.2002L44.2002 42.5796H40.9169Z" fill="#E0E0E0"/>
<path d="M24.0675 7.21924H22.5776V42.5796H24.0675V7.21924Z" fill="#E0E0E0"/>
<path d="M36.8971 7.21924H35.4072V42.5796H36.8971V7.21924Z" fill="#E0E0E0"/>
<path d="M49.7267 7.21924H48.2368V42.5796H49.7267V7.21924Z" fill="#E0E0E0"/>
<path d="M62.5563 7.21924H61.0664V42.5796H62.5563V7.21924Z" fill="#E0E0E0"/>
<path d="M7.20681 1.32587H4.18774V132.525H7.20681V1.32587Z" fill="#E0E0E0"/>
<path d="M81.6602 0H4.18774V3.50008H81.6602V0Z" fill="#E0E0E0"/>
<path d="M83.7066 133.318H2.04565V136.576H83.7066V133.318Z" fill="#E0E0E0"/>
<path d="M78.6411 131.733L83.7066 133.318H2.04565L7.21236 131.733H78.6411Z" fill="#EBEBEB"/>
<path d="M223.229 247.977V79.5973H221.143V248.017L203.895 249.309H221.143H223.229H240.472L223.229 247.977Z" fill="#EBEBEB"/>
<path d="M210.276 64.9284L202.529 99.5191H241.838L232.995 65.0352L210.276 64.9284Z" fill="#E0E0E0"/>
<path d="M217.478 113.536C217.388 113.536 217.326 109.289 217.337 104.053C217.349 98.8169 217.433 94.5696 217.523 94.5696C217.613 94.5696 217.675 98.8169 217.663 104.053C217.652 109.289 217.568 113.536 217.478 113.531V113.536Z" fill="#E0E0E0"/>
<path d="M217.461 113.469C217.461 113.424 217.742 113.458 217.866 113.823C217.916 113.991 217.927 114.239 217.764 114.452C217.601 114.677 217.258 114.744 216.989 114.643C216.719 114.548 216.499 114.272 216.522 113.997C216.539 113.722 216.708 113.542 216.854 113.452C217.185 113.255 217.422 113.418 217.393 113.452C217.382 113.497 217.185 113.463 216.994 113.643C216.904 113.727 216.82 113.868 216.826 114.008C216.826 114.143 216.938 114.283 217.107 114.345C217.275 114.407 217.45 114.373 217.54 114.272C217.635 114.171 217.663 114.008 217.646 113.885C217.618 113.621 217.444 113.525 217.466 113.48L217.461 113.469Z" fill="#E0E0E0"/>
<path d="M242.625 7.44397H203.018V48.7033H242.625V7.44397Z" fill="#E0E0E0"/>
<path d="M239.944 7.44397H200.336V48.7033H239.944V7.44397Z" fill="#EBEBEB"/>
<path d="M234.62 12.9891H205.66V43.1583H234.62V12.9891Z" fill="#FAFAFA"/>
<path d="M205.66 43.3549C205.66 43.3549 205.401 43.692 204.935 44.1752C204.468 44.6583 203.816 45.3213 203.091 46.0348C202.36 46.7539 201.696 47.3943 201.202 47.8494C200.713 48.3045 200.398 48.5798 200.375 48.5573C200.353 48.5348 200.628 48.2258 201.095 47.7427C201.562 47.2595 202.214 46.5966 202.945 45.8775C203.675 45.1583 204.344 44.5179 204.834 44.0628C205.323 43.6077 205.638 43.3381 205.66 43.3605V43.3549Z" fill="#E0E0E0"/>
<path d="M234.62 43.2819C234.62 43.2819 234.957 43.5403 235.44 44.0066C235.924 44.4729 236.587 45.1246 237.301 45.8493C238.021 46.5797 238.662 47.2426 239.117 47.737C239.573 48.2258 239.848 48.5404 239.826 48.5629C239.803 48.5854 239.494 48.3101 239.01 47.8438C238.527 47.3775 237.863 46.7258 237.144 45.9954C236.424 45.2651 235.783 44.5965 235.328 44.1077C234.873 43.6189 234.603 43.3043 234.625 43.2819H234.62Z" fill="#E0E0E0"/>
<path d="M234.541 13.0677C234.541 13.0677 234.799 12.7306 235.266 12.2475C235.733 11.7643 236.385 11.1014 237.11 10.3879C237.841 9.66876 238.504 9.0283 238.999 8.57323C239.488 8.11817 239.803 7.84288 239.826 7.86535C239.848 7.88783 239.573 8.19682 239.106 8.67998C238.639 9.16314 237.987 9.82607 237.256 10.5452C236.525 11.2643 235.856 11.9048 235.367 12.3598C234.878 12.8149 234.563 13.0846 234.541 13.0621V13.0677Z" fill="#E0E0E0"/>
<path d="M205.581 13.1464C205.581 13.1464 205.244 12.8879 204.761 12.4216C204.277 11.9553 203.614 11.3036 202.9 10.5789C202.18 9.84854 201.539 9.18561 201.084 8.69121C200.628 8.20244 200.353 7.88782 200.375 7.86535C200.398 7.84288 200.707 8.11817 201.191 8.58447C201.674 9.05077 202.337 9.70247 203.057 10.4328C203.777 11.1632 204.418 11.8317 204.873 12.3205C205.328 12.8093 205.598 13.1239 205.576 13.1464H205.581Z" fill="#E0E0E0"/>
<path d="M234.541 43.1583C234.541 43.1583 234.541 43.1077 234.541 43.0122C234.541 42.9111 234.541 42.7707 234.541 42.5909C234.541 42.2145 234.535 41.6695 234.529 40.9616C234.524 39.5346 234.513 37.4559 234.507 34.8154C234.496 29.5344 234.479 22.0061 234.456 12.9891L234.552 13.0846C226.124 13.0846 216.218 13.0958 205.671 13.0958L205.778 12.9891C205.778 24.0624 205.767 34.4222 205.761 43.1583L205.666 43.0628C214.324 43.0853 221.531 43.0965 226.58 43.1077C229.104 43.119 231.089 43.1246 232.449 43.1302C233.124 43.1302 233.641 43.1358 234.001 43.1415C234.175 43.1415 234.305 43.1415 234.4 43.1415C234.49 43.1415 234.541 43.1415 234.541 43.1415C234.541 43.1415 234.501 43.1415 234.411 43.1415C234.316 43.1415 234.187 43.1415 234.024 43.1415C233.669 43.1415 233.158 43.1471 232.489 43.1527C231.134 43.1583 229.155 43.1639 226.636 43.1752C221.571 43.1864 214.341 43.2032 205.66 43.2201H205.564V43.1246C205.564 34.3884 205.553 24.0287 205.548 12.9554V12.8486H205.654C216.201 12.8486 226.102 12.8599 234.535 12.8599H234.631V12.9554C234.608 21.9949 234.597 29.5456 234.58 34.8435C234.569 37.4784 234.563 39.5459 234.558 40.9672C234.558 41.6695 234.546 42.2032 234.546 42.574C234.546 42.7482 234.546 42.883 234.546 42.9841C234.546 43.074 234.546 43.119 234.546 43.119L234.541 43.1583Z" fill="#E0E0E0"/>
<path d="M213.301 25.5905C213.301 25.5905 212.682 33.0569 220.772 33.0569C220.772 29.0737 217.483 25.9219 213.301 25.5905Z" fill="#EBEBEB"/>
<path d="M228.115 25.5961C228.115 25.5961 220.643 24.9781 220.643 33.0625C224.629 33.0625 227.783 29.7759 228.115 25.5961Z" fill="#EBEBEB"/>
<path d="M220.418 21.5117C220.418 21.5117 214.312 26.9894 220.75 33.0625C223.746 29.8939 223.493 24.9163 220.418 21.5117Z" fill="#E0E0E0"/>
<path d="M174.975 12.0171H114.402C106.525 12.0171 100.139 18.3984 100.139 26.2702V182.504C100.139 190.376 106.525 196.757 114.402 196.757H174.975C182.852 196.757 189.238 190.376 189.238 182.504V26.2702C189.238 18.3984 182.852 12.0171 174.975 12.0171Z" fill="#FAFAFA"/>
<path d="M174.98 196.757C174.98 196.757 175.436 196.724 176.33 196.673C176.774 196.622 177.325 196.532 177.971 196.414C178.292 196.33 178.635 196.24 179.006 196.145C179.377 196.055 179.753 195.881 180.164 195.74C181.766 195.1 183.706 194.027 185.415 192.133C186.292 191.218 187.073 190.072 187.72 188.768C188.372 187.465 188.867 185.959 189.052 184.324C189.244 182.689 189.159 180.937 189.176 179.1C189.176 177.262 189.176 175.335 189.17 173.324C189.17 169.296 189.165 164.925 189.159 160.223C189.154 150.824 189.148 140.121 189.137 128.289C189.125 104.626 189.12 76.4455 189.103 45.1639C189.103 41.2537 189.103 37.2929 189.103 33.2872C189.103 31.2872 189.103 29.2703 189.103 27.2478C189.103 26.7421 189.109 26.2309 189.075 25.7309C189.052 25.2309 189.036 24.7253 188.934 24.2309L188.822 23.4836C188.766 23.2365 188.698 22.9949 188.636 22.7477C188.569 22.5061 188.518 22.2533 188.44 22.0173L188.175 21.3038C187.461 19.4105 186.337 17.6521 184.87 16.2194C183.402 14.7924 181.62 13.6744 179.669 12.9834C178.696 12.6239 177.679 12.416 176.644 12.2755C176.127 12.2025 175.604 12.2081 175.087 12.1744C174.564 12.1632 174.036 12.1744 173.507 12.1744C171.399 12.1744 169.279 12.1744 167.149 12.1744C150.114 12.1744 132.477 12.1744 114.408 12.1744C112.17 12.1856 109.95 12.725 107.971 13.7306C105.975 14.7194 104.282 16.2419 102.978 18.0116C101.663 19.7869 100.814 21.8825 100.476 24.0455L100.353 24.8601L100.313 25.6803C100.274 26.2253 100.285 26.7759 100.285 27.3321C100.285 28.4332 100.285 29.5343 100.285 30.6355C100.285 39.4278 100.285 48.0909 100.285 56.608C100.285 73.6365 100.28 90.0582 100.274 105.705C100.274 121.351 100.263 136.217 100.263 150.133C100.263 157.088 100.257 163.807 100.257 170.268C100.257 173.498 100.257 176.661 100.257 179.757C100.268 181.302 100.206 182.841 100.381 184.33C100.544 185.824 101.01 187.263 101.629 188.583C102.253 189.909 103.074 191.128 104.069 192.167C105.058 193.201 106.149 194.128 107.38 194.796C108.6 195.465 109.882 196.027 111.22 196.302C111.546 196.403 111.884 196.437 112.221 196.488C112.558 196.527 112.884 196.617 113.222 196.617C113.891 196.656 114.56 196.69 115.229 196.679C120.564 196.679 125.59 196.684 130.296 196.69C139.702 196.701 147.803 196.707 154.426 196.712C161.043 196.724 166.187 196.735 169.673 196.74C171.416 196.746 172.743 196.752 173.637 196.757C174.531 196.757 174.986 196.774 174.986 196.774C174.986 196.774 174.531 196.785 173.637 196.791C172.743 196.791 171.41 196.797 169.673 196.808C166.182 196.813 161.043 196.825 154.426 196.836C147.803 196.841 139.702 196.853 130.296 196.858C125.59 196.858 120.564 196.864 115.229 196.87C114.565 196.881 113.891 196.847 113.21 196.808C112.867 196.808 112.536 196.723 112.193 196.679C111.855 196.622 111.512 196.589 111.181 196.488C109.826 196.207 108.527 195.645 107.285 194.965C106.037 194.285 104.923 193.347 103.923 192.302C102.916 191.251 102.079 190.015 101.443 188.673C100.814 187.33 100.336 185.875 100.167 184.358C99.9816 182.841 100.049 181.302 100.032 179.757C100.032 176.661 100.032 173.498 100.032 170.268C100.032 163.807 100.032 157.093 100.027 150.133C100.027 136.217 100.015 121.351 100.015 105.705C100.015 90.0582 100.015 73.6365 100.004 56.608C100.004 48.0966 100.004 39.4278 100.004 30.6355C100.004 29.5343 100.004 28.4332 100.004 27.3321C100.004 26.7815 99.9928 26.2309 100.032 25.6691L100.077 24.832L100.201 24.0005C100.544 21.7926 101.41 19.6521 102.753 17.8431C104.086 16.034 105.817 14.4834 107.852 13.4722C109.871 12.4441 112.142 11.8935 114.425 11.8823C132.489 11.8823 150.125 11.8823 167.166 11.8823C169.296 11.8823 171.416 11.8823 173.524 11.8823C174.053 11.8823 174.576 11.8766 175.104 11.8879C175.632 11.9272 176.167 11.916 176.695 11.989C177.746 12.1295 178.786 12.3429 179.776 12.7137C181.766 13.416 183.588 14.5565 185.083 16.0172C186.584 17.4723 187.726 19.2701 188.456 21.2027L188.721 21.9331C188.799 22.1802 188.856 22.4331 188.923 22.6803C188.985 22.9331 189.058 23.1803 189.109 23.4275L189.227 24.1915C189.322 24.6972 189.345 25.2084 189.367 25.7253C189.407 26.2365 189.395 26.7421 189.395 27.2534C189.395 29.2759 189.395 31.2928 189.395 33.2929C189.395 37.2986 189.395 41.2593 189.395 45.1695C189.384 76.4567 189.373 104.632 189.362 128.295C189.356 140.127 189.345 150.829 189.339 160.228C189.339 164.931 189.333 169.302 189.328 173.33C189.328 175.341 189.328 177.268 189.322 179.105C189.3 180.942 189.384 182.689 189.187 184.341C188.991 185.993 188.49 187.504 187.832 188.819C187.175 190.133 186.388 191.28 185.499 192.201C183.773 194.1 181.817 195.167 180.203 195.802C179.787 195.943 179.41 196.111 179.039 196.201C178.668 196.297 178.32 196.381 177.999 196.465C177.347 196.583 176.796 196.662 176.352 196.712C175.458 196.752 175.003 196.763 175.003 196.763L174.98 196.757Z" fill="#263238"/>
<path d="M180.681 22.9612C180.681 23.0398 179.225 23.1073 177.431 23.1073C175.638 23.1073 174.182 23.0398 174.182 22.9612C174.182 22.8825 175.638 22.8151 177.431 22.8151C179.225 22.8151 180.681 22.8825 180.681 22.9612Z" fill="#263238"/>
<path d="M180.681 25.0792C180.681 25.1578 179.225 25.2252 177.431 25.2252C175.638 25.2252 174.182 25.1578 174.182 25.0792C174.182 25.0005 175.638 24.9331 177.431 24.9331C179.225 24.9331 180.681 25.0005 180.681 25.0792Z" fill="#263238"/>
<path d="M180.681 27.1972C180.681 27.2759 179.225 27.3433 177.431 27.3433C175.638 27.3433 174.182 27.2759 174.182 27.1972C174.182 27.1186 175.638 27.0511 177.431 27.0511C179.225 27.0511 180.681 27.1186 180.681 27.1972Z" fill="#263238"/>
<path d="M135.811 27.1972V24.9669L134.698 26.8264H134.496L133.388 24.9837V27.2029H132.966V24.141H133.326L134.602 26.2927L135.862 24.141H136.222V27.2029H135.806L135.811 27.1972Z" fill="#263238"/>
<path d="M139.139 24.8826L138.015 27.4332C137.807 27.922 137.543 28.0737 137.189 28.0737C136.964 28.0737 136.739 28.0006 136.593 27.8602L136.773 27.5456C136.885 27.6523 137.031 27.7141 137.189 27.7141C137.391 27.7141 137.515 27.6242 137.633 27.3545L137.706 27.1916L136.683 24.877H137.121L137.931 26.7309L138.729 24.877H139.139V24.8826Z" fill="#263238"/>
<path d="M143.238 25.2028C143.238 25.8658 142.755 26.2703 141.962 26.2703H141.203V27.1972H140.764V24.1354H141.956C142.755 24.1354 143.232 24.5399 143.232 25.2028H143.238ZM142.799 25.2028C142.799 24.7646 142.507 24.5174 141.945 24.5174H141.203V25.8882H141.945C142.507 25.8882 142.799 25.641 142.799 25.2028Z" fill="#263238"/>
<path d="M145.026 24.8601V25.2646C144.992 25.2646 144.958 25.2646 144.93 25.2646C144.48 25.2646 144.199 25.5399 144.199 26.0455V27.1972H143.778V24.8826H144.183V25.2702C144.329 25.0006 144.621 24.8601 145.026 24.8601Z" fill="#263238"/>
<path d="M145.307 26.0399C145.307 25.3489 145.819 24.8601 146.516 24.8601C147.213 24.8601 147.719 25.3489 147.719 26.0399C147.719 26.7309 147.213 27.2253 146.516 27.2253C145.819 27.2253 145.307 26.7309 145.307 26.0399ZM147.291 26.0399C147.291 25.5455 146.96 25.2253 146.51 25.2253C146.06 25.2253 145.729 25.5455 145.729 26.0399C145.729 26.5343 146.066 26.8602 146.51 26.8602C146.954 26.8602 147.291 26.5343 147.291 26.0399Z" fill="#263238"/>
<path d="M149.124 23.9274C149.304 23.9274 149.478 23.9724 149.596 24.0623L149.467 24.3825C149.377 24.3151 149.265 24.2758 149.141 24.2758C148.894 24.2758 148.764 24.4162 148.764 24.6803V24.8825H149.439V25.2252H148.776V27.1972H148.354V25.2252H147.96V24.8825H148.354V24.6747C148.354 24.2252 148.624 23.9274 149.119 23.9274H149.124ZM150.119 24.1634C150.119 24.0117 150.243 23.8881 150.406 23.8881C150.569 23.8881 150.693 24.0061 150.693 24.1578C150.693 24.3151 150.575 24.4387 150.406 24.4387C150.237 24.4387 150.119 24.3207 150.119 24.169V24.1634ZM150.192 24.8825H150.614V27.1972H150.192V24.8825Z" fill="#263238"/>
<path d="M151.412 23.9556H151.834V27.1972H151.412V23.9556Z" fill="#263238"/>
<path d="M154.718 26.1804H152.835C152.885 26.5849 153.217 26.8602 153.673 26.8602C153.942 26.8602 154.173 26.7703 154.342 26.5792L154.572 26.8489C154.364 27.0961 154.044 27.2253 153.656 27.2253C152.908 27.2253 152.408 26.7309 152.408 26.0399C152.408 25.3489 152.902 24.8601 153.571 24.8601C154.24 24.8601 154.718 25.3433 154.718 26.0511C154.718 26.0849 154.718 26.141 154.707 26.1804H154.718ZM152.835 25.877H154.325C154.28 25.4893 153.987 25.214 153.583 25.214C153.178 25.214 152.88 25.4837 152.84 25.877H152.835Z" fill="#263238"/>
<path d="M159.632 87.2604H130.043V89.0132H159.632V87.2604Z" fill="#E52A9C"/>
<path d="M171.495 91.8504C171.495 91.929 159.964 91.9964 145.751 91.9964C131.538 91.9964 120.002 91.929 120.002 91.8504C120.002 91.7717 131.527 91.7043 145.751 91.7043C159.975 91.7043 171.495 91.7717 171.495 91.8504Z" fill="#263238"/>
<path d="M118.995 118.902C123.839 118.902 127.766 114.978 127.766 110.137C127.766 105.297 123.839 101.373 118.995 101.373C114.152 101.373 110.225 105.297 110.225 110.137C110.225 114.978 114.152 118.902 118.995 118.902Z" fill="#E52A9C"/>
<path d="M144.649 118.902C149.493 118.902 153.42 114.978 153.42 110.137C153.42 105.297 149.493 101.373 144.649 101.373C139.805 101.373 135.879 105.297 135.879 110.137C135.879 114.978 139.805 118.902 144.649 118.902Z" fill="#E52A9C"/>
<path d="M170.303 118.902C175.146 118.902 179.073 114.978 179.073 110.137C179.073 105.297 175.146 101.373 170.303 101.373C165.459 101.373 161.532 105.297 161.532 110.137C161.532 114.978 165.459 118.902 170.303 118.902Z" fill="#E52A9C"/>
<path d="M129.959 122.772C129.959 122.851 125.05 122.918 118.995 122.918C112.94 122.918 108.032 122.851 108.032 122.772C108.032 122.694 112.94 122.626 118.995 122.626C125.05 122.626 129.959 122.694 129.959 122.772Z" fill="#263238"/>
<path d="M154.179 122.772C154.179 122.851 149.911 122.918 144.649 122.918C139.387 122.918 135.12 122.851 135.12 122.772C135.12 122.694 139.387 122.626 144.649 122.626C149.911 122.626 154.179 122.694 154.179 122.772Z" fill="#263238"/>
<path d="M179.073 122.772C179.073 122.851 174.806 122.918 169.544 122.918C164.281 122.918 160.014 122.851 160.014 122.772C160.014 122.694 164.281 122.626 169.544 122.626C174.806 122.626 179.073 122.694 179.073 122.772Z" fill="#263238"/>
<path d="M180.265 152.919C180.265 152.919 180.259 152.79 180.254 152.548C180.254 152.301 180.254 151.947 180.243 151.481C180.243 150.537 180.231 149.149 180.22 147.352C180.209 143.75 180.192 138.503 180.169 131.885L180.259 131.975C163.646 131.986 137.886 132.009 109.033 132.031L109.179 131.885C109.179 139.155 109.179 146.222 109.179 152.919L109.039 152.779C129.453 152.807 147.241 152.829 159.93 152.846C166.283 152.863 171.354 152.88 174.851 152.885C176.594 152.891 177.943 152.902 178.865 152.902C179.321 152.902 179.663 152.908 179.905 152.914C180.141 152.914 180.265 152.925 180.265 152.925C180.265 152.925 180.153 152.93 179.922 152.936C179.686 152.936 179.343 152.936 178.899 152.947C177.982 152.947 176.644 152.958 174.918 152.964C171.427 152.975 166.367 152.987 160.026 153.003C147.308 153.02 129.486 153.043 109.033 153.071H108.893V152.93C108.893 146.234 108.893 139.16 108.893 131.896V131.75H109.044C137.897 131.773 163.663 131.789 180.271 131.806H180.366V131.896C180.344 138.537 180.327 143.801 180.316 147.419C180.304 149.211 180.299 150.588 180.293 151.531C180.293 151.992 180.288 152.34 180.282 152.582C180.282 152.818 180.271 152.93 180.271 152.93L180.265 152.919Z" fill="#263238"/>
<path d="M175.335 138.582C175.335 138.66 161.639 138.728 144.75 138.728C127.862 138.728 114.161 138.66 114.161 138.582C114.161 138.503 127.85 138.436 144.75 138.436C161.65 138.436 175.335 138.503 175.335 138.582Z" fill="#263238"/>
<path d="M175.335 142.745C175.335 142.823 161.639 142.891 144.75 142.891C127.862 142.891 114.161 142.823 114.161 142.745C114.161 142.666 127.85 142.599 144.75 142.599C161.65 142.599 175.335 142.666 175.335 142.745Z" fill="#263238"/>
<path d="M175.335 146.913C175.335 146.992 161.639 147.059 144.75 147.059C127.862 147.059 114.161 146.992 114.161 146.913C114.161 146.835 127.85 146.767 144.75 146.767C161.65 146.767 175.335 146.835 175.335 146.913Z" fill="#263238"/>
<path d="M180.265 179.313C180.265 179.313 180.259 179.184 180.254 178.942C180.254 178.695 180.254 178.341 180.243 177.875C180.243 176.931 180.231 175.543 180.22 173.745C180.209 170.144 180.192 164.897 180.169 158.279L180.259 158.369C163.646 158.38 137.886 158.402 109.033 158.425L109.179 158.279C109.179 165.549 109.179 172.616 109.179 179.313L109.039 179.173C129.453 179.201 147.241 179.223 159.93 179.24C166.283 179.257 171.354 179.274 174.851 179.279C176.594 179.285 177.943 179.296 178.865 179.296C179.321 179.296 179.663 179.302 179.905 179.307C180.141 179.307 180.265 179.319 180.265 179.319C180.265 179.319 180.153 179.324 179.922 179.33C179.686 179.33 179.343 179.33 178.899 179.341C177.982 179.341 176.644 179.352 174.918 179.358C171.427 179.369 166.367 179.38 160.026 179.397C147.308 179.414 129.486 179.437 109.033 179.465H108.893V179.324C108.893 172.627 108.893 165.554 108.893 158.29V158.144H109.044C137.897 158.166 163.663 158.183 180.271 158.2H180.366V158.29C180.344 164.931 180.327 170.195 180.316 173.813C180.304 175.605 180.299 176.981 180.293 177.925C180.293 178.386 180.288 178.734 180.282 178.976C180.282 179.212 180.271 179.324 180.271 179.324L180.265 179.313Z" fill="#263238"/>
<path d="M175.335 164.976C175.335 165.054 161.639 165.122 144.75 165.122C127.862 165.122 114.161 165.054 114.161 164.976C114.161 164.897 127.85 164.83 144.75 164.83C161.65 164.83 175.335 164.897 175.335 164.976Z" fill="#263238"/>
<path d="M175.335 169.144C175.335 169.223 161.639 169.29 144.75 169.29C127.862 169.29 114.161 169.223 114.161 169.144C114.161 169.066 127.85 168.998 144.75 168.998C161.65 168.998 175.335 169.066 175.335 169.144Z" fill="#263238"/>
<path d="M175.335 173.307C175.335 173.386 161.639 173.453 144.75 173.453C127.862 173.453 114.161 173.386 114.161 173.307C114.161 173.229 127.85 173.161 144.75 173.161C161.65 173.161 175.335 173.229 175.335 173.307Z" fill="#263238"/>
<path d="M109.995 27.2028C109.995 27.2028 110.034 27.2028 110.101 27.1972C110.186 27.1972 110.281 27.1916 110.399 27.186C110.68 27.1804 111.04 27.1691 111.49 27.1579L111.462 27.186C111.462 26.9444 111.456 26.6804 111.451 26.3938C111.451 26.2478 111.439 26.1073 111.451 25.9388C111.479 25.7702 111.631 25.6185 111.816 25.6017C111.99 25.6017 112.148 25.5905 112.339 25.6017C112.536 25.6242 112.704 25.8152 112.699 26.023C112.699 26.3938 112.71 26.7759 112.71 27.1748L112.659 27.1242C113.104 27.1242 113.559 27.113 114.037 27.113L113.986 27.1635C113.986 26.6073 113.975 26.0343 113.969 25.45C113.969 25.3039 113.969 25.1579 113.969 25.0118C113.969 24.877 113.885 24.7871 113.778 24.6859C113.576 24.4837 113.373 24.2871 113.177 24.096C112.98 23.8994 112.789 23.7084 112.598 23.523C112.502 23.4275 112.406 23.3376 112.316 23.2477C112.221 23.1522 112.142 23.0567 112.03 23.0342C111.923 23.0061 111.799 23.0286 111.715 23.096C111.631 23.1691 111.541 23.2646 111.456 23.3488C111.288 23.5174 111.125 23.6859 110.962 23.8488C110.652 24.1691 110.326 24.4668 110.09 24.7421C109.989 24.8938 110.028 25.0848 110.023 25.2534C110.023 25.4219 110.023 25.5848 110.023 25.7365C110.023 26.0343 110.023 26.2927 110.023 26.5174C110.023 26.7141 110.023 26.8826 110.023 27.0175C110.023 27.1354 110.023 27.1972 110.017 27.1972C110.017 27.1972 110.011 27.141 110.006 27.0343C110.006 26.8995 110 26.7365 109.995 26.5455C109.995 26.3208 109.983 26.0568 109.978 25.759C109.978 25.6017 109.972 25.4388 109.966 25.2646C109.966 25.1747 109.966 25.0848 109.966 24.9949C109.966 24.8994 109.989 24.7983 110.045 24.7084C110.298 24.3994 110.602 24.1185 110.917 23.787C111.074 23.6241 111.237 23.4556 111.406 23.287C111.496 23.2028 111.569 23.1129 111.67 23.023C111.782 22.9387 111.929 22.9106 112.069 22.9443C112.215 22.978 112.311 23.096 112.401 23.1803C112.496 23.2702 112.586 23.3657 112.682 23.4556C112.873 23.641 113.064 23.832 113.267 24.0286C113.463 24.2253 113.666 24.4219 113.868 24.6185C113.919 24.6691 113.975 24.714 114.02 24.7871C114.065 24.8545 114.087 24.9388 114.093 25.0174C114.093 25.1635 114.093 25.3095 114.093 25.4556C114.093 26.0399 114.104 26.6129 114.104 27.1691V27.2197H114.054C113.581 27.2197 113.12 27.2253 112.676 27.2309H112.626V27.1804C112.626 26.7815 112.626 26.3938 112.62 26.0287C112.626 25.8601 112.496 25.7141 112.345 25.6972C112.187 25.6916 112.002 25.6972 111.844 25.6972C111.698 25.7084 111.574 25.8264 111.546 25.9669C111.535 26.1073 111.546 26.2646 111.541 26.4051C111.541 26.6916 111.541 26.9557 111.541 27.1972V27.2253H111.513C111.057 27.2253 110.686 27.2197 110.405 27.2197C110.293 27.2197 110.197 27.2197 110.118 27.2197C110.056 27.2197 110.023 27.2197 110.023 27.2197L109.995 27.2028Z" fill="#263238"/>
<path d="M165.22 64.2587C167.995 52.3046 160.547 40.3659 148.584 37.5929C136.622 34.8199 124.674 42.2626 121.899 54.2168C119.124 66.1709 126.572 78.1096 138.535 80.8826C150.498 83.6556 162.445 76.2129 165.22 64.2587Z" fill="#E0E0E0"/>
<path d="M161.358 61.6081C162.376 60.4171 162.651 58.6417 162.038 57.2035C161.425 55.7653 159.958 54.7259 158.395 54.6304C158.901 53.1697 158.586 51.4618 157.597 50.2708C156.607 49.0853 154.983 48.4617 153.453 48.6921C153.352 47.1471 152.464 45.6752 151.143 44.8661C149.821 44.0571 148.107 43.9335 146.684 44.5459C145.774 43.4391 144.323 42.7875 142.889 42.8436C141.456 42.8998 140.061 43.6583 139.241 44.8381L138.071 44.8999C136.025 45.0066 134.068 45.9167 132.803 47.5235C132.73 47.619 132.657 47.6977 132.578 47.7707C131.454 48.8157 130.273 49.9449 129.874 51.4281C129.43 53.0854 130.015 54.9844 129.183 56.4788C128.857 57.0687 128.323 57.5462 128.103 58.1811C127.682 59.3889 128.497 60.6923 128.401 61.9677C128.3 63.316 127.181 64.4958 127.316 65.8441C127.412 66.8217 128.154 67.6082 128.947 68.1925C129.739 68.7768 130.628 69.2431 131.28 69.9791C131.797 70.569 132.134 71.2993 132.64 71.8948C134.085 73.5915 136.947 73.8106 138.633 72.3611C139.764 73.3387 141.428 73.4848 142.873 73.1027C144.317 72.7207 145.594 71.8948 146.842 71.0746C147.376 71.805 148.292 72.2319 149.197 72.1814C150.103 72.1252 150.957 71.5858 151.401 70.7993C151.716 71.7881 152.88 72.2881 153.914 72.187C154.949 72.0859 155.865 71.5297 156.748 70.9847C158.401 69.9678 160.245 68.6307 160.29 66.6869C160.318 65.5014 159.632 64.2767 160.082 63.1755C160.34 62.5463 160.919 62.1193 161.364 61.6025L161.358 61.6081Z" fill="#263238"/>
<path d="M150.226 54.2484C149.855 53.2371 150.018 52.1135 149.878 51.0404C149.574 48.6865 147.736 46.692 145.515 45.8268C143.3 44.9617 140.781 45.119 138.521 45.8662C136.84 46.4224 135.232 47.3156 134.091 48.6696C132.578 50.4674 132.016 53.0236 132.646 55.2877L144.711 53.6866C145.824 54.6304 146.971 55.5967 148.332 56.1305C148.731 56.2878 149.164 56.4057 149.585 56.3439C150.013 56.2821 150.429 56.0012 150.53 55.5855C150.648 55.1304 150.384 54.681 150.221 54.2371L150.226 54.2484Z" fill="#263238"/>
<path d="M148.708 51.5517L138.223 49.1921C134.878 48.928 132.764 53.091 132.64 56.4394C132.505 60.1642 132.483 64.7149 132.995 67.4734C134.023 73.0297 138.324 73.6252 138.324 73.6252C138.324 73.6084 138.347 77.4174 138.425 79.4456C142.22 81.249 146.122 80.9905 150.103 79.2096L150.519 53.4899C150.513 52.473 149.726 51.6247 148.708 51.5461V51.5517Z" fill="#B78876"/>
<path d="M134.822 59.9002C134.822 60.2766 135.136 60.5912 135.53 60.6024C135.924 60.6137 136.25 60.3159 136.25 59.9395C136.25 59.5631 135.935 59.2485 135.541 59.2372C135.148 59.226 134.822 59.5238 134.822 59.9002Z" fill="#263238"/>
<path d="M133.692 58.7766C133.782 58.8665 134.316 58.4507 135.086 58.4339C135.856 58.4058 136.43 58.7878 136.514 58.6923C136.553 58.6474 136.458 58.4844 136.21 58.3103C135.963 58.1361 135.547 57.9732 135.063 57.99C134.586 58.0069 134.186 58.1923 133.956 58.3777C133.725 58.5631 133.647 58.7372 133.692 58.7766Z" fill="#263238"/>
<path d="M142.119 59.9002C142.119 60.2766 142.434 60.5912 142.828 60.6024C143.221 60.6137 143.547 60.3159 143.547 59.9395C143.547 59.5631 143.232 59.2485 142.839 59.2372C142.445 59.226 142.119 59.5238 142.119 59.9002Z" fill="#263238"/>
<path d="M141.265 58.726C141.354 58.8159 141.889 58.4002 142.659 58.3833C143.429 58.3552 144.003 58.7373 144.087 58.6418C144.126 58.5968 144.031 58.4339 143.783 58.2597C143.536 58.0856 143.12 57.9226 142.636 57.9395C142.158 57.9564 141.759 58.1417 141.529 58.3271C141.298 58.5125 141.22 58.6867 141.265 58.726Z" fill="#263238"/>
<path d="M138.622 64.507C138.622 64.4621 138.144 64.3947 137.363 64.316C137.166 64.2992 136.981 64.2655 136.941 64.1362C136.891 63.9958 136.969 63.7823 137.059 63.552C137.234 63.0688 137.413 62.5688 137.605 62.0407C138.358 59.889 138.898 58.1193 138.808 58.0912C138.723 58.0631 138.037 59.7822 137.29 61.9339C137.11 62.462 136.936 62.9677 136.773 63.4564C136.705 63.6812 136.581 63.9396 136.688 64.2317C136.744 64.3778 136.891 64.4789 137.02 64.5127C137.149 64.5464 137.256 64.5464 137.357 64.552C138.139 64.5745 138.622 64.5632 138.628 64.5183L138.622 64.507Z" fill="#263238"/>
<path d="M138.324 73.6252C138.324 73.6252 142.085 73.7713 145.745 71.4398C145.745 71.4398 143.969 75.35 138.369 74.9735L138.324 73.6252Z" fill="#AA6550"/>
<path d="M138.993 66.3498C139.263 65.979 139.741 65.7655 140.225 65.8048C140.562 65.8329 140.899 65.9846 141.113 66.2486C141.321 66.5127 141.377 66.9003 141.197 67.1644C140.995 67.4621 140.562 67.5408 140.196 67.4453C139.825 67.3498 139.505 67.1194 139.196 66.8835C139.111 66.8217 139.021 66.7543 138.971 66.6588C138.915 66.5689 138.903 66.4509 138.965 66.3722" fill="#AA6550"/>
<path d="M140.899 64.9789C140.775 64.9789 140.792 65.8104 140.095 66.4228C139.398 67.0352 138.504 66.9677 138.498 67.0801C138.487 67.1307 138.701 67.2374 139.078 67.2374C139.449 67.2374 139.983 67.1082 140.41 66.7318C140.837 66.3554 141.012 65.8666 141.034 65.5239C141.057 65.1756 140.961 64.9677 140.899 64.9733V64.9789Z" fill="#263238"/>
<path d="M141.079 56.4001C141.158 56.608 141.928 56.49 142.833 56.5743C143.744 56.6417 144.475 56.8889 144.593 56.6979C144.643 56.608 144.514 56.4114 144.211 56.2204C143.913 56.0237 143.44 55.844 142.901 55.799C142.355 55.7541 141.861 55.8552 141.534 55.9956C141.208 56.1361 141.045 56.3046 141.079 56.4058V56.4001Z" fill="#263238"/>
<path d="M133.827 55.4057C133.967 55.5743 134.49 55.3832 135.131 55.3552C135.766 55.3102 136.312 55.4394 136.43 55.254C136.48 55.1641 136.39 54.99 136.154 54.8327C135.918 54.6754 135.524 54.5518 135.086 54.5742C134.647 54.6023 134.271 54.7653 134.057 54.9507C133.838 55.1361 133.765 55.3158 133.827 55.4001V55.4057Z" fill="#263238"/>
<path d="M152.171 52.6528C151.12 49.4393 146.42 45.0178 143.047 45.2763L137.683 48.546C138.021 50.3775 139.454 51.9674 141.242 52.4955C142.198 52.7764 143.345 52.8495 143.918 53.6641C144.503 54.4956 144.171 55.7147 144.717 56.5743C145.47 57.7653 147.511 57.6923 148.079 58.9788C148.326 59.5406 148.202 60.2148 148.461 60.7766C148.804 61.5182 150.704 62.4564 151.486 62.198C152.267 61.9396 152.261 60.6137 152.509 59.9171C152.936 58.7204 152.751 58.108 152.604 57.4395C152.25 55.8664 152.677 54.181 152.177 52.6472L152.171 52.6528Z" fill="#263238"/>
<path d="M151.48 60.8385C151.48 60.8385 151.564 60.5519 151.649 60.0294C151.722 59.507 151.755 58.726 151.474 57.8215C151.199 56.9339 150.609 55.9058 149.557 55.2428C149.04 54.9057 148.422 54.6585 147.792 54.3664C147.168 54.0743 146.493 53.7259 145.987 53.1416C145.476 52.5574 145.239 51.8495 144.941 51.2427C144.655 50.6304 144.256 50.1135 143.795 49.7034C142.867 48.8775 141.737 48.5236 140.804 48.5123C139.859 48.4899 139.111 48.7371 138.633 48.9505C138.15 49.1696 137.908 49.3494 137.897 49.327C137.891 49.3213 137.948 49.2708 138.06 49.1809C138.172 49.0966 138.347 48.973 138.589 48.8494C139.066 48.5966 139.825 48.3101 140.809 48.3045C141.787 48.2932 142.985 48.6415 143.974 49.5011C144.469 49.9225 144.896 50.4843 145.2 51.1191C145.509 51.7427 145.745 52.4225 146.206 52.9506C146.667 53.4787 147.297 53.8158 147.91 54.108C148.528 54.4001 149.152 54.6585 149.698 55.0181C150.805 55.7372 151.407 56.8384 151.665 57.7653C151.93 58.7092 151.862 59.5238 151.755 60.0519C151.694 60.316 151.632 60.5182 151.57 60.6474C151.514 60.7766 151.48 60.8441 151.474 60.8441L151.48 60.8385Z" fill="#455A64"/>
<path d="M150.968 54.8664C150.968 54.8664 150.845 54.6697 150.552 54.3776C150.266 54.0854 149.754 53.7764 149.079 53.4731C148.742 53.3158 148.365 53.1528 147.977 52.9281C147.595 52.7034 147.185 52.4056 146.892 51.9786C146.291 51.1415 146.1 50.0123 145.307 49.2426C144.537 48.4561 143.497 48.046 142.552 47.9168C141.596 47.7875 140.714 47.928 140.011 48.119C138.588 48.5179 137.807 49.0404 137.779 48.9842C137.768 48.9673 137.959 48.8325 138.319 48.6246C138.684 48.4224 139.229 48.1415 139.955 47.9224C140.674 47.7033 141.579 47.5347 142.591 47.6527C143.587 47.7763 144.688 48.192 145.521 49.0404C146.386 49.8943 146.572 51.0629 147.117 51.827C147.657 52.6079 148.523 52.945 149.169 53.2933C149.838 53.6191 150.361 53.9731 150.637 54.3045C150.772 54.4675 150.867 54.6079 150.907 54.709C150.957 54.8102 150.974 54.8664 150.963 54.8664H150.968Z" fill="#455A64"/>
<path d="M149.181 62.8778C149.169 62.4621 149.625 61.4733 150.035 61.3946C151.126 61.198 153.105 61.2317 153.195 64.0127C153.318 67.8161 149.473 67.1532 149.462 67.0464C149.456 66.9622 149.214 64.3104 149.181 62.8778Z" fill="#B78876"/>
<path d="M150.58 65.5689C150.58 65.5689 150.648 65.6138 150.76 65.6588C150.873 65.7037 151.058 65.7318 151.255 65.6531C151.654 65.4902 151.969 64.8441 151.963 64.1587C151.963 63.8104 151.879 63.4845 151.75 63.2149C151.626 62.9396 151.441 62.7542 151.233 62.7205C151.03 62.6812 150.89 62.8048 150.845 62.9171C150.8 63.0239 150.822 63.1025 150.805 63.1081C150.794 63.1194 150.721 63.0463 150.749 62.889C150.76 62.8104 150.805 62.7205 150.89 62.6475C150.98 62.5688 151.109 62.5295 151.255 62.5407C151.547 62.5519 151.823 62.8104 151.969 63.1081C152.132 63.4059 152.233 63.7711 152.233 64.1587C152.233 64.9284 151.862 65.6531 151.323 65.8329C151.058 65.9116 150.833 65.8329 150.715 65.7543C150.597 65.6644 150.569 65.5801 150.586 65.5745L150.58 65.5689Z" fill="#AA6550"/>
<path d="M152.245 66.5071C152.301 66.4285 152.43 66.3891 152.61 66.4678C152.79 66.5464 153.009 66.7599 153.11 67.1082C153.217 67.4397 153.183 67.9734 152.807 68.3948C152.447 68.7993 151.868 69.024 151.261 68.9117C150.62 68.7937 150.181 68.3105 150.024 67.8667C149.85 67.406 149.895 66.9453 150.074 66.6138C150.249 66.288 150.535 66.1138 150.749 66.0914C150.968 66.0689 151.075 66.17 151.086 66.2655C151.103 66.3667 151.053 66.4678 151.041 66.5801C151.03 66.6869 151.03 66.8049 151.058 66.9341C151.086 67.0464 151.148 67.1869 151.244 67.2936C151.339 67.4116 151.452 67.4622 151.531 67.4734C151.632 67.4959 151.778 67.4734 151.862 67.4341C151.941 67.4116 152.031 67.3386 152.082 67.2038C152.205 66.9509 152.138 66.67 152.245 66.5015V66.5071Z" fill="#E0E0E0"/>
<path d="M133.444 79.0354L138.386 78.1815L150.125 77.7545L155.438 78.0186C155.438 78.0186 145.245 85.0974 133.444 79.0354Z" fill="#E52A9C"/>
<path d="M165.788 59.2372C165.788 59.2372 165.771 59.1136 165.754 58.8777C165.738 58.6305 165.715 58.2765 165.687 57.8215C165.676 57.5911 165.659 57.3271 165.642 57.0462C165.614 56.7597 165.552 56.4563 165.501 56.1192C165.451 55.7821 165.389 55.4226 165.327 55.0405C165.282 54.6529 165.136 54.2596 165.035 53.827C164.641 52.1135 163.837 50.0853 162.572 47.9336C161.296 45.7931 159.452 43.5571 156.939 41.6582C156.624 41.4222 156.304 41.1863 155.983 40.9447C155.646 40.7256 155.292 40.5233 154.943 40.3098C154.583 40.1076 154.246 39.8604 153.864 39.6862C153.487 39.5065 153.099 39.3211 152.717 39.1357C152.526 39.0458 152.329 38.9503 152.132 38.8604C151.93 38.7873 151.722 38.7143 151.519 38.6357C151.109 38.484 150.693 38.3323 150.277 38.1806C149.855 38.0401 149.411 37.9502 148.973 37.8323C148.528 37.7311 148.095 37.5795 147.634 37.5289C146.718 37.3997 145.796 37.2087 144.84 37.2087C144.362 37.1918 143.885 37.1469 143.401 37.1525C142.918 37.1749 142.428 37.203 141.939 37.2255C141.692 37.2424 141.445 37.2424 141.203 37.2761L140.466 37.3884C139.972 37.4727 139.471 37.5289 138.976 37.63C137.998 37.8941 136.992 38.0907 136.03 38.4952C135.041 38.8098 134.108 39.3042 133.146 39.7593C132.68 40.0121 132.23 40.3042 131.769 40.5795C131.544 40.7256 131.302 40.8492 131.089 41.0121L130.436 41.5009C129.537 42.1189 128.755 42.8886 127.929 43.6302C127.187 44.4504 126.405 45.2538 125.765 46.1864L125.259 46.8662L124.814 47.5909L124.37 48.3213C124.218 48.5628 124.072 48.81 123.96 49.0741C123.712 49.591 123.459 50.1078 123.212 50.6303C123.015 51.1753 122.813 51.7202 122.611 52.2652C121.891 54.4787 121.503 56.8327 121.469 59.2316C121.503 61.6249 121.885 63.9845 122.611 66.1981C122.813 66.743 123.01 67.288 123.212 67.8329C123.465 68.3554 123.712 68.8723 123.96 69.3892L124.151 69.7768L124.376 70.142L124.82 70.8723L125.264 71.5971L125.77 72.2769C126.411 73.2095 127.193 74.0129 127.935 74.8387C128.755 75.5803 129.543 76.35 130.442 76.968L131.094 77.4567C131.308 77.6197 131.55 77.7433 131.775 77.8893C132.236 78.1646 132.685 78.4568 133.152 78.7096C134.108 79.1703 135.041 79.6591 136.036 79.9737C136.997 80.3726 138.009 80.5748 138.982 80.8389C139.477 80.94 139.977 80.9962 140.472 81.0804L141.208 81.1928C141.456 81.2265 141.703 81.2209 141.945 81.2434C142.434 81.2714 142.923 81.2939 143.407 81.3164C143.89 81.322 144.374 81.2771 144.846 81.2602C145.802 81.2602 146.729 81.0692 147.64 80.9344C148.101 80.8894 148.534 80.7321 148.978 80.631C149.417 80.513 149.861 80.4231 150.282 80.2827C150.698 80.131 151.115 79.9793 151.525 79.8276C151.733 79.7546 151.935 79.6759 152.138 79.6029C152.335 79.5074 152.526 79.4175 152.722 79.3276C153.11 79.1422 153.493 78.9568 153.869 78.777C154.252 78.6028 154.589 78.3557 154.949 78.1534C155.297 77.9399 155.652 77.7377 155.989 77.5186C156.309 77.277 156.63 77.041 156.945 76.8051C159.458 74.9061 161.296 72.6701 162.578 70.5296C163.843 68.3779 164.647 66.3498 165.04 64.6362C165.142 64.2093 165.282 63.816 165.333 63.4227C165.395 63.0351 165.451 62.6755 165.507 62.3441C165.558 62.007 165.62 61.698 165.648 61.4171C165.665 61.1305 165.681 60.8721 165.693 60.6418C165.721 60.1867 165.743 59.8328 165.76 59.5856C165.777 59.3496 165.794 59.226 165.794 59.226C165.794 59.226 165.794 59.3496 165.794 59.5856C165.783 59.8328 165.771 60.1867 165.754 60.6418C165.743 60.8777 165.732 61.1362 165.721 61.4227C165.693 61.7092 165.636 62.0182 165.591 62.3553C165.541 62.6924 165.49 63.0576 165.434 63.4452C165.395 63.8385 165.254 64.2317 165.153 64.6643C164.776 66.3947 163.984 68.4397 162.719 70.6139C161.442 72.7769 159.598 75.041 157.074 76.968C156.759 77.2039 156.433 77.4455 156.113 77.6927C155.775 77.9174 155.415 78.1197 155.067 78.3388C154.707 78.5467 154.364 78.7939 153.982 78.9736C153.599 79.159 153.212 79.3444 152.824 79.5355C152.627 79.631 152.43 79.7209 152.233 79.8164C152.025 79.8894 151.823 79.968 151.615 80.0467C151.199 80.1984 150.783 80.3557 150.356 80.5074C149.928 80.6478 149.484 80.7433 149.04 80.8613C148.596 80.9624 148.152 81.1198 147.685 81.1703C146.763 81.3052 145.83 81.4962 144.857 81.5074C144.374 81.5243 143.89 81.5748 143.401 81.5692C142.912 81.5467 142.417 81.5186 141.922 81.4962C141.675 81.4793 141.422 81.4793 141.175 81.4512L140.427 81.3389C139.927 81.2602 139.421 81.1984 138.92 81.0973C137.931 80.8332 136.907 80.631 135.935 80.2265C134.929 79.9062 133.984 79.4119 133.017 78.9512C132.545 78.6984 132.089 78.4006 131.623 78.1197C131.392 77.9736 131.15 77.85 130.931 77.6815L130.273 77.1871C129.363 76.5635 128.564 75.7826 127.732 75.0353C126.979 74.2039 126.186 73.3892 125.534 72.4454L125.017 71.76L124.567 71.024L124.117 70.2824L123.892 69.9116L123.701 69.5184C123.448 68.9959 123.195 68.4678 122.942 67.9397C122.74 67.3891 122.537 66.8385 122.335 66.2823C121.604 64.0351 121.211 61.653 121.182 59.226C121.216 56.799 121.61 54.4169 122.341 52.1697C122.543 51.6135 122.745 51.0629 122.948 50.5123C123.201 49.9842 123.454 49.4561 123.707 48.9336C123.825 48.6696 123.965 48.4168 124.123 48.1696L124.573 47.428L125.022 46.692L125.54 46.0066C126.192 45.0628 126.979 44.2481 127.738 43.4167C128.57 42.6638 129.368 41.8885 130.279 41.2649L130.937 40.7705C131.156 40.6076 131.398 40.4784 131.628 40.3323C132.095 40.057 132.55 39.7593 133.023 39.5008C133.995 39.0345 134.94 38.5458 135.94 38.2255C136.913 37.821 137.936 37.6244 138.926 37.3547C139.426 37.2536 139.932 37.1918 140.433 37.1131L141.18 37.0008C141.428 36.9671 141.681 36.9727 141.928 36.9558C142.423 36.9334 142.918 36.9053 143.407 36.8828C143.896 36.8772 144.379 36.9221 144.863 36.9446C145.83 36.9502 146.763 37.1469 147.691 37.2761C148.157 37.3266 148.596 37.4839 149.046 37.5851C149.49 37.7087 149.934 37.7986 150.361 37.939C150.783 38.0963 151.204 38.248 151.621 38.3997C151.829 38.4783 152.037 38.5514 152.239 38.63C152.436 38.7255 152.632 38.8154 152.829 38.9109C153.217 39.102 153.605 39.2874 153.987 39.4728C154.375 39.6469 154.713 39.8997 155.072 40.1076C155.427 40.3267 155.781 40.529 156.118 40.7537C156.444 40.9953 156.765 41.2368 157.08 41.4784C159.604 43.4054 161.454 45.6695 162.724 47.8325C163.989 50.0067 164.782 52.0517 165.159 53.7821C165.254 54.2147 165.395 54.6135 165.44 55.0012C165.496 55.3888 165.552 55.754 165.597 56.0911C165.642 56.4282 165.698 56.7372 165.726 57.0237C165.738 57.3102 165.749 57.5687 165.76 57.8046C165.777 58.2597 165.788 58.6136 165.799 58.8608C165.805 59.0968 165.799 59.2204 165.799 59.2204L165.788 59.2372Z" fill="#263238"/>
<path d="M235.609 200.752C232.759 198.01 228.475 196.847 224.623 197.768C220.778 198.69 217.489 201.673 216.19 205.409L217.596 210.836C218.13 208.988 219.271 207.201 221.042 206.437C222.881 205.645 225.011 206.094 226.895 206.78C228.778 207.465 230.628 208.381 232.629 208.505C234.631 208.628 236.885 207.679 237.487 205.769C238.049 203.971 236.964 202.055 235.609 200.752Z" fill="#E52A9C"/>
<g opacity="0.3">
<path d="M235.609 200.752C232.759 198.01 228.475 196.847 224.623 197.768C220.778 198.69 217.489 201.673 216.19 205.409L217.596 210.836C218.13 208.988 219.271 207.201 221.042 206.437C222.881 205.645 225.011 206.094 226.895 206.78C228.778 207.465 230.628 208.381 232.629 208.505C234.631 208.628 236.885 207.679 237.487 205.769C238.049 203.971 236.964 202.055 235.609 200.752Z" fill="black"/>
</g>
<path d="M201.753 218.864C198.818 216.078 198.964 211.229 200.432 207.46C201.893 203.69 205.087 200.797 208.657 198.886C215.572 195.19 224.219 194.909 231.359 198.151C227.85 198.268 224.455 200.257 222.644 203.263C221.036 205.932 220.677 209.168 219.35 211.988C217.871 215.128 215.156 217.662 211.917 218.926C208.685 220.19 204.969 220.168 201.747 218.864" fill="#E52A9C"/>
<path d="M200.342 202.134C197.092 198.302 196.659 192.15 197.137 187.15C197.615 182.15 198.773 177.122 197.986 172.161C197.519 169.223 196.378 166.419 195.99 163.47C195.602 160.52 196.153 157.183 198.436 155.279C201.067 153.088 205.205 153.605 207.937 155.661C210.669 157.717 212.255 160.942 213.413 164.161C215.954 171.229 216.893 179.071 214.802 186.285C212.71 193.499 207.808 199.954 200.611 202.134" fill="#E52A9C"/>
<path d="M198.784 233.573C198.784 233.573 198.773 233.421 198.773 233.129C198.773 232.842 198.773 232.41 198.796 231.865C198.835 230.764 198.942 229.174 199.189 227.224C199.436 225.275 199.824 222.96 200.437 220.426C201.044 217.893 202.079 215.19 203.541 212.561C205.008 209.932 206.801 207.656 208.612 205.785C210.428 203.915 212.289 202.454 213.93 201.37C214.74 200.808 215.527 200.381 216.202 199.988C216.893 199.622 217.5 199.325 217.995 199.089C218.484 198.881 218.872 198.718 219.164 198.6C219.434 198.493 219.575 198.437 219.58 198.448C219.58 198.459 219.451 198.527 219.187 198.65C218.906 198.785 218.523 198.959 218.04 199.184C217.551 199.437 216.961 199.746 216.275 200.122C215.611 200.527 214.835 200.96 214.037 201.527C212.418 202.628 210.585 204.089 208.792 205.96C207.004 207.825 205.233 210.083 203.777 212.696C200.791 217.915 199.971 223.404 199.38 227.252C199.11 229.196 198.975 230.78 198.902 231.876C198.869 232.404 198.846 232.825 198.829 233.14C198.812 233.427 198.796 233.578 198.79 233.578L198.784 233.573Z" fill="#263238"/>
<path d="M170.769 187.021C164.759 190.645 164.776 193.943 165.783 197.055C166.783 200.167 170.477 202.33 173.535 201.167C175.261 200.51 176.515 199.004 177.583 197.499C178.652 195.988 179.658 194.375 181.159 193.291C182.66 192.207 184.83 191.791 186.337 192.869" fill="#E52A9C"/>
<path d="M188.237 193.881L182.48 191.718L184.774 191.987C185.421 192.06 186 192.28 186.5 192.634L188.243 193.875L188.237 193.881Z" fill="black"/>
<g opacity="0.3">
<path d="M170.769 187.021C164.759 190.645 164.776 193.943 165.783 197.055C166.783 200.167 170.477 202.33 173.53 201.167C175.256 200.51 176.51 199.004 177.578 197.499C178.646 195.988 179.652 194.375 181.153 193.291C182.177 192.549 183.515 192.122 184.74 192.268L170.769 187.021Z" fill="black"/>
</g>
<path d="M166.266 190.993C167.835 188.824 171.72 188.195 174.171 189.28C176.622 190.364 178.415 192.51 180.023 194.65C181.631 196.791 183.194 199.055 185.421 200.549C187.647 202.038 190.756 202.583 192.977 201.078C194.433 200.089 195.276 198.375 195.54 196.639C195.805 194.898 195.552 193.122 195.186 191.403C194.658 188.886 193.792 186.251 191.774 184.656C189.525 182.875 186.404 182.791 183.537 182.881C180.243 182.987 176.903 183.234 173.817 184.375C170.724 185.515 167.576 187.976 166.26 190.999" fill="#E52A9C"/>
<path d="M193.792 228.764C193.792 228.764 193.781 228.719 193.775 228.634C193.775 228.533 193.764 228.404 193.752 228.247C193.741 227.887 193.724 227.387 193.702 226.758C193.663 225.443 193.612 223.572 193.544 221.275C193.471 218.96 193.376 216.207 193.213 213.151C193.044 210.095 192.814 206.735 192.353 203.241C192.116 201.493 191.841 199.785 191.357 198.207C190.868 196.622 190.222 195.15 189.513 193.802C188.799 192.454 188.018 191.229 187.191 190.156C186.359 189.089 185.499 188.156 184.656 187.375C182.952 185.819 181.316 184.864 180.158 184.313C179.866 184.178 179.607 184.049 179.377 183.954C179.152 183.864 178.955 183.791 178.792 183.723C178.646 183.667 178.528 183.617 178.432 183.577C178.354 183.543 178.309 183.521 178.314 183.521C178.314 183.521 178.359 183.527 178.443 183.555C178.539 183.588 178.663 183.628 178.815 183.673C178.983 183.729 179.18 183.796 179.41 183.875C179.647 183.959 179.905 184.088 180.203 184.212C181.384 184.74 183.048 185.678 184.785 187.229C185.645 188.015 186.522 188.942 187.371 190.016C188.215 191.094 189.013 192.325 189.738 193.679C190.458 195.038 191.116 196.516 191.61 198.122C192.105 199.729 192.386 201.443 192.622 203.196C193.089 206.707 193.308 210.072 193.466 213.128C193.618 216.19 193.696 218.943 193.741 221.263C193.786 223.578 193.809 225.455 193.814 226.747C193.814 227.376 193.814 227.876 193.814 228.235C193.814 228.393 193.814 228.522 193.809 228.623C193.809 228.713 193.803 228.758 193.797 228.758L193.792 228.764Z" fill="#263238"/>
<path d="M195.951 231.477C195.951 231.477 195.613 230.584 195.293 228.898C194.978 227.213 194.742 224.713 195.017 221.651C195.276 218.589 196.058 214.994 197.306 211.14C198.537 207.274 200.212 203.145 201.646 198.701C202.354 196.476 202.956 194.28 203.372 192.122C203.788 189.965 204.058 187.858 204.226 185.841C204.564 181.813 204.513 178.161 204.418 175.105C204.316 172.049 204.153 169.571 204.052 167.863C204.002 167.021 203.962 166.363 203.934 165.897C203.923 165.683 203.917 165.515 203.912 165.386C203.912 165.268 203.912 165.212 203.912 165.212C203.912 165.212 203.923 165.268 203.94 165.386C203.951 165.515 203.968 165.683 203.99 165.897C204.03 166.363 204.086 167.021 204.159 167.863C204.294 169.571 204.485 172.043 204.614 175.105C204.738 178.167 204.806 181.824 204.479 185.869C204.316 187.892 204.058 190.01 203.636 192.178C203.226 194.347 202.619 196.561 201.91 198.791C200.477 203.246 198.796 207.375 197.553 211.224C196.294 215.067 195.495 218.634 195.214 221.679C194.916 224.724 195.124 227.207 195.405 228.887C195.552 229.73 195.686 230.382 195.805 230.814C195.855 231.022 195.895 231.185 195.928 231.314C195.956 231.427 195.968 231.483 195.962 231.488L195.951 231.477Z" fill="#263238"/>
<path d="M210.849 234.191H182.632L181.991 228.764H210.849V234.191Z" fill="#455A64"/>
<path d="M185.662 233.573L189.187 249.854H204.524L207.825 233.573H185.662Z" fill="#455A64"/>
<path d="M210.849 234.191C210.849 234.264 204.642 234.309 196.996 234.286C189.345 234.264 183.138 234.185 183.138 234.112C183.138 234.039 189.339 233.994 196.996 234.016C204.648 234.039 210.849 234.118 210.849 234.191Z" fill="#455A64"/>
<path d="M206.009 242.225C205.975 242.281 205.177 241.46 203.524 240.803C202.703 240.477 201.668 240.225 200.499 240.196C199.33 240.157 198.065 240.438 196.783 240.876C195.495 241.309 194.298 241.814 193.123 242.095C191.948 242.348 190.851 242.331 189.963 242.191C189.069 242.05 188.378 241.786 187.934 241.55C187.714 241.427 187.546 241.326 187.444 241.241C187.338 241.163 187.287 241.118 187.293 241.107C187.31 241.084 187.534 241.247 187.984 241.455C188.434 241.657 189.12 241.893 189.997 242.005C190.868 242.118 191.942 242.118 193.078 241.859C194.208 241.578 195.411 241.067 196.704 240.629C197.997 240.185 199.307 239.904 200.51 239.955C201.708 239.994 202.77 240.275 203.597 240.635C204.434 240.983 205.042 241.399 205.435 241.708C205.632 241.859 205.778 241.994 205.874 242.084C205.969 242.174 206.014 242.225 206.009 242.236V242.225Z" fill="#263238"/>
<path d="M205.795 243.314C205.756 243.371 204.991 242.573 203.406 241.91C202.619 241.584 201.618 241.331 200.493 241.309C199.363 241.275 198.138 241.533 196.901 241.955C195.658 242.371 194.489 242.854 193.376 243.151C192.263 243.455 191.211 243.562 190.34 243.494C189.463 243.432 188.783 243.185 188.35 242.96C188.136 242.843 187.973 242.741 187.877 242.663C187.776 242.584 187.726 242.539 187.731 242.534C187.748 242.511 187.962 242.668 188.4 242.871C188.839 243.062 189.502 243.269 190.357 243.309C191.206 243.354 192.229 243.23 193.314 242.921C194.405 242.612 195.563 242.129 196.822 241.708C198.076 241.281 199.347 241.022 200.505 241.067C201.663 241.101 202.692 241.382 203.484 241.741C204.288 242.09 204.867 242.505 205.244 242.809C205.435 242.96 205.576 243.084 205.666 243.18C205.756 243.269 205.801 243.32 205.795 243.326V243.314Z" fill="white"/>
<path d="M206.29 241.146C206.256 241.196 205.43 240.365 203.737 239.646C202.9 239.292 201.843 238.972 200.64 238.904C199.436 238.82 198.126 239.129 196.805 239.578C195.478 240.022 194.242 240.567 193.016 240.814C191.796 241.034 190.672 240.966 189.75 240.814C188.833 240.657 188.113 240.393 187.652 240.151C187.422 240.022 187.248 239.921 187.141 239.837C187.028 239.753 186.978 239.708 186.983 239.702C187 239.68 187.231 239.848 187.697 240.062C188.164 240.269 188.872 240.5 189.778 240.629C190.677 240.753 191.785 240.798 192.965 240.567C194.135 240.314 195.377 239.769 196.715 239.32C198.048 238.865 199.403 238.55 200.651 238.651C201.888 238.741 202.967 239.084 203.81 239.466C204.659 239.848 205.283 240.281 205.694 240.601C205.896 240.764 206.048 240.893 206.144 240.989C206.245 241.084 206.29 241.135 206.284 241.14L206.29 241.146Z" fill="white"/>
<path d="M211.102 234.213C211.102 234.286 204.755 234.348 196.923 234.348C189.092 234.348 182.744 234.286 182.744 234.213C182.744 234.14 189.092 234.078 196.923 234.078C204.755 234.078 211.102 234.14 211.102 234.213Z" fill="#263238"/>
<path d="M258.37 249.854C258.37 249.933 200.531 250 129.191 250C57.8512 250 0 249.933 0 249.854C0 249.775 57.8269 249.708 129.191 249.708C200.555 249.708 258.37 249.775 258.37 249.854Z" fill="#263238"/>
<path d="M71.0392 242.955L69.3525 218.05L82.8343 219.32L81.7099 243.46L75.0815 243.831L71.0392 242.955Z" fill="#B78876"/>
<path d="M70.6568 241.719V242.444C70.6568 242.444 58.3782 247.517 58.2714 249.854L82.7556 249.483L82.3002 241.348C78.6852 243.09 74.879 243.337 70.6568 241.713V241.719Z" fill="#E52A9C"/>
<g opacity="0.6">
<path d="M79.8545 243.989C80.3324 244.112 80.6641 244.64 80.5629 245.118C80.4617 245.595 79.9276 245.944 79.4497 245.831C78.9719 245.719 78.5502 245.095 78.7076 244.629C78.865 244.163 79.5116 243.792 79.9501 244.017" fill="white"/>
</g>
<g opacity="0.6">
<path d="M82.75 249.483L82.6432 247.528L59.2215 248.595C59.2215 248.595 58.1365 249.084 58.2714 249.848L82.7556 249.477L82.75 249.483Z" fill="white"/>
</g>
<path d="M70.5725 242.511C70.5781 242.629 71.174 242.674 71.77 243.05C72.3715 243.41 72.6864 243.921 72.7932 243.876C72.9056 243.854 72.7145 243.14 71.9892 242.696C71.264 242.247 70.5443 242.404 70.5725 242.511Z" fill="#263238"/>
<path d="M68.0256 243.612C67.9975 243.73 68.5204 243.921 68.9364 244.421C69.3637 244.91 69.4761 245.455 69.5942 245.444C69.7066 245.461 69.7797 244.758 69.2512 244.152C68.7284 243.534 68.0256 243.494 68.0256 243.612Z" fill="#263238"/>
<path d="M66.6089 246.708C66.7157 246.73 66.8731 246.135 66.5583 245.483C66.2434 244.831 65.6812 244.584 65.6306 244.68C65.5632 244.781 65.9342 245.123 66.1872 245.663C66.4514 246.197 66.4908 246.697 66.6145 246.708H66.6089Z" fill="#263238"/>
<path d="M98.7055 226.275L83.5708 206.42L95.5234 200.055L107.892 220.825L102.557 224.78L98.7055 226.275Z" fill="#B78876"/>
<path d="M97.6991 225.454L98.1039 226.061C98.1039 226.061 90.649 237.05 91.8465 239.062L112.075 225.28L107.212 218.741C105.154 222.179 102.112 224.483 97.6991 225.454Z" fill="#E52A9C"/>
<g opacity="0.6">
<path d="M106.633 222.286C107.099 222.129 107.667 222.381 107.847 222.836C108.027 223.291 107.768 223.876 107.307 224.044C106.846 224.213 106.149 223.926 106.025 223.454C105.896 222.982 106.233 222.314 106.723 222.263" fill="white"/>
</g>
<g opacity="0.6">
<path d="M112.08 225.28L110.911 223.707L91.9477 237.494C91.9477 237.494 91.3124 238.5 91.8465 239.062L112.075 225.28H112.08Z" fill="white"/>
</g>
<path d="M98.0757 226.162C98.1488 226.258 98.6717 225.966 99.3744 225.954C100.077 225.921 100.617 226.179 100.684 226.078C100.763 225.999 100.212 225.505 99.3632 225.539C98.5143 225.561 97.997 226.089 98.0813 226.162H98.0757Z" fill="#263238"/>
<path d="M96.5522 228.483C96.5972 228.595 97.1369 228.471 97.7553 228.657C98.3794 228.825 98.7729 229.219 98.8685 229.151C98.9697 229.101 98.6436 228.477 97.8678 228.258C97.0919 228.033 96.4847 228.387 96.5466 228.483H96.5522Z" fill="#263238"/>
<path d="M97.0751 231.842C97.1819 231.803 96.9795 231.213 96.3555 230.848C95.737 230.477 95.1242 230.578 95.1411 230.691C95.1411 230.809 95.6358 230.893 96.1474 231.207C96.659 231.505 96.9739 231.904 97.0751 231.842Z" fill="#263238"/>
<path d="M75.3176 140.829C75.3176 140.829 63.618 182.493 64.4107 185.487C65.1978 188.482 85.9715 219.241 86.5618 219.432C87.1521 219.617 103.569 209.842 103.569 209.842L86.5618 181.819C86.5618 181.819 96.0294 161.549 98.7955 152.593C101.556 143.638 102.09 143.183 100.375 135.031C99.3352 130.087 94.6969 123.469 94.6969 123.469L93.9548 121.182H74.7891L75.3232 140.835L75.3176 140.829Z" fill="#263238"/>
<path d="M62.6903 121.182L61.3073 126.705C58.9404 128.391 55.3928 136.34 55.1961 139.526C54.9993 142.705 54.2347 155.773 54.2122 164.79C54.1841 175.262 65.8275 237.455 65.8275 237.455H86.7754L79.3936 138.778L77.5495 121.188H62.6959L62.6903 121.182Z" fill="#263238"/>
<path d="M74.6484 133.677C74.6484 133.677 74.6428 133.756 74.6147 133.913C74.581 134.082 74.5416 134.312 74.4854 134.604C74.3617 135.222 74.1874 136.11 73.9569 137.25C73.4678 139.537 72.7426 142.846 71.7756 146.919C70.8254 150.992 69.6448 155.835 68.4923 161.245C67.9244 163.953 67.351 166.796 66.9012 169.768C66.4233 172.734 66.0691 175.835 66.0073 179.015C65.9567 182.189 66.2041 185.33 67.3116 188.128C68.3517 190.942 69.6673 193.538 70.9547 195.982C73.569 200.853 76.2001 205.089 78.5108 208.572C80.8215 212.061 82.8174 214.797 84.2566 216.64C84.9875 217.55 85.5553 218.263 85.9657 218.718C86.1569 218.943 86.3087 219.123 86.4211 219.252C86.5223 219.376 86.5729 219.437 86.5673 219.443C86.5673 219.443 85.6396 218.539 84.161 216.718C82.6937 214.892 80.6697 212.173 78.3365 208.696C76.0034 205.218 73.3441 200.993 70.713 196.117C69.4199 193.667 68.0931 191.072 67.0418 188.235C65.9173 185.403 65.6587 182.206 65.7149 179.021C65.7768 175.819 66.1366 172.706 66.6201 169.734C67.0811 166.757 67.6546 163.908 68.2336 161.2C69.403 155.79 70.6062 150.953 71.5788 146.885C72.5683 142.818 73.3273 139.52 73.8501 137.239C74.0975 136.11 74.2943 135.222 74.4292 134.61C74.4966 134.318 74.5472 134.093 74.5866 133.924C74.626 133.773 74.6428 133.694 74.6484 133.694V133.677Z" fill="#455A64"/>
<path d="M99.3633 135.992C99.3633 135.992 99.1215 136.11 98.6549 136.245C98.1883 136.379 97.4967 136.531 96.6309 136.627C94.9106 136.823 92.42 136.677 89.9575 135.615C87.495 134.554 85.6791 132.84 84.6446 131.458C84.1162 130.761 83.7564 130.16 83.5371 129.728C83.3178 129.295 83.2166 129.042 83.2335 129.037C83.2841 129.009 83.7282 129.992 84.8077 131.329C85.8703 132.66 87.6693 134.306 90.0756 135.346C92.4818 136.385 94.9106 136.559 96.6141 136.424C98.3288 136.29 99.352 135.941 99.3689 135.997L99.3633 135.992Z" fill="#455A64"/>
<path d="M63.8147 127.34C63.8147 127.34 63.7979 127.508 63.7191 127.801C63.6404 128.093 63.4999 128.508 63.2975 129.009C62.8927 130.009 62.1899 131.34 61.1611 132.638C60.1323 133.936 58.9966 134.924 58.1139 135.548C57.6754 135.863 57.3043 136.093 57.0345 136.233C56.7702 136.379 56.6184 136.447 56.6072 136.43C56.5791 136.385 57.1469 136.037 57.9846 135.379C58.8223 134.722 59.9186 133.728 60.9306 132.458C61.9369 131.183 62.6566 129.891 63.1063 128.924C63.5561 127.958 63.7641 127.329 63.8147 127.34Z" fill="#455A64"/>
<path d="M97.744 47.7595C98.6267 46.7314 98.8628 45.192 98.3343 43.9448C97.8059 42.6976 96.5353 41.7987 95.1804 41.72C95.6133 40.456 95.3434 38.9784 94.4888 37.9503C93.6343 36.9222 92.2288 36.3884 90.9076 36.5851C90.8232 35.248 90.053 33.9727 88.9061 33.276C87.7648 32.5737 86.275 32.4726 85.0493 33.0007C84.2566 32.04 83.0085 31.4782 81.766 31.5288C80.5236 31.5793 79.3204 32.2367 78.6064 33.2535C77.9149 33.3715 77.2515 33.6412 76.6724 34.0288C76.0484 33.8996 75.3681 34.0288 74.789 34.3097C74.0525 34.6637 73.4397 35.2311 72.8438 35.7873C71.8712 36.6918 70.8479 37.6694 70.505 38.9559C70.1171 40.3885 70.6287 42.029 69.9034 43.3268C69.6167 43.838 69.1613 44.2482 68.9702 44.7987C68.6047 45.8437 69.3131 46.9729 69.2288 48.0741C69.1388 49.2427 68.1718 50.2595 68.2899 51.4281C68.3742 52.2708 69.0151 52.9562 69.701 53.4619C70.3869 53.9675 71.1572 54.372 71.7194 55.0068C72.1691 55.5181 72.4615 56.1473 72.9 56.6642C74.1481 58.1305 76.6274 58.3215 78.0836 57.0631C79.0618 57.9058 80.5011 58.035 81.7492 57.7035C82.9973 57.3777 84.1048 56.6586 85.1843 55.9451C85.6453 56.5743 86.4436 56.9507 87.2195 56.9001C88.0009 56.8552 88.7431 56.3889 89.1254 55.7035C89.3952 56.5574 90.4072 56.99 91.2955 56.9058C92.1894 56.8159 92.9821 56.3383 93.7467 55.8664C95.1747 54.9844 96.777 53.827 96.8108 52.1472C96.8333 51.1191 96.2429 50.0573 96.6309 49.1078C96.8557 48.5629 97.3561 48.1921 97.7384 47.7482L97.744 47.7595Z" fill="#263238"/>
<path d="M65.8724 41.0627C68.2843 37.9952 70.5669 37.1637 73.2542 36.7087C77.3246 36.0176 81.8617 36.7087 85.1731 39.1806C88.2146 41.4447 89.8956 45.1864 90.3679 48.9505C90.5309 50.2764 90.1318 51.5517 89.7663 52.8382C89.3953 54.1248 87.9335 55.754 86.7529 56.3776C85.5666 57.0013 85.0719 56.6024 84.0712 55.7147C83.4583 55.1754 83.1098 54.4001 82.7668 53.6585C81.3276 50.518 79.6803 47.4055 77.2572 44.9392C74.8341 42.4728 71.517 40.7088 68.0651 40.8155" fill="#E52A9C"/>
<path d="M83.8519 47.2763C83.4358 46.1471 83.6214 44.8942 83.4639 43.7032C83.121 41.0739 81.0746 38.8548 78.6065 37.8941C76.1384 36.9334 73.3273 37.1075 70.8142 37.9334C68.9421 38.5514 67.1486 39.5514 65.878 41.0627C64.1914 43.0627 63.5674 45.9167 64.2701 48.4393L77.7182 46.6583C78.9607 47.7145 80.2369 48.7876 81.7492 49.3831C82.1934 49.5573 82.6712 49.6921 83.1491 49.6247C83.6214 49.5573 84.088 49.2426 84.2061 48.7763C84.3354 48.2707 84.043 47.7651 83.8575 47.2763H83.8519Z" fill="#263238"/>
<path d="M70.4769 41.6358L82.1653 44.265C83.2953 44.3549 84.1723 45.2988 84.178 46.4336L83.7113 71.7769C83.6776 73.5073 83.076 75.1815 81.9966 76.5354L80.8609 77.9624C78.2691 81.2153 73.1137 80.8164 71.2134 77.1197C71.0785 76.8613 70.9885 76.6366 70.9548 76.4512C70.9211 76.2208 70.8592 76.0691 70.8536 75.8781C70.5444 73.9118 70.7018 72.0353 70.7018 72.0353C70.6175 69.7768 70.595 68.8499 70.5894 68.8723C70.5894 68.8723 65.7993 68.2038 64.6524 62.0126C64.079 58.9339 64.1015 53.8608 64.2589 49.709C64.3994 45.9729 66.7495 41.3324 70.4769 41.6301V41.6358Z" fill="#B78876"/>
<path d="M66.682 53.5742C66.682 53.9956 67.0306 54.3439 67.4747 54.3607C67.9132 54.372 68.2731 54.0405 68.2787 53.6191C68.2787 53.1978 67.9301 52.8439 67.4916 52.8326C67.0531 52.8214 66.6933 53.1528 66.6876 53.5742H66.682Z" fill="#263238"/>
<path d="M65.4283 52.327C65.5295 52.4281 66.1254 51.9674 66.98 51.945C67.8345 51.9113 68.4811 52.3382 68.571 52.2315C68.616 52.1865 68.5092 52.0012 68.2281 51.8045C67.9526 51.6135 67.486 51.4337 66.9519 51.445C66.4178 51.4618 65.9736 51.6697 65.7206 51.8776C65.462 52.0854 65.3777 52.2764 65.4283 52.3214V52.327Z" fill="#263238"/>
<path d="M74.8228 53.5742C74.8228 53.9956 75.1713 54.3439 75.6155 54.3607C76.054 54.372 76.4138 54.0405 76.4194 53.6191C76.4194 53.1978 76.0709 52.8439 75.6323 52.8326C75.1938 52.8214 74.834 53.1528 74.8284 53.5742H74.8228Z" fill="#263238"/>
<path d="M73.867 52.2652C73.9682 52.3663 74.5641 51.9056 75.4187 51.8831C76.2733 51.8494 76.9198 52.2764 77.0098 52.1697C77.0547 52.1191 76.9479 51.9393 76.6668 51.7427C76.3913 51.5517 75.9247 51.3719 75.3906 51.3831C74.8565 51.4 74.4124 51.6079 74.1594 51.8157C73.9007 52.0236 73.8164 52.2146 73.867 52.2596V52.2652Z" fill="#263238"/>
<path d="M70.9211 58.7092C70.9211 58.6586 70.387 58.58 69.5212 58.4957C69.3019 58.4788 69.0939 58.4395 69.0545 58.2934C68.9983 58.1361 69.0826 57.9002 69.1838 57.6417C69.375 57.108 69.5774 56.5462 69.791 55.9563C70.6287 53.5574 71.2303 51.5854 71.1347 51.5573C71.0391 51.5236 70.2801 53.4394 69.4425 55.8383C69.2401 56.4282 69.0489 56.9957 68.8634 57.535C68.7847 57.7878 68.6497 58.0743 68.7734 58.4002C68.8353 58.5631 68.9983 58.6755 69.1445 58.7092C69.285 58.7485 69.4087 58.7485 69.5155 58.7485C70.387 58.771 70.9267 58.7654 70.9267 58.7148L70.9211 58.7092Z" fill="#263238"/>
<path d="M70.5894 68.878C70.5894 68.878 74.7834 69.0409 78.8651 66.4397C78.8651 66.4397 76.8805 70.7993 70.64 70.378L70.5894 68.878Z" fill="#AA6550"/>
<path d="M71.3371 60.7654C71.6351 60.3497 72.1692 60.1137 72.7089 60.1531C73.08 60.1811 73.4623 60.3553 73.6984 60.6531C73.9345 60.9508 73.9907 61.3778 73.794 61.6756C73.5691 62.007 73.0912 62.0969 72.6752 61.9902C72.2648 61.8834 71.9049 61.625 71.562 61.3666C71.4664 61.2935 71.3709 61.2205 71.309 61.1194C71.2472 61.0182 71.2303 60.889 71.3034 60.7991" fill="#AA6550"/>
<path d="M73.4623 59.2373C73.3217 59.2373 73.3442 60.1643 72.5627 60.8441C71.7813 61.5295 70.7862 61.4508 70.7862 61.58C70.7749 61.6362 71.011 61.7542 71.4327 61.7542C71.8431 61.7542 72.439 61.6081 72.9169 61.1924C73.3948 60.7766 73.586 60.2261 73.6084 59.844C73.6366 59.4564 73.5241 59.226 73.4623 59.2317V59.2373Z" fill="#263238"/>
<path d="M73.6591 49.6753C73.749 49.9056 74.6036 49.7708 75.6155 49.8663C76.6275 49.9393 77.4483 50.2146 77.5777 50.0011C77.6339 49.9 77.4877 49.6865 77.1504 49.4674C76.8187 49.2483 76.2958 49.0516 75.6886 48.9955C75.0814 48.9449 74.5305 49.0573 74.1707 49.2146C73.8052 49.3719 73.6253 49.5629 73.6647 49.6696L73.6591 49.6753Z" fill="#263238"/>
<path d="M65.5801 48.5685C65.7375 48.7595 66.3222 48.5404 67.0306 48.5123C67.739 48.4618 68.3462 48.6078 68.4811 48.4C68.5373 48.2988 68.4418 48.1078 68.1719 47.928C67.9077 47.7483 67.4691 47.6134 66.98 47.6415C66.4909 47.6696 66.0749 47.855 65.8331 48.0629C65.5857 48.2708 65.507 48.473 65.5801 48.5685Z" fill="#263238"/>
<path d="M86.022 45.4954C84.8526 41.9111 79.6072 36.9896 75.8517 37.2761L69.8698 40.9167C70.2464 42.9616 71.8431 44.7257 73.8333 45.3212C74.8959 45.6359 76.1777 45.7145 76.813 46.6246C77.4652 47.5516 77.0998 48.9112 77.707 49.8663C78.5503 51.1922 80.8216 51.1135 81.4569 52.5517C81.7324 53.181 81.5974 53.9338 81.8842 54.5574C82.2665 55.3889 84.386 56.4282 85.2518 56.1417C86.1232 55.8608 86.112 54.3776 86.3931 53.5967C86.871 52.2652 86.6629 51.5798 86.4999 50.8382C86.1064 49.0854 86.5786 47.2033 86.022 45.4954Z" fill="#263238"/>
<path d="M88.3551 42.8212L87.8997 44.7987C87.8379 43.2819 87.5961 41.8492 86.8596 40.7425C85.3642 38.484 82.0584 36.9503 79.4553 36.2031C76.8467 35.4558 73.6533 35.9109 71.1346 36.9165C69.24 37.6694 67.4803 38.6919 65.5519 41.2987C63.6404 43.883 63.1963 47.7763 64.3769 48.4674C65.3102 45.7875 66.7888 42.7144 69.1332 41.1077C71.4776 39.5009 74.5248 38.8436 77.2459 39.6469C80.2818 40.5402 82.5925 43.1077 83.9305 45.9673C84.5771 47.3494 85.0718 48.9337 85.4541 50.5236C85.8983 52.3607 85.8758 54.2765 85.4148 56.1024L83.9024 61.4115L83.8687 63.1362C87.5624 61.771 89.845 57.9226 90.4578 54.0349C91.0706 50.1472 90.6321 46.3999 88.3551 42.8156V42.8212Z" fill="#E52A9C"/>
<path d="M85.2517 54.6248C85.2236 54.6136 85.3473 54.3046 85.4429 53.7203C85.5272 53.1416 85.5666 52.2652 85.2517 51.2539C84.9425 50.2652 84.2847 49.1134 83.1097 48.3662C82.5306 47.9898 81.8448 47.7089 81.142 47.3887C80.4448 47.0628 79.7027 46.6752 79.1349 46.0291C78.5671 45.3774 78.3085 44.5965 77.9711 43.9167C77.6507 43.2313 77.2065 42.6526 76.6893 42.1919C75.6492 41.2706 74.3899 40.8773 73.3498 40.8605C72.2984 40.838 71.4607 41.1133 70.9266 41.3548C70.3869 41.602 70.1227 41.8043 70.1058 41.7818C70.1002 41.7762 70.162 41.72 70.2857 41.6189C70.415 41.5234 70.6062 41.3942 70.876 41.2537C71.4045 40.9728 72.2535 40.6526 73.3498 40.6526C74.4348 40.6413 75.7673 41.029 76.8636 41.9841C77.4089 42.456 77.8924 43.074 78.2241 43.7819C78.5671 44.4785 78.8313 45.237 79.3485 45.8269C79.8658 46.4224 80.5685 46.7932 81.2544 47.119C81.9459 47.4449 82.6431 47.7314 83.2447 48.1303C84.4759 48.9337 85.1449 50.1528 85.4373 51.1865C85.7352 52.2371 85.6621 53.1416 85.5441 53.7315C85.471 54.0237 85.4092 54.2484 85.3417 54.3945C85.2798 54.5405 85.2461 54.6136 85.2349 54.6136L85.2517 54.6248Z" fill="#455A64"/>
<path d="M84.6839 47.9674C84.6839 47.9674 84.5489 47.7426 84.2285 47.4224C83.908 47.0966 83.3402 46.7482 82.5868 46.4111C82.2102 46.237 81.7941 46.0516 81.3612 45.7988C80.9339 45.546 80.4842 45.2201 80.1581 44.7426C79.4947 43.81 79.281 42.5571 78.3871 41.6863C77.5213 40.8043 76.3632 40.3492 75.3118 40.2031C74.2437 40.0571 73.2598 40.22 72.4727 40.4279C70.8873 40.8773 70.0158 41.4616 69.9877 41.4054C69.9765 41.3886 70.1901 41.2369 70.5949 41.0065C71.0053 40.7818 71.6125 40.4728 72.4165 40.2256C73.2148 39.984 74.2268 39.793 75.3512 39.9279C76.4588 40.0683 77.6788 40.529 78.6064 41.4728C79.5678 42.4223 79.7758 43.7201 80.3886 44.574C80.9958 45.4504 81.9628 45.8269 82.688 46.2089C83.4358 46.5741 84.0205 46.9617 84.3241 47.3269C84.4759 47.5067 84.5827 47.664 84.6277 47.7763C84.6839 47.8887 84.7064 47.9505 84.6951 47.9505L84.6839 47.9674Z" fill="#455A64"/>
<path d="M82.6881 56.8945C82.6768 56.4338 83.1828 55.3271 83.6382 55.2428C84.8526 55.0181 87.062 55.063 87.1632 58.1642C87.3038 62.4003 83.0141 61.6643 83.0029 61.5463C82.9917 61.4508 82.7274 58.4957 82.6881 56.9001V56.8945Z" fill="#B78876"/>
<path d="M84.2454 59.8946C84.2454 59.8946 84.3185 59.9451 84.4478 59.9957C84.5715 60.0463 84.7795 60.08 84.9988 59.9901C85.443 59.8103 85.7971 59.0856 85.7915 58.3215C85.7915 57.9339 85.696 57.5687 85.5498 57.2709C85.4092 56.9675 85.2012 56.7541 84.9763 56.7203C84.7514 56.6754 84.594 56.8159 84.549 56.9395C84.4984 57.0574 84.5266 57.1417 84.5041 57.1529C84.4928 57.1642 84.4085 57.0855 84.4366 56.9114C84.4535 56.8271 84.4984 56.726 84.594 56.6417C84.6952 56.5574 84.8414 56.5069 84.9988 56.5181C85.3249 56.5293 85.6285 56.8215 85.7915 57.1473C85.9714 57.4788 86.0839 57.8889 86.0839 58.3215C86.0839 59.1755 85.6735 59.9901 85.0663 60.1867C84.7683 60.2766 84.5209 60.1923 84.386 60.0968C84.2511 59.9957 84.2286 59.9002 84.2398 59.8946H84.2454Z" fill="#AA6550"/>
<path d="M87.8098 60.226C87.8098 60.226 87.8717 60.0687 88.0122 59.7935C88.1472 59.5126 88.3439 59.0912 88.5463 58.535C88.9568 57.4282 89.3953 55.7372 89.3728 53.6192C89.3728 52.563 89.221 51.4056 89.013 50.1753C88.7993 48.9505 88.4901 47.6471 87.9954 46.3381C87.5006 45.0347 86.8091 43.7257 85.8702 42.5346C84.9313 41.3436 83.7619 40.2593 82.407 39.3997C79.6915 37.6413 76.4869 37.1019 73.7321 37.484C72.3491 37.6637 71.0672 38.0682 69.9541 38.6076C68.8409 39.1525 67.8851 39.8267 67.1093 40.5458C65.5407 41.9784 64.6693 43.4953 64.1802 44.5684C63.9384 45.1077 63.7866 45.5459 63.6854 45.8437C63.5899 46.1415 63.5393 46.2988 63.528 46.2932C63.5168 46.2932 63.5561 46.1302 63.6292 45.8268C63.7079 45.5235 63.8485 45.0796 64.0734 44.5234C64.5344 43.4279 65.3889 41.8661 66.9631 40.3941C67.7446 39.6582 68.7116 38.9615 69.8416 38.3941C70.9773 37.8323 72.2816 37.4109 73.6928 37.2199C76.4982 36.8154 79.7871 37.3547 82.5588 39.1525C83.9475 40.0346 85.1337 41.1413 86.0895 42.3605C87.0452 43.5796 87.748 44.9167 88.2427 46.2482C88.7375 47.5797 89.0355 48.9 89.2435 50.1359C89.4459 51.3775 89.5808 52.5461 89.5696 53.6192C89.5696 55.7709 89.0917 57.4732 88.6475 58.5799C88.4283 59.1361 88.2146 59.5519 88.0628 59.8272C87.9054 60.1024 87.8211 60.2429 87.8098 60.2373V60.226Z" fill="#263238"/>
<path d="M86.0107 60.9901C86.0669 60.9114 86.2019 60.8777 86.393 60.9676C86.5785 61.0575 86.8034 61.2822 86.9102 61.653C86.9608 61.8384 86.9833 62.0519 86.9384 62.2935C86.899 62.5294 86.7753 62.7935 86.5842 63.007C86.2019 63.4283 85.6003 63.6643 84.9594 63.5463C84.2847 63.4227 83.8293 62.9171 83.6607 62.4508C83.4751 61.9676 83.5201 61.4845 83.7057 61.1305C83.8856 60.7878 84.1835 60.6024 84.4084 60.5743C84.6389 60.5463 84.7514 60.6474 84.7626 60.7429C84.7795 60.844 84.7232 60.9451 84.7008 61.0631C84.6783 61.1755 84.6727 61.3047 84.6895 61.4564C84.712 61.5856 84.7738 61.7542 84.8807 61.8834C84.9875 62.0238 85.1224 62.1025 85.2292 62.1137C85.3642 62.1418 85.5384 62.1025 85.6396 62.0519C85.7352 62.0126 85.8308 61.9115 85.8814 61.7598C85.9995 61.4676 85.9095 61.1699 86.0163 61.0013L86.0107 60.9901Z" fill="#455A64"/>
<path d="M52.7392 87.5357C52.7392 87.5357 53.4476 81.8951 56.1687 79.0748C58.8898 76.2545 70.6737 72.5971 70.6737 72.5971C70.6737 72.5971 70.7524 76.7433 73.4791 77.7152C76.3745 78.7433 79.1799 78.1984 81.2994 75.7433C83.3459 73.3668 83.745 70.4061 83.745 70.4061C83.745 70.4061 98.0027 71.7263 100.223 75.4511C102.438 79.1759 105.311 93.6145 105.311 93.6145L92.5942 96.3111L94.3202 121.182H60.5314L61.1948 97.8449L51.9971 99.1595L52.7448 87.5357H52.7392Z" fill="#455A64"/>
<path d="M90.0643 97.1314C90.0643 97.1314 90.0306 96.9291 90.0193 96.5696C90.0081 96.21 90.0024 95.6875 90.0024 95.0414C90.0024 93.7493 90.0249 91.974 90.0643 90.002C90.1036 88.0357 90.1599 86.2547 90.2105 84.9626C90.2386 84.3165 90.2611 83.794 90.2892 83.4344C90.3117 83.0749 90.3398 82.8726 90.3566 82.8726C90.3735 82.8726 90.3904 83.0693 90.4016 83.4344C90.4128 83.794 90.4185 84.3165 90.4185 84.9626C90.4185 86.2547 90.396 88.0357 90.3566 90.002C90.3173 91.9683 90.2611 93.7493 90.2105 95.0414C90.1823 95.6875 90.1599 96.21 90.1317 96.5696C90.1093 96.9291 90.0812 97.1314 90.0643 97.1258V97.1314Z" fill="#263238"/>
<path d="M58.0577 86.8952C58.1364 86.8727 58.9291 89.3952 59.8286 92.5301C60.7282 95.665 61.3972 98.2213 61.3185 98.2437C61.2398 98.2662 60.4471 95.7437 59.5475 92.6088C58.648 89.4739 57.979 86.9176 58.0577 86.8952Z" fill="#263238"/>
<path d="M98.7953 74.5579C98.8066 74.6084 98.1938 74.7208 97.2661 75.0747C96.3385 75.423 95.1129 76.0635 93.966 77.0523C92.8247 78.0467 92.0207 79.1759 91.5428 80.0467C91.065 80.9175 90.8682 81.5074 90.8176 81.4906C90.8007 81.485 90.8345 81.3333 90.9132 81.0636C90.9863 80.7883 91.1381 80.4063 91.3573 79.9512C91.7958 79.0411 92.5942 77.8557 93.7692 76.8332C94.9442 75.8163 96.226 75.1815 97.193 74.8781C97.6765 74.7208 98.0757 74.6253 98.3568 74.5916C98.6379 74.5522 98.7897 74.5354 98.7953 74.5579Z" fill="#263238"/>
<path d="M55.9663 80.2096C56.045 80.1872 56.3093 80.9737 56.5623 81.9625C56.8152 82.9513 56.9558 83.7659 56.8771 83.7884C56.7984 83.8108 56.5341 83.0243 56.2811 82.0355C56.0282 81.0467 55.8876 80.2321 55.9663 80.2096Z" fill="#263238"/>
<path d="M103.04 94.0976C103.04 94.0976 99.234 113.424 98.7954 115.076C98.3569 116.727 97.6541 121.182 93.044 122.104C86.8204 123.345 62.3643 122.48 62.3643 122.48L66.9744 116.643L88.3664 110.649L91.2899 96.5864L103.034 94.0976H103.04Z" fill="#B78876"/>
<path d="M46.0995 90.5077C46.0995 90.5077 49.5458 102.103 50.9795 107.109C52.4974 112.429 55.8201 124.52 62.9039 122.374C68.2899 120.739 66.7045 113.767 66.7045 113.767L61.1948 97.8449L56.9108 98.5584L52.7504 87.8222L46.1107 90.5077H46.0995Z" fill="#B78876"/>
<path d="M64.8211 114.261C64.7536 114.261 65.1978 113.25 64.8211 111.637C64.6412 110.845 64.2645 109.935 63.6742 109.031C63.0839 108.126 62.2855 107.227 61.4422 106.295C60.5933 105.362 59.8006 104.435 59.199 103.508C58.5862 102.592 58.1308 101.705 57.7935 100.946C57.4562 100.188 57.2369 99.5472 57.102 99.1034C56.967 98.6595 56.9164 98.4067 56.9333 98.4011C56.9558 98.3955 57.0401 98.6371 57.2088 99.064C57.3775 99.4966 57.6192 100.115 57.979 100.856C58.3388 101.598 58.8055 102.457 59.4239 103.356C60.0311 104.261 60.8069 105.165 61.6615 106.098C62.5048 107.031 63.3088 107.946 63.9047 108.884C64.5006 109.823 64.8661 110.767 65.0291 111.592C65.1978 112.418 65.1416 113.115 65.0516 113.57C65.001 113.8 64.9504 113.974 64.9054 114.087C64.8605 114.199 64.8323 114.261 64.8267 114.255L64.8211 114.261Z" fill="#AA6550"/>
<path d="M40.3594 68.7319C40.3594 68.7319 40.9441 67.9453 42.3046 69.1588C43.6651 70.3723 49.3097 79.9063 49.7483 80.7771C50.1868 81.6535 52.7392 87.8166 52.7392 87.8166L47.0497 91.8447L46.0995 90.4964C46.0995 90.4964 41.332 86.266 40.3594 85.0974C39.3867 83.9288 38.0712 82.2265 38.0262 81.985C37.9756 81.7434 37.6383 80.513 38.6109 80.1535C38.6109 80.1535 37.6889 78.6759 38.5153 77.9455C39.3418 77.2152 40.8485 77.895 40.8485 77.895L35.7886 71.378C35.7886 71.378 35.3501 69.4341 36.8118 70.1645C38.2736 70.8948 42.1135 76.4848 42.7993 76.6309C43.4796 76.777 43.4796 76.0466 43.4796 76.0466C43.4796 76.0466 39.4879 70.0353 40.365 68.715L40.3594 68.7319Z" fill="#B78876"/>
<path d="M45.5598 85.839C45.5598 85.839 45.5092 85.7491 45.4417 85.5693C45.3743 85.3895 45.2956 85.1142 45.2506 84.7547C45.155 84.058 45.1719 82.9063 46.0096 81.867V82.0243C45.4923 81.4063 44.9301 80.7209 44.3342 79.9961L44.3735 80.0298C43.9688 79.7995 43.564 79.5523 43.1536 79.277C42.9455 79.1422 42.7375 78.9961 42.5351 78.85C42.3327 78.6984 42.1135 78.5579 41.9223 78.3444C41.7649 78.1646 41.6187 77.9343 41.6187 77.6646C41.6131 77.395 41.7312 77.159 41.9223 76.9792L41.9785 76.9286L42.0572 76.9511C43.3222 77.3107 44.5029 77.6422 45.5542 77.9399H45.5767L45.5935 77.9568C46.7011 78.7826 47.6344 79.4793 48.3484 80.0074C49.0062 80.5074 49.3772 80.8051 49.3603 80.8276C49.3435 80.8501 48.9443 80.5917 48.264 80.1254C47.5332 79.6141 46.5774 78.9456 45.4474 78.159L45.4867 78.1759C44.4354 77.8893 43.2435 77.5691 41.9785 77.2208L42.1135 77.1927C42.001 77.3051 41.8998 77.4848 41.9167 77.6534C41.9167 77.8276 42.0179 77.9961 42.1472 78.1422C42.299 78.3163 42.5126 78.4568 42.715 78.6085C42.9174 78.7545 43.1198 78.895 43.3222 79.0298C43.727 79.2995 44.1318 79.5523 44.5197 79.7826L44.5422 79.7939L44.5591 79.8107C45.1494 80.5467 45.7004 81.2377 46.2007 81.867L46.2626 81.9456L46.1895 82.0243C45.8016 82.4625 45.5879 83.0018 45.4755 83.4737C45.363 83.9513 45.363 84.3839 45.3911 84.7322C45.453 85.4345 45.5992 85.8221 45.5598 85.8333V85.839Z" fill="#AA6550"/>
<path d="M40.9047 78.2321C40.9047 78.2321 41.1015 78.4175 41.3882 78.8051C41.6749 79.1928 42.0685 79.7714 42.4733 80.5299C42.6756 80.9119 42.8893 81.322 43.0804 81.8108C43.1648 82.058 43.2379 82.3445 43.1591 82.6479C43.0861 82.9625 42.7937 83.2097 42.4789 83.2659C42.1584 83.3389 41.8267 83.2546 41.5456 83.1142C41.2645 82.9681 41.0171 82.7827 40.7698 82.5805C40.2863 82.1647 39.8758 81.6535 39.5048 81.1085C39.2968 80.8108 39.1056 80.5074 38.9313 80.2209L39.1618 80.0467C39.9433 80.9568 40.5617 81.9063 41.0171 82.8333C41.1296 83.0692 41.2139 83.3333 41.1914 83.6086C41.1689 83.8726 41.0452 84.1423 40.8147 84.2884C40.5786 84.4344 40.2975 84.4064 40.0951 84.3165C39.8871 84.2322 39.7184 84.103 39.5666 83.9794C38.9988 83.4625 38.6053 82.9906 38.3579 82.6535C38.1105 82.3108 37.9981 82.1085 38.0093 82.1029C38.0487 82.0692 38.5547 82.8614 39.6903 83.8333C39.9602 84.0524 40.365 84.2996 40.691 84.0974C40.8428 84.0018 40.9328 83.8052 40.944 83.5973C40.9553 83.3895 40.8822 83.1704 40.781 82.9513C40.3256 82.0692 39.7072 81.131 38.937 80.2433L39.1675 80.0692C39.3474 80.3557 39.5385 80.6535 39.7353 80.9456C40.1007 81.4793 40.4943 81.9737 40.944 82.367C41.3882 82.7434 41.911 83.1142 42.4058 83.0074C42.6475 82.9625 42.8387 82.7996 42.9005 82.5805C42.9624 82.3614 42.9118 82.1142 42.8387 81.8894C42.6756 81.4344 42.4676 81.0018 42.2821 80.6254C41.9054 79.8613 41.54 79.2714 41.287 78.8669C41.0284 78.4624 40.8822 78.2433 40.8991 78.2321H40.9047Z" fill="#AA6550"/>
<path d="M66.5751 113.379C66.5751 113.379 66.6651 113.531 66.755 113.823C66.8506 114.121 66.9462 114.559 67.0024 115.109C67.1149 116.205 66.9574 117.812 66.131 119.317C65.7206 120.053 65.2596 120.733 64.7311 121.255C64.2082 121.784 63.6235 122.143 63.1007 122.34C62.5778 122.542 62.1224 122.604 61.8132 122.632C61.504 122.643 61.3297 122.632 61.3297 122.615C61.3185 122.553 62.0269 122.576 63.0164 122.149C63.5055 121.935 64.0452 121.581 64.5343 121.064C65.0291 120.553 65.4676 119.896 65.8724 119.171C66.6707 117.727 66.8506 116.188 66.7944 115.115C66.7438 114.031 66.5189 113.379 66.5751 113.368V113.379Z" fill="#AA6550"/>
</svg>
