<svg width="239" height="250" viewBox="0 0 239 250" fill="none" xmlns="http://www.w3.org/2000/svg">
<g clip-path="url(#clip0_144_5266)">
<path d="M19.3063 249.831C19.3063 249.831 9.76558 200.448 9.74871 190.291C9.7206 176.234 20.4869 170.639 20.4869 170.639L16.3041 158.711H39.3209L35.6891 170.554C35.6891 170.554 47.8103 176.976 46.118 191.555C42.9584 218.814 37.921 249.831 37.921 249.831H19.3119H19.3063Z" fill="#F5F5F5"/>
<path d="M41.2605 176.234C41.2605 176.234 41.1706 176.234 41.0019 176.217C40.8332 176.201 40.5802 176.178 40.2542 176.184C39.5964 176.184 38.6125 176.302 37.46 176.796C36.3074 177.279 35.0256 178.178 33.8731 179.532C33.294 180.206 32.7487 180.987 32.2258 181.852C31.7086 182.718 31.1913 183.656 30.7809 184.695C30.3761 185.729 30.0725 186.875 30.1119 188.088C30.1513 189.285 30.601 190.532 31.4781 191.476C31.9222 191.937 32.4732 192.319 33.1085 192.499C33.7381 192.684 34.4297 192.667 35.0706 192.448C36.3524 191.993 37.4094 190.841 37.8254 189.471C38.2808 188.088 37.8254 186.51 36.864 185.347C35.9027 184.173 34.469 183.352 32.9173 183.06C31.3544 182.785 29.6959 183.038 28.161 183.633C26.6206 184.229 25.1757 185.133 23.8882 186.24C21.3133 188.454 19.4693 191.431 18.8565 194.572C18.5473 196.134 18.5529 197.74 18.952 199.224C19.3006 200.712 20.0933 202.066 21.2177 202.982C21.78 203.437 22.4321 203.763 23.1236 203.858C23.8095 203.965 24.5179 203.819 25.0857 203.471C26.2495 202.757 26.8174 201.37 26.8398 200.1C26.8567 199.46 26.733 198.825 26.4744 198.263C26.2158 197.707 25.8166 197.218 25.3725 196.819C24.4729 196.016 23.3541 195.577 22.2691 195.375C20.0708 194.965 18.0132 195.549 16.4671 196.381C14.8985 197.218 13.791 198.33 13.0432 199.325C12.2899 200.325 11.8851 201.224 11.6602 201.842C11.4297 202.46 11.3566 202.802 11.3341 202.797C11.3341 202.797 11.3847 202.448 11.5983 201.819C11.8064 201.19 12.1887 200.274 12.942 199.246C13.6841 198.229 14.7917 197.083 16.3771 196.212C17.9401 195.353 20.0371 194.735 22.3084 195.139C23.4272 195.341 24.591 195.785 25.5411 196.622C26.0078 197.044 26.4238 197.544 26.7105 198.145C26.9916 198.746 27.1209 199.42 27.1097 200.1C27.0872 201.443 26.5025 202.915 25.2319 203.712C24.6022 204.1 23.8264 204.263 23.0787 204.145C22.3253 204.044 21.6169 203.696 21.0266 203.212C19.8347 202.252 19.0083 200.83 18.6428 199.291C18.2324 197.763 18.2212 196.106 18.536 194.499C19.1601 191.268 21.0435 188.235 23.669 185.976C24.9845 184.847 26.4575 183.925 28.0373 183.313C29.6172 182.706 31.3319 182.442 32.9735 182.729C34.5983 183.038 36.0938 183.892 37.1058 185.133C37.6061 185.751 37.9828 186.47 38.174 187.235C38.3764 187.993 38.3426 188.813 38.1121 189.544C37.6567 191.01 36.5436 192.218 35.1549 192.707C34.4634 192.943 33.6988 192.959 33.0185 192.752C32.3326 192.549 31.7423 192.139 31.27 191.645C30.3424 190.639 29.887 189.324 29.8533 188.077C29.8195 186.819 30.14 185.639 30.5617 184.594C30.9889 183.543 31.5174 182.6 32.0459 181.729C32.58 180.864 33.1422 180.077 33.7325 179.397C34.9132 178.032 36.2287 177.133 37.4094 176.661C38.5844 176.178 39.5907 176.083 40.2542 176.099C40.9232 176.122 41.2605 176.217 41.2605 176.217V176.234Z" fill="#E0E0E0"/>
<path d="M41.8564 213.533C41.8564 213.533 41.9745 214.443 41.6484 216.044C41.4798 216.842 41.1818 217.803 40.6364 218.831C40.1023 219.859 39.3265 220.96 38.2246 221.932C37.1339 222.91 35.689 223.719 34.0136 224.14C32.3438 224.561 30.4323 224.623 28.5602 224.061C26.6936 223.511 24.9114 222.308 23.6465 220.6C22.3759 218.915 21.5832 216.718 21.7631 214.454C21.8643 213.336 22.2634 212.19 23.1236 211.426C23.9782 210.645 25.2375 210.494 26.2664 210.802C27.3065 211.1 28.2172 211.803 28.6951 212.746C29.1674 213.685 29.2292 214.763 29.0156 215.718C28.8019 216.685 28.3297 217.555 27.7 218.241C27.0647 218.932 26.2889 219.421 25.4905 219.763C23.8826 220.438 22.2185 220.539 20.7736 220.359C19.3175 220.185 18.0469 219.735 17.018 219.202C15.9779 218.679 15.1796 218.061 14.578 217.516C13.3749 216.404 12.9532 215.595 12.9532 215.595C12.9532 215.595 12.9982 215.634 13.0657 215.718C13.1444 215.819 13.2456 215.943 13.3693 216.095C13.6504 216.409 14.0552 216.898 14.668 217.421C15.2752 217.949 16.0735 218.539 17.1024 219.039C18.1256 219.544 19.3737 219.971 20.8017 220.129C22.2185 220.291 23.8376 220.174 25.3837 219.516C26.1483 219.185 26.8904 218.707 27.4864 218.05C28.0767 217.398 28.5208 216.567 28.7232 215.662C28.92 214.758 28.8581 213.758 28.4196 212.898C27.9867 212.044 27.1434 211.392 26.182 211.123C25.2263 210.842 24.1075 210.982 23.3485 211.679C22.5726 212.359 22.196 213.426 22.1004 214.494C21.9261 216.657 22.6907 218.791 23.9163 220.421C25.1363 222.072 26.8511 223.247 28.6558 223.78C30.4661 224.331 32.327 224.286 33.9574 223.887C35.5934 223.488 37.0046 222.707 38.084 221.763C39.1691 220.825 39.9449 219.758 40.4846 218.752C41.03 217.746 41.3448 216.803 41.5303 216.022C41.7271 215.241 41.7721 214.612 41.8171 214.19C41.8283 213.994 41.8339 213.836 41.8452 213.707C41.8508 213.6 41.8621 213.544 41.8677 213.544L41.8564 213.533Z" fill="#E0E0E0"/>
<path d="M37.5668 236.809C37.5387 236.871 36.5379 236.331 34.7951 235.826C34.3566 235.702 33.8787 235.573 33.3558 235.483C32.8386 235.365 32.2708 235.303 31.6748 235.23C30.483 235.123 29.1674 235.106 27.79 235.247C26.4182 235.41 25.1363 235.719 23.9951 236.084C23.4329 236.292 22.8931 236.472 22.4153 236.702C21.9205 236.904 21.4876 237.14 21.0884 237.354C19.4974 238.23 18.6428 238.977 18.5979 238.921C18.581 238.904 18.7946 238.713 19.1882 238.387C19.3849 238.219 19.6267 238.022 19.9303 237.826C20.2339 237.623 20.5656 237.371 20.9704 237.157C21.3695 236.927 21.8024 236.674 22.3028 236.46C22.7863 236.213 23.3317 236.022 23.8995 235.803C25.052 235.415 26.3563 235.09 27.7506 234.927C29.1505 234.781 30.4942 234.809 31.7029 234.932C32.3045 235.017 32.878 235.09 33.4064 235.219C33.9405 235.32 34.4184 235.466 34.8569 235.606C35.3011 235.73 35.6778 235.899 36.0207 236.033C36.3637 236.163 36.6448 236.297 36.8697 236.421C37.325 236.657 37.5724 236.792 37.5612 236.814L37.5668 236.809Z" fill="#E0E0E0"/>
<path d="M35.9645 171.257C35.9645 171.257 35.7059 171.465 35.2055 171.79C34.7052 172.122 33.9574 172.56 33.0129 173.06C31.1239 174.066 28.3972 175.251 25.232 176.099C22.0667 176.942 19.1095 177.285 16.9731 177.358C15.9049 177.397 15.0391 177.392 14.4375 177.358C13.8416 177.33 13.5099 177.302 13.5099 177.279C13.5099 177.257 13.8416 177.24 14.4375 177.229C15.0335 177.229 15.8937 177.195 16.9562 177.128C19.0814 176.993 22.0049 176.622 25.142 175.785C28.2735 174.942 30.9946 173.802 32.9005 172.852C33.8506 172.38 34.6152 171.976 35.1325 171.684C35.6553 171.391 35.9477 171.24 35.9589 171.262L35.9645 171.257Z" fill="#E0E0E0"/>
<path d="M38.8599 159.279C38.8599 159.313 38.2921 159.228 37.2745 159.223C36.2569 159.223 34.7726 159.341 33.041 159.914C32.1809 160.2 31.2645 160.599 30.3481 161.144C29.8927 161.419 29.4373 161.728 28.9931 162.082C28.5434 162.431 28.1105 162.818 27.7563 163.285C27.3965 163.745 27.0985 164.285 26.9973 164.874C26.8961 165.459 27.0816 166.082 27.5314 166.504C27.9699 166.936 28.594 167.184 29.2349 167.363C29.8758 167.526 30.5617 167.734 31.1858 167.588C31.8154 167.448 32.1809 166.83 32.2315 166.195C32.2989 165.549 32.1246 164.914 31.8435 164.341C31.2926 163.183 30.3143 162.318 29.2799 161.762C28.2342 161.195 27.1097 160.936 26.0528 160.891C24.9958 160.863 24.0063 161.049 23.1462 161.318C21.4146 161.874 20.1777 162.723 19.3569 163.313C18.9465 163.616 18.6372 163.869 18.4292 164.037C18.2212 164.212 18.1088 164.296 18.1031 164.285C18.0975 164.279 18.1931 164.172 18.3842 163.987C18.581 163.801 18.879 163.532 19.2782 163.212C20.0821 162.588 21.3134 161.695 23.0731 161.099C23.9501 160.807 24.9565 160.605 26.0584 160.616C27.1547 160.65 28.3241 160.914 29.4204 161.492C30.5055 162.065 31.5399 162.964 32.1359 164.195C32.4339 164.796 32.6306 165.504 32.5575 166.223C32.5126 166.577 32.4226 166.948 32.1977 167.262C31.9841 167.577 31.6355 167.813 31.2645 167.903C30.4999 168.071 29.8027 167.835 29.1449 167.672C28.4871 167.481 27.8125 167.228 27.3065 166.728C26.7893 166.24 26.5644 165.481 26.6881 164.818C26.8061 164.15 27.1322 163.577 27.5201 163.094C27.9024 162.599 28.3635 162.2 28.8188 161.852C29.2742 161.498 29.7465 161.183 30.2131 160.908C31.152 160.363 32.0909 159.97 32.9736 159.695C34.7389 159.138 36.2569 159.065 37.2801 159.099C37.7917 159.122 38.1909 159.155 38.4607 159.2C38.7306 159.24 38.8655 159.268 38.8655 159.279H38.8599Z" fill="#E0E0E0"/>
<path d="M77.6467 3.50006H6.2124V131.733H77.6467V3.50006Z" fill="#EBEBEB"/>
<path d="M74.0485 7.21924H9.06274V127.913H74.0485V7.21924Z" fill="#FAFAFA"/>
<path d="M80.6658 132.885L77.6411 131.733V1.32587H80.6658V132.885Z" fill="#E0E0E0"/>
<path d="M24.9957 85.1761C30.6234 79.9513 36.2455 74.7264 41.8733 69.5016C44.0096 67.5128 46.8095 65.3779 49.5587 66.3555C50.8798 66.8274 51.875 67.9566 53.1737 68.496C55.7654 69.5746 58.7227 68.0184 60.7185 66.0408C62.7087 64.0633 64.2829 61.5913 66.6948 60.1587C69.1067 58.7261 72.8566 58.9059 74.0541 61.4452V78.5074L49.5249 89.002L24.9957 85.1761Z" fill="#F5F5F5"/>
<path d="M9.06274 75.3725C15.2808 72.8387 21.4876 74.9905 25.9403 80.0187C26.8792 81.0749 27.7281 82.2996 29.0156 82.8839C30.7584 83.676 32.7711 83.0805 34.677 82.867C39.8774 82.2771 45.3028 84.9064 48.0632 89.3503L27.3008 99.5584L9.06274 99.4236V75.3725Z" fill="#E0E0E0"/>
<path d="M74.0541 75.4568C69.9556 73.4792 66.3519 75.8725 62.5738 78.4006C58.7958 80.9288 55.282 84.1761 50.8517 85.1929C47.8889 85.8727 44.7181 85.4963 41.8508 86.5132C36.0151 88.5919 32.6418 95.9909 26.4631 96.3449C23.1067 96.5359 20.0933 94.5021 17.0967 92.9796C14.1001 91.4515 11.7389 90.0076 9.06836 92.047V127.907H74.0541V75.4511V75.4568Z" fill="#EBEBEB"/>
<path d="M75.4597 41.9391H9.06274V43.2257H75.4597V41.9391Z" fill="#E0E0E0"/>
<path d="M75.4597 70.6813H9.06274V71.9679H75.4597V70.6813Z" fill="#E0E0E0"/>
<path d="M75.4597 99.4236H9.06274V100.71H75.4597V99.4236Z" fill="#E0E0E0"/>
<path d="M39.9167 42.5796L39.9167 131.334H43.2L43.2 42.5796H39.9167Z" fill="#E0E0E0"/>
<path d="M23.0674 7.21924H21.5775V42.5796H23.0674V7.21924Z" fill="#E0E0E0"/>
<path d="M35.897 7.21924H34.4071V42.5796H35.897V7.21924Z" fill="#E0E0E0"/>
<path d="M48.7267 7.21924H47.2368V42.5796H48.7267V7.21924Z" fill="#E0E0E0"/>
<path d="M61.5563 7.21924H60.0664V42.5796H61.5563V7.21924Z" fill="#E0E0E0"/>
<path d="M6.20669 1.32587H3.18762V132.525H6.20669V1.32587Z" fill="#E0E0E0"/>
<path d="M80.6601 0H3.18762V3.50008H80.6601V0Z" fill="#E0E0E0"/>
<path d="M82.7066 133.318H1.04565V136.576H82.7066V133.318Z" fill="#E0E0E0"/>
<path d="M77.6411 131.733L82.7066 133.318H1.04565L6.21236 131.733H77.6411Z" fill="#EBEBEB"/>
<path d="M213.229 247.977V79.5973H211.143V248.017L193.895 249.309H211.143H213.229H230.472L213.229 247.977Z" fill="#EBEBEB"/>
<path d="M200.276 64.9284L192.529 99.5191H231.838L222.995 65.0352L200.276 64.9284Z" fill="#E0E0E0"/>
<path d="M207.478 113.536C207.388 113.536 207.326 109.289 207.337 104.053C207.348 98.8169 207.433 94.5696 207.523 94.5696C207.613 94.5696 207.674 98.8169 207.663 104.053C207.652 109.289 207.568 113.536 207.478 113.531V113.536Z" fill="#E0E0E0"/>
<path d="M207.461 113.469C207.461 113.424 207.742 113.458 207.866 113.823C207.916 113.991 207.927 114.239 207.764 114.452C207.601 114.677 207.258 114.744 206.989 114.643C206.719 114.548 206.499 114.272 206.522 113.997C206.539 113.722 206.708 113.542 206.854 113.452C207.185 113.255 207.422 113.418 207.393 113.452C207.382 113.497 207.185 113.463 206.994 113.643C206.904 113.727 206.82 113.868 206.826 114.008C206.826 114.143 206.938 114.283 207.107 114.345C207.275 114.407 207.45 114.373 207.54 114.272C207.635 114.171 207.663 114.008 207.646 113.885C207.618 113.621 207.444 113.525 207.466 113.48L207.461 113.469Z" fill="#E0E0E0"/>
<path d="M232.625 7.44397H193.018V48.7033H232.625V7.44397Z" fill="#E0E0E0"/>
<path d="M229.944 7.44397H190.336V48.7033H229.944V7.44397Z" fill="#EBEBEB"/>
<path d="M224.619 12.9891H195.66V43.1583H224.619V12.9891Z" fill="#FAFAFA"/>
<path d="M195.66 43.3549C195.66 43.3549 195.401 43.692 194.935 44.1752C194.468 44.6583 193.816 45.3213 193.091 46.0348C192.36 46.7539 191.696 47.3943 191.202 47.8494C190.713 48.3045 190.398 48.5798 190.375 48.5573C190.353 48.5348 190.628 48.2258 191.095 47.7427C191.562 47.2595 192.214 46.5966 192.945 45.8775C193.675 45.1583 194.344 44.5179 194.834 44.0628C195.323 43.6077 195.638 43.3381 195.66 43.3605V43.3549Z" fill="#E0E0E0"/>
<path d="M224.619 43.2819C224.619 43.2819 224.957 43.5403 225.44 44.0066C225.924 44.4729 226.587 45.1246 227.301 45.8493C228.021 46.5797 228.662 47.2426 229.117 47.737C229.572 48.2258 229.848 48.5404 229.825 48.5629C229.803 48.5854 229.494 48.3101 229.01 47.8438C228.527 47.3775 227.863 46.7258 227.144 45.9954C226.424 45.2651 225.783 44.5965 225.328 44.1077C224.872 43.6189 224.603 43.3043 224.625 43.2819H224.619Z" fill="#E0E0E0"/>
<path d="M224.541 13.0677C224.541 13.0677 224.799 12.7306 225.266 12.2475C225.733 11.7643 226.385 11.1014 227.11 10.3879C227.841 9.66876 228.504 9.0283 228.999 8.57323C229.488 8.11817 229.803 7.84288 229.826 7.86535C229.848 7.88783 229.573 8.19682 229.106 8.67998C228.639 9.16314 227.987 9.82607 227.256 10.5452C226.525 11.2643 225.856 11.9048 225.367 12.3598C224.878 12.8149 224.563 13.0846 224.541 13.0621V13.0677Z" fill="#E0E0E0"/>
<path d="M195.581 13.1464C195.581 13.1464 195.244 12.8879 194.761 12.4216C194.277 11.9553 193.614 11.3036 192.9 10.5789C192.18 9.84854 191.539 9.18561 191.084 8.69121C190.628 8.20244 190.353 7.88782 190.375 7.86535C190.398 7.84288 190.707 8.11817 191.191 8.58447C191.674 9.05077 192.337 9.70247 193.057 10.4328C193.777 11.1632 194.418 11.8317 194.873 12.3205C195.328 12.8093 195.598 13.1239 195.576 13.1464H195.581Z" fill="#E0E0E0"/>
<path d="M224.541 43.1583C224.541 43.1583 224.541 43.1077 224.541 43.0122C224.541 42.9111 224.541 42.7707 224.541 42.5909C224.541 42.2145 224.535 41.6695 224.529 40.9616C224.524 39.5346 224.513 37.4559 224.507 34.8154C224.496 29.5344 224.479 22.0061 224.456 12.9891L224.552 13.0846C216.124 13.0846 206.218 13.0958 195.671 13.0958L195.778 12.9891C195.778 24.0624 195.767 34.4222 195.761 43.1583L195.666 43.0628C204.324 43.0853 211.531 43.0965 216.58 43.1077C219.104 43.119 221.089 43.1246 222.449 43.1302C223.124 43.1302 223.641 43.1358 224.001 43.1415C224.175 43.1415 224.305 43.1415 224.4 43.1415C224.49 43.1415 224.541 43.1415 224.541 43.1415C224.541 43.1415 224.501 43.1415 224.411 43.1415C224.316 43.1415 224.187 43.1415 224.024 43.1415C223.669 43.1415 223.158 43.1471 222.489 43.1527C221.134 43.1583 219.155 43.1639 216.636 43.1752C211.571 43.1864 204.341 43.2032 195.66 43.2201H195.564V43.1246C195.564 34.3884 195.553 24.0287 195.548 12.9554V12.8486H195.654C206.201 12.8486 216.102 12.8599 224.535 12.8599H224.631V12.9554C224.608 21.9949 224.597 29.5456 224.58 34.8435C224.569 37.4784 224.563 39.5459 224.558 40.9672C224.558 41.6695 224.546 42.2032 224.546 42.574C224.546 42.7482 224.546 42.883 224.546 42.9841C224.546 43.074 224.546 43.119 224.546 43.119L224.541 43.1583Z" fill="#E0E0E0"/>
<path d="M203.3 25.5905C203.3 25.5905 202.682 33.0569 210.772 33.0569C210.772 29.0737 207.483 25.9219 203.3 25.5905Z" fill="#EBEBEB"/>
<path d="M218.115 25.5961C218.115 25.5961 210.643 24.9781 210.643 33.0625C214.629 33.0625 217.783 29.7759 218.115 25.5961Z" fill="#EBEBEB"/>
<path d="M210.418 21.5117C210.418 21.5117 204.312 26.9894 210.75 33.0625C213.746 29.8939 213.493 24.9163 210.418 21.5117Z" fill="#E0E0E0"/>
<path d="M164.975 12.0171H104.402C96.5249 12.0171 90.139 18.3984 90.139 26.2702V182.504C90.139 190.376 96.5249 196.757 104.402 196.757H164.975C172.852 196.757 179.238 190.376 179.238 182.504V26.2702C179.238 18.3984 172.852 12.0171 164.975 12.0171Z" fill="#FAFAFA"/>
<path d="M164.98 196.757C164.98 196.757 165.436 196.724 166.33 196.673C166.774 196.622 167.325 196.532 167.971 196.414C168.292 196.33 168.635 196.24 169.006 196.145C169.377 196.055 169.753 195.881 170.164 195.74C171.766 195.1 173.706 194.027 175.415 192.133C176.292 191.218 177.073 190.072 177.72 188.768C178.372 187.465 178.867 185.959 179.052 184.324C179.244 182.689 179.159 180.937 179.176 179.1C179.176 177.262 179.176 175.335 179.17 173.324C179.17 169.296 179.165 164.925 179.159 160.223C179.154 150.824 179.148 140.121 179.137 128.289C179.125 104.626 179.12 76.4455 179.103 45.1639C179.103 41.2537 179.103 37.2929 179.103 33.2872C179.103 31.2872 179.103 29.2703 179.103 27.2478C179.103 26.7421 179.109 26.2309 179.075 25.7309C179.052 25.2309 179.036 24.7253 178.934 24.2309L178.822 23.4836C178.766 23.2365 178.698 22.9949 178.636 22.7477C178.569 22.5061 178.518 22.2533 178.44 22.0173L178.175 21.3038C177.461 19.4105 176.337 17.6521 174.87 16.2194C173.402 14.7924 171.62 13.6744 169.669 12.9834C168.696 12.6239 167.679 12.416 166.644 12.2755C166.127 12.2025 165.604 12.2081 165.087 12.1744C164.564 12.1632 164.036 12.1744 163.507 12.1744C161.399 12.1744 159.279 12.1744 157.149 12.1744C140.114 12.1744 122.477 12.1744 104.408 12.1744C102.17 12.1856 99.9495 12.725 97.9706 13.7306C95.9747 14.7194 94.2825 16.2419 92.9781 18.0116C91.6626 19.7869 90.8136 21.8825 90.4763 24.0455L90.3526 24.8601L90.3133 25.6803C90.2739 26.2253 90.2852 26.7759 90.2852 27.3321C90.2852 28.4332 90.2852 29.5343 90.2852 30.6355C90.2852 39.4278 90.2852 48.0909 90.2852 56.608C90.2852 73.6365 90.2795 90.0582 90.2739 105.705C90.2739 121.351 90.2627 136.217 90.2627 150.133C90.2627 157.088 90.257 163.807 90.257 170.268C90.257 173.498 90.257 176.661 90.257 179.757C90.2683 181.302 90.2064 182.841 90.3807 184.33C90.5438 185.824 91.0104 187.263 91.6288 188.583C92.2529 189.909 93.0737 191.128 94.0688 192.167C95.0583 193.201 96.149 194.128 97.3802 194.796C98.6002 195.465 99.8821 196.027 101.22 196.302C101.546 196.403 101.884 196.437 102.221 196.488C102.558 196.527 102.884 196.617 103.222 196.617C103.891 196.656 104.56 196.69 105.229 196.679C110.564 196.679 115.59 196.684 120.296 196.69C129.702 196.701 137.803 196.707 144.426 196.712C151.043 196.724 156.187 196.735 159.673 196.74C161.416 196.746 162.743 196.752 163.637 196.757C164.531 196.757 164.986 196.774 164.986 196.774C164.986 196.774 164.531 196.785 163.637 196.791C162.743 196.791 161.41 196.797 159.673 196.808C156.182 196.813 151.043 196.825 144.426 196.836C137.803 196.841 129.702 196.853 120.296 196.858C115.59 196.858 110.564 196.864 105.229 196.87C104.565 196.881 103.891 196.847 103.21 196.808C102.867 196.808 102.536 196.723 102.193 196.679C101.855 196.622 101.512 196.589 101.181 196.488C99.8258 196.207 98.5271 195.645 97.2847 194.965C96.0366 194.285 94.9234 193.347 93.9226 192.302C92.9163 191.251 92.0786 190.015 91.4433 188.673C90.8136 187.33 90.3358 185.875 90.1671 184.358C89.9816 182.841 90.049 181.302 90.0322 179.757C90.0322 176.661 90.0322 173.498 90.0322 170.268C90.0322 163.807 90.0322 157.093 90.0265 150.133C90.0265 136.217 90.0153 121.351 90.0153 105.705C90.0153 90.0582 90.0153 73.6365 90.004 56.608C90.004 48.0966 90.004 39.4278 90.004 30.6355C90.004 29.5343 90.004 28.4332 90.004 27.3321C90.004 26.7815 89.9928 26.2309 90.0322 25.6691L90.0771 24.832L90.2008 24.0005C90.5438 21.7926 91.4096 19.6521 92.7533 17.8431C94.0857 16.034 95.8173 14.4834 97.8525 13.4722C99.8708 12.4441 102.142 11.8935 104.425 11.8823C122.489 11.8823 140.125 11.8823 157.166 11.8823C159.296 11.8823 161.416 11.8823 163.524 11.8823C164.053 11.8823 164.576 11.8766 165.104 11.8879C165.632 11.9272 166.167 11.916 166.695 11.989C167.746 12.1295 168.786 12.3429 169.776 12.7137C171.766 13.416 173.588 14.5565 175.083 16.0172C176.584 17.4723 177.726 19.2701 178.456 21.2027L178.721 21.9331C178.799 22.1802 178.856 22.4331 178.923 22.6803C178.985 22.9331 179.058 23.1803 179.109 23.4275L179.227 24.1915C179.322 24.6972 179.345 25.2084 179.367 25.7253C179.407 26.2365 179.395 26.7421 179.395 27.2534C179.395 29.2759 179.395 31.2928 179.395 33.2929C179.395 37.2986 179.395 41.2593 179.395 45.1695C179.384 76.4567 179.373 104.632 179.362 128.295C179.356 140.127 179.345 150.829 179.339 160.228C179.339 164.931 179.333 169.302 179.328 173.33C179.328 175.341 179.328 177.268 179.322 179.105C179.3 180.942 179.384 182.689 179.187 184.341C178.991 185.993 178.49 187.504 177.832 188.819C177.175 190.133 176.388 191.28 175.499 192.201C173.773 194.1 171.817 195.167 170.203 195.802C169.787 195.943 169.41 196.111 169.039 196.201C168.668 196.297 168.32 196.381 167.999 196.465C167.347 196.583 166.796 196.662 166.352 196.712C165.458 196.752 165.003 196.763 165.003 196.763L164.98 196.757Z" fill="#263238"/>
<path d="M170.681 22.9612C170.681 23.0398 169.225 23.1073 167.431 23.1073C165.638 23.1073 164.182 23.0398 164.182 22.9612C164.182 22.8825 165.638 22.8151 167.431 22.8151C169.225 22.8151 170.681 22.8825 170.681 22.9612Z" fill="#263238"/>
<path d="M170.681 25.0792C170.681 25.1578 169.225 25.2252 167.431 25.2252C165.638 25.2252 164.182 25.1578 164.182 25.0792C164.182 25.0005 165.638 24.9331 167.431 24.9331C169.225 24.9331 170.681 25.0005 170.681 25.0792Z" fill="#263238"/>
<path d="M170.681 27.1972C170.681 27.2759 169.225 27.3433 167.431 27.3433C165.638 27.3433 164.182 27.2759 164.182 27.1972C164.182 27.1186 165.638 27.0511 167.431 27.0511C169.225 27.0511 170.681 27.1186 170.681 27.1972Z" fill="#263238"/>
<path d="M125.811 27.1972V24.9669L124.698 26.8264H124.496L123.388 24.9837V27.2029H122.966V24.141H123.326L124.602 26.2927L125.862 24.141H126.222V27.2029H125.806L125.811 27.1972Z" fill="#263238"/>
<path d="M129.139 24.8826L128.015 27.4332C127.807 27.922 127.543 28.0737 127.189 28.0737C126.964 28.0737 126.739 28.0006 126.593 27.8602L126.773 27.5456C126.885 27.6523 127.031 27.7141 127.189 27.7141C127.391 27.7141 127.515 27.6242 127.633 27.3545L127.706 27.1916L126.683 24.877H127.121L127.931 26.7309L128.729 24.877H129.139V24.8826Z" fill="#263238"/>
<path d="M133.238 25.2028C133.238 25.8658 132.755 26.2703 131.962 26.2703H131.203V27.1972H130.764V24.1354H131.956C132.755 24.1354 133.232 24.5399 133.232 25.2028H133.238ZM132.799 25.2028C132.799 24.7646 132.507 24.5174 131.945 24.5174H131.203V25.8882H131.945C132.507 25.8882 132.799 25.641 132.799 25.2028Z" fill="#263238"/>
<path d="M135.026 24.8601V25.2646C134.992 25.2646 134.958 25.2646 134.93 25.2646C134.48 25.2646 134.199 25.5399 134.199 26.0455V27.1972H133.778V24.8826H134.183V25.2702C134.329 25.0006 134.621 24.8601 135.026 24.8601Z" fill="#263238"/>
<path d="M135.307 26.0399C135.307 25.3489 135.819 24.8601 136.516 24.8601C137.213 24.8601 137.719 25.3489 137.719 26.0399C137.719 26.7309 137.213 27.2253 136.516 27.2253C135.819 27.2253 135.307 26.7309 135.307 26.0399ZM137.291 26.0399C137.291 25.5455 136.96 25.2253 136.51 25.2253C136.06 25.2253 135.729 25.5455 135.729 26.0399C135.729 26.5343 136.066 26.8602 136.51 26.8602C136.954 26.8602 137.291 26.5343 137.291 26.0399Z" fill="#263238"/>
<path d="M139.124 23.9274C139.304 23.9274 139.478 23.9724 139.596 24.0623L139.467 24.3825C139.377 24.3151 139.265 24.2758 139.141 24.2758C138.894 24.2758 138.764 24.4162 138.764 24.6803V24.8825H139.439V25.2252H138.776V27.1972H138.354V25.2252H137.96V24.8825H138.354V24.6747C138.354 24.2252 138.624 23.9274 139.119 23.9274H139.124ZM140.119 24.1634C140.119 24.0117 140.243 23.8881 140.406 23.8881C140.569 23.8881 140.693 24.0061 140.693 24.1578C140.693 24.3151 140.575 24.4387 140.406 24.4387C140.237 24.4387 140.119 24.3207 140.119 24.169V24.1634ZM140.192 24.8825H140.614V27.1972H140.192V24.8825Z" fill="#263238"/>
<path d="M141.412 23.9556H141.834V27.1972H141.412V23.9556Z" fill="#263238"/>
<path d="M144.718 26.1804H142.835C142.885 26.5849 143.217 26.8602 143.673 26.8602C143.942 26.8602 144.173 26.7703 144.342 26.5792L144.572 26.8489C144.364 27.0961 144.044 27.2253 143.656 27.2253C142.908 27.2253 142.408 26.7309 142.408 26.0399C142.408 25.3489 142.902 24.8601 143.571 24.8601C144.24 24.8601 144.718 25.3433 144.718 26.0511C144.718 26.0849 144.718 26.141 144.707 26.1804H144.718ZM142.835 25.877H144.325C144.28 25.4893 143.987 25.214 143.583 25.214C143.178 25.214 142.88 25.4837 142.84 25.877H142.835Z" fill="#263238"/>
<path d="M149.632 87.2604H120.043V89.0132H149.632V87.2604Z" fill="#E52A9C"/>
<path d="M161.495 91.8504C161.495 91.929 149.964 91.9964 135.751 91.9964C121.538 91.9964 110.002 91.929 110.002 91.8504C110.002 91.7717 121.527 91.7043 135.751 91.7043C149.975 91.7043 161.495 91.7717 161.495 91.8504Z" fill="#263238"/>
<path d="M108.995 118.902C113.839 118.902 117.766 114.978 117.766 110.137C117.766 105.297 113.839 101.373 108.995 101.373C104.152 101.373 100.225 105.297 100.225 110.137C100.225 114.978 104.152 118.902 108.995 118.902Z" fill="#E52A9C"/>
<path d="M134.649 118.902C139.493 118.902 143.42 114.978 143.42 110.137C143.42 105.297 139.493 101.373 134.649 101.373C129.805 101.373 125.879 105.297 125.879 110.137C125.879 114.978 129.805 118.902 134.649 118.902Z" fill="#E52A9C"/>
<path d="M160.303 118.902C165.146 118.902 169.073 114.978 169.073 110.137C169.073 105.297 165.146 101.373 160.303 101.373C155.459 101.373 151.532 105.297 151.532 110.137C151.532 114.978 155.459 118.902 160.303 118.902Z" fill="#E52A9C"/>
<path d="M119.959 122.772C119.959 122.851 115.05 122.918 108.995 122.918C102.94 122.918 98.0323 122.851 98.0323 122.772C98.0323 122.694 102.94 122.626 108.995 122.626C115.05 122.626 119.959 122.694 119.959 122.772Z" fill="#263238"/>
<path d="M144.179 122.772C144.179 122.851 139.911 122.918 134.649 122.918C129.387 122.918 125.12 122.851 125.12 122.772C125.12 122.694 129.387 122.626 134.649 122.626C139.911 122.626 144.179 122.694 144.179 122.772Z" fill="#263238"/>
<path d="M169.073 122.772C169.073 122.851 164.806 122.918 159.544 122.918C154.281 122.918 150.014 122.851 150.014 122.772C150.014 122.694 154.281 122.626 159.544 122.626C164.806 122.626 169.073 122.694 169.073 122.772Z" fill="#263238"/>
<path d="M170.265 152.919C170.265 152.919 170.259 152.79 170.254 152.548C170.254 152.301 170.254 151.947 170.243 151.481C170.243 150.537 170.231 149.149 170.22 147.352C170.209 143.75 170.192 138.503 170.169 131.885L170.259 131.975C153.646 131.986 127.886 132.009 99.0331 132.031L99.1793 131.885C99.1793 139.155 99.1793 146.222 99.1793 152.919L99.0388 152.779C119.453 152.807 137.241 152.829 149.93 152.846C156.283 152.863 161.354 152.88 164.851 152.885C166.594 152.891 167.943 152.902 168.865 152.902C169.321 152.902 169.663 152.908 169.905 152.914C170.141 152.914 170.265 152.925 170.265 152.925C170.265 152.925 170.153 152.93 169.922 152.936C169.686 152.936 169.343 152.936 168.899 152.947C167.982 152.947 166.644 152.958 164.918 152.964C161.427 152.975 156.367 152.987 150.026 153.003C137.308 153.02 119.486 153.043 99.0331 153.071H98.8926V152.93C98.8926 146.234 98.8926 139.16 98.8926 131.896V131.75H99.0444C127.897 131.773 153.663 131.789 170.271 131.806H170.366V131.896C170.344 138.537 170.327 143.801 170.316 147.419C170.304 149.211 170.299 150.588 170.293 151.531C170.293 151.992 170.288 152.34 170.282 152.582C170.282 152.818 170.271 152.93 170.271 152.93L170.265 152.919Z" fill="#263238"/>
<path d="M165.335 138.582C165.335 138.66 151.639 138.728 134.75 138.728C117.862 138.728 104.161 138.66 104.161 138.582C104.161 138.503 117.85 138.436 134.75 138.436C151.65 138.436 165.335 138.503 165.335 138.582Z" fill="#263238"/>
<path d="M165.335 142.745C165.335 142.823 151.639 142.891 134.75 142.891C117.862 142.891 104.161 142.823 104.161 142.745C104.161 142.666 117.85 142.599 134.75 142.599C151.65 142.599 165.335 142.666 165.335 142.745Z" fill="#263238"/>
<path d="M165.335 146.913C165.335 146.992 151.639 147.059 134.75 147.059C117.862 147.059 104.161 146.992 104.161 146.913C104.161 146.835 117.85 146.767 134.75 146.767C151.65 146.767 165.335 146.835 165.335 146.913Z" fill="#263238"/>
<path d="M170.265 179.313C170.265 179.313 170.259 179.184 170.254 178.942C170.254 178.695 170.254 178.341 170.243 177.875C170.243 176.931 170.231 175.543 170.22 173.745C170.209 170.144 170.192 164.897 170.169 158.279L170.259 158.369C153.646 158.38 127.886 158.402 99.0331 158.425L99.1793 158.279C99.1793 165.549 99.1793 172.616 99.1793 179.313L99.0388 179.173C119.453 179.201 137.241 179.223 149.93 179.24C156.283 179.257 161.354 179.274 164.851 179.279C166.594 179.285 167.943 179.296 168.865 179.296C169.321 179.296 169.663 179.302 169.905 179.307C170.141 179.307 170.265 179.319 170.265 179.319C170.265 179.319 170.153 179.324 169.922 179.33C169.686 179.33 169.343 179.33 168.899 179.341C167.982 179.341 166.644 179.352 164.918 179.358C161.427 179.369 156.367 179.38 150.026 179.397C137.308 179.414 119.486 179.437 99.0331 179.465H98.8926V179.324C98.8926 172.627 98.8926 165.554 98.8926 158.29V158.144H99.0444C127.897 158.166 153.663 158.183 170.271 158.2H170.366V158.29C170.344 164.931 170.327 170.195 170.316 173.813C170.304 175.605 170.299 176.981 170.293 177.925C170.293 178.386 170.288 178.734 170.282 178.976C170.282 179.212 170.271 179.324 170.271 179.324L170.265 179.313Z" fill="#263238"/>
<path d="M165.335 164.976C165.335 165.054 151.639 165.122 134.75 165.122C117.862 165.122 104.161 165.054 104.161 164.976C104.161 164.897 117.85 164.83 134.75 164.83C151.65 164.83 165.335 164.897 165.335 164.976Z" fill="#263238"/>
<path d="M165.335 169.144C165.335 169.223 151.639 169.29 134.75 169.29C117.862 169.29 104.161 169.223 104.161 169.144C104.161 169.066 117.85 168.998 134.75 168.998C151.65 168.998 165.335 169.066 165.335 169.144Z" fill="#263238"/>
<path d="M165.335 173.307C165.335 173.386 151.639 173.453 134.75 173.453C117.862 173.453 104.161 173.386 104.161 173.307C104.161 173.229 117.85 173.161 134.75 173.161C151.65 173.161 165.335 173.229 165.335 173.307Z" fill="#263238"/>
<path d="M99.9945 27.2028C99.9945 27.2028 100.034 27.2028 100.101 27.1972C100.186 27.1972 100.281 27.1916 100.399 27.186C100.68 27.1804 101.04 27.1691 101.49 27.1579L101.462 27.186C101.462 26.9444 101.456 26.6804 101.451 26.3938C101.451 26.2478 101.439 26.1073 101.451 25.9388C101.479 25.7702 101.631 25.6185 101.816 25.6017C101.99 25.6017 102.148 25.5905 102.339 25.6017C102.536 25.6242 102.704 25.8152 102.699 26.023C102.699 26.3938 102.71 26.7759 102.71 27.1748L102.659 27.1242C103.104 27.1242 103.559 27.113 104.037 27.113L103.986 27.1635C103.986 26.6073 103.975 26.0343 103.969 25.45C103.969 25.3039 103.969 25.1579 103.969 25.0118C103.969 24.877 103.885 24.7871 103.778 24.6859C103.576 24.4837 103.373 24.2871 103.177 24.096C102.98 23.8994 102.789 23.7084 102.598 23.523C102.502 23.4275 102.406 23.3376 102.316 23.2477C102.221 23.1522 102.142 23.0567 102.03 23.0342C101.923 23.0061 101.799 23.0286 101.715 23.096C101.631 23.1691 101.541 23.2646 101.456 23.3488C101.288 23.5174 101.125 23.6859 100.962 23.8488C100.652 24.1691 100.326 24.4668 100.09 24.7421C99.9889 24.8938 100.028 25.0848 100.023 25.2534C100.023 25.4219 100.023 25.5848 100.023 25.7365C100.023 26.0343 100.023 26.2927 100.023 26.5174C100.023 26.7141 100.023 26.8826 100.023 27.0175C100.023 27.1354 100.023 27.1972 100.017 27.1972C100.017 27.1972 100.011 27.141 100.006 27.0343C100.006 26.8995 100 26.7365 99.9945 26.5455C99.9945 26.3208 99.9833 26.0568 99.9777 25.759C99.9777 25.6017 99.9721 25.4388 99.9664 25.2646C99.9664 25.1747 99.9664 25.0848 99.9664 24.9949C99.9664 24.8994 99.9889 24.7983 100.045 24.7084C100.298 24.3994 100.602 24.1185 100.917 23.787C101.074 23.6241 101.237 23.4556 101.406 23.287C101.496 23.2028 101.569 23.1129 101.67 23.023C101.782 22.9387 101.929 22.9106 102.069 22.9443C102.215 22.978 102.311 23.096 102.401 23.1803C102.496 23.2702 102.586 23.3657 102.682 23.4556C102.873 23.641 103.064 23.832 103.267 24.0286C103.463 24.2253 103.666 24.4219 103.868 24.6185C103.919 24.6691 103.975 24.714 104.02 24.7871C104.065 24.8545 104.087 24.9388 104.093 25.0174C104.093 25.1635 104.093 25.3095 104.093 25.4556C104.093 26.0399 104.104 26.6129 104.104 27.1691V27.2197H104.054C103.581 27.2197 103.12 27.2253 102.676 27.2309H102.626V27.1804C102.626 26.7815 102.626 26.3938 102.62 26.0287C102.626 25.8601 102.496 25.7141 102.345 25.6972C102.187 25.6916 102.002 25.6972 101.844 25.6972C101.698 25.7084 101.574 25.8264 101.546 25.9669C101.535 26.1073 101.546 26.2646 101.541 26.4051C101.541 26.6916 101.541 26.9557 101.541 27.1972V27.2253H101.513C101.057 27.2253 100.686 27.2197 100.405 27.2197C100.293 27.2197 100.197 27.2197 100.118 27.2197C100.056 27.2197 100.023 27.2197 100.023 27.2197L99.9945 27.2028Z" fill="#263238"/>
<path d="M155.22 64.2587C157.995 52.3046 150.547 40.3659 138.584 37.5929C126.622 34.8199 114.674 42.2626 111.899 54.2168C109.124 66.1709 116.572 78.1096 128.535 80.8826C140.498 83.6556 152.445 76.2129 155.22 64.2587Z" fill="#E0E0E0"/>
<path d="M151.358 61.6081C152.376 60.4171 152.651 58.6417 152.038 57.2035C151.425 55.7653 149.958 54.7259 148.395 54.6304C148.901 53.1697 148.586 51.4618 147.597 50.2708C146.607 49.0853 144.983 48.4617 143.453 48.6921C143.352 47.1471 142.464 45.6752 141.143 44.8661C139.821 44.0571 138.107 43.9335 136.684 44.5459C135.774 43.4391 134.323 42.7875 132.889 42.8436C131.456 42.8998 130.061 43.6583 129.241 44.8381L128.071 44.8999C126.025 45.0066 124.068 45.9167 122.803 47.5235C122.73 47.619 122.657 47.6977 122.578 47.7707C121.454 48.8157 120.273 49.9449 119.874 51.4281C119.43 53.0854 120.015 54.9844 119.183 56.4788C118.857 57.0687 118.323 57.5462 118.103 58.1811C117.682 59.3889 118.497 60.6923 118.401 61.9677C118.3 63.316 117.181 64.4958 117.316 65.8441C117.412 66.8217 118.154 67.6082 118.947 68.1925C119.739 68.7768 120.628 69.2431 121.28 69.9791C121.797 70.569 122.134 71.2993 122.64 71.8948C124.085 73.5915 126.947 73.8106 128.633 72.3611C129.764 73.3387 131.428 73.4848 132.873 73.1027C134.317 72.7207 135.594 71.8948 136.842 71.0746C137.376 71.805 138.292 72.2319 139.197 72.1814C140.103 72.1252 140.957 71.5858 141.401 70.7993C141.716 71.7881 142.88 72.2881 143.914 72.187C144.949 72.0859 145.865 71.5297 146.748 70.9847C148.401 69.9678 150.245 68.6307 150.29 66.6869C150.318 65.5014 149.632 64.2767 150.082 63.1755C150.34 62.5463 150.919 62.1193 151.364 61.6025L151.358 61.6081Z" fill="#263238"/>
<path d="M140.226 54.2484C139.855 53.2371 140.018 52.1135 139.878 51.0404C139.574 48.6865 137.736 46.692 135.515 45.8268C133.3 44.9617 130.781 45.119 128.521 45.8662C126.84 46.4224 125.232 47.3156 124.091 48.6696C122.578 50.4674 122.016 53.0236 122.646 55.2877L134.711 53.6866C135.824 54.6304 136.971 55.5967 138.332 56.1305C138.731 56.2878 139.164 56.4057 139.585 56.3439C140.013 56.2821 140.429 56.0012 140.53 55.5855C140.648 55.1304 140.384 54.681 140.221 54.2371L140.226 54.2484Z" fill="#263238"/>
<path d="M138.708 51.5517L128.223 49.1921C124.878 48.928 122.764 53.091 122.64 56.4394C122.505 60.1642 122.483 64.7149 122.995 67.4734C124.023 73.0297 128.324 73.6252 128.324 73.6252C128.324 73.6084 128.347 77.4174 128.425 79.4456C132.22 81.249 136.122 80.9905 140.103 79.2096L140.519 53.4899C140.513 52.473 139.726 51.6247 138.708 51.5461V51.5517Z" fill="#B78876"/>
<path d="M124.822 59.9002C124.822 60.2766 125.136 60.5912 125.53 60.6024C125.924 60.6137 126.25 60.3159 126.25 59.9395C126.25 59.5631 125.935 59.2485 125.541 59.2372C125.148 59.226 124.822 59.5238 124.822 59.9002Z" fill="#263238"/>
<path d="M123.692 58.7766C123.782 58.8665 124.316 58.4507 125.086 58.4339C125.856 58.4058 126.43 58.7878 126.514 58.6923C126.553 58.6474 126.458 58.4844 126.21 58.3103C125.963 58.1361 125.547 57.9732 125.063 57.99C124.586 58.0069 124.186 58.1923 123.956 58.3777C123.725 58.5631 123.647 58.7372 123.692 58.7766Z" fill="#263238"/>
<path d="M132.119 59.9002C132.119 60.2766 132.434 60.5912 132.828 60.6024C133.221 60.6137 133.547 60.3159 133.547 59.9395C133.547 59.5631 133.232 59.2485 132.839 59.2372C132.445 59.226 132.119 59.5238 132.119 59.9002Z" fill="#263238"/>
<path d="M131.265 58.726C131.354 58.8159 131.889 58.4002 132.659 58.3833C133.429 58.3552 134.003 58.7373 134.087 58.6418C134.126 58.5968 134.031 58.4339 133.783 58.2597C133.536 58.0856 133.12 57.9226 132.636 57.9395C132.158 57.9564 131.759 58.1417 131.529 58.3271C131.298 58.5125 131.22 58.6867 131.265 58.726Z" fill="#263238"/>
<path d="M128.622 64.507C128.622 64.4621 128.144 64.3947 127.363 64.316C127.166 64.2992 126.981 64.2655 126.941 64.1362C126.891 63.9958 126.969 63.7823 127.059 63.552C127.234 63.0688 127.413 62.5688 127.605 62.0407C128.358 59.889 128.898 58.1193 128.808 58.0912C128.723 58.0631 128.037 59.7822 127.29 61.9339C127.11 62.462 126.936 62.9677 126.773 63.4564C126.705 63.6812 126.581 63.9396 126.688 64.2317C126.744 64.3778 126.891 64.4789 127.02 64.5127C127.149 64.5464 127.256 64.5464 127.357 64.552C128.139 64.5745 128.622 64.5632 128.628 64.5183L128.622 64.507Z" fill="#263238"/>
<path d="M128.324 73.6252C128.324 73.6252 132.085 73.7713 135.745 71.4398C135.745 71.4398 133.969 75.35 128.369 74.9735L128.324 73.6252Z" fill="#AA6550"/>
<path d="M128.993 66.3498C129.263 65.979 129.741 65.7655 130.225 65.8048C130.562 65.8329 130.899 65.9846 131.113 66.2486C131.321 66.5127 131.377 66.9003 131.197 67.1644C130.995 67.4621 130.562 67.5408 130.196 67.4453C129.825 67.3498 129.505 67.1194 129.196 66.8835C129.111 66.8217 129.021 66.7543 128.971 66.6588C128.915 66.5689 128.903 66.4509 128.965 66.3722" fill="#AA6550"/>
<path d="M130.899 64.9789C130.775 64.9789 130.792 65.8104 130.095 66.4228C129.398 67.0352 128.504 66.9677 128.498 67.0801C128.487 67.1307 128.701 67.2374 129.078 67.2374C129.449 67.2374 129.983 67.1082 130.41 66.7318C130.837 66.3554 131.012 65.8666 131.034 65.5239C131.057 65.1756 130.961 64.9677 130.899 64.9733V64.9789Z" fill="#263238"/>
<path d="M131.079 56.4001C131.158 56.608 131.928 56.49 132.833 56.5743C133.744 56.6417 134.475 56.8889 134.593 56.6979C134.643 56.608 134.514 56.4114 134.211 56.2204C133.913 56.0237 133.44 55.844 132.901 55.799C132.355 55.7541 131.861 55.8552 131.534 55.9956C131.208 56.1361 131.045 56.3046 131.079 56.4058V56.4001Z" fill="#263238"/>
<path d="M123.827 55.4057C123.967 55.5743 124.49 55.3832 125.131 55.3552C125.766 55.3102 126.312 55.4394 126.43 55.254C126.48 55.1641 126.39 54.99 126.154 54.8327C125.918 54.6754 125.524 54.5518 125.086 54.5742C124.647 54.6023 124.271 54.7653 124.057 54.9507C123.838 55.1361 123.765 55.3158 123.827 55.4001V55.4057Z" fill="#263238"/>
<path d="M142.171 52.6528C141.12 49.4393 136.42 45.0178 133.047 45.2763L127.683 48.546C128.021 50.3775 129.454 51.9674 131.242 52.4955C132.198 52.7764 133.345 52.8495 133.918 53.6641C134.503 54.4956 134.171 55.7147 134.717 56.5743C135.47 57.7653 137.511 57.6923 138.079 58.9788C138.326 59.5406 138.202 60.2148 138.461 60.7766C138.804 61.5182 140.704 62.4564 141.486 62.198C142.267 61.9396 142.261 60.6137 142.509 59.9171C142.936 58.7204 142.751 58.108 142.604 57.4395C142.25 55.8664 142.677 54.181 142.177 52.6472L142.171 52.6528Z" fill="#263238"/>
<path d="M141.48 60.8385C141.48 60.8385 141.564 60.5519 141.649 60.0294C141.722 59.507 141.755 58.726 141.474 57.8215C141.199 56.9339 140.609 55.9058 139.557 55.2428C139.04 54.9057 138.422 54.6585 137.792 54.3664C137.168 54.0743 136.493 53.7259 135.987 53.1416C135.476 52.5574 135.239 51.8495 134.941 51.2427C134.655 50.6304 134.256 50.1135 133.795 49.7034C132.867 48.8775 131.737 48.5236 130.804 48.5123C129.859 48.4899 129.111 48.7371 128.633 48.9505C128.15 49.1696 127.908 49.3494 127.897 49.327C127.891 49.3213 127.948 49.2708 128.06 49.1809C128.172 49.0966 128.347 48.973 128.589 48.8494C129.066 48.5966 129.825 48.3101 130.809 48.3045C131.787 48.2932 132.985 48.6415 133.974 49.5011C134.469 49.9225 134.896 50.4843 135.2 51.1191C135.509 51.7427 135.745 52.4225 136.206 52.9506C136.667 53.4787 137.297 53.8158 137.91 54.108C138.528 54.4001 139.152 54.6585 139.698 55.0181C140.805 55.7372 141.407 56.8384 141.665 57.7653C141.93 58.7092 141.862 59.5238 141.755 60.0519C141.694 60.316 141.632 60.5182 141.57 60.6474C141.514 60.7766 141.48 60.8441 141.474 60.8441L141.48 60.8385Z" fill="#455A64"/>
<path d="M140.968 54.8664C140.968 54.8664 140.845 54.6697 140.552 54.3776C140.266 54.0854 139.754 53.7764 139.079 53.4731C138.742 53.3158 138.365 53.1528 137.977 52.9281C137.595 52.7034 137.185 52.4056 136.892 51.9786C136.291 51.1415 136.1 50.0123 135.307 49.2426C134.537 48.4561 133.497 48.046 132.552 47.9168C131.596 47.7875 130.714 47.928 130.011 48.119C128.588 48.5179 127.807 49.0404 127.779 48.9842C127.768 48.9673 127.959 48.8325 128.319 48.6246C128.684 48.4224 129.229 48.1415 129.955 47.9224C130.674 47.7033 131.579 47.5347 132.591 47.6527C133.587 47.7763 134.688 48.192 135.521 49.0404C136.386 49.8943 136.572 51.0629 137.117 51.827C137.657 52.6079 138.523 52.945 139.169 53.2933C139.838 53.6191 140.361 53.9731 140.637 54.3045C140.772 54.4675 140.867 54.6079 140.907 54.709C140.957 54.8102 140.974 54.8664 140.963 54.8664H140.968Z" fill="#455A64"/>
<path d="M139.181 62.8778C139.169 62.4621 139.625 61.4733 140.035 61.3946C141.126 61.198 143.105 61.2317 143.195 64.0127C143.318 67.8161 139.473 67.1532 139.462 67.0464C139.456 66.9622 139.214 64.3104 139.181 62.8778Z" fill="#B78876"/>
<path d="M140.58 65.5689C140.58 65.5689 140.648 65.6138 140.76 65.6588C140.873 65.7037 141.058 65.7318 141.255 65.6531C141.654 65.4902 141.969 64.8441 141.963 64.1587C141.963 63.8104 141.879 63.4845 141.75 63.2149C141.626 62.9396 141.441 62.7542 141.233 62.7205C141.03 62.6812 140.89 62.8048 140.845 62.9171C140.8 63.0239 140.822 63.1025 140.805 63.1081C140.794 63.1194 140.721 63.0463 140.749 62.889C140.76 62.8104 140.805 62.7205 140.89 62.6475C140.98 62.5688 141.109 62.5295 141.255 62.5407C141.547 62.5519 141.823 62.8104 141.969 63.1081C142.132 63.4059 142.233 63.7711 142.233 64.1587C142.233 64.9284 141.862 65.6531 141.323 65.8329C141.058 65.9116 140.833 65.8329 140.715 65.7543C140.597 65.6644 140.569 65.5801 140.586 65.5745L140.58 65.5689Z" fill="#AA6550"/>
<path d="M142.245 66.5071C142.301 66.4285 142.43 66.3891 142.61 66.4678C142.79 66.5464 143.009 66.7599 143.11 67.1082C143.217 67.4397 143.183 67.9734 142.807 68.3948C142.447 68.7993 141.868 69.024 141.261 68.9117C140.62 68.7937 140.181 68.3105 140.024 67.8667C139.85 67.406 139.895 66.9453 140.074 66.6138C140.249 66.288 140.535 66.1138 140.749 66.0914C140.968 66.0689 141.075 66.17 141.086 66.2655C141.103 66.3667 141.053 66.4678 141.041 66.5801C141.03 66.6869 141.03 66.8049 141.058 66.9341C141.086 67.0464 141.148 67.1869 141.244 67.2936C141.339 67.4116 141.452 67.4622 141.531 67.4734C141.632 67.4959 141.778 67.4734 141.862 67.4341C141.941 67.4116 142.031 67.3386 142.082 67.2038C142.205 66.9509 142.138 66.67 142.245 66.5015V66.5071Z" fill="#E0E0E0"/>
<path d="M123.444 79.0354L128.386 78.1815L140.125 77.7545L145.438 78.0186C145.438 78.0186 135.245 85.0974 123.444 79.0354Z" fill="#E52A9C"/>
<path d="M155.788 59.2372C155.788 59.2372 155.771 59.1136 155.754 58.8777C155.738 58.6305 155.715 58.2765 155.687 57.8215C155.676 57.5911 155.659 57.3271 155.642 57.0462C155.614 56.7597 155.552 56.4563 155.501 56.1192C155.451 55.7821 155.389 55.4226 155.327 55.0405C155.282 54.6529 155.136 54.2596 155.035 53.827C154.641 52.1135 153.837 50.0853 152.572 47.9336C151.296 45.7931 149.452 43.5571 146.939 41.6582C146.624 41.4222 146.304 41.1863 145.983 40.9447C145.646 40.7256 145.292 40.5233 144.943 40.3098C144.583 40.1076 144.246 39.8604 143.864 39.6862C143.487 39.5065 143.099 39.3211 142.717 39.1357C142.526 39.0458 142.329 38.9503 142.132 38.8604C141.93 38.7873 141.722 38.7143 141.519 38.6357C141.109 38.484 140.693 38.3323 140.277 38.1806C139.855 38.0401 139.411 37.9502 138.973 37.8323C138.528 37.7311 138.095 37.5795 137.634 37.5289C136.718 37.3997 135.796 37.2087 134.84 37.2087C134.362 37.1918 133.885 37.1469 133.401 37.1525C132.918 37.1749 132.428 37.203 131.939 37.2255C131.692 37.2424 131.445 37.2424 131.203 37.2761L130.466 37.3884C129.972 37.4727 129.471 37.5289 128.976 37.63C127.998 37.8941 126.992 38.0907 126.03 38.4952C125.041 38.8098 124.108 39.3042 123.146 39.7593C122.68 40.0121 122.23 40.3042 121.769 40.5795C121.544 40.7256 121.302 40.8492 121.089 41.0121L120.436 41.5009C119.537 42.1189 118.755 42.8886 117.929 43.6302C117.187 44.4504 116.405 45.2538 115.765 46.1864L115.259 46.8662L114.814 47.5909L114.37 48.3213C114.218 48.5628 114.072 48.81 113.96 49.0741C113.712 49.591 113.459 50.1078 113.212 50.6303C113.015 51.1753 112.813 51.7202 112.611 52.2652C111.891 54.4787 111.503 56.8327 111.469 59.2316C111.503 61.6249 111.885 63.9845 112.611 66.1981C112.813 66.743 113.01 67.288 113.212 67.8329C113.465 68.3554 113.712 68.8723 113.96 69.3892L114.151 69.7768L114.376 70.142L114.82 70.8723L115.264 71.5971L115.77 72.2769C116.411 73.2095 117.193 74.0129 117.935 74.8387C118.755 75.5803 119.543 76.35 120.442 76.968L121.094 77.4567C121.308 77.6197 121.55 77.7433 121.775 77.8893C122.236 78.1646 122.685 78.4568 123.152 78.7096C124.108 79.1703 125.041 79.6591 126.036 79.9737C126.997 80.3726 128.009 80.5748 128.982 80.8389C129.477 80.94 129.977 80.9962 130.472 81.0804L131.208 81.1928C131.456 81.2265 131.703 81.2209 131.945 81.2434C132.434 81.2714 132.923 81.2939 133.407 81.3164C133.89 81.322 134.374 81.2771 134.846 81.2602C135.802 81.2602 136.729 81.0692 137.64 80.9344C138.101 80.8894 138.534 80.7321 138.978 80.631C139.417 80.513 139.861 80.4231 140.282 80.2827C140.698 80.131 141.115 79.9793 141.525 79.8276C141.733 79.7546 141.935 79.6759 142.138 79.6029C142.335 79.5074 142.526 79.4175 142.722 79.3276C143.11 79.1422 143.493 78.9568 143.869 78.777C144.252 78.6028 144.589 78.3557 144.949 78.1534C145.297 77.9399 145.652 77.7377 145.989 77.5186C146.309 77.277 146.63 77.041 146.945 76.8051C149.458 74.9061 151.296 72.6701 152.578 70.5296C153.843 68.3779 154.647 66.3498 155.04 64.6362C155.142 64.2093 155.282 63.816 155.333 63.4227C155.395 63.0351 155.451 62.6755 155.507 62.3441C155.558 62.007 155.62 61.698 155.648 61.4171C155.665 61.1305 155.681 60.8721 155.693 60.6418C155.721 60.1867 155.743 59.8328 155.76 59.5856C155.777 59.3496 155.794 59.226 155.794 59.226C155.794 59.226 155.794 59.3496 155.794 59.5856C155.783 59.8328 155.771 60.1867 155.754 60.6418C155.743 60.8777 155.732 61.1362 155.721 61.4227C155.693 61.7092 155.636 62.0182 155.591 62.3553C155.541 62.6924 155.49 63.0576 155.434 63.4452C155.395 63.8385 155.254 64.2317 155.153 64.6643C154.776 66.3947 153.984 68.4397 152.719 70.6139C151.442 72.7769 149.598 75.041 147.074 76.968C146.759 77.2039 146.433 77.4455 146.113 77.6927C145.775 77.9174 145.415 78.1197 145.067 78.3388C144.707 78.5467 144.364 78.7939 143.982 78.9736C143.599 79.159 143.212 79.3444 142.824 79.5355C142.627 79.631 142.43 79.7209 142.233 79.8164C142.025 79.8894 141.823 79.968 141.615 80.0467C141.199 80.1984 140.783 80.3557 140.356 80.5074C139.928 80.6478 139.484 80.7433 139.04 80.8613C138.596 80.9624 138.152 81.1198 137.685 81.1703C136.763 81.3052 135.83 81.4962 134.857 81.5074C134.374 81.5243 133.89 81.5748 133.401 81.5692C132.912 81.5467 132.417 81.5186 131.922 81.4962C131.675 81.4793 131.422 81.4793 131.175 81.4512L130.427 81.3389C129.927 81.2602 129.421 81.1984 128.92 81.0973C127.931 80.8332 126.907 80.631 125.935 80.2265C124.929 79.9062 123.984 79.4119 123.017 78.9512C122.545 78.6984 122.089 78.4006 121.623 78.1197C121.392 77.9736 121.15 77.85 120.931 77.6815L120.273 77.1871C119.363 76.5635 118.564 75.7826 117.732 75.0353C116.979 74.2039 116.186 73.3892 115.534 72.4454L115.017 71.76L114.567 71.024L114.117 70.2824L113.892 69.9116L113.701 69.5184C113.448 68.9959 113.195 68.4678 112.942 67.9397C112.74 67.3891 112.537 66.8385 112.335 66.2823C111.604 64.0351 111.211 61.653 111.182 59.226C111.216 56.799 111.61 54.4169 112.341 52.1697C112.543 51.6135 112.745 51.0629 112.948 50.5123C113.201 49.9842 113.454 49.4561 113.707 48.9336C113.825 48.6696 113.965 48.4168 114.123 48.1696L114.573 47.428L115.022 46.692L115.54 46.0066C116.192 45.0628 116.979 44.2481 117.738 43.4167C118.57 42.6638 119.368 41.8885 120.279 41.2649L120.937 40.7705C121.156 40.6076 121.398 40.4784 121.628 40.3323C122.095 40.057 122.55 39.7593 123.023 39.5008C123.995 39.0345 124.94 38.5458 125.94 38.2255C126.913 37.821 127.936 37.6244 128.926 37.3547C129.426 37.2536 129.932 37.1918 130.433 37.1131L131.18 37.0008C131.428 36.9671 131.681 36.9727 131.928 36.9558C132.423 36.9334 132.918 36.9053 133.407 36.8828C133.896 36.8772 134.379 36.9221 134.863 36.9446C135.83 36.9502 136.763 37.1469 137.691 37.2761C138.157 37.3266 138.596 37.4839 139.046 37.5851C139.49 37.7087 139.934 37.7986 140.361 37.939C140.783 38.0963 141.204 38.248 141.621 38.3997C141.829 38.4783 142.037 38.5514 142.239 38.63C142.436 38.7255 142.632 38.8154 142.829 38.9109C143.217 39.102 143.605 39.2874 143.987 39.4728C144.375 39.6469 144.713 39.8997 145.072 40.1076C145.427 40.3267 145.781 40.529 146.118 40.7537C146.444 40.9953 146.765 41.2368 147.08 41.4784C149.604 43.4054 151.454 45.6695 152.724 47.8325C153.989 50.0067 154.782 52.0517 155.159 53.7821C155.254 54.2147 155.395 54.6135 155.44 55.0012C155.496 55.3888 155.552 55.754 155.597 56.0911C155.642 56.4282 155.698 56.7372 155.726 57.0237C155.738 57.3102 155.749 57.5687 155.76 57.8046C155.777 58.2597 155.788 58.6136 155.799 58.8608C155.805 59.0968 155.799 59.2204 155.799 59.2204L155.788 59.2372Z" fill="#263238"/>
<path d="M225.609 200.752C222.759 198.01 218.475 196.847 214.623 197.768C210.778 198.69 207.489 201.673 206.19 205.409L207.596 210.836C208.13 208.988 209.271 207.201 211.042 206.437C212.881 205.645 215.011 206.094 216.895 206.78C218.778 207.465 220.628 208.381 222.629 208.505C224.631 208.628 226.885 207.679 227.487 205.769C228.049 203.971 226.964 202.055 225.609 200.752Z" fill="#E52A9C"/>
<g opacity="0.3">
<path d="M225.609 200.752C222.759 198.01 218.475 196.847 214.623 197.768C210.778 198.69 207.489 201.673 206.19 205.409L207.596 210.836C208.13 208.988 209.271 207.201 211.042 206.437C212.881 205.645 215.011 206.094 216.895 206.78C218.778 207.465 220.628 208.381 222.629 208.505C224.631 208.628 226.885 207.679 227.487 205.769C228.049 203.971 226.964 202.055 225.609 200.752Z" fill="black"/>
</g>
<path d="M191.753 218.864C188.818 216.078 188.964 211.229 190.432 207.46C191.893 203.69 195.087 200.797 198.657 198.886C205.572 195.19 214.219 194.909 221.359 198.151C217.85 198.268 214.455 200.257 212.644 203.263C211.036 205.932 210.677 209.168 209.35 211.988C207.871 215.128 205.156 217.662 201.917 218.926C198.685 220.19 194.969 220.168 191.747 218.864" fill="#E52A9C"/>
<path d="M190.342 202.134C187.092 198.302 186.659 192.15 187.137 187.15C187.615 182.15 188.773 177.122 187.986 172.161C187.519 169.223 186.378 166.419 185.99 163.47C185.602 160.52 186.153 157.183 188.436 155.279C191.067 153.088 195.205 153.605 197.937 155.661C200.669 157.717 202.255 160.942 203.413 164.161C205.954 171.229 206.893 179.071 204.802 186.285C202.71 193.499 197.808 199.954 190.611 202.134" fill="#E52A9C"/>
<path d="M188.784 233.573C188.784 233.573 188.773 233.421 188.773 233.129C188.773 232.842 188.773 232.41 188.796 231.865C188.835 230.764 188.942 229.174 189.189 227.224C189.436 225.275 189.824 222.96 190.437 220.426C191.044 217.893 192.079 215.19 193.541 212.561C195.008 209.932 196.801 207.656 198.612 205.785C200.428 203.915 202.289 202.454 203.93 201.37C204.74 200.808 205.527 200.381 206.202 199.988C206.893 199.622 207.5 199.325 207.995 199.089C208.484 198.881 208.872 198.718 209.164 198.6C209.434 198.493 209.575 198.437 209.58 198.448C209.58 198.459 209.451 198.527 209.187 198.65C208.906 198.785 208.523 198.959 208.04 199.184C207.551 199.437 206.961 199.746 206.275 200.122C205.611 200.527 204.835 200.96 204.037 201.527C202.418 202.628 200.585 204.089 198.792 205.96C197.004 207.825 195.233 210.083 193.777 212.696C190.791 217.915 189.971 223.404 189.38 227.252C189.11 229.196 188.975 230.78 188.902 231.876C188.869 232.404 188.846 232.825 188.829 233.14C188.812 233.427 188.796 233.578 188.79 233.578L188.784 233.573Z" fill="#263238"/>
<path d="M160.769 187.021C154.759 190.645 154.776 193.943 155.783 197.055C156.783 200.167 160.477 202.33 163.535 201.167C165.261 200.51 166.515 199.004 167.583 197.499C168.652 195.988 169.658 194.375 171.159 193.291C172.66 192.207 174.83 191.791 176.337 192.869" fill="#E52A9C"/>
<path d="M178.237 193.881L172.48 191.718L174.774 191.987C175.421 192.06 176 192.28 176.5 192.634L178.243 193.875L178.237 193.881Z" fill="black"/>
<g opacity="0.3">
<path d="M160.769 187.021C154.759 190.645 154.776 193.943 155.783 197.055C156.783 200.167 160.477 202.33 163.53 201.167C165.256 200.51 166.51 199.004 167.578 197.499C168.646 195.988 169.652 194.375 171.153 193.291C172.177 192.549 173.515 192.122 174.74 192.268L160.769 187.021Z" fill="black"/>
</g>
<path d="M156.266 190.993C157.835 188.824 161.72 188.195 164.171 189.28C166.622 190.364 168.415 192.51 170.023 194.65C171.631 196.791 173.194 199.055 175.421 200.549C177.647 202.038 180.756 202.583 182.977 201.078C184.433 200.089 185.276 198.375 185.54 196.639C185.805 194.898 185.552 193.122 185.186 191.403C184.658 188.886 183.792 186.251 181.774 184.656C179.525 182.875 176.404 182.791 173.537 182.881C170.243 182.987 166.903 183.234 163.817 184.375C160.724 185.515 157.576 187.976 156.26 190.999" fill="#E52A9C"/>
<path d="M183.792 228.764C183.792 228.764 183.781 228.719 183.775 228.634C183.775 228.533 183.764 228.404 183.752 228.247C183.741 227.887 183.724 227.387 183.702 226.758C183.663 225.443 183.612 223.572 183.544 221.275C183.471 218.96 183.376 216.207 183.213 213.151C183.044 210.095 182.814 206.735 182.353 203.241C182.116 201.493 181.841 199.785 181.357 198.207C180.868 196.622 180.222 195.15 179.513 193.802C178.799 192.454 178.018 191.229 177.191 190.156C176.359 189.089 175.499 188.156 174.656 187.375C172.952 185.819 171.316 184.864 170.158 184.313C169.866 184.178 169.607 184.049 169.377 183.954C169.152 183.864 168.955 183.791 168.792 183.723C168.646 183.667 168.528 183.617 168.432 183.577C168.354 183.543 168.309 183.521 168.314 183.521C168.314 183.521 168.359 183.527 168.443 183.555C168.539 183.588 168.663 183.628 168.815 183.673C168.983 183.729 169.18 183.796 169.41 183.875C169.647 183.959 169.905 184.088 170.203 184.212C171.384 184.74 173.048 185.678 174.785 187.229C175.645 188.015 176.522 188.942 177.371 190.016C178.215 191.094 179.013 192.325 179.738 193.679C180.458 195.038 181.116 196.516 181.61 198.122C182.105 199.729 182.386 201.443 182.622 203.196C183.089 206.707 183.308 210.072 183.466 213.128C183.618 216.19 183.696 218.943 183.741 221.263C183.786 223.578 183.809 225.455 183.814 226.747C183.814 227.376 183.814 227.876 183.814 228.235C183.814 228.393 183.814 228.522 183.809 228.623C183.809 228.713 183.803 228.758 183.797 228.758L183.792 228.764Z" fill="#263238"/>
<path d="M185.951 231.477C185.951 231.477 185.613 230.584 185.293 228.898C184.978 227.213 184.742 224.713 185.017 221.651C185.276 218.589 186.058 214.994 187.306 211.14C188.537 207.274 190.212 203.145 191.646 198.701C192.354 196.476 192.956 194.28 193.372 192.122C193.788 189.965 194.058 187.858 194.226 185.841C194.564 181.813 194.513 178.161 194.418 175.105C194.316 172.049 194.153 169.571 194.052 167.863C194.002 167.021 193.962 166.363 193.934 165.897C193.923 165.683 193.917 165.515 193.912 165.386C193.912 165.268 193.912 165.212 193.912 165.212C193.912 165.212 193.923 165.268 193.94 165.386C193.951 165.515 193.968 165.683 193.99 165.897C194.03 166.363 194.086 167.021 194.159 167.863C194.294 169.571 194.485 172.043 194.614 175.105C194.738 178.167 194.806 181.824 194.479 185.869C194.316 187.892 194.058 190.01 193.636 192.178C193.226 194.347 192.619 196.561 191.91 198.791C190.477 203.246 188.796 207.375 187.553 211.224C186.294 215.067 185.495 218.634 185.214 221.679C184.916 224.724 185.124 227.207 185.405 228.887C185.552 229.73 185.686 230.382 185.805 230.814C185.855 231.022 185.895 231.185 185.928 231.314C185.956 231.427 185.968 231.483 185.962 231.488L185.951 231.477Z" fill="#263238"/>
<path d="M200.849 234.191H172.632L171.991 228.764H200.849V234.191Z" fill="#455A64"/>
<path d="M175.662 233.573L179.187 249.854H194.524L197.825 233.573H175.662Z" fill="#455A64"/>
<path d="M200.849 234.191C200.849 234.264 194.642 234.309 186.996 234.286C179.345 234.264 173.138 234.185 173.138 234.112C173.138 234.039 179.339 233.994 186.996 234.016C194.648 234.039 200.849 234.118 200.849 234.191Z" fill="#455A64"/>
<path d="M196.009 242.225C195.975 242.281 195.177 241.46 193.524 240.803C192.703 240.477 191.668 240.225 190.499 240.196C189.33 240.157 188.065 240.438 186.783 240.876C185.495 241.309 184.298 241.814 183.123 242.095C181.948 242.348 180.851 242.331 179.963 242.191C179.069 242.05 178.378 241.786 177.934 241.55C177.714 241.427 177.546 241.326 177.444 241.241C177.338 241.163 177.287 241.118 177.293 241.107C177.31 241.084 177.534 241.247 177.984 241.455C178.434 241.657 179.12 241.893 179.997 242.005C180.868 242.118 181.942 242.118 183.078 241.859C184.208 241.578 185.411 241.067 186.704 240.629C187.997 240.185 189.307 239.904 190.51 239.955C191.708 239.994 192.77 240.275 193.597 240.635C194.434 240.983 195.042 241.399 195.435 241.708C195.632 241.859 195.778 241.994 195.874 242.084C195.969 242.174 196.014 242.225 196.009 242.236V242.225Z" fill="#263238"/>
<path d="M195.795 243.314C195.756 243.371 194.991 242.573 193.406 241.91C192.619 241.584 191.618 241.331 190.493 241.309C189.363 241.275 188.138 241.533 186.901 241.955C185.658 242.371 184.489 242.854 183.376 243.151C182.263 243.455 181.211 243.562 180.34 243.494C179.463 243.432 178.783 243.185 178.35 242.96C178.136 242.843 177.973 242.741 177.877 242.663C177.776 242.584 177.726 242.539 177.731 242.534C177.748 242.511 177.962 242.668 178.4 242.871C178.839 243.062 179.502 243.269 180.357 243.309C181.206 243.354 182.229 243.23 183.314 242.921C184.405 242.612 185.563 242.129 186.822 241.708C188.076 241.281 189.347 241.022 190.505 241.067C191.663 241.101 192.692 241.382 193.484 241.741C194.288 242.09 194.867 242.505 195.244 242.809C195.435 242.96 195.576 243.084 195.666 243.18C195.756 243.269 195.801 243.32 195.795 243.326V243.314Z" fill="white"/>
<path d="M196.29 241.146C196.256 241.196 195.43 240.365 193.737 239.646C192.9 239.292 191.843 238.972 190.64 238.904C189.436 238.82 188.126 239.129 186.805 239.578C185.478 240.022 184.242 240.567 183.016 240.814C181.796 241.034 180.672 240.966 179.75 240.814C178.833 240.657 178.113 240.393 177.652 240.151C177.422 240.022 177.248 239.921 177.141 239.837C177.028 239.753 176.978 239.708 176.983 239.702C177 239.68 177.231 239.848 177.697 240.062C178.164 240.269 178.872 240.5 179.778 240.629C180.677 240.753 181.785 240.798 182.965 240.567C184.135 240.314 185.377 239.769 186.715 239.32C188.048 238.865 189.403 238.55 190.651 238.651C191.888 238.741 192.967 239.084 193.81 239.466C194.659 239.848 195.283 240.281 195.694 240.601C195.896 240.764 196.048 240.893 196.144 240.989C196.245 241.084 196.29 241.135 196.284 241.14L196.29 241.146Z" fill="white"/>
<path d="M201.102 234.213C201.102 234.286 194.755 234.348 186.923 234.348C179.092 234.348 172.744 234.286 172.744 234.213C172.744 234.14 179.092 234.078 186.923 234.078C194.755 234.078 201.102 234.14 201.102 234.213Z" fill="#263238"/>
<path d="M238.956 249.854C238.956 249.933 185.462 250 119.481 250C53.4998 250 -0.00561523 249.933 -0.00561523 249.854C-0.00561523 249.775 53.4774 249.708 119.481 249.708C185.484 249.708 238.956 249.775 238.956 249.854Z" fill="#263238"/>
<path d="M61.0392 242.955L59.3525 218.05L72.8343 219.32L71.7099 243.46L65.0815 243.831L61.0392 242.955Z" fill="#B78876"/>
<path d="M60.6568 241.719V242.444C60.6568 242.444 48.3782 247.517 48.2714 249.854L72.7556 249.483L72.3002 241.348C68.6852 243.09 64.879 243.337 60.6568 241.713V241.719Z" fill="#E52A9C"/>
<g opacity="0.6">
<path d="M69.8545 243.989C70.3324 244.112 70.6641 244.64 70.5629 245.118C70.4617 245.595 69.9276 245.944 69.4497 245.831C68.9719 245.719 68.5502 245.095 68.7076 244.629C68.865 244.163 69.5116 243.792 69.9501 244.017" fill="white"/>
</g>
<g opacity="0.6">
<path d="M72.75 249.483L72.6432 247.528L49.2215 248.595C49.2215 248.595 48.1365 249.084 48.2714 249.848L72.7556 249.477L72.75 249.483Z" fill="white"/>
</g>
<path d="M60.5725 242.511C60.5781 242.629 61.174 242.674 61.77 243.05C62.3715 243.41 62.6864 243.921 62.7932 243.876C62.9056 243.854 62.7145 243.14 61.9892 242.696C61.264 242.247 60.5443 242.404 60.5725 242.511Z" fill="#263238"/>
<path d="M58.0256 243.612C57.9975 243.73 58.5204 243.921 58.9364 244.421C59.3637 244.91 59.4761 245.455 59.5942 245.444C59.7066 245.461 59.7797 244.758 59.2512 244.152C58.7284 243.534 58.0256 243.494 58.0256 243.612Z" fill="#263238"/>
<path d="M56.6089 246.708C56.7157 246.73 56.8731 246.135 56.5583 245.483C56.2434 244.831 55.6812 244.584 55.6306 244.68C55.5632 244.781 55.9342 245.123 56.1872 245.663C56.4514 246.197 56.4908 246.697 56.6145 246.708H56.6089Z" fill="#263238"/>
<path d="M88.7055 226.275L73.5708 206.42L85.5234 200.055L97.892 220.825L92.5566 224.78L88.7055 226.275Z" fill="#B78876"/>
<path d="M87.6991 225.454L88.1039 226.061C88.1039 226.061 80.649 237.05 81.8465 239.062L102.075 225.28L97.2117 218.741C95.154 222.179 92.1125 224.483 87.6991 225.454Z" fill="#E52A9C"/>
<g opacity="0.6">
<path d="M96.6326 222.286C97.0993 222.129 97.6671 222.381 97.847 222.836C98.0269 223.291 97.7683 223.876 97.3073 224.044C96.8463 224.213 96.1491 223.926 96.0255 223.454C95.8961 222.982 96.2335 222.314 96.7226 222.263" fill="white"/>
</g>
<g opacity="0.6">
<path d="M102.08 225.28L100.911 223.707L81.9477 237.494C81.9477 237.494 81.3124 238.5 81.8465 239.062L102.075 225.28H102.08Z" fill="white"/>
</g>
<path d="M88.0757 226.162C88.1488 226.258 88.6717 225.966 89.3744 225.954C90.0772 225.921 90.6169 226.179 90.6844 226.078C90.7631 225.999 90.2121 225.505 89.3632 225.539C88.5143 225.561 87.997 226.089 88.0813 226.162H88.0757Z" fill="#263238"/>
<path d="M86.5522 228.483C86.5972 228.595 87.1369 228.471 87.7553 228.657C88.3794 228.825 88.7729 229.219 88.8685 229.151C88.9697 229.101 88.6436 228.477 87.8678 228.258C87.0919 228.033 86.4847 228.387 86.5466 228.483H86.5522Z" fill="#263238"/>
<path d="M87.0751 231.842C87.1819 231.803 86.9795 231.213 86.3555 230.848C85.737 230.477 85.1242 230.578 85.1411 230.691C85.1411 230.809 85.6358 230.893 86.1474 231.207C86.659 231.505 86.9739 231.904 87.0751 231.842Z" fill="#263238"/>
<path d="M65.3176 140.829C65.3176 140.829 53.618 182.493 54.4107 185.487C55.1978 188.482 75.9715 219.241 76.5618 219.432C77.1521 219.617 93.5686 209.842 93.5686 209.842L76.5618 181.819C76.5618 181.819 86.0294 161.549 88.7955 152.593C91.5559 143.638 92.09 143.183 90.3753 135.031C89.3352 130.087 84.6969 123.469 84.6969 123.469L83.9548 121.182H64.7891L65.3232 140.835L65.3176 140.829Z" fill="#263238"/>
<path d="M52.6903 121.182L51.3073 126.705C48.9404 128.391 45.3928 136.34 45.1961 139.526C44.9993 142.705 44.2347 155.773 44.2122 164.79C44.1841 175.262 55.8275 237.455 55.8275 237.455H76.7754L69.3936 138.778L67.5495 121.188H52.6959L52.6903 121.182Z" fill="#263238"/>
<path d="M64.6484 133.677C64.6484 133.677 64.6428 133.756 64.6147 133.913C64.581 134.082 64.5416 134.312 64.4854 134.604C64.3617 135.222 64.1874 136.11 63.9569 137.25C63.4678 139.537 62.7426 142.846 61.7756 146.919C60.8254 150.992 59.6448 155.835 58.4923 161.245C57.9244 163.953 57.351 166.796 56.9012 169.768C56.4233 172.734 56.0691 175.835 56.0073 179.015C55.9567 182.189 56.2041 185.33 57.3116 188.128C58.3517 190.942 59.6673 193.538 60.9547 195.982C63.569 200.853 66.2001 205.089 68.5108 208.572C70.8215 212.061 72.8174 214.797 74.2566 216.64C74.9875 217.55 75.5553 218.263 75.9657 218.718C76.1569 218.943 76.3087 219.123 76.4211 219.252C76.5223 219.376 76.5729 219.437 76.5673 219.443C76.5673 219.443 75.6396 218.539 74.161 216.718C72.6937 214.892 70.6697 212.173 68.3365 208.696C66.0034 205.218 63.3441 200.993 60.713 196.117C59.4199 193.667 58.0931 191.072 57.0418 188.235C55.9173 185.403 55.6587 182.206 55.7149 179.021C55.7768 175.819 56.1366 172.706 56.6201 169.734C57.0811 166.757 57.6546 163.908 58.2336 161.2C59.403 155.79 60.6062 150.953 61.5788 146.885C62.5683 142.818 63.3273 139.52 63.8501 137.239C64.0975 136.11 64.2943 135.222 64.4292 134.61C64.4966 134.318 64.5472 134.093 64.5866 133.924C64.626 133.773 64.6428 133.694 64.6484 133.694V133.677Z" fill="#455A64"/>
<path d="M89.3633 135.992C89.3633 135.992 89.1215 136.11 88.6549 136.245C88.1883 136.379 87.4967 136.531 86.6309 136.627C84.9106 136.823 82.42 136.677 79.9575 135.615C77.495 134.554 75.6791 132.84 74.6446 131.458C74.1162 130.761 73.7564 130.16 73.5371 129.728C73.3178 129.295 73.2166 129.042 73.2335 129.037C73.2841 129.009 73.7282 129.992 74.8077 131.329C75.8703 132.66 77.6693 134.306 80.0756 135.346C82.4818 136.385 84.9106 136.559 86.6141 136.424C88.3288 136.29 89.352 135.941 89.3689 135.997L89.3633 135.992Z" fill="#455A64"/>
<path d="M53.8147 127.34C53.8147 127.34 53.7979 127.508 53.7191 127.801C53.6404 128.093 53.4999 128.508 53.2975 129.009C52.8927 130.009 52.1899 131.34 51.1611 132.638C50.1323 133.936 48.9966 134.924 48.1139 135.548C47.6754 135.863 47.3043 136.093 47.0345 136.233C46.7702 136.379 46.6184 136.447 46.6072 136.43C46.5791 136.385 47.1469 136.037 47.9846 135.379C48.8223 134.722 49.9186 133.728 50.9306 132.458C51.9369 131.183 52.6566 129.891 53.1063 128.924C53.5561 127.958 53.7641 127.329 53.8147 127.34Z" fill="#455A64"/>
<path d="M87.744 47.7595C88.6267 46.7314 88.8628 45.192 88.3343 43.9448C87.8059 42.6976 86.5353 41.7987 85.1804 41.72C85.6133 40.456 85.3434 38.9784 84.4888 37.9503C83.6343 36.9222 82.2288 36.3884 80.9076 36.5851C80.8232 35.248 80.053 33.9727 78.9061 33.276C77.7648 32.5737 76.275 32.4726 75.0493 33.0007C74.2566 32.04 73.0085 31.4782 71.766 31.5288C70.5236 31.5793 69.3204 32.2367 68.6064 33.2535C67.9149 33.3715 67.2515 33.6412 66.6724 34.0288C66.0484 33.8996 65.3681 34.0288 64.789 34.3097C64.0525 34.6637 63.4397 35.2311 62.8438 35.7873C61.8712 36.6918 60.8479 37.6694 60.505 38.9559C60.1171 40.3885 60.6287 42.029 59.9034 43.3268C59.6167 43.838 59.1613 44.2482 58.9702 44.7987C58.6047 45.8437 59.3131 46.9729 59.2288 48.0741C59.1388 49.2427 58.1718 50.2595 58.2899 51.4281C58.3742 52.2708 59.0151 52.9562 59.701 53.4619C60.3869 53.9675 61.1572 54.372 61.7194 55.0068C62.1691 55.5181 62.4615 56.1473 62.9 56.6642C64.1481 58.1305 66.6274 58.3215 68.0836 57.0631C69.0618 57.9058 70.5011 58.035 71.7492 57.7035C72.9973 57.3777 74.1048 56.6586 75.1843 55.9451C75.6453 56.5743 76.4436 56.9507 77.2195 56.9001C78.0009 56.8552 78.7431 56.3889 79.1254 55.7035C79.3952 56.5574 80.4072 56.99 81.2955 56.9058C82.1894 56.8159 82.9821 56.3383 83.7467 55.8664C85.1747 54.9844 86.777 53.827 86.8108 52.1472C86.8333 51.1191 86.2429 50.0573 86.6309 49.1078C86.8557 48.5629 87.3561 48.1921 87.7384 47.7482L87.744 47.7595Z" fill="#263238"/>
<path d="M55.8724 41.0627C58.2843 37.9952 60.5669 37.1637 63.2542 36.7087C67.3246 36.0176 71.8617 36.7087 75.1731 39.1806C78.2146 41.4447 79.8956 45.1864 80.3679 48.9505C80.5309 50.2764 80.1318 51.5517 79.7663 52.8382C79.3953 54.1248 77.9335 55.754 76.7529 56.3776C75.5666 57.0013 75.0719 56.6024 74.0712 55.7147C73.4583 55.1754 73.1098 54.4001 72.7668 53.6585C71.3276 50.518 69.6803 47.4055 67.2572 44.9392C64.8341 42.4728 61.517 40.7088 58.0651 40.8155" fill="#E52A9C"/>
<path d="M73.8519 47.2763C73.4358 46.1471 73.6214 44.8942 73.4639 43.7032C73.121 41.0739 71.0746 38.8548 68.6065 37.8941C66.1384 36.9334 63.3273 37.1075 60.8142 37.9334C58.9421 38.5514 57.1486 39.5514 55.878 41.0627C54.1914 43.0627 53.5674 45.9167 54.2701 48.4393L67.7182 46.6583C68.9607 47.7145 70.2369 48.7876 71.7492 49.3831C72.1934 49.5573 72.6712 49.6921 73.1491 49.6247C73.6214 49.5573 74.088 49.2426 74.2061 48.7763C74.3354 48.2707 74.043 47.7651 73.8575 47.2763H73.8519Z" fill="#263238"/>
<path d="M60.4769 41.6358L72.1653 44.265C73.2953 44.3549 74.1723 45.2988 74.178 46.4336L73.7113 71.7769C73.6776 73.5073 73.076 75.1815 71.9966 76.5354L70.8609 77.9624C68.2691 81.2153 63.1137 80.8164 61.2134 77.1197C61.0785 76.8613 60.9885 76.6366 60.9548 76.4512C60.9211 76.2208 60.8592 76.0691 60.8536 75.8781C60.5444 73.9118 60.7018 72.0353 60.7018 72.0353C60.6175 69.7768 60.595 68.8499 60.5894 68.8723C60.5894 68.8723 55.7993 68.2038 54.6524 62.0126C54.079 58.9339 54.1015 53.8608 54.2589 49.709C54.3994 45.9729 56.7495 41.3324 60.4769 41.6301V41.6358Z" fill="#B78876"/>
<path d="M56.682 53.5742C56.682 53.9956 57.0306 54.3439 57.4747 54.3607C57.9132 54.372 58.2731 54.0405 58.2787 53.6191C58.2787 53.1978 57.9301 52.8439 57.4916 52.8326C57.0531 52.8214 56.6933 53.1528 56.6876 53.5742H56.682Z" fill="#263238"/>
<path d="M55.4283 52.327C55.5295 52.4281 56.1254 51.9674 56.98 51.945C57.8345 51.9113 58.4811 52.3382 58.571 52.2315C58.616 52.1865 58.5092 52.0012 58.2281 51.8045C57.9526 51.6135 57.486 51.4337 56.9519 51.445C56.4178 51.4618 55.9736 51.6697 55.7206 51.8776C55.462 52.0854 55.3777 52.2764 55.4283 52.3214V52.327Z" fill="#263238"/>
<path d="M64.8228 53.5742C64.8228 53.9956 65.1713 54.3439 65.6155 54.3607C66.054 54.372 66.4138 54.0405 66.4194 53.6191C66.4194 53.1978 66.0709 52.8439 65.6323 52.8326C65.1938 52.8214 64.834 53.1528 64.8284 53.5742H64.8228Z" fill="#263238"/>
<path d="M63.867 52.2652C63.9682 52.3663 64.5641 51.9056 65.4187 51.8831C66.2733 51.8494 66.9198 52.2764 67.0098 52.1697C67.0547 52.1191 66.9479 51.9393 66.6668 51.7427C66.3913 51.5517 65.9247 51.3719 65.3906 51.3831C64.8565 51.4 64.4124 51.6079 64.1594 51.8157C63.9007 52.0236 63.8164 52.2146 63.867 52.2596V52.2652Z" fill="#263238"/>
<path d="M60.9211 58.7092C60.9211 58.6586 60.387 58.58 59.5212 58.4957C59.3019 58.4788 59.0939 58.4395 59.0545 58.2934C58.9983 58.1361 59.0826 57.9002 59.1838 57.6417C59.375 57.108 59.5774 56.5462 59.791 55.9563C60.6287 53.5574 61.2303 51.5854 61.1347 51.5573C61.0391 51.5236 60.2801 53.4394 59.4425 55.8383C59.2401 56.4282 59.0489 56.9957 58.8634 57.535C58.7847 57.7878 58.6497 58.0743 58.7734 58.4002C58.8353 58.5631 58.9983 58.6755 59.1445 58.7092C59.285 58.7485 59.4087 58.7485 59.5155 58.7485C60.387 58.771 60.9267 58.7654 60.9267 58.7148L60.9211 58.7092Z" fill="#263238"/>
<path d="M60.5894 68.878C60.5894 68.878 64.7834 69.0409 68.8651 66.4397C68.8651 66.4397 66.8805 70.7993 60.64 70.378L60.5894 68.878Z" fill="#AA6550"/>
<path d="M61.3371 60.7654C61.6351 60.3497 62.1692 60.1137 62.7089 60.1531C63.08 60.1811 63.4623 60.3553 63.6984 60.6531C63.9345 60.9508 63.9907 61.3778 63.794 61.6756C63.5691 62.007 63.0912 62.0969 62.6752 61.9902C62.2648 61.8834 61.9049 61.625 61.562 61.3666C61.4664 61.2935 61.3709 61.2205 61.309 61.1194C61.2472 61.0182 61.2303 60.889 61.3034 60.7991" fill="#AA6550"/>
<path d="M63.4623 59.2373C63.3217 59.2373 63.3442 60.1643 62.5627 60.8441C61.7813 61.5295 60.7862 61.4508 60.7862 61.58C60.7749 61.6362 61.011 61.7542 61.4327 61.7542C61.8431 61.7542 62.439 61.6081 62.9169 61.1924C63.3948 60.7766 63.586 60.2261 63.6084 59.844C63.6366 59.4564 63.5241 59.226 63.4623 59.2317V59.2373Z" fill="#263238"/>
<path d="M63.6591 49.6753C63.749 49.9056 64.6036 49.7708 65.6155 49.8663C66.6275 49.9393 67.4483 50.2146 67.5777 50.0011C67.6339 49.9 67.4877 49.6865 67.1504 49.4674C66.8187 49.2483 66.2958 49.0516 65.6886 48.9955C65.0814 48.9449 64.5305 49.0573 64.1707 49.2146C63.8052 49.3719 63.6253 49.5629 63.6647 49.6696L63.6591 49.6753Z" fill="#263238"/>
<path d="M55.5801 48.5685C55.7375 48.7595 56.3222 48.5404 57.0306 48.5123C57.739 48.4618 58.3462 48.6078 58.4811 48.4C58.5373 48.2988 58.4418 48.1078 58.1719 47.928C57.9077 47.7483 57.4691 47.6134 56.98 47.6415C56.4909 47.6696 56.0749 47.855 55.8331 48.0629C55.5857 48.2708 55.507 48.473 55.5801 48.5685Z" fill="#263238"/>
<path d="M76.022 45.4954C74.8526 41.9111 69.6072 36.9896 65.8517 37.2761L59.8698 40.9167C60.2464 42.9616 61.8431 44.7257 63.8333 45.3212C64.8959 45.6359 66.1777 45.7145 66.813 46.6246C67.4652 47.5516 67.0998 48.9112 67.707 49.8663C68.5503 51.1922 70.8216 51.1135 71.4569 52.5517C71.7324 53.181 71.5974 53.9338 71.8842 54.5574C72.2665 55.3889 74.386 56.4282 75.2518 56.1417C76.1232 55.8608 76.112 54.3776 76.3931 53.5967C76.871 52.2652 76.6629 51.5798 76.4999 50.8382C76.1064 49.0854 76.5786 47.2033 76.022 45.4954Z" fill="#263238"/>
<path d="M78.3551 42.8212L77.8997 44.7987C77.8379 43.2819 77.5961 41.8492 76.8596 40.7425C75.3642 38.484 72.0584 36.9503 69.4553 36.2031C66.8467 35.4558 63.6533 35.9109 61.1346 36.9165C59.24 37.6694 57.4803 38.6919 55.5519 41.2987C53.6404 43.883 53.1963 47.7763 54.3769 48.4674C55.3102 45.7875 56.7888 42.7144 59.1332 41.1077C61.4776 39.5009 64.5248 38.8436 67.2459 39.6469C70.2818 40.5402 72.5925 43.1077 73.9305 45.9673C74.5771 47.3494 75.0718 48.9337 75.4541 50.5236C75.8983 52.3607 75.8758 54.2765 75.4148 56.1024L73.9024 61.4115L73.8687 63.1362C77.5624 61.771 79.845 57.9226 80.4578 54.0349C81.0706 50.1472 80.6321 46.3999 78.3551 42.8156V42.8212Z" fill="#E52A9C"/>
<path d="M75.2517 54.6248C75.2236 54.6136 75.3473 54.3046 75.4429 53.7203C75.5272 53.1416 75.5666 52.2652 75.2517 51.2539C74.9425 50.2652 74.2847 49.1134 73.1097 48.3662C72.5306 47.9898 71.8448 47.7089 71.142 47.3887C70.4448 47.0628 69.7027 46.6752 69.1349 46.0291C68.5671 45.3774 68.3085 44.5965 67.9711 43.9167C67.6507 43.2313 67.2065 42.6526 66.6893 42.1919C65.6492 41.2706 64.3899 40.8773 63.3498 40.8605C62.2984 40.838 61.4607 41.1133 60.9266 41.3548C60.3869 41.602 60.1227 41.8043 60.1058 41.7818C60.1002 41.7762 60.162 41.72 60.2857 41.6189C60.415 41.5234 60.6062 41.3942 60.876 41.2537C61.4045 40.9728 62.2535 40.6526 63.3498 40.6526C64.4348 40.6413 65.7673 41.029 66.8636 41.9841C67.4089 42.456 67.8924 43.074 68.2241 43.7819C68.5671 44.4785 68.8313 45.237 69.3485 45.8269C69.8658 46.4224 70.5685 46.7932 71.2544 47.119C71.9459 47.4449 72.6431 47.7314 73.2447 48.1303C74.4759 48.9337 75.1449 50.1528 75.4373 51.1865C75.7352 52.2371 75.6621 53.1416 75.5441 53.7315C75.471 54.0237 75.4092 54.2484 75.3417 54.3945C75.2798 54.5405 75.2461 54.6136 75.2349 54.6136L75.2517 54.6248Z" fill="#455A64"/>
<path d="M74.6839 47.9674C74.6839 47.9674 74.5489 47.7426 74.2285 47.4224C73.908 47.0966 73.3402 46.7482 72.5868 46.4111C72.2102 46.237 71.7941 46.0516 71.3612 45.7988C70.9339 45.546 70.4842 45.2201 70.1581 44.7426C69.4947 43.81 69.281 42.5571 68.3871 41.6863C67.5213 40.8043 66.3632 40.3492 65.3118 40.2031C64.2437 40.0571 63.2598 40.22 62.4727 40.4279C60.8873 40.8773 60.0158 41.4616 59.9877 41.4054C59.9765 41.3886 60.1901 41.2369 60.5949 41.0065C61.0053 40.7818 61.6125 40.4728 62.4165 40.2256C63.2148 39.984 64.2268 39.793 65.3512 39.9279C66.4588 40.0683 67.6788 40.529 68.6064 41.4728C69.5678 42.4223 69.7758 43.7201 70.3886 44.574C70.9958 45.4504 71.9628 45.8269 72.688 46.2089C73.4358 46.5741 74.0205 46.9617 74.3241 47.3269C74.4759 47.5067 74.5827 47.664 74.6277 47.7763C74.6839 47.8887 74.7064 47.9505 74.6951 47.9505L74.6839 47.9674Z" fill="#455A64"/>
<path d="M72.6881 56.8945C72.6768 56.4338 73.1828 55.3271 73.6382 55.2428C74.8526 55.0181 77.062 55.063 77.1632 58.1642C77.3038 62.4003 73.0141 61.6643 73.0029 61.5463C72.9917 61.4508 72.7274 58.4957 72.6881 56.9001V56.8945Z" fill="#B78876"/>
<path d="M74.2454 59.8946C74.2454 59.8946 74.3185 59.9451 74.4478 59.9957C74.5715 60.0463 74.7795 60.08 74.9988 59.9901C75.443 59.8103 75.7971 59.0856 75.7915 58.3215C75.7915 57.9339 75.696 57.5687 75.5498 57.2709C75.4092 56.9675 75.2012 56.7541 74.9763 56.7203C74.7514 56.6754 74.594 56.8159 74.549 56.9395C74.4984 57.0574 74.5266 57.1417 74.5041 57.1529C74.4928 57.1642 74.4085 57.0855 74.4366 56.9114C74.4535 56.8271 74.4984 56.726 74.594 56.6417C74.6952 56.5574 74.8414 56.5069 74.9988 56.5181C75.3249 56.5293 75.6285 56.8215 75.7915 57.1473C75.9714 57.4788 76.0839 57.8889 76.0839 58.3215C76.0839 59.1755 75.6735 59.9901 75.0663 60.1867C74.7683 60.2766 74.5209 60.1923 74.386 60.0968C74.2511 59.9957 74.2286 59.9002 74.2398 59.8946H74.2454Z" fill="#AA6550"/>
<path d="M77.8098 60.226C77.8098 60.226 77.8717 60.0687 78.0122 59.7935C78.1472 59.5126 78.3439 59.0912 78.5463 58.535C78.9568 57.4282 79.3953 55.7372 79.3728 53.6192C79.3728 52.563 79.221 51.4056 79.013 50.1753C78.7993 48.9505 78.4901 47.6471 77.9954 46.3381C77.5006 45.0347 76.8091 43.7257 75.8702 42.5346C74.9313 41.3436 73.7619 40.2593 72.407 39.3997C69.6915 37.6413 66.4869 37.1019 63.7321 37.484C62.3491 37.6637 61.0672 38.0682 59.9541 38.6076C58.8409 39.1525 57.8851 39.8267 57.1093 40.5458C55.5407 41.9784 54.6693 43.4953 54.1802 44.5684C53.9384 45.1077 53.7866 45.5459 53.6854 45.8437C53.5899 46.1415 53.5393 46.2988 53.528 46.2932C53.5168 46.2932 53.5561 46.1302 53.6292 45.8268C53.7079 45.5235 53.8485 45.0796 54.0734 44.5234C54.5344 43.4279 55.3889 41.8661 56.9631 40.3941C57.7446 39.6582 58.7116 38.9615 59.8416 38.3941C60.9773 37.8323 62.2816 37.4109 63.6928 37.2199C66.4982 36.8154 69.7871 37.3547 72.5588 39.1525C73.9475 40.0346 75.1337 41.1413 76.0895 42.3605C77.0452 43.5796 77.748 44.9167 78.2427 46.2482C78.7375 47.5797 79.0355 48.9 79.2435 50.1359C79.4459 51.3775 79.5808 52.5461 79.5696 53.6192C79.5696 55.7709 79.0917 57.4732 78.6475 58.5799C78.4283 59.1361 78.2146 59.5519 78.0628 59.8272C77.9054 60.1024 77.8211 60.2429 77.8098 60.2373V60.226Z" fill="#263238"/>
<path d="M76.0107 60.9901C76.0669 60.9114 76.2019 60.8777 76.393 60.9676C76.5785 61.0575 76.8034 61.2822 76.9102 61.653C76.9608 61.8384 76.9833 62.0519 76.9384 62.2935C76.899 62.5294 76.7753 62.7935 76.5842 63.007C76.2019 63.4283 75.6003 63.6643 74.9594 63.5463C74.2847 63.4227 73.8293 62.9171 73.6607 62.4508C73.4751 61.9676 73.5201 61.4845 73.7057 61.1305C73.8856 60.7878 74.1835 60.6024 74.4084 60.5743C74.6389 60.5463 74.7514 60.6474 74.7626 60.7429C74.7795 60.844 74.7232 60.9451 74.7008 61.0631C74.6783 61.1755 74.6727 61.3047 74.6895 61.4564C74.712 61.5856 74.7738 61.7542 74.8807 61.8834C74.9875 62.0238 75.1224 62.1025 75.2292 62.1137C75.3642 62.1418 75.5384 62.1025 75.6396 62.0519C75.7352 62.0126 75.8308 61.9115 75.8814 61.7598C75.9995 61.4676 75.9095 61.1699 76.0163 61.0013L76.0107 60.9901Z" fill="#455A64"/>
<path d="M42.7392 87.5357C42.7392 87.5357 43.4476 81.8951 46.1687 79.0748C48.8898 76.2545 60.6737 72.5971 60.6737 72.5971C60.6737 72.5971 60.7524 76.7433 63.4791 77.7152C66.3745 78.7433 69.1799 78.1984 71.2994 75.7433C73.3459 73.3668 73.745 70.4061 73.745 70.4061C73.745 70.4061 88.0027 71.7263 90.2234 75.4511C92.4385 79.1759 95.3114 93.6145 95.3114 93.6145L82.5942 96.3111L84.3202 121.182H50.5314L51.1948 97.8449L41.9971 99.1595L42.7448 87.5357H42.7392Z" fill="#455A64"/>
<path d="M80.0643 97.1314C80.0643 97.1314 80.0306 96.9291 80.0193 96.5696C80.0081 96.21 80.0024 95.6875 80.0024 95.0414C80.0024 93.7493 80.0249 91.974 80.0643 90.002C80.1036 88.0357 80.1599 86.2547 80.2105 84.9626C80.2386 84.3165 80.2611 83.794 80.2892 83.4344C80.3117 83.0749 80.3398 82.8726 80.3566 82.8726C80.3735 82.8726 80.3904 83.0693 80.4016 83.4344C80.4128 83.794 80.4185 84.3165 80.4185 84.9626C80.4185 86.2547 80.396 88.0357 80.3566 90.002C80.3173 91.9683 80.2611 93.7493 80.2105 95.0414C80.1823 95.6875 80.1599 96.21 80.1317 96.5696C80.1093 96.9291 80.0812 97.1314 80.0643 97.1258V97.1314Z" fill="#263238"/>
<path d="M48.0577 86.8952C48.1364 86.8727 48.9291 89.3952 49.8286 92.5301C50.7282 95.665 51.3972 98.2213 51.3185 98.2437C51.2398 98.2662 50.4471 95.7437 49.5475 92.6088C48.648 89.4739 47.979 86.9176 48.0577 86.8952Z" fill="#263238"/>
<path d="M88.7953 74.5579C88.8066 74.6084 88.1938 74.7208 87.2661 75.0747C86.3385 75.423 85.1129 76.0635 83.966 77.0523C82.8247 78.0467 82.0207 79.1759 81.5428 80.0467C81.065 80.9175 80.8682 81.5074 80.8176 81.4906C80.8007 81.485 80.8345 81.3333 80.9132 81.0636C80.9863 80.7883 81.1381 80.4063 81.3573 79.9512C81.7958 79.0411 82.5942 77.8557 83.7692 76.8332C84.9442 75.8163 86.226 75.1815 87.193 74.8781C87.6765 74.7208 88.0757 74.6253 88.3568 74.5916C88.6379 74.5522 88.7897 74.5354 88.7953 74.5579Z" fill="#263238"/>
<path d="M45.9663 80.2096C46.045 80.1872 46.3093 80.9737 46.5623 81.9625C46.8152 82.9513 46.9558 83.7659 46.8771 83.7884C46.7984 83.8108 46.5341 83.0243 46.2811 82.0355C46.0282 81.0467 45.8876 80.2321 45.9663 80.2096Z" fill="#263238"/>
<path d="M93.0401 94.0976C93.0401 94.0976 89.234 113.424 88.7954 115.076C88.3569 116.727 87.6541 121.182 83.044 122.104C76.8204 123.345 52.3643 122.48 52.3643 122.48L56.9744 116.643L78.3664 110.649L81.2899 96.5864L93.0345 94.0976H93.0401Z" fill="#B78876"/>
<path d="M36.0995 90.5077C36.0995 90.5077 39.5458 102.103 40.9795 107.109C42.4974 112.429 45.8201 124.52 52.9039 122.374C58.2899 120.739 56.7045 113.767 56.7045 113.767L51.1948 97.8449L46.9108 98.5584L42.7504 87.8222L36.1107 90.5077H36.0995Z" fill="#B78876"/>
<path d="M54.8211 114.261C54.7536 114.261 55.1978 113.25 54.8211 111.637C54.6412 110.845 54.2645 109.935 53.6742 109.031C53.0839 108.126 52.2855 107.227 51.4422 106.295C50.5933 105.362 49.8006 104.435 49.199 103.508C48.5862 102.592 48.1308 101.705 47.7935 100.946C47.4562 100.188 47.2369 99.5472 47.102 99.1034C46.967 98.6595 46.9164 98.4067 46.9333 98.4011C46.9558 98.3955 47.0401 98.6371 47.2088 99.064C47.3775 99.4966 47.6192 100.115 47.979 100.856C48.3388 101.598 48.8055 102.457 49.4239 103.356C50.0311 104.261 50.8069 105.165 51.6615 106.098C52.5048 107.031 53.3088 107.946 53.9047 108.884C54.5006 109.823 54.8661 110.767 55.0291 111.592C55.1978 112.418 55.1416 113.115 55.0516 113.57C55.001 113.8 54.9504 113.974 54.9054 114.087C54.8605 114.199 54.8323 114.261 54.8267 114.255L54.8211 114.261Z" fill="#AA6550"/>
<path d="M30.3594 68.7319C30.3594 68.7319 30.9441 67.9453 32.3046 69.1588C33.6651 70.3723 39.3097 79.9063 39.7483 80.7771C40.1868 81.6535 42.7392 87.8166 42.7392 87.8166L37.0497 91.8447L36.0995 90.4964C36.0995 90.4964 31.332 86.266 30.3594 85.0974C29.3867 83.9288 28.0712 82.2265 28.0262 81.985C27.9756 81.7434 27.6383 80.513 28.6109 80.1535C28.6109 80.1535 27.6889 78.6759 28.5153 77.9455C29.3418 77.2152 30.8485 77.895 30.8485 77.895L25.7886 71.378C25.7886 71.378 25.3501 69.4341 26.8118 70.1645C28.2736 70.8948 32.1135 76.4848 32.7993 76.6309C33.4796 76.777 33.4796 76.0466 33.4796 76.0466C33.4796 76.0466 29.4879 70.0353 30.365 68.715L30.3594 68.7319Z" fill="#B78876"/>
<path d="M35.5598 85.839C35.5598 85.839 35.5092 85.7491 35.4417 85.5693C35.3743 85.3895 35.2956 85.1142 35.2506 84.7547C35.155 84.058 35.1719 82.9063 36.0096 81.867V82.0243C35.4923 81.4063 34.9301 80.7209 34.3342 79.9961L34.3735 80.0298C33.9688 79.7995 33.564 79.5523 33.1536 79.277C32.9455 79.1422 32.7375 78.9961 32.5351 78.85C32.3327 78.6984 32.1135 78.5579 31.9223 78.3444C31.7649 78.1646 31.6187 77.9343 31.6187 77.6646C31.6131 77.395 31.7312 77.159 31.9223 76.9792L31.9785 76.9286L32.0572 76.9511C33.3222 77.3107 34.5029 77.6422 35.5542 77.9399H35.5767L35.5935 77.9568C36.7011 78.7826 37.6344 79.4793 38.3484 80.0074C39.0062 80.5074 39.3772 80.8051 39.3603 80.8276C39.3435 80.8501 38.9443 80.5917 38.264 80.1254C37.5332 79.6141 36.5774 78.9456 35.4474 78.159L35.4867 78.1759C34.4354 77.8893 33.2435 77.5691 31.9785 77.2208L32.1135 77.1927C32.001 77.3051 31.8998 77.4848 31.9167 77.6534C31.9167 77.8276 32.0179 77.9961 32.1472 78.1422C32.299 78.3163 32.5126 78.4568 32.715 78.6085C32.9174 78.7545 33.1198 78.895 33.3222 79.0298C33.727 79.2995 34.1318 79.5523 34.5197 79.7826L34.5422 79.7939L34.5591 79.8107C35.1494 80.5467 35.7004 81.2377 36.2007 81.867L36.2626 81.9456L36.1895 82.0243C35.8016 82.4625 35.5879 83.0018 35.4755 83.4737C35.363 83.9513 35.363 84.3839 35.3911 84.7322C35.453 85.4345 35.5992 85.8221 35.5598 85.8333V85.839Z" fill="#AA6550"/>
<path d="M30.9047 78.2321C30.9047 78.2321 31.1015 78.4175 31.3882 78.8051C31.6749 79.1928 32.0685 79.7714 32.4733 80.5299C32.6756 80.9119 32.8893 81.322 33.0804 81.8108C33.1648 82.058 33.2379 82.3445 33.1591 82.6479C33.0861 82.9625 32.7937 83.2097 32.4789 83.2659C32.1584 83.3389 31.8267 83.2546 31.5456 83.1142C31.2645 82.9681 31.0171 82.7827 30.7698 82.5805C30.2863 82.1647 29.8758 81.6535 29.5048 81.1085C29.2968 80.8108 29.1056 80.5074 28.9313 80.2209L29.1618 80.0467C29.9433 80.9568 30.5617 81.9063 31.0171 82.8333C31.1296 83.0692 31.2139 83.3333 31.1914 83.6086C31.1689 83.8726 31.0452 84.1423 30.8147 84.2884C30.5786 84.4344 30.2975 84.4064 30.0951 84.3165C29.8871 84.2322 29.7184 84.103 29.5666 83.9794C28.9988 83.4625 28.6053 82.9906 28.3579 82.6535C28.1105 82.3108 27.9981 82.1085 28.0093 82.1029C28.0487 82.0692 28.5547 82.8614 29.6903 83.8333C29.9602 84.0524 30.365 84.2996 30.691 84.0974C30.8428 84.0018 30.9328 83.8052 30.944 83.5973C30.9553 83.3895 30.8822 83.1704 30.781 82.9513C30.3256 82.0692 29.7072 81.131 28.937 80.2433L29.1675 80.0692C29.3474 80.3557 29.5385 80.6535 29.7353 80.9456C30.1007 81.4793 30.4943 81.9737 30.944 82.367C31.3882 82.7434 31.911 83.1142 32.4058 83.0074C32.6475 82.9625 32.8387 82.7996 32.9005 82.5805C32.9624 82.3614 32.9118 82.1142 32.8387 81.8894C32.6756 81.4344 32.4676 81.0018 32.2821 80.6254C31.9054 79.8613 31.54 79.2714 31.287 78.8669C31.0284 78.4624 30.8822 78.2433 30.8991 78.2321H30.9047Z" fill="#AA6550"/>
<path d="M56.5751 113.379C56.5751 113.379 56.6651 113.531 56.755 113.823C56.8506 114.121 56.9462 114.559 57.0024 115.109C57.1149 116.205 56.9574 117.812 56.131 119.317C55.7206 120.053 55.2596 120.733 54.7311 121.255C54.2082 121.784 53.6235 122.143 53.1007 122.34C52.5778 122.542 52.1224 122.604 51.8132 122.632C51.504 122.643 51.3297 122.632 51.3297 122.615C51.3185 122.553 52.0269 122.576 53.0164 122.149C53.5055 121.935 54.0452 121.581 54.5343 121.064C55.0291 120.553 55.4676 119.896 55.8724 119.171C56.6707 117.727 56.8506 116.188 56.7944 115.115C56.7438 114.031 56.5189 113.379 56.5751 113.368V113.379Z" fill="#AA6550"/>
</g>
<defs>
<clipPath id="clip0_144_5266">
<rect width="238.956" height="250" fill="white"/>
</clipPath>
</defs>
</svg>
