<svg width="259" height="250" viewBox="0 0 259 250" fill="none" xmlns="http://www.w3.org/2000/svg">
<g clip-path="url(#clip0_144_5100)">
<path d="M104.983 21.1212H19.5568V139.102H104.983V21.1212Z" fill="#E0E0E0"/>
<path d="M100.276 24.0687H23.2045V135.539H100.276V24.0687Z" fill="#FAFAFA" stroke="#FAFAFA" stroke-miterlimit="10"/>
<path d="M101.697 56.0217H22.8434V57.7818H101.697V56.0217Z" fill="#E0E0E0"/>
<path d="M60.8616 56.0217L60.8616 136.034H62.6192L62.6192 56.0217H60.8616Z" fill="#E0E0E0"/>
<path d="M118.575 10.0181H6.40442V12.2061H118.575V10.0181Z" fill="#E0E0E0"/>
<path d="M6.40454 17.5347C6.40454 17.5347 7.42783 135.515 6.43464 135.515C5.44145 135.515 28.5858 135.515 28.5858 135.515V17.5347H6.40454Z" fill="#EBEBEB"/>
<path d="M11.9484 20.0723C11.8641 20.0723 11.7919 17.8722 11.7919 15.1597C11.7919 12.4473 11.8641 10.2471 11.9484 10.2471C12.0326 10.2471 12.1049 12.4473 12.1049 15.1597C12.1049 17.8722 12.0326 20.0723 11.9484 20.0723Z" fill="#E0E0E0"/>
<path d="M8.96278 20.0723C8.87851 20.0723 8.80627 17.8722 8.80627 15.1597C8.80627 12.4473 8.87851 10.2471 8.96278 10.2471C9.04705 10.2471 9.11928 12.4473 9.11928 15.1597C9.11928 17.8722 9.04705 20.0723 8.96278 20.0723Z" fill="#E0E0E0"/>
<path d="M15.3854 20.0723C15.3011 20.0723 15.2289 17.8722 15.2289 15.1597C15.2289 12.4473 15.3011 10.2471 15.3854 10.2471C15.4697 10.2471 15.5419 12.4473 15.5419 15.1597C15.5419 17.8722 15.4697 20.0723 15.3854 20.0723Z" fill="#E0E0E0"/>
<path d="M18.8164 20.0723C18.7321 20.0723 18.6599 17.8722 18.6599 15.1597C18.6599 12.4473 18.7321 10.2471 18.8164 10.2471C18.9007 10.2471 18.9729 12.4473 18.9729 15.1597C18.9729 17.8722 18.9007 20.0723 18.8164 20.0723Z" fill="#E0E0E0"/>
<path d="M22.2534 20.0723C22.1692 20.0723 22.0969 17.8722 22.0969 15.1597C22.0969 12.4473 22.1692 10.2471 22.2534 10.2471C22.3377 10.2471 22.4099 12.4473 22.4099 15.1597C22.4099 17.8722 22.3377 20.0723 22.2534 20.0723Z" fill="#E0E0E0"/>
<path d="M25.552 20.0723C25.4677 20.0723 25.3955 17.8722 25.3955 15.1597C25.3955 12.4473 25.4677 10.2471 25.552 10.2471C25.6363 10.2471 25.7085 12.4473 25.7085 15.1597C25.7085 17.8722 25.6363 20.0723 25.552 20.0723Z" fill="#E0E0E0"/>
<path d="M95.6533 17.5347C95.6533 17.5347 96.6766 135.515 95.6834 135.515C94.6902 135.515 117.835 135.515 117.835 135.515V17.5347H95.6533Z" fill="#EBEBEB"/>
<path d="M101.203 20.0723C101.119 20.0723 101.047 17.8722 101.047 15.1597C101.047 12.4473 101.119 10.2471 101.203 10.2471C101.287 10.2471 101.36 12.4473 101.36 15.1597C101.36 17.8722 101.287 20.0723 101.203 20.0723Z" fill="#E0E0E0"/>
<path d="M98.2116 20.0723C98.1273 20.0723 98.0551 17.8722 98.0551 15.1597C98.0551 12.4473 98.1273 10.2471 98.2116 10.2471C98.2958 10.2471 98.3681 12.4473 98.3681 15.1597C98.3681 17.8722 98.2958 20.0723 98.2116 20.0723Z" fill="#E0E0E0"/>
<path d="M104.634 20.0723C104.55 20.0723 104.478 17.8722 104.478 15.1597C104.478 12.4473 104.55 10.2471 104.634 10.2471C104.718 10.2471 104.791 12.4473 104.791 15.1597C104.791 17.8722 104.718 20.0723 104.634 20.0723Z" fill="#E0E0E0"/>
<path d="M108.071 20.0723C107.987 20.0723 107.915 17.8722 107.915 15.1597C107.915 12.4473 107.987 10.2471 108.071 10.2471C108.155 10.2471 108.228 12.4473 108.228 15.1597C108.228 17.8722 108.155 20.0723 108.071 20.0723Z" fill="#E0E0E0"/>
<path d="M111.502 20.0723C111.418 20.0723 111.346 17.8722 111.346 15.1597C111.346 12.4473 111.418 10.2471 111.502 10.2471C111.586 10.2471 111.659 12.4473 111.659 15.1597C111.659 17.8722 111.586 20.0723 111.502 20.0723Z" fill="#E0E0E0"/>
<path d="M114.807 20.0723C114.723 20.0723 114.65 17.8722 114.65 15.1597C114.65 12.4473 114.723 10.2471 114.807 10.2471C114.891 10.2471 114.963 12.4473 114.963 15.1597C114.963 17.8722 114.891 20.0723 114.807 20.0723Z" fill="#E0E0E0"/>
<path d="M181.459 230.934V248.65H207.33H235.862V230.934H181.459Z" fill="#EBEBEB"/>
<path d="M179.178 225.979V230.934H237.764V225.979H207.33H179.178Z" fill="#F5F5F5"/>
<path d="M208.468 248.65H235.862V230.934H237.764V225.979H207.33V230.476L208.468 248.65Z" fill="#E0E0E0"/>
<path d="M200.101 233.791H189.068V236.456H200.101V233.791Z" fill="#E0E0E0"/>
<path d="M201.816 239.789H187.647V245.419H201.816V239.789Z" fill="#FAFAFA"/>
<path d="M195.285 206.552L195.207 199.891L218.508 201.893L219.236 208.481L195.285 206.552Z" fill="#EBEBEB"/>
<path d="M200.31 202.924L200.208 204.119L214.781 205.367L214.884 204.172L200.31 202.924Z" fill="#E0E0E0"/>
<path d="M192.505 200.229L192.499 193.568L215.775 195.817L216.371 201.766L192.505 200.229Z" fill="#E0E0E0"/>
<path d="M192.498 194.479L192.486 198.969L215.173 200.645L214.794 196.498L192.498 194.479Z" fill="white"/>
<path d="M213.452 198.228C213.452 198.228 213.157 198.24 212.627 198.204C212.037 198.156 211.291 198.101 210.394 198.029C208.51 197.866 205.916 197.619 203.05 197.33C200.185 197.04 197.591 196.757 195.713 196.54C194.822 196.432 194.076 196.335 193.492 196.263C192.968 196.19 192.679 196.142 192.679 196.118C192.679 196.094 192.974 196.106 193.498 196.142C194.088 196.19 194.834 196.245 195.725 196.317C197.609 196.48 200.203 196.727 203.074 197.016C205.94 197.306 208.54 197.589 210.412 197.806C211.303 197.914 212.049 198.011 212.633 198.083C213.157 198.156 213.446 198.204 213.446 198.228H213.452Z" fill="#E0E0E0"/>
<path d="M213.404 198.788C213.404 198.788 213.109 198.812 212.573 198.788C211.983 198.758 211.225 198.722 210.322 198.68C208.42 198.577 205.801 198.409 202.9 198.21C200.005 198.011 197.38 197.806 195.484 197.649C194.581 197.565 193.829 197.498 193.239 197.444C192.709 197.39 192.42 197.348 192.42 197.324C192.42 197.3 192.715 197.3 193.251 197.324C193.841 197.354 194.599 197.39 195.502 197.432C197.404 197.535 200.023 197.703 202.924 197.902C205.819 198.101 208.438 198.306 210.334 198.463C211.237 198.547 211.989 198.614 212.579 198.668C213.109 198.722 213.398 198.764 213.398 198.788H213.404Z" fill="#E0E0E0"/>
<path d="M195.55 212.694L195.466 206.034L218.773 208.011L219.435 213.954L195.55 212.694Z" fill="#E0E0E0"/>
<path d="M198.121 212.833C198.036 212.833 197.904 211.368 197.838 209.554C197.765 207.74 197.777 206.269 197.868 206.263C197.952 206.263 198.084 207.728 198.151 209.542C198.223 211.356 198.211 212.833 198.121 212.833Z" fill="#F5F5F5"/>
<path d="M198.999 206.335C199.084 206.335 199.186 207.8 199.228 209.608C199.27 211.417 199.228 212.887 199.144 212.887C199.06 212.887 198.957 211.423 198.915 209.614C198.873 207.806 198.915 206.335 198.999 206.335Z" fill="#F5F5F5"/>
<path d="M201.118 209.265C205.181 209.711 209.955 209.97 214.084 210.338L201.118 209.265Z" fill="white"/>
<path d="M214.084 210.338C214.084 210.38 213.35 210.356 212.176 210.289C211.002 210.223 209.377 210.121 207.583 209.988C205.789 209.855 204.17 209.705 202.996 209.566C201.829 209.427 201.106 209.307 201.112 209.265C201.112 209.222 201.847 209.265 203.02 209.343C204.29 209.433 205.861 209.548 207.607 209.674C209.401 209.807 211.02 209.946 212.194 210.066C213.368 210.187 214.09 210.295 214.084 210.338Z" fill="#F5F5F5"/>
<path d="M215.787 213.761C215.703 213.761 215.565 212.435 215.486 210.79C215.408 209.144 215.408 207.806 215.498 207.8C215.583 207.8 215.721 209.126 215.799 210.772C215.878 212.417 215.878 213.755 215.787 213.761Z" fill="#F5F5F5"/>
<path d="M217.226 213.84C217.142 213.846 216.937 212.52 216.775 210.868C216.612 209.216 216.552 207.878 216.636 207.866C216.72 207.854 216.925 209.186 217.088 210.838C217.25 212.483 217.31 213.828 217.226 213.84Z" fill="#F5F5F5"/>
<path d="M204.573 210.759C207.144 210.934 209.1 211.061 211.146 211.109L204.573 210.759Z" fill="white"/>
<path d="M211.146 211.109C211.146 211.193 209.672 211.187 207.854 211.091C206.036 210.995 204.567 210.844 204.573 210.759C204.579 210.675 206.054 210.681 207.866 210.778C209.678 210.874 211.146 211.025 211.146 211.109Z" fill="#F5F5F5"/>
<path d="M197.115 225.696L196.676 219.054L220.055 219.795L221.03 225.696H197.115Z" fill="#E0E0E0"/>
<path d="M198.042 224.864L220.789 224.539L220.157 220.404L197.615 219.982L198.042 224.864Z" fill="#FAFAFA"/>
<path d="M197.753 219.186L197.537 212.526L220.874 214.051L221.65 219.982L197.753 219.186Z" fill="#EBEBEB"/>
<path d="M202.698 215.439L202.62 216.636L217.216 217.586L217.294 216.389L202.698 215.439Z" fill="#E0E0E0"/>
<path d="M220.386 222.104C220.386 222.104 220.067 222.146 219.495 222.17C218.863 222.188 218.045 222.206 217.063 222.23C215.011 222.266 212.17 222.297 209.034 222.309C205.898 222.321 203.056 222.309 201.004 222.297C200.023 222.278 199.204 222.266 198.572 222.254C197.994 222.236 197.681 222.218 197.681 222.194C197.681 222.17 198 222.152 198.572 222.128C199.204 222.11 200.023 222.092 201.004 222.067C203.056 222.031 205.898 222.001 209.034 221.989C212.17 221.977 215.011 221.989 217.063 222.001C218.045 222.019 218.863 222.031 219.495 222.043C220.067 222.061 220.386 222.08 220.386 222.104Z" fill="#E0E0E0"/>
<path d="M220.657 223.394C220.657 223.394 220.338 223.43 219.754 223.442C219.116 223.442 218.291 223.454 217.304 223.46C215.234 223.46 212.374 223.436 209.22 223.394C206.06 223.351 203.207 223.291 201.136 223.237C200.149 223.201 199.324 223.177 198.686 223.152C198.109 223.128 197.79 223.098 197.79 223.08C197.79 223.062 198.109 223.044 198.686 223.032C199.324 223.032 200.149 223.02 201.136 223.014C203.207 223.014 206.066 223.038 209.226 223.08C212.386 223.122 215.246 223.183 217.31 223.237C218.297 223.273 219.122 223.297 219.76 223.321C220.338 223.345 220.657 223.376 220.657 223.394Z" fill="#E0E0E0"/>
<path d="M23.8185 181.278C20.8931 181.748 19.5869 185.347 19.8397 188.306C20.0926 191.26 21.3085 194.153 20.9834 197.101C20.5741 200.844 17.745 204.008 17.414 207.764C17.0287 212.188 20.1528 216.112 21.0858 220.458C21.5372 222.574 21.477 224.804 22.2595 226.817C23.5838 230.211 27.4723 232.393 31.0538 231.754C34.6353 231.115 37.5306 227.722 37.5968 224.075C37.663 220.675 35.5683 217.474 35.8211 214.087C36.0077 211.579 37.4764 209.21 37.1634 206.715C36.7902 203.749 34.0454 201.646 33.0763 198.819C32.1072 195.992 33.0402 192.875 32.7031 189.904C32.1011 184.575 29.1517 180.856 23.8125 181.284" fill="#F5F5F5"/>
<path d="M8.88448 207.089C8.38488 212.025 10.5699 217.836 13.104 222.104C15.6382 226.371 19.5748 229.783 24.1435 231.7C24.6612 231.917 25.2992 232.098 25.7326 231.742C26.0878 231.453 26.1299 230.934 26.1359 230.476C26.172 225.28 24.4806 220.084 21.3987 215.901C18.3168 211.718 13.8504 208.577 8.87846 207.083" fill="#EBEBEB"/>
<path d="M30.3675 242.025C30.3675 242.025 30.3134 241.935 30.2291 241.748C30.1388 241.537 30.0184 241.266 29.88 240.94C29.585 240.235 29.1396 239.222 28.5738 237.975C27.4482 235.479 25.7808 232.086 23.674 228.481C21.5673 224.876 19.4304 221.754 17.8172 219.548C17.0106 218.445 16.3425 217.559 15.873 216.956C15.6563 216.673 15.4817 216.438 15.3433 216.251C15.2229 216.088 15.1627 215.998 15.1747 215.992C15.1807 215.986 15.253 216.064 15.3914 216.215C15.5419 216.389 15.7285 216.612 15.9633 216.884C16.4569 217.468 17.1491 218.336 17.9797 219.427C19.6411 221.609 21.808 224.72 23.9208 228.336C26.0276 231.953 27.6769 235.371 28.7544 237.89C29.2961 239.15 29.7114 240.181 29.9763 240.898C30.0967 241.236 30.199 241.507 30.2773 241.724C30.3435 241.917 30.3736 242.019 30.3675 242.019V242.025Z" fill="#E0E0E0"/>
<path d="M27.1954 194.943C27.1954 194.943 27.2255 195.106 27.2496 195.419C27.2736 195.756 27.3098 196.209 27.3459 196.781C27.4241 197.987 27.5325 199.693 27.6649 201.784C27.9297 206.01 28.3029 211.851 28.7604 218.294C29.2119 224.738 29.6573 230.573 29.9884 234.798C30.1509 236.89 30.2773 238.59 30.3676 239.801C30.4037 240.374 30.4398 240.826 30.4579 241.163C30.4759 241.477 30.4819 241.64 30.4699 241.64C30.4579 241.64 30.4338 241.477 30.3977 241.169C30.3616 240.838 30.3134 240.38 30.2532 239.813C30.1388 238.608 29.9823 236.908 29.7837 234.822C29.4045 230.603 28.929 224.774 28.4775 218.324C28.0261 211.881 27.683 206.04 27.4663 201.808C27.3699 199.711 27.2917 198.005 27.2315 196.799C27.2134 196.227 27.1954 195.775 27.1833 195.437C27.1773 195.124 27.1773 194.961 27.1833 194.961L27.1954 194.943Z" fill="#E0E0E0"/>
<path d="M22.6567 234.979H35.0084V244.063C35.0084 247.342 32.3539 250 29.0794 250C25.9252 250 23.3249 247.529 23.1563 244.382L22.6567 234.985V234.979Z" fill="#E0E0E0"/>
<path d="M202.208 19.8252L198.945 50.1386H240.737L244.205 19.8252H202.208Z" fill="#EBEBEB"/>
<path d="M203.929 22.0072L200.751 48.5292H238.468L241.52 22.0072H203.929Z" fill="#FAFAFA"/>
<path d="M210.274 26.4677L208.323 44.0687H232.124L233.346 26.4677H210.274Z" fill="#E0E0E0"/>
<path d="M242.712 32.8813L251.344 50.2592L240.738 50.1386L242.844 31.748" fill="#F5F5F5"/>
<path d="M251.488 53.7492H247.726V63.1766H251.488V53.7492Z" fill="#E0E0E0"/>
<path d="M196.429 53.7492H192.667V63.1766H196.429V53.7492Z" fill="#E0E0E0"/>
<path d="M258.368 50.3195H184.932V54.2978H258.368V50.3195Z" fill="#E0E0E0"/>
<path d="M246.865 248.831C246.865 248.915 191.596 248.987 123.439 248.987C55.2816 248.987 0 248.915 0 248.831C0 248.746 55.2576 248.674 123.439 248.674C191.62 248.674 246.865 248.746 246.865 248.831Z" fill="#263238"/>
<path d="M176.812 161.555C166.429 154.292 164.075 140.808 164.484 128.686C164.551 126.661 164.328 124.533 165.291 122.755C166.254 120.983 168.493 119.765 170.305 120.621C171.804 121.326 172.46 123.074 173.297 124.521C174.41 126.444 176.078 128.035 178.034 129.054C179.322 129.723 180.911 130.133 182.181 129.427C183.921 128.463 184.132 126.052 184.12 124.039C184.095 120.289 184.071 116.54 184.047 112.791C184.035 110.778 184.029 108.722 184.655 106.817C185.281 104.907 186.66 103.134 188.574 102.598C190.488 102.061 192.848 103.165 193.251 105.136C193.419 105.955 193.251 106.805 193.305 107.643C193.359 108.481 193.75 109.403 194.539 109.638C195.34 109.873 196.146 109.301 196.748 108.716C198.825 106.685 200.227 104.069 201.546 101.465C202.864 98.8607 204.14 96.1965 206.018 93.9843C207.902 91.7661 210.502 90.012 213.38 89.8493C216.257 89.6865 219.321 91.4647 220.049 94.2917C220.777 97.1308 219.128 100.006 217.328 102.303C214.662 105.708 211.502 108.722 207.992 111.218C207.36 111.67 206.674 112.152 206.427 112.899C205.988 114.244 207.258 115.576 208.582 116.016C210.081 116.516 211.706 116.359 213.271 116.546C214.836 116.733 216.534 117.42 217.13 118.903C217.954 120.958 216.233 123.116 214.547 124.527C211.164 127.354 207.3 129.59 203.177 131.103C201.696 131.646 200.143 132.122 198.951 133.159C197.759 134.201 197.037 136.01 197.759 137.426C198.482 138.843 200.33 139.301 201.877 139.011C203.424 138.722 204.808 137.884 206.289 137.324C209.052 136.281 212.615 136.468 214.385 138.861C215.547 140.434 215.649 142.616 215.059 144.491C214.469 146.365 213.277 147.975 212.013 149.464C207.589 154.665 201.925 158.849 195.514 161.073C189.11 163.297 183.175 163.9 176.806 161.567" fill="#E52A9C"/>
<path d="M217.154 91.519C217.154 91.519 217.093 91.5913 216.961 91.7119C216.811 91.8445 216.618 92.0193 216.365 92.2423C215.841 92.7064 215.065 93.3936 214.09 94.3098C212.14 96.1302 209.395 98.8608 206.415 102.604C204.922 104.467 203.369 106.582 201.738 108.879C200.113 111.181 198.397 113.647 196.688 116.311C194.978 118.975 193.269 121.826 191.728 124.913C190.951 126.45 190.265 128.059 189.561 129.699C188.863 131.338 188.146 133.002 187.43 134.69C184.577 141.435 182.067 147.957 180.267 154.051C178.461 160.139 177.39 165.781 176.92 170.561C176.439 175.341 176.535 179.247 176.734 181.923C176.836 183.261 176.938 184.304 177.035 185.003C177.071 185.341 177.107 185.606 177.125 185.805C177.143 185.986 177.149 186.076 177.143 186.082C177.137 186.082 177.119 185.992 177.083 185.811C177.053 185.612 177.011 185.353 176.957 185.015C176.836 184.316 176.71 183.279 176.583 181.935C176.343 179.253 176.204 175.335 176.656 170.53C177.095 165.726 178.148 160.06 179.936 153.948C181.718 147.83 184.228 141.29 187.081 134.539C187.803 132.851 188.514 131.187 189.218 129.548C189.922 127.908 190.62 126.287 191.403 124.744C192.95 121.646 194.677 118.782 196.399 116.124C198.121 113.46 199.854 110.995 201.485 108.698C203.129 106.407 204.694 104.298 206.211 102.441C209.226 98.7101 212.007 95.9916 213.994 94.2073C214.987 93.3092 215.775 92.6401 216.317 92.1941C216.576 91.9831 216.78 91.8143 216.937 91.6878C217.075 91.5732 217.154 91.519 217.154 91.525V91.519Z" fill="#263238"/>
<path d="M191.511 124.732C191.511 124.732 191.421 124.43 191.313 123.876C191.204 123.321 191.084 122.514 190.939 121.507C190.657 119.506 190.356 116.721 190.043 113.659C189.724 110.591 189.387 107.824 189.073 105.829C188.917 104.834 188.785 104.026 188.688 103.472C188.592 102.917 188.55 102.604 188.574 102.598C188.598 102.598 188.688 102.893 188.827 103.442C188.971 103.99 189.14 104.792 189.326 105.787C189.706 107.776 190.085 110.548 190.404 113.623C190.711 116.649 190.988 119.385 191.198 121.477C191.301 122.423 191.385 123.219 191.457 123.858C191.517 124.418 191.535 124.732 191.511 124.738V124.732Z" fill="#263238"/>
<path d="M217.34 119.897C217.34 119.897 216.973 119.964 216.311 120.018C215.649 120.078 214.686 120.157 213.506 120.295C211.14 120.548 207.884 121.019 204.314 121.694C200.745 122.375 197.543 123.128 195.237 123.737C194.082 124.033 193.155 124.304 192.517 124.479C191.872 124.659 191.517 124.75 191.511 124.726C191.505 124.702 191.848 124.563 192.474 124.34C193.106 124.117 194.021 123.809 195.171 123.478C197.464 122.797 200.667 122.001 204.248 121.32C207.83 120.645 211.104 120.217 213.482 120.03C214.674 119.928 215.637 119.885 216.305 119.873C216.973 119.861 217.34 119.873 217.34 119.897Z" fill="#263238"/>
<path d="M180.255 153.478C180.255 153.478 180.183 153.376 180.081 153.165C179.96 152.911 179.816 152.604 179.641 152.23C179.262 151.416 178.744 150.223 178.118 148.74C176.872 145.775 175.277 141.627 173.586 137.028C171.888 132.423 170.335 128.27 169.155 125.28C168.578 123.828 168.096 122.634 167.747 121.748C167.596 121.362 167.47 121.043 167.368 120.784C167.283 120.561 167.247 120.446 167.259 120.44C167.271 120.44 167.332 120.542 167.434 120.753C167.554 121.007 167.699 121.314 167.873 121.688C168.253 122.501 168.77 123.695 169.396 125.178C170.642 128.143 172.237 132.291 173.935 136.89C175.632 141.489 177.185 145.648 178.365 148.632C178.943 150.084 179.424 151.278 179.774 152.164C179.924 152.55 180.05 152.869 180.153 153.128C180.237 153.351 180.273 153.472 180.261 153.472L180.255 153.478Z" fill="#263238"/>
<path d="M214.583 142.399C214.583 142.399 214.469 142.459 214.24 142.538C213.969 142.628 213.644 142.737 213.241 142.875C212.32 143.177 211.08 143.58 209.563 144.069C206.457 145.075 202.19 146.516 197.47 148.119C192.751 149.723 188.465 151.121 185.335 152.068C183.77 152.538 182.506 152.911 181.621 153.146C181.212 153.255 180.875 153.339 180.604 153.412C180.369 153.466 180.243 153.49 180.243 153.478C180.243 153.466 180.357 153.418 180.586 153.339C180.851 153.249 181.182 153.14 181.585 153.008C182.506 152.706 183.746 152.309 185.263 151.814C188.369 150.808 192.637 149.367 197.356 147.764C202.075 146.166 206.361 144.762 209.485 143.816C211.05 143.345 212.314 142.972 213.199 142.737C213.608 142.628 213.939 142.544 214.216 142.471C214.451 142.417 214.571 142.393 214.577 142.405L214.583 142.399Z" fill="#263238"/>
<path d="M185.089 159.054C187.183 159.126 189.206 157.848 190.265 156.034C191.325 154.219 191.469 151.959 190.897 149.94C190.633 149.005 190.151 148.035 189.26 147.649C188.429 147.287 187.424 147.553 186.72 148.125C186.016 148.698 185.57 149.53 185.251 150.38C184.156 153.291 183.626 156.311 185.095 159.054" fill="#455A64"/>
<path d="M183.969 164.659C188.387 164.461 192.842 166.546 195.514 170.072C196.194 170.97 196.772 172.206 196.2 173.177C195.628 174.147 194.262 174.237 193.149 174.051C188.526 173.261 184.583 169.403 183.692 164.786" fill="#455A64"/>
<path d="M210.918 156.86C209.846 155.316 208.034 154.394 206.174 154.117C204.321 153.846 202.418 154.171 200.631 154.75C197.176 155.865 194.015 158.602 191.626 161.344C194.828 163.797 199.499 163.568 201.865 163.297C205.597 162.875 212.091 159.843 210.918 156.86Z" fill="#455A64"/>
<path d="M175.783 164.973C176.24 164.792 176.728 164.81 177.528 164.448C179.117 163.725 181.327 162.652 183.409 160.922C185.492 159.186 186.846 157.034 187.388 155.347C187.671 154.503 187.791 153.791 187.821 153.297C187.858 152.803 187.833 152.532 187.809 152.532C187.725 152.52 187.737 153.629 187.117 155.25C186.521 156.866 185.179 158.921 183.15 160.609C181.116 162.303 178.955 163.4 177.408 164.189" fill="#263238"/>
<path d="M175.723 164.991C176.583 164.798 177.709 164.551 179.063 164.25C181.886 163.617 185.787 162.755 190.103 161.863C194.419 160.97 198.343 160.211 201.184 159.668C202.551 159.403 203.682 159.186 204.549 159.017C205.344 158.861 205.777 158.758 205.777 158.728C205.777 158.698 205.326 158.746 204.525 158.861C203.724 158.969 202.569 159.15 201.136 159.385C198.283 159.855 194.346 160.567 190.024 161.465C185.703 162.363 181.808 163.267 179.003 163.972C177.601 164.322 176.469 164.617 175.686 164.84" fill="#263238"/>
<path d="M192.059 170.295C192.059 170.295 191.939 170.06 191.656 169.68C191.517 169.488 191.343 169.259 191.114 169.017C190.885 168.77 190.644 168.475 190.319 168.198C189.718 167.607 188.917 166.986 187.972 166.389C187.015 165.811 185.907 165.262 184.685 164.846C183.457 164.442 182.242 164.213 181.134 164.099C180.02 164.008 179.009 164.02 178.172 164.129C177.751 164.159 177.378 164.243 177.047 164.304C176.716 164.358 176.439 164.436 176.216 164.503C175.765 164.635 175.674 164.804 175.686 164.828C175.704 164.907 176.547 164.533 178.203 164.412C179.027 164.346 180.014 164.364 181.104 164.467C182.187 164.599 183.367 164.834 184.565 165.226C185.757 165.636 186.84 166.16 187.785 166.703C188.718 167.269 189.519 167.854 190.133 168.403C191.379 169.494 191.999 170.331 192.065 170.283L192.059 170.295Z" fill="#263238"/>
<path d="M164.515 198.125L97.3869 197.812C89.315 197.776 82.7961 191.193 82.8322 183.104L83.5425 14.5751C83.5786 6.49189 90.1577 -0.0361389 98.2357 2.74823e-05L165.363 0.313469C173.435 0.349636 179.954 6.93191 179.918 15.0211L179.208 183.55C179.172 191.64 172.599 198.168 164.515 198.131V198.125Z" fill="#263238"/>
<path d="M165.267 6.12421L152.253 6.06393C150.508 6.0579 149.087 7.52867 149.081 9.35507L149.069 11.7179C149.063 13.5443 147.642 15.0211 145.897 15.0091L120.525 14.8945C118.78 14.8885 117.371 13.3997 117.377 11.5733L117.389 9.2104C117.395 7.384 115.987 5.89515 114.241 5.88912L109.666 5.86501L98.2778 5.81076C92.6197 5.78665 88.0149 10.3557 87.9908 16.0217L87.2986 180.518C87.2745 186.178 91.8371 190.79 97.4893 190.82L164.485 191.127C170.143 191.151 174.748 186.582 174.772 180.916L175.464 16.4196C175.488 10.7595 170.925 6.14832 165.273 6.11818L165.267 6.12421Z" fill="#FAFAFA"/>
<path d="M141.093 26.4154L123.811 26.3369L123.797 29.5135L141.078 29.592L141.093 26.4154Z" fill="#455A64"/>
<path d="M103.677 52.399C103.942 52.4292 104.086 52.4352 104.08 52.4593C104.08 52.4352 104.213 52.4352 104.46 52.4051H103.677V52.399Z" fill="#455A64"/>
<path d="M108.414 43.689C108.101 43.261 107.716 42.8692 107.265 42.5497C106.38 41.8867 105.248 41.513 104.08 41.5009C102.913 41.513 101.781 41.8867 100.896 42.5497C100.451 42.8692 100.06 43.261 99.7465 43.689C99.4275 44.1109 99.1747 44.5751 99.0061 45.0512C98.6389 46.0036 98.6088 47.0042 98.7593 47.8963C98.9098 48.7945 99.3011 49.572 99.7585 50.1869C99.8247 50.2773 99.897 50.3496 99.9632 50.434C100.36 49.2948 101.245 48.0229 103.226 47.7215C102.311 47.3418 101.661 46.3954 101.667 45.2863C101.667 43.8457 102.774 42.6824 104.123 42.6884C105.471 42.6944 106.56 43.8698 106.554 45.3104C106.554 46.4135 105.904 47.3478 105.001 47.7276C106.946 48.0229 107.812 49.2827 108.204 50.428C108.27 50.3496 108.336 50.2773 108.402 50.1929C108.86 49.572 109.245 48.7945 109.402 47.9024C109.552 47.0163 109.516 46.0097 109.155 45.0633C108.986 44.5871 108.733 44.123 108.414 43.701V43.689Z" fill="#FAFAFA"/>
<path d="M109.456 44.9427C109.281 44.4364 109.016 43.9421 108.685 43.4901C108.354 43.032 107.945 42.616 107.475 42.2725C106.542 41.5612 105.332 41.1634 104.086 41.1513C102.84 41.1634 101.637 41.5612 100.698 42.2725C100.222 42.616 99.8127 43.032 99.4877 43.4901C99.1506 43.9421 98.8857 44.4364 98.7172 44.9427C98.338 45.9554 98.3199 47.0163 98.4884 47.9506C98.663 48.8909 99.0844 49.7047 99.5719 50.3376C100.577 51.6275 101.853 52.164 102.714 52.3508C103.147 52.4473 103.497 52.4774 103.731 52.4774C103.966 52.4774 104.086 52.4774 104.086 52.4593C104.086 52.4352 103.942 52.4352 103.683 52.399H104.466C104.219 52.4292 104.086 52.4352 104.086 52.4593C104.086 52.4714 104.207 52.4774 104.442 52.4774C104.676 52.4774 105.025 52.4533 105.459 52.3508C106.32 52.164 107.596 51.6215 108.601 50.3376C109.095 49.6986 109.51 48.8909 109.684 47.9506C109.853 47.0163 109.829 45.9554 109.456 44.9427ZM109.402 47.8963C109.251 48.7945 108.86 49.572 108.402 50.1869C108.336 50.2713 108.27 50.3436 108.204 50.422C107.812 49.2767 106.946 48.0169 105.001 47.7215C105.904 47.3418 106.548 46.4075 106.554 45.3044C106.554 43.8638 105.471 42.6884 104.123 42.6823C102.774 42.6763 101.673 43.8397 101.667 45.2803C101.667 46.3894 102.311 47.3358 103.226 47.7155C101.245 48.0169 100.366 49.2827 99.9632 50.428C99.897 50.3496 99.8247 50.2713 99.7585 50.1808C99.3011 49.56 98.9158 48.7824 98.7593 47.8903C98.6088 47.0042 98.645 45.9976 99.0061 45.0452C99.1747 44.569 99.4275 44.1049 99.7465 43.683C100.06 43.255 100.445 42.8632 100.896 42.5437C101.781 41.8807 102.913 41.5069 104.08 41.4949C105.248 41.5069 106.38 41.8807 107.265 42.5437C107.71 42.8632 108.101 43.255 108.414 43.683C108.733 44.1049 108.986 44.569 109.155 45.0452C109.522 45.9976 109.552 46.9982 109.402 47.8843V47.8963Z" fill="#455A64"/>
<path d="M169.119 57.4804C169.119 57.4804 169.294 57.4804 169.619 57.4141C169.938 57.3478 170.432 57.1851 170.901 56.739C171.371 56.305 171.78 55.5395 171.714 54.5871C171.714 53.6287 171.702 52.5316 171.696 51.2899C171.69 48.8065 171.678 45.7746 171.666 42.2544C171.666 41.3743 171.666 40.4641 171.66 39.5238C171.714 38.6076 171.238 37.6612 170.402 37.179C169.571 36.6546 168.493 36.8837 167.446 36.8354C166.393 36.8354 165.309 36.8354 164.208 36.8415C146.487 36.8535 122.024 36.8716 95.0033 36.8957C94.2088 36.8957 93.4383 37.2936 92.9869 37.9385C92.7521 38.258 92.6137 38.6317 92.5595 39.0175C92.5113 39.3912 92.5414 39.8373 92.5294 40.2471C92.5294 41.9168 92.5294 43.5805 92.5294 45.226C92.5294 48.5172 92.5294 51.7661 92.5294 54.9488C92.5535 55.6962 92.9447 56.4135 93.5527 56.8415C93.8476 57.0585 94.1967 57.2092 94.5579 57.2694C94.913 57.3357 95.3103 57.3056 95.7016 57.3116C97.2666 57.3116 98.8136 57.3116 100.349 57.3116C103.412 57.3116 106.416 57.3116 109.341 57.3116C121.049 57.3237 131.595 57.3357 140.455 57.3478C149.304 57.3719 156.467 57.39 161.433 57.4021C163.901 57.4141 165.821 57.4262 167.133 57.4322C167.777 57.4382 168.271 57.4442 168.614 57.4503C168.951 57.4503 169.119 57.4684 169.119 57.4684C169.119 57.4684 168.951 57.4804 168.614 57.4864C168.271 57.4864 167.777 57.4985 167.133 57.5045C165.821 57.5106 163.901 57.5226 161.433 57.5347C156.467 57.5467 149.31 57.5648 140.455 57.5889C131.595 57.601 121.055 57.613 109.341 57.6251C106.416 57.6251 103.412 57.6251 100.349 57.6251C98.8136 57.6251 97.2666 57.6251 95.7016 57.6251C95.3103 57.619 94.9191 57.6492 94.4977 57.5769C94.0824 57.5045 93.6911 57.3357 93.348 57.0886C92.6618 56.6004 92.2164 55.7866 92.1863 54.9367C92.1863 51.742 92.1863 48.4931 92.1803 45.1959C92.1803 43.5503 92.1803 41.8867 92.1803 40.217C92.1923 39.7951 92.1562 39.3972 92.2104 38.9391C92.2766 38.4991 92.4331 38.0651 92.6979 37.7034C93.2096 36.9681 94.1004 36.5099 95.0033 36.5099C122.024 36.528 146.487 36.5461 164.208 36.5642C165.315 36.5642 166.393 36.5642 167.446 36.5702C167.97 36.5702 168.493 36.5702 169.005 36.5702C169.529 36.5521 170.071 36.6848 170.51 36.956C171.419 37.4804 171.931 38.5232 171.864 39.4876C171.864 40.428 171.864 41.3382 171.858 42.2182C171.846 45.7384 171.834 48.7703 171.828 51.2538C171.822 52.4895 171.816 53.5925 171.81 54.5509C171.87 55.5274 171.437 56.3231 170.943 56.7571C170.45 57.2092 169.944 57.3599 169.619 57.4141C169.288 57.4684 169.113 57.4442 169.113 57.4442L169.119 57.4804Z" fill="#455A64"/>
<path d="M134.358 42.1097H114.807V43.5805H134.358V42.1097Z" fill="#455A64"/>
<path d="M149.057 50.4099H114.807V51.8807H149.057V50.4099Z" fill="#455A64"/>
<path d="M164.442 46.1604H114.807V47.6312H164.442V46.1604Z" fill="#455A64"/>
<path d="M103.677 104.34C103.942 104.37 104.086 104.376 104.08 104.4C104.08 104.376 104.213 104.376 104.46 104.346H103.677V104.34Z" fill="#455A64"/>
<path d="M108.414 95.6239C108.101 95.196 107.716 94.8041 107.265 94.4847C106.38 93.8216 105.248 93.4479 104.08 93.4359C102.913 93.4479 101.781 93.8216 100.896 94.4847C100.451 94.8041 100.06 95.196 99.7465 95.6239C99.4275 96.0459 99.1747 96.51 99.0061 96.9862C98.6389 97.9386 98.6088 98.9392 98.7593 99.8313C98.9098 100.723 99.3011 101.507 99.7585 102.122C99.8247 102.212 99.897 102.285 99.9632 102.369C100.36 101.23 101.245 99.9579 103.226 99.6565C102.311 99.2767 101.661 98.3304 101.667 97.2213C101.667 95.7806 102.774 94.6173 104.123 94.6233C105.471 94.6293 106.56 95.8048 106.554 97.2454C106.554 98.3485 105.904 99.2827 105.001 99.6625C106.946 99.9579 107.812 101.218 108.204 102.363C108.27 102.285 108.336 102.212 108.402 102.128C108.86 101.507 109.245 100.729 109.402 99.8373C109.552 98.9512 109.516 97.9446 109.155 96.9982C108.986 96.5221 108.733 96.0579 108.414 95.636V95.6239Z" fill="#FAFAFA"/>
<path d="M109.456 96.8837C109.281 96.3774 109.016 95.8831 108.685 95.431C108.354 94.9729 107.945 94.557 107.475 94.2134C106.542 93.5022 105.332 93.1043 104.086 93.0923C102.84 93.1043 101.637 93.5022 100.698 94.2134C100.222 94.557 99.8127 94.9729 99.4877 95.431C99.1506 95.8831 98.8857 96.3774 98.7172 96.8837C98.338 97.8964 98.3199 98.9573 98.4884 99.8916C98.663 100.832 99.0844 101.646 99.5719 102.279C100.577 103.568 101.853 104.105 102.714 104.292C103.147 104.388 103.497 104.418 103.731 104.418C103.966 104.418 104.086 104.418 104.086 104.4C104.086 104.376 103.942 104.376 103.683 104.34H104.466C104.219 104.37 104.086 104.376 104.086 104.4C104.086 104.412 104.207 104.418 104.442 104.418C104.676 104.418 105.025 104.394 105.459 104.292C106.32 104.105 107.596 103.562 108.601 102.279C109.095 101.64 109.51 100.832 109.684 99.8916C109.853 98.9573 109.829 97.8964 109.456 96.8837ZM109.402 99.8313C109.251 100.729 108.86 101.507 108.402 102.122C108.336 102.206 108.27 102.279 108.204 102.357C107.812 101.212 106.946 99.9518 105.001 99.6565C105.904 99.2767 106.548 98.3424 106.554 97.2394C106.554 95.7987 105.471 94.6233 104.123 94.6173C102.774 94.6113 101.673 95.7746 101.667 97.2152C101.667 98.3244 102.311 99.2707 103.226 99.6505C101.245 99.9518 100.366 101.218 99.9632 102.363C99.897 102.285 99.8247 102.206 99.7585 102.116C99.3011 101.495 98.9158 100.717 98.7593 99.8253C98.6088 98.9332 98.645 97.9325 99.0061 96.9802C99.1747 96.504 99.4275 96.0398 99.7465 95.6179C100.06 95.1899 100.445 94.7981 100.896 94.4787C101.781 93.8156 102.913 93.4419 104.08 93.4298C105.248 93.4419 106.38 93.8156 107.265 94.4787C107.71 94.7981 108.101 95.1899 108.414 95.6179C108.733 96.0398 108.986 96.504 109.155 96.9802C109.522 97.9325 109.552 98.9332 109.402 99.8192V99.8313Z" fill="#455A64"/>
<path d="M169.119 109.421C169.119 109.421 169.294 109.421 169.619 109.355C169.938 109.289 170.432 109.126 170.901 108.68C171.371 108.246 171.78 107.48 171.714 106.528C171.714 105.57 171.702 104.473 171.696 103.231C171.69 100.747 171.678 97.7155 171.666 94.1954C171.666 93.3153 171.666 92.4051 171.66 91.4648C171.714 90.5486 171.238 89.6022 170.402 89.12C169.571 88.5956 168.493 88.8246 167.446 88.7764C166.393 88.7764 165.309 88.7764 164.208 88.7824C146.487 88.7945 122.024 88.8126 95.0033 88.8367C94.2088 88.8367 93.4383 89.2345 92.9869 89.8795C92.7521 90.199 92.6137 90.5727 92.5595 90.9585C92.5113 91.3322 92.5414 91.7782 92.5294 92.1881C92.5294 93.8578 92.5294 95.5214 92.5294 97.167C92.5294 100.458 92.5294 103.707 92.5294 106.89C92.5535 107.637 92.9447 108.354 93.5527 108.782C93.8476 108.999 94.1967 109.15 94.5579 109.21C94.913 109.277 95.3103 109.247 95.7016 109.253C97.2666 109.253 98.8136 109.253 100.349 109.253C103.412 109.253 106.416 109.253 109.341 109.253C121.049 109.265 131.595 109.277 140.455 109.289C149.304 109.313 156.467 109.331 161.433 109.343C163.901 109.355 165.821 109.367 167.133 109.373C167.777 109.379 168.271 109.385 168.614 109.391C168.951 109.391 169.119 109.409 169.119 109.409C169.119 109.409 168.951 109.421 168.614 109.427C168.271 109.427 167.777 109.439 167.133 109.446C165.821 109.452 163.901 109.464 161.433 109.476C156.467 109.488 149.31 109.506 140.455 109.53C131.595 109.542 121.055 109.554 109.341 109.566C106.416 109.566 103.412 109.566 100.349 109.566C98.8136 109.566 97.2666 109.566 95.7016 109.566C95.3103 109.56 94.9191 109.59 94.4977 109.518C94.0824 109.445 93.6911 109.277 93.348 109.03C92.6618 108.541 92.2164 107.728 92.1863 106.878C92.1863 103.683 92.1863 100.434 92.1803 97.1369C92.1803 95.4913 92.1803 93.8277 92.1803 92.158C92.1923 91.736 92.1562 91.3382 92.2104 90.8801C92.2766 90.4401 92.4331 90.0061 92.6979 89.6444C93.2096 88.909 94.1004 88.4509 95.0033 88.4509C122.024 88.469 146.487 88.4871 164.208 88.5052C165.315 88.5052 166.393 88.5052 167.446 88.5112C167.97 88.5112 168.493 88.5112 169.005 88.5112C169.529 88.4931 170.071 88.6257 170.51 88.897C171.419 89.4214 171.931 90.4642 171.864 91.4286C171.864 92.3689 171.864 93.2791 171.858 94.1592C171.846 97.6794 171.834 100.711 171.828 103.195C171.822 104.43 171.816 105.534 171.81 106.492C171.87 107.468 171.437 108.264 170.943 108.698C170.45 109.15 169.944 109.301 169.619 109.355C169.288 109.409 169.113 109.385 169.113 109.385L169.119 109.421Z" fill="#455A64"/>
<path d="M134.358 94.0507H114.807V95.5214H134.358V94.0507Z" fill="#455A64"/>
<path d="M149.057 102.345H114.807V103.816H149.057V102.345Z" fill="#455A64"/>
<path d="M164.442 98.0953H114.807V99.566H164.442V98.0953Z" fill="#455A64"/>
<path d="M92.5417 64.3898L92.497 80.4175C92.4933 81.7258 93.5495 82.7893 94.8559 82.793L169.532 83.0018C170.838 83.0055 171.9 81.9478 171.904 80.6395L171.949 64.6119C171.952 63.3036 170.896 62.24 169.59 62.2364L94.9139 62.0276C93.6074 62.0239 92.5453 63.0815 92.5417 64.3898Z" fill="#E52A9C"/>
<path d="M134.554 67.537L115.003 67.4823L114.999 68.9531L134.55 69.0077L134.554 67.537Z" fill="#FAFAFA"/>
<path d="M149.23 75.8721L114.98 75.7764L114.976 77.2471L149.226 77.3429L149.23 75.8721Z" fill="#FAFAFA"/>
<path d="M164.627 71.6657L114.992 71.5269L114.988 72.9976L164.623 73.1364L164.627 71.6657Z" fill="#FAFAFA"/>
<path d="M105.2 73.044C106.097 72.6462 106.717 71.6998 106.699 70.5967C106.675 69.1561 105.561 68.0048 104.207 68.0289C102.858 68.053 101.781 69.2405 101.811 70.6811C101.829 71.7902 102.497 72.7245 103.418 73.0862C101.366 73.4418 100.523 74.8222 100.168 76.0036C101.047 76.956 102.251 77.601 103.599 77.7637L105.104 77.7396C106.47 77.5286 107.662 76.8294 108.505 75.8228C108.113 74.6534 107.223 73.3153 105.194 73.05L105.2 73.044Z" fill="#FAFAFA"/>
<path d="M104.381 77.806C104.381 77.7698 104.875 77.7818 105.718 77.5407C106.542 77.3057 107.752 76.7149 108.661 75.4431C109.107 74.8102 109.48 74.0266 109.612 73.1224C109.745 72.2303 109.69 71.2237 109.305 70.2773C109.125 69.8011 108.866 69.343 108.535 68.9271C108.216 68.5052 107.818 68.1194 107.361 67.812C106.464 67.167 105.314 66.8174 104.147 66.8295C102.973 66.8656 101.847 67.2635 100.974 67.9506C100.529 68.2821 100.15 68.68 99.8489 69.12C99.5419 69.554 99.2951 70.0181 99.1386 70.5064C98.7955 71.4708 98.7834 72.4714 98.952 73.3635C99.1265 74.2556 99.5298 75.0272 100.005 75.636C100.968 76.8656 102.202 77.4021 103.039 77.601C103.888 77.806 104.387 77.7638 104.387 77.806C104.387 77.806 103.894 77.8903 103.015 77.7216C102.154 77.5528 100.866 77.0344 99.8368 75.7746C99.3312 75.1477 98.8978 74.346 98.7052 73.4117C98.5186 72.4835 98.5186 71.4286 98.8737 70.4099C99.0362 69.8976 99.2891 69.4033 99.6141 68.9452C99.9331 68.4811 100.33 68.0591 100.8 67.7095C101.715 66.9862 102.913 66.5582 104.153 66.5221C105.393 66.504 106.603 66.8777 107.554 67.5648C108.035 67.8964 108.45 68.3002 108.788 68.7523C109.131 69.1984 109.408 69.6806 109.588 70.1869C109.985 71.1875 110.034 72.2424 109.883 73.1767C109.733 74.117 109.329 74.9368 108.854 75.5817C107.879 76.8897 106.615 77.4564 105.766 77.6673C104.893 77.8783 104.393 77.812 104.393 77.812L104.381 77.806Z" fill="#FAFAFA"/>
<path d="M127.351 175.389C127.351 176.046 126.725 176.576 125.967 176.57C125.202 176.57 124.588 176.034 124.588 175.377C124.588 174.72 125.214 174.189 125.973 174.195C126.737 174.195 127.351 174.732 127.351 175.389Z" fill="#455A64"/>
<path d="M131.637 175.407C131.637 176.064 131.011 176.594 130.253 176.588C129.494 176.582 128.874 176.052 128.874 175.395C128.874 174.738 129.5 174.207 130.259 174.213C131.023 174.213 131.637 174.75 131.637 175.407Z" fill="#455A64"/>
<path d="M135.917 175.425C135.917 176.082 135.291 176.612 134.532 176.606C133.768 176.606 133.154 176.07 133.154 175.413C133.154 174.756 133.78 174.225 134.538 174.231C135.303 174.231 135.917 174.768 135.917 175.425Z" fill="#455A64"/>
<path d="M103.677 131.278C103.942 131.308 104.086 131.314 104.08 131.338C104.08 131.314 104.213 131.314 104.46 131.284H103.677V131.278Z" fill="#455A64"/>
<path d="M108.414 122.562C108.101 122.134 107.716 121.742 107.265 121.423C106.38 120.76 105.248 120.386 104.08 120.374C102.913 120.386 101.781 120.76 100.896 121.423C100.451 121.742 100.06 122.134 99.7465 122.562C99.4275 122.984 99.1747 123.448 99.0061 123.924C98.6389 124.876 98.6088 125.877 98.7593 126.769C98.9098 127.661 99.3011 128.445 99.7585 129.06C99.8247 129.15 99.897 129.222 99.9632 129.307C100.36 128.168 101.245 126.896 103.226 126.594C102.311 126.215 101.661 125.268 101.667 124.159C101.667 122.719 102.774 121.555 104.123 121.561C105.471 121.567 106.56 122.743 106.554 124.183C106.554 125.286 105.904 126.221 105.001 126.6C106.946 126.896 107.812 128.156 108.204 129.301C108.27 129.222 108.336 129.15 108.402 129.066C108.86 128.445 109.245 127.667 109.402 126.775C109.552 125.889 109.516 124.883 109.155 123.936C108.986 123.46 108.733 122.996 108.414 122.574V122.562Z" fill="#FAFAFA"/>
<path d="M109.456 123.816C109.281 123.309 109.016 122.815 108.685 122.363C108.354 121.905 107.945 121.489 107.475 121.145C106.542 120.434 105.332 120.036 104.086 120.024C102.84 120.036 101.637 120.434 100.698 121.145C100.222 121.489 99.8127 121.905 99.4877 122.363C99.1506 122.815 98.8857 123.309 98.7172 123.816C98.338 124.828 98.3199 125.889 98.4884 126.823C98.663 127.764 99.0844 128.577 99.5719 129.21C100.577 130.5 101.853 131.037 102.714 131.224C103.147 131.32 103.497 131.35 103.731 131.35C103.966 131.35 104.086 131.35 104.086 131.332C104.086 131.308 103.942 131.308 103.683 131.272H104.466C104.219 131.302 104.086 131.308 104.086 131.332C104.086 131.344 104.207 131.35 104.442 131.35C104.676 131.35 105.025 131.326 105.459 131.224C106.32 131.037 107.596 130.494 108.601 129.21C109.095 128.571 109.51 127.764 109.684 126.823C109.853 125.889 109.829 124.828 109.456 123.816ZM109.402 126.769C109.251 127.667 108.86 128.445 108.402 129.06C108.336 129.144 108.27 129.216 108.204 129.295C107.812 128.149 106.946 126.89 105.001 126.594C105.904 126.215 106.548 125.28 106.554 124.177C106.554 122.737 105.471 121.561 104.123 121.555C102.774 121.549 101.673 122.712 101.667 124.153C101.667 125.262 102.311 126.209 103.226 126.588C101.245 126.89 100.366 128.156 99.9632 129.301C99.897 129.222 99.8247 129.144 99.7585 129.054C99.3011 128.433 98.9158 127.655 98.7593 126.763C98.6088 125.871 98.645 124.87 99.0061 123.918C99.1747 123.442 99.4275 122.978 99.7465 122.556C100.06 122.128 100.445 121.736 100.896 121.417C101.781 120.753 102.913 120.38 104.08 120.368C105.248 120.38 106.38 120.753 107.265 121.417C107.71 121.736 108.101 122.128 108.414 122.556C108.733 122.978 108.986 123.442 109.155 123.918C109.522 124.87 109.552 125.871 109.402 126.757V126.769Z" fill="#455A64"/>
<path d="M169.119 136.359C169.119 136.359 169.294 136.359 169.619 136.293C169.938 136.227 170.432 136.064 170.901 135.618C171.371 135.184 171.78 134.418 171.714 133.466C171.714 132.508 171.702 131.41 171.696 130.169C171.69 127.685 171.678 124.653 171.666 121.133C171.666 120.253 171.666 119.343 171.66 118.403C171.714 117.486 171.238 116.54 170.402 116.058C169.571 115.533 168.493 115.763 167.446 115.714C166.393 115.714 165.309 115.714 164.208 115.72C146.487 115.732 122.024 115.75 95.0033 115.775C94.2088 115.775 93.4383 116.172 92.9869 116.817C92.7521 117.137 92.6137 117.511 92.5595 117.896C92.5113 118.27 92.5414 118.716 92.5294 119.126C92.5294 120.796 92.5294 122.459 92.5294 124.105C92.5294 127.396 92.5294 130.645 92.5294 133.828C92.5535 134.575 92.9447 135.292 93.5527 135.72C93.8476 135.937 94.1967 136.088 94.5579 136.148C94.913 136.215 95.3103 136.184 95.7016 136.19C97.2666 136.19 98.8136 136.19 100.349 136.19C103.412 136.19 106.416 136.19 109.341 136.19C121.049 136.203 131.595 136.215 140.455 136.227C149.304 136.251 156.467 136.269 161.433 136.281C163.901 136.293 165.821 136.305 167.133 136.311C167.777 136.317 168.271 136.323 168.614 136.329C168.951 136.329 169.119 136.347 169.119 136.347C169.119 136.347 168.951 136.359 168.614 136.365C168.271 136.365 167.777 136.377 167.133 136.383C165.821 136.389 163.901 136.401 161.433 136.414C156.467 136.426 149.31 136.444 140.455 136.468C131.595 136.48 121.055 136.492 109.341 136.504C106.416 136.504 103.412 136.504 100.349 136.504C98.8136 136.504 97.2666 136.504 95.7016 136.504C95.3103 136.498 94.9191 136.528 94.4977 136.456C94.0824 136.383 93.6911 136.215 93.348 135.967C92.6618 135.479 92.2164 134.665 92.1863 133.816C92.1863 130.621 92.1863 127.372 92.1803 124.075C92.1803 122.429 92.1803 120.766 92.1803 119.096C92.1923 118.674 92.1562 118.276 92.2104 117.818C92.2766 117.378 92.4331 116.944 92.6979 116.582C93.2096 115.847 94.1004 115.389 95.0033 115.389C122.024 115.407 146.487 115.425 164.208 115.443C165.315 115.443 166.393 115.443 167.446 115.449C167.97 115.449 168.493 115.449 169.005 115.449C169.529 115.431 170.071 115.564 170.51 115.835C171.419 116.359 171.931 117.402 171.864 118.366C171.864 119.307 171.864 120.217 171.858 121.097C171.846 124.617 171.834 127.649 171.828 130.133C171.822 131.368 171.816 132.471 171.81 133.43C171.87 134.406 171.437 135.202 170.943 135.636C170.45 136.088 169.944 136.239 169.619 136.293C169.288 136.347 169.113 136.323 169.113 136.323L169.119 136.359Z" fill="#455A64"/>
<path d="M134.358 120.989H114.807V122.459H134.358V120.989Z" fill="#455A64"/>
<path d="M149.057 129.283H114.807V130.753H149.057V129.283Z" fill="#455A64"/>
<path d="M164.442 125.033H114.807V126.504H164.442V125.033Z" fill="#455A64"/>
<path d="M103.677 157.679C103.942 157.709 104.086 157.715 104.08 157.74C104.08 157.715 104.213 157.715 104.46 157.685H103.677V157.679Z" fill="#455A64"/>
<path d="M108.414 148.963C108.101 148.535 107.716 148.144 107.265 147.824C106.38 147.161 105.248 146.787 104.08 146.775C102.913 146.787 101.781 147.161 100.896 147.824C100.451 148.144 100.06 148.535 99.7465 148.963C99.4275 149.385 99.1747 149.849 99.0061 150.326C98.6389 151.278 98.6088 152.279 98.7593 153.171C98.9098 154.069 99.3011 154.846 99.7585 155.461C99.8247 155.552 99.897 155.624 99.9632 155.708C100.36 154.569 101.245 153.297 103.226 152.996C102.311 152.616 101.661 151.67 101.667 150.561C101.667 149.12 102.774 147.957 104.123 147.963C105.471 147.969 106.56 149.144 106.554 150.585C106.554 151.688 105.904 152.622 105.001 153.002C106.946 153.297 107.812 154.557 108.204 155.702C108.27 155.624 108.336 155.552 108.402 155.467C108.86 154.846 109.245 154.069 109.402 153.177C109.552 152.291 109.516 151.284 109.155 150.338C108.986 149.861 108.733 149.397 108.414 148.975V148.963Z" fill="#FAFAFA"/>
<path d="M109.456 150.217C109.281 149.711 109.016 149.216 108.685 148.764C108.354 148.306 107.945 147.89 107.475 147.547C106.542 146.835 105.332 146.438 104.086 146.426C102.84 146.438 101.637 146.835 100.698 147.547C100.222 147.89 99.8127 148.306 99.4877 148.764C99.1506 149.216 98.8857 149.711 98.7172 150.217C98.338 151.23 98.3199 152.291 98.4884 153.225C98.663 154.165 99.0844 154.979 99.5719 155.612C100.577 156.902 101.853 157.438 102.714 157.625C103.147 157.722 103.497 157.752 103.731 157.752C103.966 157.752 104.086 157.752 104.086 157.734C104.086 157.71 103.942 157.709 103.683 157.673H104.466C104.219 157.703 104.086 157.71 104.086 157.734C104.086 157.746 104.207 157.752 104.442 157.752C104.676 157.752 105.025 157.728 105.459 157.625C106.32 157.438 107.596 156.896 108.601 155.612C109.095 154.973 109.51 154.165 109.684 153.225C109.853 152.291 109.829 151.23 109.456 150.217ZM109.402 153.171C109.251 154.069 108.86 154.846 108.402 155.461C108.336 155.546 108.27 155.618 108.204 155.696C107.812 154.551 106.946 153.291 105.001 152.996C105.904 152.616 106.548 151.682 106.554 150.579C106.554 149.138 105.471 147.963 104.123 147.957C102.774 147.951 101.673 149.114 101.667 150.555C101.667 151.664 102.311 152.61 103.226 152.99C101.245 153.291 100.366 154.557 99.9632 155.702C99.897 155.624 99.8247 155.546 99.7585 155.455C99.3011 154.834 98.9158 154.057 98.7593 153.165C98.6088 152.279 98.645 151.272 99.0061 150.32C99.1747 149.843 99.4275 149.379 99.7465 148.957C100.06 148.529 100.445 148.137 100.896 147.818C101.781 147.155 102.913 146.781 104.08 146.769C105.248 146.781 106.38 147.155 107.265 147.818C107.71 148.137 108.101 148.529 108.414 148.957C108.733 149.379 108.986 149.843 109.155 150.32C109.522 151.272 109.552 152.272 109.402 153.159V153.171Z" fill="#455A64"/>
<path d="M169.119 162.755C169.119 162.755 169.294 162.755 169.619 162.688C169.938 162.622 170.432 162.459 170.901 162.013C171.371 161.579 171.78 160.814 171.714 159.861C171.714 158.903 171.702 157.806 171.696 156.564C171.69 154.081 171.678 151.049 171.666 147.529C171.666 146.649 171.666 145.738 171.66 144.798C171.714 143.882 171.238 142.936 170.402 142.453C169.571 141.929 168.493 142.158 167.446 142.11C166.393 142.11 165.309 142.11 164.208 142.116C146.487 142.128 122.024 142.146 95.0033 142.17C94.2088 142.17 93.4383 142.568 92.9869 143.213C92.7521 143.532 92.6137 143.906 92.5595 144.292C92.5113 144.665 92.5414 145.112 92.5294 145.521C92.5294 147.191 92.5294 148.855 92.5294 150.5C92.5294 153.791 92.5294 157.04 92.5294 160.223C92.5535 160.97 92.9447 161.688 93.5527 162.116C93.8476 162.333 94.1967 162.483 94.5579 162.544C94.913 162.61 95.3103 162.58 95.7016 162.586C97.2666 162.586 98.8136 162.586 100.349 162.586C103.412 162.586 106.416 162.586 109.341 162.586C121.049 162.598 131.595 162.61 140.455 162.622C149.304 162.646 156.467 162.664 161.433 162.676C163.901 162.688 165.821 162.7 167.133 162.706C167.777 162.713 168.271 162.719 168.614 162.725C168.951 162.725 169.119 162.743 169.119 162.743C169.119 162.743 168.951 162.755 168.614 162.761C168.271 162.761 167.777 162.773 167.133 162.779C165.821 162.785 163.901 162.797 161.433 162.809C156.467 162.821 149.31 162.839 140.455 162.863C131.595 162.875 121.055 162.887 109.341 162.899C106.416 162.899 103.412 162.899 100.349 162.899C98.8136 162.899 97.2666 162.899 95.7016 162.899C95.3103 162.893 94.9191 162.923 94.4977 162.851C94.0824 162.779 93.6911 162.61 93.348 162.363C92.6618 161.875 92.2164 161.061 92.1863 160.211C92.1863 157.016 92.1863 153.767 92.1803 150.47C92.1803 148.825 92.1803 147.161 92.1803 145.491C92.1923 145.069 92.1562 144.672 92.2104 144.213C92.2766 143.773 92.4331 143.339 92.6979 142.978C93.2096 142.242 94.1004 141.784 95.0033 141.784C122.024 141.802 146.487 141.82 164.208 141.838C165.315 141.838 166.393 141.838 167.446 141.845C167.97 141.845 168.493 141.845 169.005 141.845C169.529 141.826 170.071 141.959 170.51 142.23C171.419 142.755 171.931 143.797 171.864 144.768C171.864 145.708 171.864 146.618 171.858 147.499C171.846 151.019 171.834 154.051 171.828 156.534C171.822 157.77 171.816 158.873 171.81 159.831C171.87 160.808 171.437 161.603 170.943 162.037C170.45 162.489 169.944 162.64 169.619 162.694C169.288 162.749 169.113 162.725 169.113 162.725L169.119 162.755Z" fill="#455A64"/>
<path d="M134.358 147.39H114.807V148.861H134.358V147.39Z" fill="#455A64"/>
<path d="M149.057 155.684H114.807V157.155H149.057V155.684Z" fill="#455A64"/>
<path d="M164.442 151.435H114.807V152.905H164.442V151.435Z" fill="#455A64"/>
<path d="M169.354 67.7577C171.568 67.7577 173.363 65.9604 173.363 63.7432C173.363 61.5261 171.568 59.7288 169.354 59.7288C167.14 59.7288 165.345 61.5261 165.345 63.7432C165.345 65.9604 167.14 67.7577 169.354 67.7577Z" fill="#263238"/>
<path d="M167.386 63.4177L169.071 64.9006L171.316 62.5799" stroke="#FAFAFA" stroke-linecap="round" stroke-linejoin="round"/>
<path d="M58.2552 242.477L57.274 248.192L66.0623 248.831L66.0924 243.219L58.2552 242.477Z" fill="#E52A9C"/>
<path d="M62.216 242.556C62.2882 242.562 62.2159 243.731 62.0594 245.166C61.9029 246.6 61.7103 247.752 61.6381 247.746C61.5659 247.74 61.6381 246.57 61.7946 245.136C61.9511 243.701 62.1437 242.55 62.216 242.556Z" fill="#263238"/>
<path d="M66.0624 248.216C66.0564 248.252 65.5688 248.204 64.7923 248.119C63.9135 248.023 62.8842 247.908 61.7405 247.782C60.5487 247.643 59.4652 247.498 58.6887 247.366C57.9122 247.233 57.4367 247.119 57.4427 247.083C57.4487 247.046 57.9363 247.095 58.7128 247.179C59.5916 247.275 60.6209 247.39 61.7706 247.517C62.9624 247.655 64.0399 247.8 64.8224 247.932C65.5989 248.065 66.0744 248.18 66.0684 248.216H66.0624Z" fill="#263238"/>
<path d="M89.9772 245.594L89.9953 240.476L80.4185 240.386L80.3162 247.872L80.9121 247.914C83.5546 248.089 94.3533 248.602 96.123 248.083C98.0973 247.504 89.9832 245.594 89.9832 245.594H89.9772Z" fill="#E52A9C"/>
<g opacity="0.38">
<path d="M83.7833 247.83C83.6569 247.028 83.2175 246.281 82.5794 245.775C81.9414 245.268 81.1589 244.997 80.3463 245.057L80.3162 247.74L83.7773 247.836L83.7833 247.83Z" fill="black"/>
</g>
<g opacity="0.38">
<path d="M93.9379 246.673C93.9379 246.673 96.7791 247.523 96.4239 247.993C96.0628 248.457 85.1316 248.348 80.3162 247.878L80.3342 247.661L93.0832 247.896C93.0832 247.896 93.3842 246.691 93.944 246.673H93.9379Z" fill="black"/>
</g>
<path d="M80.1837 247.655C80.1837 247.655 80.2379 247.667 80.3462 247.673C80.4907 247.685 80.6412 247.691 80.8157 247.71C81.2913 247.734 81.8691 247.764 82.5553 247.8C84.024 247.866 86.0586 247.933 88.2978 247.957C90.543 247.981 92.5775 247.957 94.0463 247.92C94.7325 247.896 95.3163 247.878 95.7858 247.866C95.9604 247.86 96.1169 247.848 96.2614 247.842C96.3697 247.836 96.4239 247.83 96.4239 247.824C96.4239 247.824 96.3697 247.818 96.2614 247.818C96.1169 247.818 95.9664 247.818 95.7858 247.818C95.3103 247.818 94.7325 247.83 94.0463 247.836C92.5775 247.848 90.543 247.86 88.3038 247.836C86.0586 247.812 84.0301 247.758 82.5614 247.71C81.8751 247.685 81.2913 247.667 80.8218 247.655C80.6472 247.655 80.4907 247.649 80.3462 247.643C80.2379 247.643 80.1837 247.643 80.1837 247.643V247.655Z" fill="#263238"/>
<path d="M93.0771 248.047C93.1133 248.047 93.1434 247.637 93.4082 247.221C93.667 246.799 94.0282 246.588 94.0101 246.558C94.0041 246.528 93.5888 246.703 93.3119 247.155C93.029 247.601 93.047 248.053 93.0771 248.047Z" fill="#263238"/>
<path d="M90.2661 246.582C90.2661 246.582 90.4286 246.438 90.5731 246.215C90.7175 245.998 90.8078 245.805 90.7837 245.787C90.7597 245.769 90.6212 245.931 90.4768 246.154C90.3323 246.371 90.242 246.564 90.2661 246.582Z" fill="#263238"/>
<path d="M89.4956 246.166C89.4956 246.166 89.6702 246.088 89.8327 245.943C90.0013 245.799 90.1156 245.66 90.0976 245.636C90.0795 245.612 89.923 245.708 89.7605 245.859C89.592 246.004 89.4776 246.142 89.4956 246.166Z" fill="#263238"/>
<path d="M89.014 245.256C89.014 245.286 89.2368 245.316 89.5136 245.322C89.7905 245.322 90.0132 245.304 90.0132 245.274C90.0132 245.244 89.7905 245.214 89.5136 245.208C89.2368 245.208 89.014 245.226 89.014 245.256Z" fill="#263238"/>
<path d="M88.8516 244.617C88.8516 244.617 89.0803 244.756 89.4053 244.786C89.7304 244.816 89.9892 244.744 89.9832 244.714C89.9832 244.678 89.7244 244.696 89.4174 244.672C89.1104 244.647 88.8636 244.587 88.8516 244.617Z" fill="#263238"/>
<path d="M90.5972 245.75C90.5972 245.75 90.8319 245.793 91.2111 245.75C91.4038 245.732 91.6265 245.684 91.8672 245.612C91.9876 245.57 92.114 245.539 92.2465 245.461C92.3067 245.419 92.3789 245.365 92.403 245.274C92.427 245.184 92.3789 245.075 92.3127 245.027C91.7288 244.714 91.1329 245.039 90.9162 245.341C90.7958 245.497 90.7356 245.648 90.7115 245.75C90.6875 245.853 90.6875 245.913 90.6935 245.919C90.7176 245.925 90.7356 245.678 90.9764 245.395C91.0968 245.256 91.2774 245.124 91.5061 245.057C91.7228 244.997 92.0358 244.979 92.2405 245.118C92.3368 245.19 92.3006 245.304 92.1863 245.371C92.0839 245.437 91.9515 245.473 91.8372 245.515C91.6024 245.594 91.3857 245.642 91.1991 245.672C90.8319 245.732 90.5972 245.732 90.5972 245.75Z" fill="#263238"/>
<path d="M90.7597 245.781C90.7597 245.781 90.862 245.63 90.8319 245.353C90.8199 245.214 90.7717 245.057 90.6694 244.901C90.561 244.762 90.4226 244.575 90.1577 244.581C90.0133 244.599 89.9411 244.762 89.9651 244.864C89.9772 244.973 90.0253 245.063 90.0675 245.142C90.1578 245.298 90.2601 245.425 90.3564 245.515C90.549 245.708 90.6995 245.781 90.7055 245.769C90.7175 245.756 90.5851 245.654 90.4166 245.461C90.3323 245.365 90.242 245.238 90.1638 245.087C90.0795 244.955 90.0253 244.72 90.1818 244.696C90.3383 244.684 90.4888 244.84 90.5851 244.961C90.6814 245.093 90.7356 245.238 90.7537 245.365C90.7958 245.618 90.7416 245.775 90.7537 245.781H90.7597Z" fill="#263238"/>
<path d="M80.4004 245.033C80.4004 245.033 80.6773 245.009 81.1047 245.063C81.5321 245.118 82.128 245.298 82.6396 245.714C83.1512 246.136 83.4522 246.679 83.5907 247.089C83.7351 247.499 83.7411 247.776 83.7652 247.776C83.7712 247.776 83.7773 247.709 83.7652 247.583C83.7592 247.456 83.7291 247.282 83.6689 247.065C83.5485 246.637 83.2476 246.064 82.7118 245.624C82.1761 245.19 81.5501 245.009 81.1107 244.979C80.888 244.961 80.7074 244.973 80.581 244.985C80.4606 245.003 80.3884 245.021 80.3944 245.027L80.4004 245.033Z" fill="#263238"/>
<path d="M81.4357 241.049C81.4056 241.049 81.3574 241.929 81.3333 243.02C81.3093 244.111 81.3153 244.991 81.3454 244.991C81.3755 244.991 81.4236 244.111 81.4477 243.02C81.4718 241.935 81.4658 241.049 81.4357 241.049Z" fill="#263238"/>
<path d="M84.9991 246.908C84.9991 246.908 85.6191 247.046 86.3956 247.058C87.1721 247.077 87.7981 246.992 87.7981 246.962C87.7981 246.926 87.1721 246.962 86.4016 246.944C85.6312 246.932 85.0052 246.872 85.0052 246.908H84.9991Z" fill="#263238"/>
<path d="M83.1211 246.89C83.1211 246.89 83.1692 247.022 83.2355 247.167C83.3017 247.312 83.3318 247.438 83.3619 247.438C83.392 247.438 83.41 247.288 83.3378 247.119C83.2656 246.95 83.1392 246.866 83.1211 246.89Z" fill="#263238"/>
<path d="M82.4229 245.998C82.4229 245.998 82.459 246.118 82.5613 246.221C82.6576 246.323 82.7599 246.389 82.778 246.365C82.8021 246.341 82.7419 246.245 82.6395 246.142C82.5432 246.04 82.4409 245.979 82.4229 245.998Z" fill="#263238"/>
<path d="M81.4177 245.588C81.4237 245.618 81.5501 245.618 81.6886 245.672C81.827 245.72 81.9293 245.799 81.9534 245.775C81.9775 245.756 81.8992 245.618 81.7247 245.558C81.5501 245.497 81.4057 245.558 81.4117 245.582L81.4177 245.588Z" fill="#263238"/>
<path d="M80.7014 245.389C80.7014 245.389 80.7435 245.467 80.8218 245.497C80.9001 245.527 80.9723 245.527 80.9843 245.497C80.9964 245.467 80.9422 245.419 80.8639 245.389C80.7857 245.359 80.7135 245.353 80.7014 245.389Z" fill="#263238"/>
<path d="M75.4586 90.0362C75.5308 88.5353 75.6873 86.8355 75.6873 86.8355C75.6873 86.8355 79.3952 86.4256 79.624 82.5919C79.8467 78.7523 79.624 69.9096 79.624 69.9096L72.8702 66.4678L65.4424 72.3388L66.568 91.519L73.406 91.953C74.4834 92.0193 75.4104 91.1634 75.4646 90.0362H75.4586Z" fill="#FFBE9D"/>
<path d="M76.1267 79.554C76.1267 79.554 76.1387 79.6263 76.0665 79.7167C76.0003 79.8071 75.8498 79.9096 75.6391 79.9036C75.2057 79.8855 74.7964 79.4093 74.6399 78.8246C74.5617 78.5293 74.5617 78.2279 74.6218 77.9747C74.67 77.7215 74.8145 77.4684 75.0251 77.396C75.1275 77.3599 75.2298 77.3599 75.308 77.4021C75.3863 77.4443 75.4345 77.5045 75.4585 77.5588C75.5067 77.6733 75.4706 77.7396 75.4585 77.7396C75.4405 77.7396 75.4465 77.6733 75.3923 77.601C75.3381 77.5287 75.2117 77.4624 75.0733 77.5347C74.9288 77.601 74.8325 77.7818 74.7964 78.0169C74.7543 78.2459 74.7603 78.5112 74.8265 78.7764C74.9589 79.2948 75.3201 79.7227 75.6451 79.7649C75.8016 79.783 75.9341 79.7227 76.0063 79.6685C76.0785 79.6082 76.1026 79.554 76.1207 79.56L76.1267 79.554Z" fill="#EB996E"/>
<path d="M76.0966 81.9289C76.1447 81.7903 76.1808 81.6396 76.217 81.4949C76.247 81.3864 76.2771 81.2839 76.3072 81.1754C76.3674 80.862 76.4096 80.5425 76.4156 80.217C75.7595 80.4762 74.9709 80.3014 74.4713 79.7951C73.9717 79.2888 73.7851 78.469 74.0139 77.7818C74.2787 76.9922 75.001 76.4617 75.7474 76.1483C76.4938 75.8349 77.2944 75.6781 78.0288 75.3285C79.5818 74.5871 80.6592 73.0561 81.3876 71.4467C81.8992 70.3195 82.2844 69.0296 81.9353 67.8361C81.4177 66.0699 79.5456 65.1899 77.8362 64.7077C75.2358 63.9723 72.4187 63.6408 69.8846 64.5811C67.3444 65.5154 64.2926 67.167 64.2926 69.9759C62.7938 69.8554 61.9391 71.1694 61.3432 72.7969C60.994 73.7613 60.681 75.8831 60.681 75.8831" fill="#263238"/>
<path d="M66.3332 87.5889C66.3332 87.5889 60.2898 83.9361 60.669 75.877C61.0542 67.824 76.0966 81.9228 76.0966 81.9228C76.0966 81.9228 73.2133 91.4105 66.6402 87.5829" fill="#263238"/>
<path d="M64.1 79.56C64.0579 79.5239 64.3649 79.2406 64.6056 78.6559C64.8524 78.0893 64.9969 77.161 64.6237 76.287C64.2385 75.4129 63.462 74.8946 62.8781 74.6896C62.2822 74.4726 61.8729 74.5028 61.8729 74.4485C61.8668 74.4184 62.2882 74.3038 62.9443 74.4786C63.5884 74.6414 64.4732 75.1779 64.9126 76.1604C65.334 77.1489 65.1293 78.1616 64.8103 78.7463C64.4913 79.3491 64.1181 79.5841 64.106 79.56H64.1Z" fill="#E52A9C"/>
<path d="M61.0001 74.6293C61.0001 74.6293 60.8496 74.6534 60.6089 74.5449C60.3741 74.4424 60.0491 74.2013 59.8143 73.7794C59.5735 73.3635 59.4772 72.7788 59.5555 72.1639C59.6337 71.5551 59.8143 70.8981 60.1755 70.2773C60.5306 69.6564 61.0844 69.1742 61.6683 68.9512C62.2521 68.7161 62.8721 68.7462 63.3055 68.9451C63.7449 69.132 64.0158 69.4334 64.1482 69.6564C64.2806 69.8855 64.2927 70.0301 64.2806 70.0362C64.2385 70.0723 64.0519 69.4575 63.2273 69.1501C62.83 68.9994 62.3003 68.9934 61.7826 69.2164C61.265 69.4334 60.7774 69.8614 60.4463 70.434C59.8023 71.5853 59.6277 72.9054 60.0129 73.6709C60.3982 74.4665 61.0362 74.575 61.0061 74.6233L61.0001 74.6293Z" fill="#263238"/>
<path d="M129.35 77.3478C129.079 77.0705 128.417 77.2031 128.417 77.2031C128.417 77.2031 128.531 76.4195 128.411 76.0337C128.29 75.654 127.442 75.7263 127.442 75.7263C127.442 75.7263 127.387 75.3586 127.466 74.7679C127.484 74.6172 127.405 74.5087 127.267 74.4304C126.864 74.1893 126.003 74.2013 126.003 74.2013C125.485 73.8276 127.586 70.8921 128.362 69.9518C129.133 69.0235 129.001 68.2761 128.308 68.2761C127.833 68.2761 125.383 71.1031 124.637 72.0494C123.89 72.9958 121.886 75.6359 121.813 73.5322C121.747 71.4286 120.899 69.8312 120.375 69.56C119.845 69.2887 119.279 69.9277 119.568 70.5124C119.803 70.9825 119.953 71.8927 120.038 72.5859C120.11 73.1525 120.086 73.7312 119.959 74.2857C119.61 75.865 119.231 76.8897 119.057 77.3237L119.002 77.2935C119.002 77.2935 104.333 91.3803 103.274 92.387C102.323 93.2911 83.2596 91.314 79.4433 90.9102C78.402 90.7957 76.855 90.5847 75.5127 90.645C73.8574 90.7173 73.5624 90.9524 71.9011 90.9765C66.8268 91.0428 63.2754 91.4286 60.1272 91.959C56.323 92.604 54.2223 95.5877 53.0485 99.2706C49.1961 111.314 38.7646 139.674 37.2116 155.696C35.9897 157.999 34.6173 160.693 34.0635 162.206C32.986 165.148 33.2449 165.25 33.612 165.316C34.5872 165.497 35.7068 160.211 36.1281 161.483C36.5435 162.761 34.0093 167.794 35.0386 167.939C36.3809 168.131 37.4524 162.574 37.5728 162.11C37.6932 161.658 38.3733 161.808 38.2349 162.224C38.0423 162.815 36.1462 169.096 37.4644 169.295C38.1928 169.409 38.271 168.077 38.271 168.077C38.271 168.077 39.6073 162.074 40.2273 162.188C40.8533 162.309 40.1912 165.859 39.8782 167.04C39.5712 168.21 40.0046 168.831 40.6306 168.535C41.058 168.336 42.0933 164.738 42.3702 163.562C42.6471 162.387 43.3574 159.15 44.3024 161.031C45.2535 162.911 46.6861 163.996 47.282 164.02C47.8779 164.045 48.1247 163.225 47.613 162.821C47.1977 162.489 46.68 161.73 46.3129 161.139C46.0119 160.657 45.7892 160.121 45.6688 159.566C45.1993 157.414 45.1993 156.16 45.1993 156.16L45.0909 155.467C46.5958 147.999 51.7002 122.562 57.9302 108.571L59.73 117.396L60.8435 121.308L54.0056 138.228L83.1813 137.842L78.8293 121.055L84.1143 103.55C89.8327 103.677 104.526 103.894 106.994 102.785C110.07 101.41 125.997 81.302 125.997 81.302C127.074 80.446 128.164 79.5178 128.976 78.7161C128.976 78.7161 129.928 77.9445 129.344 77.3478H129.35Z" fill="#FFBE9D"/>
<path d="M52.7355 125.763C53.5782 122.869 57.9302 108.559 57.9302 108.559C57.9302 108.559 60.067 120.223 59.5012 121.627C58.8572 123.249 57.6653 125.099 57.6653 125.099C52.7295 132.622 53.3796 136.383 53.3796 136.383L83.1813 135.473C83.2535 131.302 80.7856 121.597 80.274 120.048C79.7563 118.505 81.4718 113.43 81.4718 113.43C81.4718 113.43 84.8366 110.006 84.7102 108.24C84.4454 104.69 84.1203 103.544 84.1203 103.544L106.193 103.966L103.725 91.947L82.4409 90.3918L75.3622 89.7288C71.8048 92.7366 66.4596 89.7288 66.4596 89.7288C59.6698 90.3918 58.6766 91.4828 55.8896 94.2676C52.585 97.5769 43.6403 122.851 43.6403 122.851L52.7415 125.756L52.7355 125.763Z" fill="#E52A9C"/>
<path d="M70.3602 122.857C70.3602 122.905 69.7582 122.942 68.7891 122.936C67.82 122.936 66.4777 122.869 65.003 122.719C63.5282 122.568 62.204 122.363 61.2529 122.176C60.3019 121.989 59.724 121.832 59.73 121.784C59.7421 121.736 60.332 121.808 61.2951 121.929C62.2521 122.055 63.5764 122.224 65.0391 122.369C66.5018 122.514 67.8321 122.616 68.7952 122.682C69.7582 122.755 70.3542 122.803 70.3542 122.851L70.3602 122.857Z" fill="#263238"/>
<path d="M72.4006 120.319C72.4127 120.362 71.7987 120.597 70.7754 120.874C69.7521 121.151 68.3135 121.459 66.7003 121.652C65.0871 121.844 63.6184 121.881 62.559 121.851C61.4996 121.82 60.8435 121.736 60.8495 121.694C60.8495 121.64 61.5056 121.64 62.559 121.603C63.6124 121.573 65.0631 121.495 66.6642 121.302C68.2593 121.109 69.6919 120.844 70.7212 120.633C71.7506 120.416 72.3886 120.271 72.4067 120.319H72.4006Z" fill="#263238"/>
<path d="M82.4289 108.993C82.4771 109.005 82.3988 109.584 82.2242 110.518C82.0497 111.447 81.7788 112.731 81.4357 114.129C81.0926 115.533 80.7435 116.793 80.4666 117.697C80.1897 118.602 79.9911 119.156 79.9429 119.144C79.8948 119.132 80.0091 118.559 80.2258 117.637C80.4786 116.588 80.7736 115.383 81.0926 114.051C81.4237 112.719 81.7186 111.519 81.9775 110.47C82.2122 109.554 82.3747 108.993 82.4229 108.999L82.4289 108.993Z" fill="#263238"/>
<path d="M53.181 136.588L82.9827 135.678L95.9424 186.383L93.5527 244.545H77.782L79.7383 187.619L68.2113 152.321L69.9629 245.142L54.0357 245.377L52.3864 158.228C52.3142 155.762 51.5076 150.193 51.8086 147.74L53.187 136.582L53.181 136.588Z" fill="#455A64"/>
<path d="M72.1839 153.044C72.1779 153.092 71.6181 153.062 70.7212 152.96C69.8244 152.857 68.5904 152.664 67.2421 152.393C65.8937 152.122 64.6778 151.814 63.811 151.567C62.9443 151.32 62.4146 151.127 62.4266 151.079C62.4507 150.983 64.6176 151.507 67.3083 152.049C69.9989 152.592 72.196 152.948 72.1839 153.044Z" fill="#263238"/>
<path d="M93.4142 241.356C93.4142 241.453 89.8448 241.531 85.4386 241.531C81.0324 241.531 77.8964 241.398 77.8964 241.296C77.8964 241.194 81.0324 241.175 85.4386 241.175C89.8448 241.175 93.4142 241.254 93.4142 241.35V241.356Z" fill="#263238"/>
<path d="M69.7341 241.531C69.7341 241.628 66.267 241.706 61.9993 241.706C57.7315 241.706 54.2644 241.628 54.2644 241.531C54.2644 241.435 57.7255 241.356 61.9993 241.356C66.273 241.356 69.7341 241.435 69.7341 241.531Z" fill="#263238"/>
<path d="M67.7959 241.531C67.6996 241.531 67.2782 221.465 66.8629 196.715C66.4415 171.953 66.1827 151.887 66.279 151.887C66.3753 151.887 66.7967 171.947 67.212 196.709C67.6334 221.459 67.8922 241.531 67.7959 241.531Z" fill="#263238"/>
<path d="M91.2954 241.356C91.2954 241.356 91.2893 241.266 91.2893 241.079C91.2893 240.88 91.2953 240.615 91.3014 240.271C91.3194 239.542 91.3495 238.505 91.3917 237.173C91.488 234.467 91.6204 230.573 91.7889 225.781C92.1561 216.142 92.6617 202.863 93.2215 188.192C93.2215 188.059 93.2336 187.92 93.2396 187.794V187.842C89.7123 173.677 86.522 160.88 84.2046 151.597C83.0669 146.974 82.146 143.231 81.5079 140.621C81.2009 139.337 80.9601 138.336 80.7916 137.631C80.7194 137.3 80.6592 137.046 80.617 136.854C80.5809 136.679 80.5629 136.588 80.5689 136.588C80.5689 136.588 80.605 136.673 80.6532 136.848C80.7073 137.034 80.7735 137.294 80.8638 137.619C81.0444 138.318 81.3093 139.313 81.6403 140.591C82.3085 143.195 83.2655 146.932 84.4453 151.543C86.7869 160.82 90.0132 173.611 93.5827 187.764V187.788V187.812C93.5827 187.939 93.5707 188.071 93.5646 188.21C92.9627 202.881 92.421 216.16 92.0237 225.793C91.813 230.591 91.6385 234.473 91.5181 237.185C91.4519 238.517 91.3977 239.554 91.3616 240.283C91.3435 240.621 91.3254 240.892 91.3134 241.091C91.3014 241.272 91.2893 241.362 91.2833 241.362L91.2954 241.356Z" fill="#263238"/>
<path d="M86.1549 186.612C86.173 186.709 84.6079 187.052 82.6697 187.39C81.2191 187.637 79.967 187.812 79.4253 187.842V187.703C79.6059 187.752 79.7022 187.794 79.7022 187.818C79.7022 187.842 79.5938 187.848 79.4072 187.842L78.9979 187.824L79.4072 187.703C79.9309 187.547 81.1709 187.294 82.6155 187.046C84.5538 186.715 86.1429 186.516 86.1609 186.612H86.1549Z" fill="#263238"/>
<path d="M85.8539 188.553C85.8418 188.65 84.4393 188.541 82.7178 188.409C80.9963 188.27 79.5938 188.162 79.5938 188.065C79.5938 187.969 81.0083 187.926 82.7419 188.065C84.4754 188.198 85.8659 188.463 85.8539 188.559V188.553Z" fill="#263238"/>
<path d="M53.0546 137.661C53.7769 138.674 54.8002 139.036 55.998 139.229C57.1899 139.421 58.4118 139.295 59.6096 139.162C67.3023 138.306 75.4525 137.517 82.9887 135.684C73.2374 136.233 62.9383 136.046 53.187 136.594C53.187 136.594 53.1027 137.263 53.0847 137.426" fill="#263238"/>
<path d="M63.1008 151.429L68.5965 172.785L68.2112 152.327L63.1008 151.429Z" fill="#263238"/>
<path d="M61.9933 74.8704C59.8745 74.3099 57.6654 76.5642 57.5871 78.7583C57.563 79.3852 57.6533 80.1085 57.2139 80.5486C56.7444 81.0187 55.9679 80.8801 55.3058 80.9343C53.9454 81.0428 52.7415 82.2182 52.6151 83.5805C52.5188 84.557 52.9101 85.6058 52.5008 86.4979C52.1155 87.3478 51.1464 87.7517 50.4903 88.4147C49.6476 89.2707 49.3526 90.5486 49.4369 91.7481C49.5212 92.9476 49.9486 94.0929 50.3699 95.22C50.7552 96.2508 51.2608 97.3961 52.2961 97.7637H61.1987L61.8669 94.4003L62.9564 97.7637H64.407L63.6305 75.9193C63.6305 75.9193 63.6305 75.2924 61.9993 74.8644L61.9933 74.8704Z" fill="#263238"/>
<path d="M49.8221 85.3044C49.8221 85.3044 49.7258 85.2803 49.5814 85.3526C49.4429 85.4189 49.2684 85.6419 49.3707 85.9313C49.455 86.2146 49.7559 86.5099 50.1773 86.5883C50.5926 86.6847 51.1223 86.4677 51.327 85.9674C51.4353 85.7263 51.4534 85.443 51.345 85.1778C51.2487 84.9066 51.0561 84.6534 50.8575 84.3701C50.4301 83.8216 50.1893 83.0319 50.3037 82.2363C50.4 81.4466 50.8876 80.645 51.652 80.217C52.3984 79.777 53.4036 79.6805 54.2464 80.0663C55.071 80.4219 55.7813 80.9463 56.5638 80.8439C56.937 80.8077 57.2861 80.6269 57.4366 80.3195C57.5931 80.012 57.569 79.6263 57.557 79.2465C57.4848 77.6853 58.0867 76.2809 58.9655 75.4792C59.8443 74.6654 60.8616 74.4726 61.4997 74.5027C61.8247 74.5148 62.0775 74.5811 62.24 74.6293C62.4026 74.6896 62.4808 74.7257 62.4808 74.7378C62.4748 74.7679 62.1377 74.6233 61.5057 74.6293C60.8917 74.6413 59.9346 74.8583 59.122 75.648C58.3214 76.4195 57.7737 77.7577 57.8519 79.2465C57.864 79.6202 57.9121 80.0482 57.7075 80.4641C57.5028 80.8861 57.0333 81.1211 56.5999 81.1633C56.1605 81.2116 55.697 81.1151 55.2997 80.9283C54.8964 80.7534 54.5232 80.5304 54.132 80.3677C53.3675 80.0181 52.4887 80.1085 51.8085 80.4943C51.1163 80.874 50.6889 81.5732 50.5926 82.2905C50.4843 83.0139 50.6829 83.707 51.0742 84.2315C51.2608 84.5087 51.4654 84.78 51.5738 85.1055C51.6881 85.4249 51.6641 85.7926 51.5256 86.0699C51.3932 86.3532 51.1705 86.5762 50.9116 86.6908C50.6528 86.8113 50.3759 86.8173 50.1412 86.7691C49.6596 86.6667 49.3346 86.311 49.2563 85.9735C49.16 85.6178 49.3948 85.3526 49.5633 85.3044C49.7379 85.2441 49.8342 85.3104 49.8282 85.3164L49.8221 85.3044Z" fill="#263238"/>
<path d="M84.313 103.339C84.313 103.339 84.0662 103.37 83.6268 103.327C83.1874 103.285 82.5493 103.134 81.827 102.803C81.1047 102.471 80.3041 101.923 79.5999 101.127C78.8956 100.338 78.3177 99.2767 78.083 98.0651C77.8723 96.8475 78.0409 95.654 78.4201 94.6655C78.7993 93.6709 79.3531 92.8752 79.9129 92.3086C80.4727 91.742 81.0144 91.3743 81.4117 91.1814C81.809 90.9825 82.0437 90.9102 82.0497 90.9283C82.0919 90.9946 81.1288 91.314 80.0754 92.4653C79.5517 93.0319 79.0401 93.8095 78.6909 94.7679C78.3418 95.7203 78.1913 96.8596 78.39 98.0109C78.6127 99.1561 79.1544 100.169 79.8166 100.94C80.4787 101.712 81.2371 102.26 81.9233 102.604C83.3138 103.309 84.325 103.273 84.313 103.345V103.339Z" fill="#263238"/>
</g>
<defs>
<clipPath id="clip0_144_5100">
<rect width="258.368" height="250" fill="white"/>
</clipPath>
</defs>
</svg>
