<svg width="15" height="15" viewBox="0 0 15 15" fill="none" xmlns="http://www.w3.org/2000/svg">
<path d="M9.68556 6.39625L9.7957 6.33714C9.83288 6.40644 9.85235 6.48386 9.85235 6.5625C9.85235 6.64114 9.83288 6.71856 9.7957 6.78786C9.75852 6.85713 9.70477 6.91613 9.63926 6.9596L9.63945 6.95948L9.57012 6.85547L9.63921 6.95964L9.68556 6.39625ZM9.68556 6.39625L9.7957 6.33714C9.75855 6.26793 9.70487 6.20897 9.63943 6.16551L9.63945 6.16552L9.57012 6.26953L9.63921 6.16536L9.68556 6.39625ZM6.08594 8.43731V8.4375H6.21094L6.08594 8.43731ZM6.08594 8.43731V4.68769M6.08594 8.43731V4.68769M6.82695 4.29052C6.82697 4.29053 6.82698 4.29054 6.82699 4.29055L6.82695 4.29052ZM6.82695 4.29052C6.75515 4.24263 6.67168 4.21513 6.58546 4.21097M6.82695 4.29052L6.58546 4.21097M6.58546 4.21097C6.49923 4.20681 6.41349 4.22615 6.33739 4.26693M6.58546 4.21097L6.33739 4.26693M6.33739 4.26693C6.2613 4.30771 6.19771 4.36839 6.15342 4.4425M6.33739 4.26693L6.15342 4.4425M6.15342 4.4425C6.10914 4.51661 6.08581 4.60135 6.08594 4.68769M6.15342 4.4425L6.08594 4.68769M6.82699 8.83445L6.75762 8.73047L6.82695 8.83448C6.82697 8.83447 6.82698 8.83446 6.82699 8.83445ZM8.51569 6.5625L7.03906 7.54708V5.57792L8.51569 6.5625ZM12.6562 2.33594H2.34375C2.09304 2.33594 1.85259 2.43553 1.67531 2.61281C1.49803 2.79009 1.39844 3.03054 1.39844 3.28125V9.84375C1.39844 10.0945 1.49803 10.3349 1.67531 10.5122C1.85259 10.6895 2.09304 10.7891 2.34375 10.7891H12.6562C12.907 10.7891 13.1474 10.6895 13.3247 10.5122C13.502 10.3349 13.6016 10.0945 13.6016 9.84375V3.28125C13.6016 3.03054 13.502 2.79009 13.3247 2.61281C13.1474 2.43553 12.907 2.33594 12.6562 2.33594ZM12.6484 3.28906V9.83594H2.35156V3.28906H12.6484ZM13.462 12.5245C13.5514 12.4351 13.6016 12.3139 13.6016 12.1875C13.6016 12.0611 13.5514 11.9399 13.462 11.8505C13.3726 11.7611 13.2514 11.7109 13.125 11.7109H1.875C1.74861 11.7109 1.62739 11.7611 1.53802 11.8505C1.44865 11.9399 1.39844 12.0611 1.39844 12.1875C1.39844 12.3139 1.44865 12.4351 1.53802 12.5245H1.53802C1.62739 12.6139 1.74861 12.6641 1.875 12.6641H13.125C13.2514 12.6641 13.3726 12.6139 13.462 12.5245Z" fill="#E52A9C" stroke="#E52A9C" stroke-width="0.25"/>
</svg>
