<svg width="20" height="20" viewBox="0 0 20 20" fill="none" xmlns="http://www.w3.org/2000/svg">
<path d="M18.6412 14.7522L18.6413 14.7522C18.784 14.7532 18.93 14.7781 19.0358 14.8823C19.1414 14.9863 19.1679 15.1312 19.1717 15.2702L19.1717 15.2702C19.1875 15.8503 19.1591 16.4604 18.82 17.0156C18.3717 17.75 17.7104 18.1692 16.8311 18.1708C13.5421 18.1766 10.2531 18.1755 6.9643 18.1729C5.83386 18.1722 4.88299 17.3175 4.7463 16.1442L18.6412 14.7522ZM18.6412 14.7522C18.4507 14.751 18.2596 14.7514 18.0694 14.7518C17.9748 14.752 17.8803 14.7522 17.7861 14.7522H17.7848H17.7834H17.782H17.7806H17.7793H17.7779H17.7765H17.7751H17.7738H17.7724H17.771H17.7697H17.7683H17.7669H17.7655H17.7642H17.7628H17.7614H17.76H17.7587H17.7573H17.7559H17.7546H17.7532H17.7518H17.7504H17.7491H17.7477H17.7463H17.7449H17.7436H17.7422H17.7408H17.7395H17.7381H17.7367H17.7353H17.734H17.7326H17.7312H17.7298H17.7285H17.7271H17.7257H17.7243H17.723H17.7216H17.7202H17.7189H17.7175H17.7161H17.7147H17.7134H17.712H17.7106H17.7092H17.7079H17.7065H17.7051H17.7037H17.7024H17.701H17.6996H17.6983H17.6969H17.6955H17.6941H17.6928H17.6914H17.69H17.6886H17.6873H17.6859H17.6845H17.6831H17.6818H17.6804H17.679H17.6777H17.6763H17.6749H17.6735H17.6722H17.6708H17.6694H17.668H17.6667H17.6653H17.6639H17.6625H17.6612H17.6598H17.6584H17.657H17.6557H17.6543H17.6529H17.6515H17.6502H17.6488H17.6474H17.646H17.6447H17.6433H17.6419H17.6406H17.6392H17.6378H17.6364H17.6351H17.6337H17.6323H17.6309H17.6296H17.6282H17.6268H17.6254H17.6241H17.6227H17.6213H17.6199H17.6186H17.6172H17.6158H17.6144H17.6131H17.6117H17.6103H17.6089H17.6076H17.6062H17.6048H17.6034H17.602H17.6007H17.5993H17.5979H17.5965H17.5952H17.5938H17.5924H17.591H17.5897H17.5883H17.5869H17.5855H17.5842H17.5828H17.5814H17.58H17.5787H17.5773H17.5759H17.5745H17.5732H17.5718H17.5704H17.569H17.5676H17.5663H17.5649H17.5635H17.5621H17.5608H17.5594H17.558H17.5566H17.5553H17.5539H17.5525H17.5511H17.5497H17.5484H17.547H17.5456H17.5442H17.5429H17.5415H17.5401H17.5387H17.5373H17.536H17.5346H17.5332H17.5318H17.5305H17.5291H17.5277H17.5263H17.5249H17.5236H17.5222H17.5208H17.5194H17.5181H17.5167H17.5153H17.5139H17.5125H17.5112H17.5098H17.5084H17.507H17.5056H17.5043H17.5029H17.5015H17.5001H17.4987H17.4974H17.496H17.4946H17.4932H17.4918H17.4905H17.4891H17.4877H17.4863H17.4849H17.4836H17.4822H17.4808H17.4794H17.478H17.4767H17.4753H17.4739H17.4725H17.4711H17.4698H17.4684H17.467H17.4656H17.4642H17.4629H17.4615H17.4601H17.4587H17.4573H17.4559H17.4546H17.4532H17.4518H17.4504H17.449H17.4477H17.4463H17.4449H17.4435H17.4421H17.4407H17.4394H17.438H17.4366H17.4352H17.4338H17.4324H17.4311H17.4297H17.4283H17.4269H17.4255H17.4241H17.4228H17.4214H17.42H17.4186H17.4172H17.4158H17.4145H17.4131H17.4117H17.4103H17.4089H17.4075H17.4062H17.4048H17.4034H17.402H17.4006H17.3992H17.3978H17.3965H17.3951H17.3937H17.3923H17.3909H17.3895H17.3881H17.3868H17.3854H17.384H17.3826H17.3812H17.3798H17.3784H17.3771H17.3757H17.3743H17.3729H17.3715H17.3701H17.3687H17.3674H17.366H17.3646H17.3632H17.3618H17.3604H17.359H17.3576H17.3563H17.3549H17.3535H17.3521H17.3507H17.3493H17.3479H17.3465H17.3451H17.3438H17.3424H17.341H17.3396H17.3382H17.3368H17.3354H17.334H17.3326H17.3313H17.3299H17.3285H17.3271H17.3257H17.3243H17.3229H17.3215H17.3201H17.3187H17.3174H17.316H17.3146H17.3132H17.3118H17.3104H17.309H17.3076H17.3062H17.3048H17.3034H17.3021H17.3007H17.2993H17.2979H17.2965H17.2951H17.2937H17.2923H17.2909H17.2895H17.2881H17.2867H17.2853H17.2839H17.2826H17.2812H17.2798H17.2784H17.277H17.2756H17.2742H17.2728H17.2714H17.27H17.2686H17.2672H17.2658H17.2644H17.263H17.2616H17.2602H17.2589H17.2575H17.2561H17.2547H17.2533H17.2519H17.2505H17.2491H17.2477H17.2463H17.2449H17.2435H17.2421H17.2407H17.2399C17.2567 13.3213 17.2065 11.8911 17.0664 10.465C17.0566 10.3652 17.0468 10.2653 17.0371 10.1654C16.9484 9.25421 16.859 8.33639 16.7197 7.42638C16.6087 6.70076 16.4789 5.97837 16.3493 5.25858L16.3447 5.23288C16.2166 4.52097 16.0889 3.8116 15.9791 3.0999L15.979 3.09988C15.7579 1.66788 14.5017 0.800379 13.2413 0.828658C11.9056 0.858631 10.5704 0.85206 9.2323 0.845475C8.67488 0.842732 8.11699 0.839986 7.55838 0.839879C7.089 0.83977 6.62065 0.842794 6.15299 0.845812C5.05222 0.852918 3.95529 0.859999 2.85796 0.826154C1.49181 0.783887 0.577468 1.90577 0.70324 3.07803L0.703244 3.07806C0.743032 3.44825 0.837206 3.81976 0.927591 4.17631C0.964206 4.32076 1.0002 4.46275 1.0317 4.6012L1.03184 4.60177C1.05841 4.71679 1.10207 4.83356 1.20407 4.91266C1.30472 4.99072 1.42879 5.00589 1.5472 5.00629H1.54728C2.18335 5.00811 2.8197 5.00774 3.45593 5.00629C3.58883 5.00605 3.71683 4.97565 3.81617 4.89977C3.92094 4.81973 3.97601 4.70227 3.97777 4.5709L3.97777 4.57087C3.97953 4.43861 3.9272 4.31878 3.8222 4.23688C3.72315 4.15961 3.59469 4.1294 3.4623 4.12936C3.3445 4.1292 3.22651 4.12889 3.10838 4.12857C2.68744 4.12744 2.26477 4.12631 1.84244 4.13229L1.84242 4.13229C1.82846 4.13249 1.81844 4.13193 1.8115 4.13118C1.80973 4.1259 1.80763 4.11856 1.80542 4.10865L1.80542 4.10863M18.6412 14.7522L1.80542 4.10863M17.0764 14.9272L17.2501 14.906C17.2477 14.887 17.245 14.868 17.243 14.8543C17.2422 14.849 17.2416 14.8445 17.2411 14.8411L17.0764 14.9272ZM17.0764 14.9272V14.8191V14.9272ZM4.49746 7.25209L4.49745 7.25205C4.35563 6.29309 4.15829 5.34393 3.95977 4.38909C3.89616 4.08314 3.83243 3.77662 3.77037 3.469L3.77036 3.46899C3.70824 3.16103 3.61274 2.85689 3.5136 2.54513C3.47184 2.41404 3.40707 2.2834 3.33015 2.15967L3.33004 2.15949C3.17416 1.90804 2.94928 1.76562 2.71538 1.72901C2.48172 1.69244 2.2254 1.7593 2.00166 1.95315L4.49746 7.25209ZM4.49746 7.25209C4.65656 8.32623 4.74791 9.41674 4.77824 10.5034L4.49746 7.25209ZM1.80542 4.10863C1.7752 3.97285 1.74056 3.83821 1.70675 3.70681C1.70374 3.69512 1.70074 3.68346 1.69775 3.67182C1.66086 3.52827 1.62537 3.38824 1.59594 3.24776L1.80542 4.10863ZM13.4018 1.71172C10.2967 1.711 7.19159 1.71135 4.08612 1.71171C4.0956 1.72784 4.10518 1.74428 4.11489 1.76115C4.1725 1.86128 4.22934 1.96847 4.2697 2.0854L4.26976 2.08558C4.41471 2.50701 4.53919 2.93581 4.6484 3.36625C5.02252 4.84 5.30349 6.33424 5.46285 7.84808C5.56398 8.80907 5.62265 9.77483 5.66776 10.7367C5.73683 12.2105 5.68741 13.682 5.60117 15.1483L5.60117 15.1483C5.57935 15.5187 5.58304 15.892 5.66387 16.2296L5.66389 16.2297C5.82193 16.8912 6.3432 17.2877 6.92924 17.2902C7.4888 17.2924 8.01184 16.9141 8.23805 16.3257M13.4018 1.71172C14.2068 1.71205 14.9216 2.27889 15.0618 3.05625L15.0618 3.05628C15.1044 3.29264 15.1473 3.52887 15.1901 3.76502C15.4625 5.26613 15.7342 6.76385 15.9496 8.26948C16.2535 10.3955 16.3927 12.5374 16.363 14.6871L16.363 14.6882C16.3627 14.7131 16.3624 14.7339 16.3619 14.752C16.3449 14.7522 16.3253 14.7522 16.3019 14.7522H16.2876H16.2732H16.2588H16.2444H16.2301H16.2157H16.2013H16.187H16.1726H16.1582H16.1439H16.1295H16.1151H16.1008H16.0864H16.072H16.0577H16.0433H16.0289H16.0146H16.0002H15.9858H15.9714H15.9571H15.9427H15.9283H15.914H15.8996H15.8852H15.8709H15.8565H15.8421H15.8278H15.8134H15.799H15.7847H15.7703H15.7559H15.7415H15.7272H15.7128H15.6984H15.6841H15.6697H15.6553H15.641H15.6266H15.6122H15.5979H15.5835H15.5691H15.5548H15.5404H15.526H15.5116H15.4973H15.4829H15.4685H15.4542H15.4398H15.4254H15.4111H15.3967H15.3823H15.368H15.3536H15.3392H15.3249H15.3105H15.2961H15.2818H15.2674H15.253H15.2386H15.2243H15.2099H15.1955H15.1812H15.1668H15.1524H15.1381H15.1237H15.1093H15.095H15.0806H15.0662H15.0519H15.0375H15.0231H15.0087H14.9944H14.98H14.9656H14.9513H14.9369H14.9225H14.9082H14.8938H14.8794H14.8651H14.8507H14.8363H14.822H14.8076H14.7932H14.7789H14.7645H14.7501H14.7357H14.7214H14.707H14.6926H14.6783H14.6639H14.6495H14.6352H14.6208H14.6064H14.5921H14.5777H14.5633H14.549H14.5346H14.5202H14.5058H14.4915H14.4771H14.4627H14.4484H14.434H14.4196H14.4053H14.3909H14.3765H14.3622H14.3478H14.3334H14.3191H14.3047H14.2903H14.2759H14.2616H14.2472H14.2328H14.2185H14.2041H14.1897H14.1754H14.161H14.1466H14.1323H14.1179H14.1035H14.0892H14.0748H14.0604H14.0461H14.0317H14.0173H14.0029H13.9886H13.9742H13.9598H13.9455H13.9311H13.9167H13.9024H13.888H13.8736H13.8593H13.8449H13.8305H13.8162H13.8018H13.7874H13.773H13.7587H13.7443H13.7299H13.7156H13.7012H13.6868H13.6725H13.6581H13.6437H13.6294H13.615H13.6006H13.5863H13.5719H13.5575H13.5431H13.5288H13.5144H13.5H13.4857H13.4713H13.4569H13.4426H13.4282H13.4138H13.3995H13.3851H13.3707H13.3564H13.342H13.3276H13.3133H13.2989H13.2845H13.2701H13.2558H13.2414H13.227H13.2127H13.1983H13.1839H13.1696H13.1552H13.1408H13.1265H13.1121H13.0977H13.0834H13.069H13.0546H13.0402H13.0259H13.0115H12.9971H12.9828H12.9684H12.954H12.9397H12.9253H12.9109H12.8966H12.8822H12.8678H12.8535H12.8391H12.8247H12.8104H12.796H12.7816H12.7672H12.7529H12.7385H12.7241H12.7098H12.6954H12.681H12.6667H12.6523H12.6379H12.6236H12.6092H12.5948H12.5805H12.5661H12.5517H12.5373H12.523H12.5086H12.4942H12.4799H12.4655H12.4511H12.4368H12.4224H12.408H12.3937H12.3793H12.3649H12.3506H12.3362H12.3218H12.3074H12.2931H12.2787H12.2643H12.25H12.2356H12.2212H12.2069H12.1925H12.1781H12.1638H12.1494H12.135H12.1207H12.1063H12.0919H12.0776H12.0632H12.0488H12.0344H12.0201H12.0057H11.9913H11.977H11.9626H11.9482H11.9339H11.9195H11.9051H11.8908H11.8764H11.862H11.8477H11.8333H11.8189H11.8045H11.7902H11.7758H11.7614H11.7471H11.7327H11.7183H11.704H11.6896H11.6752H11.6609H11.6465H11.6321H11.6178H11.6034H11.589H11.5747H11.5603H11.5459H11.5315H11.5172H11.5028H11.4884H11.4741H11.4597H11.4453H11.431H11.4166H11.4022H11.3879H11.3735H11.3591H11.3448H11.3304H11.316H11.3016H11.2873H11.2729H11.2585H11.2442H11.2298H11.2154H11.2011H11.1867H11.1723H11.158H11.1436H11.1292H11.1149H11.1005H11.0861H11.0717H11.0574H11.043H11.0286H11.0143H10.9999H10.9855H10.9712H10.9568H10.9424H10.9281H10.9137H10.8993H10.885H10.8706H10.8562H10.8419H10.8275H10.8131H10.7987H10.7844H10.77H10.7556H10.7413H10.7269H10.7125H10.6982H10.6838H10.6694H10.6551H10.6407H10.6263H10.612H10.5976H10.5832H10.5688H10.5545H10.5401H10.5257H10.5114H10.497H10.4826H10.4683H10.4539H10.4395H10.4252H10.4108H10.3964H10.3821H10.3677H10.3533H10.339H10.3246H10.3102H10.2958H10.2815H10.2671H10.2527H10.2384H10.224H10.2096H10.1953H10.1809H10.1665H10.1522H10.1378H10.1234H10.1091H10.0947H10.0803H10.0659H10.0516H10.0372H10.0228H10.0085H9.9941H9.97974H9.96537H9.951H9.93663H9.92226H9.90789H9.89352H9.87916H9.86479H9.85042H9.83605H9.82168H9.80731H9.79294H9.77857H9.76421H9.74984H9.73547H9.7211H9.70673H9.69236H9.67799H9.66363H9.64926H9.63489H9.62052H9.60615H9.59178H9.57741H9.56305H9.54868H9.53431H9.51994H9.50557H9.4912H9.47683H9.46247H9.4481H9.43373H9.41936H9.40499H9.39062H9.37625H9.36189H9.34752H9.33315H9.31878H9.30441H9.29004H9.27567H9.2613H9.24694H9.23257H9.2182H9.20383H9.18946H9.17509H9.16072H9.14636H9.13199H9.11762H9.10325H9.08888H9.07451H9.06014H9.04578H9.03141H9.01704H9.00267H8.9883H8.97393H8.95956H8.9452H8.94502C8.85213 14.7523 8.766 14.7565 8.69109 14.7721C8.61435 14.7881 8.53685 14.8187 8.47395 14.8808C8.41089 14.9431 8.3796 15.0203 8.36312 15.0968C8.34708 15.1713 8.34267 15.2568 8.3423 15.3484M13.4018 1.71172L13.4018 1.53672L13.4018 1.71172ZM8.3423 15.3484C8.3423 15.3484 8.3423 15.3484 8.3423 15.3484L8.5173 15.3491L8.3423 15.3484ZM8.3423 15.3484C8.34214 15.3854 8.34214 15.4219 8.34214 15.4578C8.34211 15.7758 8.34209 16.0548 8.23805 16.3257M8.23805 16.3257L8.40142 16.3885L8.23808 16.3257C8.23807 16.3257 8.23806 16.3257 8.23805 16.3257ZM16.841 17.467C14.7904 17.4707 12.7397 17.4702 10.6888 17.4696C9.97067 17.4694 9.2525 17.4692 8.53432 17.4692C8.58697 17.4118 8.63631 17.3535 8.68246 17.2942M16.841 17.467C17.5391 17.4656 18.117 17.0357 18.3535 16.3696M16.841 17.467L16.8406 17.292M16.841 17.467L16.8407 17.292C16.8406 17.292 16.8406 17.292 16.8406 17.292M18.3535 16.3696C18.4574 16.0767 18.4941 15.7761 18.4505 15.4723M18.3535 16.3696L18.1886 16.3111C18.1886 16.311 18.1886 16.311 18.1886 16.311M18.3535 16.3696L18.1886 16.311M18.4505 15.4723H9.21852C9.22155 15.5312 9.22316 15.5895 9.22328 15.6473M18.4505 15.4723V15.6473H18.2916M18.4505 15.4723L18.2773 15.4972C18.2845 15.5473 18.2892 15.5973 18.2916 15.6473M9.22328 15.6473H9.04829C9.04976 16.2664 8.87247 16.8141 8.45595 17.2942C8.53145 17.2942 8.60696 17.2942 8.68246 17.2942M9.22328 15.6473H18.2916M9.22328 15.6473C9.22458 16.2561 9.06179 16.8069 8.68246 17.2942M8.68246 17.2942C9.35134 17.2942 10.0202 17.2944 10.689 17.2946C12.7398 17.2952 14.7902 17.2957 16.8406 17.292M16.8406 17.292C17.4605 17.2907 17.9754 16.9115 18.1886 16.311M18.1886 16.311C18.2665 16.0914 18.3024 15.8698 18.2916 15.6473M4.67057 7.22645C4.52793 6.26197 4.32913 5.30584 4.13036 4.34983C4.06694 4.04476 4.00351 3.7397 3.94191 3.43439L4.67057 7.22645ZM1.6346 4.14665C1.66184 4.26911 1.71778 4.30909 1.84492 4.30727L1.53717 3.75001C1.5711 3.88191 1.60504 4.01382 1.6346 4.14665ZM4.76855 13.396C4.76063 13.8149 4.7527 14.2347 4.7484 14.6558L4.76855 13.396ZM1.59593 3.2477C1.4877 2.72991 1.6079 2.29436 2.00164 1.95316L1.59593 3.2477Z" fill="black" stroke="black" stroke-width="0.35"/>
<path d="M10.4281 5.08927C10.4438 5.07714 10.4611 5.06668 10.4808 5.05475C10.4902 5.04906 10.5001 5.04303 10.5107 5.03634C10.511 5.03617 10.5112 5.03599 10.5115 5.03582L10.5111 5.03656C10.5117 5.037 10.5122 5.03744 10.5128 5.03788L10.6052 5.18362C10.5839 5.19713 10.5707 5.20505 10.5612 5.21072C10.5494 5.21777 10.5434 5.22136 10.5349 5.22792L10.5348 5.22798C10.5244 5.23599 10.514 5.24396 10.5035 5.2519C9.5446 5.98064 8.46072 6.39779 7.24921 6.47692M7.24921 6.47692C7.24938 6.47082 7.24963 6.46544 7.24995 6.46066C7.2505 6.4525 7.2512 6.44728 7.25176 6.44416C7.25207 6.44246 7.25228 6.44169 7.25228 6.4417C7.25229 6.44172 7.25056 6.44818 7.24441 6.45696C7.24363 6.45808 7.24281 6.45918 7.24196 6.46027C7.24192 6.46032 7.24188 6.46037 7.24184 6.46042C7.23812 6.46512 7.23382 6.46944 7.22917 6.47309C7.22355 6.47752 7.21896 6.47977 7.21686 6.48066C7.2162 6.48094 7.21584 6.48106 7.21584 6.48107C7.21583 6.48107 7.21711 6.48064 7.22004 6.48004C7.22451 6.47913 7.23186 6.47803 7.24291 6.47733L7.24306 6.47732C7.24511 6.47719 7.24716 6.47706 7.24921 6.47692Z" fill="black" stroke="black" stroke-width="0.35"/>
<path d="M9.69364 9.07119C10.3232 8.28775 10.9542 7.50625 11.5855 6.72491C11.5886 6.7211 11.592 6.71682 11.5957 6.71215C11.624 6.67638 11.6702 6.61789 11.7263 6.57603C11.8022 6.51922 11.8958 6.4824 11.9993 6.49344C12.1024 6.50443 12.1866 6.55992 12.2501 6.63116L12.2503 6.63137C12.3118 6.7006 12.356 6.78461 12.3701 6.88028C12.3842 6.97637 12.3663 7.07266 12.322 7.16292C12.288 7.23265 12.2415 7.29047 12.2086 7.33135L12.2078 7.33232L12.2078 7.33238C11.4911 8.22236 10.7737 9.11194 10.0561 10.0007L9.69364 9.07119ZM9.69364 9.07119C9.69074 9.06806 9.68785 9.06494 9.68497 9.06183C9.5798 8.94834 9.4871 8.8483 9.39589 8.74355L9.69364 9.07119ZM9.29013 9.99389L9.29006 9.99379C9.20645 9.88979 9.12257 9.78605 9.03851 9.68209L9.03849 9.68206C8.95449 9.57817 8.87031 9.47406 8.78635 9.36963L8.78632 9.36959C8.70043 9.26269 8.63965 9.14401 8.62715 9.0187C8.61404 8.88717 8.6561 8.76488 8.74558 8.66647L8.7456 8.66645C8.83335 8.56997 8.95397 8.51552 9.09105 8.54279C9.21218 8.56689 9.31381 8.6492 9.39583 8.74348L9.29013 9.99389ZM9.29013 9.99389C9.34205 10.0584 9.39577 10.1166 9.45321 10.1598M9.29013 9.99389L9.45321 10.1598M9.45321 10.1598C9.51181 10.2039 9.58471 10.2401 9.67142 10.2415M9.45321 10.1598L9.67142 10.2415M9.67142 10.2415C9.75876 10.2428 9.83282 10.2085 9.89262 10.1648M9.67142 10.2415L9.89262 10.1648M9.89262 10.1648C9.95077 10.1223 10.0046 10.0645 10.056 10.0008L9.89262 10.1648Z" fill="black" stroke="black" stroke-width="0.35"/>
</svg>
