<svg width="12" height="16" viewBox="0 0 12 16" fill="none" xmlns="http://www.w3.org/2000/svg">
<path d="M9.9375 3.5H2.0625C1.91332 3.5 1.77024 3.44074 1.66475 3.33525C1.55926 3.22976 1.5 3.08668 1.5 2.9375C1.5 2.78832 1.55926 2.64524 1.66475 2.53975C1.77024 2.43426 1.91332 2.375 2.0625 2.375H9.9375C10.0867 2.375 10.2298 2.43426 10.3352 2.53975C10.4407 2.64524 10.5 2.78832 10.5 2.9375C10.5 3.08668 10.4407 3.22976 10.3352 3.33525C10.2298 3.44074 10.0867 3.5 9.9375 3.5Z" fill="#B5B5B5"/>
<path d="M8.8125 1.8125H3.1875C3.03832 1.8125 2.89524 1.75324 2.78975 1.64775C2.68426 1.54226 2.625 1.39918 2.625 1.25C2.625 1.10082 2.68426 0.957742 2.78975 0.852252C2.89524 0.746763 3.03832 0.6875 3.1875 0.6875H8.8125C8.96168 0.6875 9.10476 0.746763 9.21025 0.852252C9.31574 0.957742 9.375 1.10082 9.375 1.25C9.375 1.39918 9.31574 1.54226 9.21025 1.64775C9.10476 1.75324 8.96168 1.8125 8.8125 1.8125Z" fill="#B5B5B5"/>
<path d="M11.0625 4.0625H0.9375C0.788316 4.0625 0.645242 4.12176 0.539753 4.22725C0.434263 4.33274 0.375 4.47582 0.375 4.625V14.75C0.375 14.8992 0.434263 15.0423 0.539753 15.1477C0.645242 15.2532 0.788316 15.3125 0.9375 15.3125H11.0625C11.2117 15.3125 11.3548 15.2532 11.4602 15.1477C11.5657 15.0423 11.625 14.8992 11.625 14.75V4.625C11.625 4.47582 11.5657 4.33274 11.4602 4.22725C11.3548 4.12176 11.2117 4.0625 11.0625 4.0625ZM8.15438 7.74688C8.11351 7.80871 8.06083 7.86186 7.99936 7.90326C7.93788 7.94467 7.86884 7.97352 7.79618 7.98816C7.72352 8.00279 7.64869 8.00293 7.57598 7.98855C7.50327 7.97417 7.43412 7.94556 7.3725 7.90438L6.55687 7.34188V11.9375C6.55687 12.59 5.84812 13.0625 4.86937 13.0625C3.89062 13.0625 3.18187 12.59 3.18187 11.9375C3.18187 11.285 3.89062 10.8125 4.86937 10.8125C5.05854 10.813 5.24711 10.8338 5.43187 10.8744V6.3125C5.43187 6.3125 5.43187 6.27875 5.43187 6.26187C5.44066 6.187 5.46356 6.11447 5.49937 6.04812C5.49937 6.04812 5.49937 6.01437 5.49937 6.00312L5.53875 5.96375L5.6175 5.885L5.7075 5.82313L5.80312 5.78375H5.91563L6 5.75H6.05062H6.16313L6.26437 5.795H6.30937L7.99687 6.92C8.06522 6.96071 8.12415 7.01545 8.16978 7.08061C8.21541 7.14577 8.2467 7.21987 8.26159 7.29802C8.27647 7.37616 8.27461 7.45657 8.25613 7.53395C8.23765 7.61132 8.20297 7.68389 8.15438 7.74688Z" fill="#B5B5B5"/>
</svg>
