<svg width="16" height="12" viewBox="0 0 16 12" fill="none" xmlns="http://www.w3.org/2000/svg">
<path d="M1.26948 11.625H10.2498C10.399 11.625 10.5421 11.5657 10.6475 11.4602C10.753 11.3548 10.8123 11.2117 10.8123 11.0625V10.5C10.8123 10.3508 10.8716 10.2077 10.977 10.1023C11.0825 9.99676 11.2256 9.9375 11.3748 9.9375C11.524 9.9375 11.6671 9.99676 11.7725 10.1023C11.878 10.2077 11.9373 10.3508 11.9373 10.5V11.0625C11.9373 11.2117 11.9966 11.3548 12.102 11.4602C12.2075 11.5657 12.3506 11.625 12.4998 11.625H14.7301C15.0332 11.625 15.3239 11.5048 15.5385 11.2907C15.7531 11.0767 15.8741 10.7862 15.8748 10.4831V9.16125C15.8823 8.66129 15.7141 8.17456 15.3995 7.78594C14.9811 7.28593 14.7519 6.65475 14.7519 6.00281C14.7519 5.35087 14.9811 4.71969 15.3995 4.21969C15.7141 3.83106 15.8823 3.34433 15.8748 2.84438V1.5225C15.8752 1.37194 15.8458 1.22279 15.7885 1.08358C15.7311 0.944379 15.6469 0.817857 15.5405 0.711265C15.4342 0.604673 15.3079 0.520104 15.1688 0.462402C15.0297 0.404701 14.8807 0.375 14.7301 0.375H12.4998C12.3506 0.375 12.2075 0.434263 12.102 0.539753C11.9966 0.645242 11.9373 0.788316 11.9373 0.9375V1.5C11.9373 1.64918 11.878 1.79226 11.7725 1.89775C11.6671 2.00324 11.524 2.0625 11.3748 2.0625C11.2256 2.0625 11.0825 2.00324 10.977 1.89775C10.8716 1.79226 10.8123 1.64918 10.8123 1.5V0.9375C10.8123 0.788316 10.753 0.645242 10.6475 0.539753C10.5421 0.434263 10.399 0.375 10.2498 0.375H1.26948C1.11892 0.375 0.969844 0.404701 0.830781 0.462402C0.691717 0.520104 0.565403 0.604673 0.459072 0.711265C0.352741 0.817857 0.268483 0.944379 0.211122 1.08358C0.153762 1.22279 0.124427 1.37194 0.124797 1.5225V2.84438C0.117273 3.34433 0.28549 3.83106 0.600109 4.21969C1.01944 4.71817 1.24951 5.3486 1.2498 6C1.25017 6.65237 1.02007 7.2839 0.600109 7.78312C0.284866 8.17249 0.116611 8.66033 0.124797 9.16125V10.4831C0.125542 10.7862 0.246471 11.0767 0.461061 11.2907C0.675651 11.5048 0.966381 11.625 1.26948 11.625ZM10.8123 3.75C10.8123 3.60082 10.8716 3.45774 10.977 3.35225C11.0825 3.24676 11.2256 3.1875 11.3748 3.1875C11.524 3.1875 11.6671 3.24676 11.7725 3.35225C11.878 3.45774 11.9373 3.60082 11.9373 3.75V4.875C11.9373 5.02418 11.878 5.16726 11.7725 5.27275C11.6671 5.37824 11.524 5.4375 11.3748 5.4375C11.2256 5.4375 11.0825 5.37824 10.977 5.27275C10.8716 5.16726 10.8123 5.02418 10.8123 4.875V3.75ZM10.8123 7.125C10.8123 6.97582 10.8716 6.83274 10.977 6.72725C11.0825 6.62176 11.2256 6.5625 11.3748 6.5625C11.524 6.5625 11.6671 6.62176 11.7725 6.72725C11.878 6.83274 11.9373 6.97582 11.9373 7.125V8.25C11.9373 8.39918 11.878 8.54226 11.7725 8.64775C11.6671 8.75324 11.524 8.8125 11.3748 8.8125C11.2256 8.8125 11.0825 8.75324 10.977 8.64775C10.8716 8.54226 10.8123 8.39918 10.8123 8.25V7.125ZM3.69948 4.20281C3.8273 4.05927 3.98319 3.94345 4.15753 3.86251C4.33186 3.78157 4.52093 3.73723 4.71307 3.73222C4.90521 3.72721 5.09634 3.76165 5.27465 3.8334C5.45296 3.90514 5.61467 4.01268 5.7498 4.14937L6.10417 4.50094L6.4023 4.20281C6.65816 3.93678 7.00547 3.77778 7.37404 3.75794C7.74262 3.7381 8.10498 3.8589 8.38792 4.09594C8.52928 4.22362 8.64322 4.37868 8.72283 4.55173C8.80245 4.72478 8.84608 4.91219 8.85108 5.10261C8.85607 5.29303 8.82233 5.48247 8.7519 5.65946C8.68147 5.83644 8.57582 5.99727 8.44136 6.13219L6.47261 8.10094C6.42558 8.14813 6.36969 8.18558 6.30816 8.21113C6.24662 8.23668 6.18065 8.24984 6.11402 8.24984C6.04739 8.24984 5.98141 8.23668 5.91988 8.21113C5.85834 8.18558 5.80245 8.14813 5.75542 8.10094L3.80917 6.19125C3.54193 5.93563 3.38191 5.58795 3.36154 5.2187C3.34117 4.84945 3.46198 4.48628 3.69948 4.20281Z" fill="#F528AF"/>
</svg>
