<svg width="20" height="20" viewBox="0 0 20 20" fill="none" xmlns="http://www.w3.org/2000/svg">
<path d="M9.16675 9.58333V8.75C9.16675 8.41848 9.29844 8.10054 9.53286 7.86612C9.76728 7.6317 10.0852 7.5 10.4167 7.5C10.7483 7.5 11.0662 7.6317 11.3006 7.86612C11.5351 8.10054 11.6667 8.41848 11.6667 8.75V10" stroke="black" stroke-width="1.5" stroke-linecap="round" stroke-linejoin="round"/>
<path d="M14.1667 10V4.58337C14.1667 4.25185 14.2984 3.93391 14.5328 3.69949C14.7672 3.46507 15.0852 3.33337 15.4167 3.33337C15.7482 3.33337 16.0662 3.46507 16.3006 3.69949C16.535 3.93391 16.6667 4.25185 16.6667 4.58337V13.3334C16.6667 14.6595 16.1399 15.9312 15.2022 16.8689C14.2646 17.8066 12.9928 18.3334 11.6667 18.3334H10H10.1734C9.34531 18.3335 8.53019 18.128 7.80118 17.7353C7.07218 17.3426 6.45213 16.7749 5.9967 16.0834C5.94204 16.0002 5.88759 15.9168 5.83336 15.8334C5.57336 15.4342 4.66086 13.8434 3.09503 11.06C2.93541 10.7763 2.89277 10.4415 2.97618 10.1268C3.0596 9.81216 3.26249 9.54244 3.5417 9.37504C3.8391 9.1966 4.18759 9.12264 4.53183 9.16491C4.87607 9.20719 5.19631 9.36327 5.4417 9.60837L6.6667 10.8334" stroke="black" stroke-width="1.5" stroke-linecap="round" stroke-linejoin="round"/>
<path d="M11.6667 8.75C11.6667 8.41848 11.7984 8.10054 12.0329 7.86612C12.2673 7.6317 12.5852 7.5 12.9167 7.5C13.2483 7.5 13.5662 7.6317 13.8006 7.86612C14.0351 8.10054 14.1667 8.41848 14.1667 8.75V10M6.66675 10.8333V3.75C6.66675 3.41848 6.79844 3.10054 7.03286 2.86612C7.26728 2.6317 7.58523 2.5 7.91675 2.5C8.24827 2.5 8.56621 2.6317 8.80063 2.86612C9.03505 3.10054 9.16675 3.41848 9.16675 3.75V10" stroke="black" stroke-width="1.5" stroke-linecap="round" stroke-linejoin="round"/>
</svg>
