<svg width="20" height="20" viewBox="0 0 20 20" fill="none" xmlns="http://www.w3.org/2000/svg">
<path d="M17 17.125H17.125V17V14.5C17.125 13.4575 16.2226 12.5513 14.8554 11.913C13.4779 11.2699 11.5841 10.875 9.5 10.875C7.4159 10.875 5.52208 11.2699 4.14462 11.913C2.7774 12.5513 1.875 13.4575 1.875 14.5V17V17.125H2H17ZM9.5 12.125C11.2837 12.125 12.8928 12.4035 14.0514 12.8492C14.6311 13.0722 15.0917 13.3346 15.4051 13.6197C15.7186 13.9047 15.875 14.2023 15.875 14.5V15.875H3.125V14.5C3.125 14.2023 3.28144 13.9047 3.59487 13.6197C3.90834 13.3346 4.36891 13.0722 4.94863 12.8492C6.10724 12.4035 7.71634 12.125 9.5 12.125ZM12.0633 2.93674C11.3834 2.25692 10.4614 1.875 9.5 1.875C8.53859 1.875 7.61656 2.25692 6.93674 2.93674C6.25692 3.61656 5.875 4.53859 5.875 5.5C5.875 6.46141 6.25692 7.38344 6.93674 8.06326C7.61656 8.74308 8.53859 9.125 9.5 9.125C10.4614 9.125 11.3834 8.74308 12.0633 8.06326C12.7431 7.38344 13.125 6.46141 13.125 5.5C13.125 4.53859 12.7431 3.61656 12.0633 2.93674ZM7.82062 3.82062C8.26602 3.37522 8.87011 3.125 9.5 3.125C10.1299 3.125 10.734 3.37522 11.1794 3.82062C11.6248 4.26602 11.875 4.87011 11.875 5.5C11.875 6.12989 11.6248 6.73398 11.1794 7.17938C10.734 7.62478 10.1299 7.875 9.5 7.875C8.87011 7.875 8.26602 7.62478 7.82062 7.17938C7.37522 6.73398 7.125 6.12989 7.125 5.5C7.125 4.87011 7.37522 4.26602 7.82062 3.82062Z" fill="black" stroke="black" stroke-width="0.25"/>
</svg>
