<svg width="113" height="66" viewBox="0 0 113 66" fill="none" xmlns="http://www.w3.org/2000/svg">
<path d="M87.9279 4.99654C90.4398 2.95147 93.0164 1.01286 96.1587 0C96.2783 0.203216 96.2912 0.412884 96.1975 0.629003C93.3493 3.99659 92.3407 8.07382 92.0918 12.2962C91.8623 16.2025 90.6273 19.6442 88.4839 22.8409C88.2447 23.1957 88.0572 23.5795 87.9053 23.9795C87.805 24.2795 87.666 24.5634 87.4785 24.8182C87.3492 24.9795 87.2005 25.1214 87.0389 25.2504C85.0701 26.9439 82.9914 28.5309 81.7532 30.905C79.5646 34.0952 77.1755 37.137 75.1744 40.4691C70.8844 47.6139 68.8542 55.4781 67.4641 63.5712C67.3445 64.2615 67.4382 65.026 66.8337 65.5679C66.297 62.3197 65.7572 59.0714 65.2205 55.82C65.408 53.2104 64.7582 50.6363 64.8875 48.0236C64.9813 46.114 65.0589 44.2173 65.6925 42.3948C66.1225 42.1754 66.3197 41.8658 66.4328 41.3368C68.7346 30.6953 73.2444 21.07 80.1077 12.6091C82.3965 9.78664 85.2446 7.45772 87.9247 4.99331L87.9279 4.99654Z" fill="#AA0C6D"/>
<path d="M47.7675 56.2361C47.1597 59.3327 47.1117 62.5293 46.1808 65.5679C45.1091 63.4906 45.1251 61.1488 44.7029 58.9327C42.841 49.1525 38.6855 40.4852 32.6362 32.6791C32.2011 32.1146 31.7565 31.5534 31.4174 30.9211C30.2593 28.5664 28.1928 27.0536 26.3341 25.3472C26.1678 25.2343 26.0174 25.1021 25.8767 24.9569C25.5984 24.644 25.4416 24.2634 25.3041 23.8731C23.8997 21.2345 22.0986 18.783 21.59 15.7315C21.2605 13.7574 21.1709 11.7575 20.8734 9.77696C20.3776 6.47067 19.4946 3.345 17.0762 0.877378C16.8523 0.629003 16.6827 0.358048 16.7595 0C19.5106 0.348371 21.446 2.2257 23.599 3.6966C25.3424 5.35781 27.3034 6.75452 29.0373 8.43509C37.2364 16.3734 42.2172 26.1665 45.3747 37.0273C46.1328 39.6304 46.7918 42.2593 47.0381 44.9656C47.0893 45.5301 47.4444 45.5624 47.7131 45.8043C48.4809 48.6429 47.9947 51.4879 47.7707 54.3265C47.7195 54.9684 47.5916 55.5974 47.7707 56.2361H47.7675Z" fill="#AA0C6D"/>
<path d="M31.7473 30.7C37.0657 37.0821 41.4657 43.9775 43.93 51.8895C45.3207 56.3474 46.5264 60.8662 46.7345 65.5679C43.8673 65.369 41.1321 64.5352 38.3507 63.9258C37.4026 63.5666 37.4059 62.7456 37.3531 61.9663C36.6197 50.6451 32.669 40.4657 25.8113 31.3221C24.9986 30.2381 24.3677 29.0098 23.2809 28.1278C20.0899 24.0708 16.1622 20.7867 11.858 17.9003C12.8358 17.0087 13.8367 17.6117 14.6956 18.0126C18.7752 19.9176 22.759 21.9894 26.0194 25.1324L25.9995 25.1163C28.1137 26.7873 30.0395 28.641 31.7473 30.7064V30.7Z" fill="#570035"/>
<path d="M66.963 65.5679C68.0143 53.6618 72.1414 42.9293 79.634 33.4793C80.3403 32.5903 81.0206 31.6788 81.7106 30.777C83.4292 28.7623 85.2909 26.8915 87.3773 25.2381L87.3578 25.2541C90.4856 22.1936 94.3133 20.1757 98.2159 18.2889C98.9905 17.9147 101.142 17.4382 101.142 17.4382C101.142 17.4382 97.7244 20.3452 96.3541 21.7011C94.7039 23.3321 93.0212 24.9279 91.3547 26.5397C82.7457 36.6005 77.1929 47.9534 76.1969 61.225C76.1221 62.226 76.0342 63.2109 75.2042 63.9401C72.4734 64.5541 69.7784 65.344 66.9695 65.5615L66.963 65.5679Z" fill="#570035"/>
<path d="M63.8242 48.1264C62.4192 42.5947 61.011 37.0664 59.6061 31.5347C58.9566 27.9606 59.4549 24.4059 59.799 20.848C60.2651 16.0436 61.1139 11.3105 62.2328 6.62289C62.6089 5.04521 63.3645 3.98368 65.1777 4.21741C65.6053 4.29532 66.049 4.43816 66.2902 4.79849C68.3896 7.94088 70.3122 11.1709 71.1481 14.9333C67.4186 22.3316 65.7404 30.2784 64.9302 38.4623C64.6762 41.0268 64.3933 43.5881 64.4736 46.1754C64.4962 46.8766 64.4833 47.6297 63.8274 48.1296L63.8242 48.1264Z" fill="#7D064F"/>
<path d="M65.5679 4.57264C63.8274 4.26127 63.1097 5.04942 62.7444 6.7976C61.3533 13.44 60.1306 20.0922 60.0289 26.9163C60.0067 28.4082 59.7653 29.897 59.6256 31.3889C58.9396 29.4591 58.2408 27.5358 57.5739 25.5995C57.3706 25.0092 57.342 24.3378 56.6909 24.0135C55.7191 22.8264 55.519 21.2955 54.9981 19.9203C53.5848 16.1969 52.1747 12.48 50.2182 9.00958C49.8339 8.32523 49.5418 7.59871 49.5957 6.77814C49.3639 5.22131 49.6243 3.93694 51.5141 3.99207C55.465 4.10559 59.381 3.30123 63.3288 3.52827C64.1673 3.57692 65.2408 3.30123 65.5679 4.57588V4.57264Z" fill="#9D0F67"/>
<path d="M17.0105 0.0515407C17.1472 0.180393 17.2839 0.306023 17.4239 0.434875C18.6441 2.65435 18.2307 5.0671 17.924 7.32523C17.4272 10.9814 17.5606 14.396 19.7609 17.5496C20.1176 18.0618 20.4477 18.6706 20.0409 19.3374C19.8476 19.4405 19.6142 19.5919 19.4242 19.505C14.1934 17.1147 8.38262 15.6877 4.4454 11.1296C3.49193 10.0279 2.63514 8.87145 2.21175 7.47019C1.8717 6.34918 2.24842 5.45688 3.48526 5.54385C8.87602 5.93041 12.6832 2.97648 16.5038 0C16.6738 0.0161065 16.8405 0.0354343 17.0105 0.0515407Z" fill="#570035"/>
<path d="M96.1061 0.396401C96.1189 0.277158 96.1317 0.154693 96.1445 0.0354505C96.439 0.0225594 96.7335 0.0128911 97.0281 0C97.8669 0.654222 98.7377 1.26655 99.554 1.95622C102.182 4.17349 105.118 5.51416 108.646 5.54316C111.012 5.5625 111.419 6.34241 110.343 8.4791C108.573 12.0016 105.637 14.3123 102.182 15.9882C99.8902 17.1 97.4827 17.9702 95.2353 19.1916C94.7486 19.4559 94.2076 19.7201 93.6313 19.3431C93.1735 18.3956 93.785 17.6898 94.2268 17.0001C95.8532 14.4702 96.1253 11.7373 95.7763 8.8046C95.4434 6.0008 95.0208 3.15509 96.1061 0.393178V0.396401Z" fill="#570035"/>
<path d="M52.8898 34.9772C52.3066 37.2698 51.7203 39.5592 51.1371 41.8518C49.9035 41.8357 49.8971 40.8605 49.817 40.0339C48.9967 31.4866 47.0422 23.2623 43.085 15.5966C42.7261 14.8991 42.4249 14.1726 42.6012 13.3524C43.4567 10.4011 44.7384 7.62736 46.0841 4.88269C48.0483 8.14078 49.1858 11.7347 50.1598 15.377C51.6402 20.8954 52.3547 26.5527 52.9923 32.2196C53.0981 33.1496 52.7424 34.0537 52.8898 34.9805V34.9772Z" fill="#7D064F"/>
<path d="M63.4753 48.3797C63.505 39.6997 64.4387 31.1408 67.0915 22.8307C67.8141 20.5691 68.7379 18.3663 69.6255 16.157C69.8795 15.5254 70.0346 14.7071 70.9849 14.6482C71.2851 14.6711 71.3181 14.9559 71.46 15.1326C72.2156 16.8706 72.9711 18.6085 73.7267 20.3465C74.1523 21.0109 73.8554 21.6295 73.5386 22.1925C69.9224 28.5552 67.8273 35.4612 66.1116 42.508C65.1976 45.3424 65.3692 48.2717 65.2867 51.188C65.2372 52.9587 65.6562 54.7621 64.9798 56.5C64.4783 53.7933 63.9801 51.0865 63.4786 48.3797H63.4753Z" fill="#570035"/>
<path d="M52.9664 35.5741C52.0609 32.7226 52.1782 29.7155 51.7287 26.7944C50.6865 20.0084 49.5335 13.2688 46.5304 7.02601C46.1689 6.27422 45.9963 5.52243 46.0451 4.7011C46.1819 3.98574 46.4588 3.33993 46.9408 2.79016C49.0286 3.54526 49.0482 5.55886 49.5758 7.26446C51.8948 11.7686 54.0087 16.3654 55.6665 21.1709C56.0443 22.2671 56.5427 23.3203 56.4971 24.5192C55.3213 28.2019 54.1422 31.888 52.9664 35.5741Z" fill="#570035"/>
<path d="M75.3333 64.1728C76.0574 58.0571 76.872 51.9736 79.0152 46.1252C81.5657 39.1626 85.4254 33.0082 90.1934 27.3789C90.5005 27.0149 90.9789 26.7927 91.3765 26.5061C88.7549 30.2644 86.5664 34.2513 84.8661 38.5056C82.7326 44.3153 81.3071 50.2829 80.6606 56.4469C80.4181 58.743 80.6832 61.1294 79.6423 63.3129C78.207 63.5995 76.7686 63.8861 75.3333 64.1695V64.1728Z" fill="#7C064F"/>
<path d="M23.7161 27.9012C26.4261 29.6851 27.8485 32.5704 29.5053 35.1796C33.5768 41.5807 36.0074 48.6706 37.3175 56.1439C37.7831 58.7986 38.0207 61.4954 38.3642 64.1728C36.9418 63.8837 35.5162 63.5977 34.0937 63.3085C33.0791 61.4045 33.2749 59.2729 33.108 57.2454C32.5653 50.7176 31.159 44.4108 28.8889 38.2892C27.4696 34.6727 25.694 31.2382 23.7193 27.9012H23.7161Z" fill="#7C064F"/>
<path d="M42.4425 13.2531C46.7448 20.9041 48.7686 29.2923 50.1306 37.8981C50.3438 39.2425 49.4783 40.824 50.9198 41.9184C50.2484 44.6853 49.5737 47.4521 48.9023 50.2222C47.8426 48.566 48.0527 46.624 47.9222 44.8281C47.238 35.391 44.81 26.4897 40.4568 18.1372C41.1187 16.5103 41.7806 14.8833 42.4425 13.2563V13.2531Z" fill="#9B1065"/>
<path d="M95.0662 18.5476C98.6108 16.7773 100.943 16.1579 104.39 14.2147C107.422 12.5064 109.556 9.89816 110.677 6.21732C104.884 6.59225 100.326 4.43396 96.8369 0C99.5789 0.981339 102.185 2.37021 105.177 2.56909C107.867 2.74514 110.463 2.37673 113 1.37583C113.01 7.02913 109.313 14.5538 99.9428 17.5663C95.5471 18.6846 92.295 21.6416 88.627 24.1194C88.0454 24.5107 88.3996 24.39 87.5971 24.4129C87.7368 24.1096 84.332 25.6778 95.0695 18.5444L95.0662 18.5476Z" fill="#E3289A"/>
<path d="M16.4117 0C12.906 4.3351 8.43373 6.5952 2.4773 6.11136C3.49952 9.83272 5.72418 12.4208 8.80396 14.1548C12.2671 16.1064 15.9235 17.7236 19.4947 19.4868C22.2338 20.3149 24.4584 21.8509 26.0868 24.2084C26.2277 24.5104 26.3653 24.8124 26.5062 25.1111C23.8261 23.4258 21.1985 21.6495 18.4496 20.0843C16.5952 19.029 14.7538 17.7788 12.4604 17.7885C5.45879 15.0251 1.20607 10.047 0.0265758 2.60431C-0.0291224 2.26334 0.0200231 1.90615 0.0200231 1.31839C5.7897 3.78307 11.1466 2.36076 16.4117 0Z" fill="#E4289B"/>
<path d="M40.9343 18.1359C41.8336 18.1488 42.1085 18.8542 42.4094 19.5013C45.4889 26.1407 47.8083 33.013 48.6235 40.3254C48.9858 43.5772 49.2252 46.8451 49.5228 50.1066C49.5681 52.297 48.8047 54.3613 48.5265 56.5001C47.8116 53.7531 47.9604 50.9834 47.7663 48.217C47.708 47.3919 47.4428 46.9228 47.7727 45.7353C46.5111 37.6173 44.2403 29.826 40.3196 22.5589C39.9573 21.8859 39.4689 21.1805 39.98 20.3522C40.3002 19.6145 40.6205 18.8768 40.944 18.1391L40.9343 18.1359Z" fill="#7E0750"/>
<path d="M83.6935 44.6466C83.6935 47.523 83.5474 50.4057 83.7167 53.2691C83.989 57.8432 87.4921 59.5573 91.3572 57.1355C91.5564 59.6028 90.2149 61.3266 87.5718 61.9532C86.2934 62.2583 84.9984 62.5051 83.7101 62.7778C82.6342 61.898 82.1196 60.6579 81.9635 59.4015C81.3924 54.7722 81.4189 50.1525 82.7704 45.6206C82.9132 45.1368 82.9862 44.6109 83.6902 44.6434L83.6935 44.6466Z" fill="#E52A9C"/>
<path d="M29.9867 62.7745C28.7216 62.4919 27.45 62.245 26.198 61.9169C23.6744 61.2574 22.5106 59.8117 22.321 57.0568C23.9653 58.2718 25.7044 58.7526 27.5252 57.7715C29.4702 56.7254 30.0031 54.8671 30.0259 52.8366C30.0554 50.1077 30.0227 47.3755 30.0161 44.6466C30.3332 44.6174 30.634 44.7246 30.7124 45.0235C32.1213 50.3774 32.7817 55.754 31.0426 61.1729C30.8399 61.7999 30.5097 62.3554 29.9867 62.7778V62.7745Z" fill="#E52A9C"/>
<path d="M39.6282 20.2809C41.474 24.5949 43.7536 28.7153 45.0424 33.2788C46.2243 37.4648 47.2217 41.6705 47.4321 46.0371C46.2114 43.4171 46.0948 40.505 45.3176 37.757C41.8269 25.3993 35.7425 14.6799 26.2936 6.00912C25.4096 5.19818 24.137 4.78779 23.7161 3.48767C29.6257 7.28297 34.2141 12.3981 38.1031 18.2256C38.5759 18.9315 38.8543 19.7983 39.6282 20.2776V20.2809Z" fill="#E22799"/>
<path d="M29.999 62.6014C32.2421 56.9048 31.6056 51.1333 30.4772 45.3519C30.4118 45.0226 30.1813 44.7194 30.0299 44.4031C29.5517 42.3912 29.0769 40.376 28.5987 38.3641C30.1091 40.0565 30.6079 42.189 31.2409 44.2172C33.195 50.4909 34.0517 56.9374 34.179 63.4752C32.7547 63.3155 31.3441 63.1003 30.0024 62.6014H29.999Z" fill="#9B1066"/>
<path d="M83.1685 44.3885C81.6607 50.0183 81.1048 55.6678 82.9056 61.3596C83.0325 61.7605 83.0929 62.1843 83.1866 62.5983C81.9659 62.8917 80.7422 63.1851 79.5185 63.4752C79.6152 55.3287 80.7603 47.3876 83.5673 39.7789C83.7637 39.2476 83.8876 38.6738 84.4012 38.3641C83.9903 40.3722 83.5794 42.3803 83.1685 44.3885Z" fill="#9B1066"/>
<path d="M66.2654 42.4839C67.188 35.451 69.5284 28.8809 72.8463 22.6291C73.1636 22.0344 73.4225 21.4076 73.7042 20.7937C73.7268 20.7455 74.1347 20.1701 74.3095 19.929C77.061 16.104 79.8254 12.2918 83.3797 9.12571C84.8105 7.85284 86.1635 6.48033 87.8889 5.58032C87.6558 5.92747 87.481 6.34212 87.18 6.61212C75.19 16.2776 69.9751 28.2798 66.7704 42.1689C66.7413 42.2975 66.7251 42.471 66.6377 42.5321C66.5632 42.5835 66.3949 42.5064 66.2687 42.4839H66.2654Z" fill="#E12799"/>
<path d="M94.1588 19.671C91.8784 21.24 89.6185 22.8446 87.3382 24.4136C87.2872 24.3618 87.1819 24.2712 87.1921 24.2615C91.073 19.3443 91.4231 13.4533 92.3916 7.69489C92.8436 5.01952 93.9447 2.4509 96.3915 0.69751C96.5512 3.80961 96.242 6.91848 96.7993 10.0403C97.3091 12.913 96.575 15.6757 94.6889 18.0826C94.3253 18.5484 93.6218 18.9302 94.1588 19.671Z" fill="#7D064F"/>
<path d="M87.1914 25.1111C85.3323 26.9701 83.4733 28.8323 81.6111 30.6913L87.1914 25.1111Z" fill="#E3289A"/>
<path d="M25.6494 24.4136C23.5182 22.8422 21.3901 21.2741 19.2589 19.7027C19.7734 19.1649 19.2811 18.747 19.0302 18.4003C16.7655 15.2446 16.3685 11.8168 17.0292 8.00348C17.4389 5.63511 17.134 3.13715 17.1499 0.69751C20.0974 2.93304 20.9963 6.31549 21.3139 9.67203C21.7999 14.8494 22.6416 19.7967 25.8019 24.0572C25.84 24.109 25.7066 24.2904 25.6526 24.4103L25.6494 24.4136Z" fill="#7D064F"/>
<path d="M32.0864 30.6913C30.2263 28.8312 28.3662 26.9712 26.5061 25.1111C28.9178 26.4237 30.7523 28.3062 32.0864 30.6913Z" fill="#E4289B"/>
<path d="M6.91585 12.5283C8.35914 13.7291 10.9508 15.0981 11.481 15.3806C12.2937 15.8111 12.8929 16.0903 13.191 16.2282C16.7114 17.8898 20.4796 20.2476 21.0349 20.6008C26.9963 24.378 31.3889 30.6914 31.3889 30.6914C31.3889 30.6914 24.5459 24.7379 22.6037 22.9553C21.0161 21.4988 18.8386 19.9281 15.3873 18.2463C14.1825 17.6577 13.693 17.8192 12.8772 17.5736C6.30716 15.6093 3.78769 9.92495 6.91585 12.5283Z" fill="#E4289B"/>
<path d="M100.049 16.2093C100.049 16.2093 96.143 17.8701 94.6782 18.7005C93.2134 19.5309 87.1914 24.3472 86.0521 25.5097C84.9128 26.6723 82.3086 29.9938 82.3086 29.9938C82.3086 29.9938 89.1444 22.6864 96.9568 18.7005C99.8864 17.2058 101.84 16.0432 101.84 16.0432L100.049 16.2093Z" fill="#E3289A"/>
<path d="M69.0556 32.7839C68.8284 33.6107 68.4907 34.8509 68.1089 36.3646C66.4838 42.7967 65.7139 47.4548 65.5845 47.432C65.5057 47.419 65.7234 45.7198 65.9001 44.5024C66.3198 41.6021 67.0518 37.6015 68.4245 32.7839H69.0556Z" fill="#E12799"/>
<path d="M46.7346 2.79016H66.7897L72.5432 17.4383C72.0961 16.543 69.913 12.5007 69.913 12.5007C69.913 12.5007 68.256 8.419 65.9678 4.60061L50.0223 5.42354L52.1593 12.8299L46.7346 2.79016Z" fill="#E3289A"/>
<path d="M47.2926 45.8223L48.1296 55.8024L46.037 43.2468L47.2926 45.8223Z" fill="#E3289A"/>
</svg>
