<svg width="150" height="87" viewBox="0 0 150 87" fill="none" xmlns="http://www.w3.org/2000/svg">
<path d="M116.669 6.62975C120.002 3.91622 123.42 1.34393 127.59 0C127.748 0.269641 127.766 0.547843 127.641 0.834604C123.862 5.30295 122.524 10.7129 122.193 16.3154C121.889 21.4985 120.25 26.0653 117.406 30.3068C117.089 30.7776 116.84 31.287 116.639 31.8177C116.506 32.2157 116.321 32.5924 116.072 32.9305C115.901 33.1445 115.703 33.3328 115.489 33.504C112.877 35.751 110.118 37.8568 108.476 41.0069C105.571 45.2398 102.402 49.2759 99.7463 53.6971C94.0541 63.1774 91.3603 73.6121 89.5158 84.3507C89.357 85.2666 89.4814 86.281 88.6793 87C87.9672 82.69 87.2509 78.38 86.5388 74.0658C86.7876 70.6032 85.9254 67.1878 86.097 63.721C86.2214 61.1872 86.3243 58.6705 87.1651 56.2523C87.7356 55.9613 87.9973 55.5504 88.1474 54.8485C91.2015 40.7287 97.1855 27.9571 106.292 16.7306C109.329 12.9856 113.108 9.89541 116.664 6.62547L116.669 6.62975Z" fill="#AA0C6D"/>
<path d="M63.3814 74.6179C62.5749 78.7267 62.5112 82.9682 61.276 87C59.854 84.2437 59.8753 81.1364 59.315 78.196C56.8446 65.219 51.3307 53.7185 43.3041 43.3609C42.7268 42.6119 42.1368 41.8672 41.6868 41.0283C40.1503 37.9039 37.4082 35.8965 34.9421 33.6324C34.7213 33.4826 34.5218 33.3071 34.3351 33.1145C33.9658 32.6994 33.7578 32.1943 33.5753 31.6764C31.7119 28.1754 29.3221 24.9226 28.6472 20.8737C28.21 18.2543 28.0912 15.6007 27.6964 12.9727C27.0385 8.58572 25.867 4.43838 22.658 1.16417C22.3609 0.834604 22.1359 0.475082 22.2378 0C25.8882 0.462242 28.4562 2.95321 31.3129 4.9049C33.6262 7.10912 36.2282 8.96237 38.5288 11.1923C49.4079 21.7254 56.0169 34.7195 60.2063 49.1304C61.2123 52.5843 62.0867 56.0726 62.4136 59.6635C62.4815 60.4125 62.9526 60.4553 63.3092 60.7763C64.3279 64.5427 63.6827 68.3177 63.3856 72.0841C63.3177 72.9358 63.1479 73.7704 63.3856 74.6179H63.3814Z" fill="#AA0C6D"/>
<path d="M42.1244 40.7349C49.1812 49.2032 55.0195 58.3524 58.2892 68.8506C60.1345 74.7656 61.7343 80.7615 62.0105 87C58.206 86.7362 54.5768 85.6298 50.8862 84.8212C49.6283 84.3446 49.6327 83.2552 49.5625 82.2211C48.5895 67.1994 43.3473 53.6927 34.248 41.5604C33.1698 40.1221 32.3326 38.4923 30.8906 37.322C26.6565 31.9389 21.445 27.5813 15.7339 23.7514C17.0313 22.5684 18.3594 23.3684 19.499 23.9004C24.9121 26.4281 30.1981 29.1771 34.5242 33.3474L34.4979 33.3262C37.303 35.5432 39.8584 38.0029 42.1244 40.7434V40.7349Z" fill="#570035"/>
<path d="M88.8511 87C90.246 71.2022 95.7222 56.9617 105.664 44.4227C106.601 43.2431 107.504 42.0337 108.419 40.8371C110.7 38.1638 113.17 35.6815 115.938 33.4877L115.912 33.5089C120.063 29.4481 125.141 26.7706 130.32 24.267C131.347 23.7706 134.202 23.1383 134.202 23.1383C134.202 23.1383 129.667 26.9955 127.849 28.7946C125.66 30.9587 123.427 33.0761 121.216 35.2147C109.793 48.5642 102.425 63.6279 101.103 81.2376C101.004 82.5658 100.887 83.8727 99.7861 84.8402C96.1627 85.6549 92.5868 86.703 88.8597 86.9915L88.8511 87Z" fill="#570035"/>
<path d="M84.6866 63.8574C82.8224 56.5177 80.9539 49.1822 79.0897 41.8425C78.2279 37.1001 78.8892 32.3835 79.3456 27.6626C79.9642 21.2877 81.0904 15.0076 82.5749 8.78775C83.0741 6.69437 84.0766 5.28586 86.4826 5.59599C87.0499 5.69936 87.6386 5.88889 87.9586 6.36701C90.7443 10.5365 93.2953 14.8224 94.4045 19.8146C89.4559 29.6311 87.2291 40.1755 86.1541 51.0344C85.8171 54.4372 85.4417 57.8357 85.5483 61.2687C85.5782 62.1991 85.5611 63.1984 84.6909 63.8617L84.6866 63.8574Z" fill="#7D064F"/>
<path d="M87.0001 6.0673C84.6908 5.65416 83.7384 6.69992 83.2537 9.01952C81.4079 17.8332 79.7855 26.6597 79.6506 35.7144C79.6211 37.694 79.3009 39.6693 79.1154 41.649C78.2052 39.0884 77.2781 36.5364 76.3931 33.9671C76.1234 33.1839 76.0855 32.2931 75.2216 31.8627C73.932 30.2876 73.6666 28.2563 72.9754 26.4316C71.1001 21.4912 69.2291 16.5593 66.6331 11.9545C66.1232 11.0465 65.7355 10.0825 65.8072 8.9937C65.4995 6.928 65.8451 5.2238 68.3525 5.29696C73.5949 5.44759 78.791 4.38031 84.0291 4.68156C85.1417 4.74611 86.5661 4.38031 87.0001 6.0716V6.0673Z" fill="#9D0F67"/>
<path d="M22.5705 0.0683878C22.7518 0.239357 22.9332 0.406053 23.119 0.577022C24.738 3.52197 24.1895 6.72338 23.7825 9.71962C23.1234 14.5709 23.3003 19.1016 26.2199 23.286C26.6932 23.9657 27.1311 24.7735 26.5914 25.6583C26.3349 25.795 26.0252 25.9959 25.7731 25.8805C18.8326 22.709 11.1224 20.8155 5.89822 14.7675C4.63309 13.3057 3.49624 11.7713 2.93446 9.91196C2.48326 8.42452 2.98312 7.24056 4.62424 7.35596C11.7771 7.86887 16.8287 3.9494 21.8981 0C22.1237 0.0213712 22.3449 0.0470166 22.5705 0.0683878Z" fill="#570035"/>
<path d="M127.52 0.525972C127.537 0.367752 127.554 0.205257 127.571 0.0470381C127.962 0.0299333 128.353 0.0171048 128.744 0C129.857 0.868067 131.012 1.68054 132.095 2.59565C135.583 5.53767 139.478 7.31656 144.159 7.35505C147.299 7.38071 147.838 8.41554 146.411 11.2507C144.062 15.9245 140.166 18.9906 135.583 21.2142C132.541 22.6895 129.347 23.844 126.365 25.4647C125.719 25.8154 125.001 26.166 124.237 25.6657C123.629 24.4085 124.441 23.472 125.027 22.5569C127.185 19.2001 127.546 15.5739 127.083 11.6826C126.641 7.96227 126.08 4.18639 127.52 0.521695V0.525972Z" fill="#570035"/>
<path d="M70.178 46.4103C69.4042 49.4523 68.6261 52.49 67.8524 55.532C66.2155 55.5105 66.207 54.2166 66.1007 53.1198C65.0123 41.7787 62.4189 30.8661 57.1682 20.6947C56.6921 19.7693 56.2924 18.8053 56.5263 17.717C57.6614 13.801 59.362 10.1206 61.1477 6.47876C63.7539 10.8018 65.2632 15.5705 66.5556 20.4034C68.5198 27.7256 69.4679 35.232 70.314 42.7513C70.4543 43.9852 69.9824 45.1849 70.178 46.4145V46.4103Z" fill="#7D064F"/>
<path d="M84.2236 64.1935C84.263 52.6763 85.502 41.3197 89.0219 30.2933C89.9806 27.2924 91.2065 24.3696 92.3841 21.4382C92.7212 20.6 92.927 19.5143 94.1878 19.4362C94.5862 19.4666 94.63 19.8444 94.8183 20.0789C95.8208 22.3849 96.8234 24.691 97.8259 26.997C98.3907 27.8786 97.9967 28.6994 97.5764 29.4464C92.7781 37.8889 89.9981 47.0523 87.7216 56.4024C86.5089 60.1633 86.7366 64.0502 86.6271 67.9196C86.5615 70.2691 87.1175 72.662 86.22 74.9681C85.5545 71.3765 84.8935 67.785 84.228 64.1935H84.2236Z" fill="#570035"/>
<path d="M70.2794 47.2021C69.0779 43.4186 69.2335 39.4285 68.6371 35.5526C67.2542 26.5485 65.7243 17.606 61.7397 9.32256C61.26 8.32504 61.0309 7.32751 61.0957 6.23771C61.2773 5.28852 61.6446 4.43162 62.2842 3.70215C65.0544 4.70407 65.0803 7.37585 65.7805 9.63896C68.8575 15.6153 71.6623 21.7147 73.862 28.091C74.3634 29.5455 75.0246 30.9429 74.9641 32.5337C73.4039 37.4203 71.8395 42.3112 70.2794 47.2021Z" fill="#570035"/>
<path d="M99.9575 85.1489C100.918 77.0342 101.999 68.9622 104.843 61.2022C108.227 51.9636 113.348 43.7977 119.675 36.3282C120.082 35.8453 120.717 35.5505 121.245 35.1702C117.766 40.1569 114.862 45.4471 112.606 51.0919C109.775 58.8007 107.884 66.7188 107.026 74.8976C106.704 77.9444 107.056 81.1108 105.675 84.008C103.771 84.3883 101.862 84.7686 99.9575 85.1446V85.1489Z" fill="#7C064F"/>
<path d="M31.4683 37.0212C35.0641 39.3882 36.9515 43.2167 39.1499 46.6787C44.5521 55.172 47.7773 64.5794 49.5155 74.4955C50.1333 78.0179 50.4486 81.5963 50.9044 85.1489C49.0171 84.7652 47.1254 84.3858 45.238 84.0021C43.8917 81.4756 44.1516 78.6474 43.9301 75.9571C43.2101 67.2956 41.344 58.9272 38.3318 50.8046C36.4487 46.0061 34.0927 41.449 31.4725 37.0212H31.4683Z" fill="#7C064F"/>
<path d="M56.3154 17.5851C62.024 27.737 64.7094 38.867 66.5165 50.2858C66.7994 52.0697 65.6509 54.1681 67.5636 55.6203C66.6727 59.2915 65.7776 62.9627 64.8867 66.6383C63.4807 64.4407 63.7593 61.8639 63.5862 59.4811C62.6784 46.9593 59.4568 35.1484 53.6807 24.0658C54.5589 21.907 55.4372 19.7482 56.3154 17.5894V17.5851Z" fill="#9B1065"/>
<path d="M126.14 24.6103C130.843 22.2613 133.939 21.4394 138.512 18.8611C142.534 16.5943 145.367 13.1336 146.854 8.24957C139.168 8.74705 133.12 5.88328 128.49 0C132.128 1.30211 135.585 3.14496 139.556 3.40884C143.125 3.64244 146.569 3.15361 149.936 1.82555C149.949 9.32673 145.043 19.311 132.611 23.3082C126.778 24.792 122.463 28.7156 117.596 32.0033C116.825 32.5224 117.295 32.3624 116.23 32.3927C116.415 31.9903 111.897 34.0711 126.145 24.606L126.14 24.6103Z" fill="#E3289A"/>
<path d="M21.7762 0C17.1245 5.75211 11.1905 8.75096 3.28705 8.10897C4.64341 13.0467 7.59523 16.4808 11.6817 18.7816C16.2768 21.3711 21.1284 23.5169 25.867 25.8565C29.5013 26.9552 32.4531 28.9932 34.6138 32.1213C34.8007 32.522 34.9833 32.9227 35.1702 33.3191C31.6141 31.0829 28.1276 28.7261 24.4802 26.6493C22.0196 25.249 19.5764 23.5901 16.5333 23.603C7.2431 19.9363 1.60029 13.3311 0.0352626 3.45557C-0.0386417 3.00316 0.026568 2.5292 0.026568 1.74933C7.68218 5.01963 14.79 3.13242 21.7762 0Z" fill="#E4289B"/>
<path d="M54.3144 24.0638C55.5076 24.081 55.8725 25.0169 56.2717 25.8756C60.3579 34.6852 63.4354 43.8039 64.517 53.5065C64.9977 57.8211 65.3154 62.1572 65.7103 66.4848C65.7703 69.3913 64.7574 72.1303 64.3883 74.9681C63.4397 71.3232 63.6371 67.6482 63.3796 63.9776C63.3023 62.8828 62.9504 62.2603 63.3882 60.6847C61.7142 49.9131 58.7011 39.5751 53.4989 29.9326C53.0182 29.0396 52.37 28.1037 53.0482 27.0047C53.4731 26.0258 53.8981 25.047 54.3273 24.0681L54.3144 24.0638Z" fill="#7E0750"/>
<path d="M111.05 59.2402C111.05 63.0567 110.856 66.8818 111.081 70.681C111.442 76.7504 116.09 79.0248 121.219 75.8113C121.483 79.0851 119.703 81.3724 116.196 82.2037C114.5 82.6086 112.782 82.936 111.072 83.2978C109.645 82.1305 108.962 80.485 108.755 78.818C107.997 72.6754 108.032 66.5458 109.825 60.5325C110.015 59.8907 110.112 59.1928 111.046 59.2359L111.05 59.2402Z" fill="#E52A9C"/>
<path d="M39.7885 83.2935C38.1099 82.9185 36.4227 82.5909 34.7614 82.1555C31.4129 81.2805 29.8688 79.3622 29.6172 75.7068C31.7989 77.319 34.1065 77.957 36.5224 76.6551C39.1032 75.2671 39.8102 72.8014 39.8406 70.1073C39.8796 66.4863 39.8363 62.8611 39.8276 59.2402C40.2483 59.2014 40.6474 59.3436 40.7515 59.7402C42.6209 66.8441 43.4971 73.9782 41.1895 81.1684C40.9206 82.0003 40.4825 82.7375 39.7885 83.2978V83.2935Z" fill="#E52A9C"/>
<path d="M52.5816 26.9101C55.0307 32.6342 58.0554 38.1014 59.7655 44.1566C61.3337 49.7109 62.6571 55.2913 62.9363 61.0851C61.3165 57.6088 61.1619 53.7448 60.1307 50.0986C55.499 33.7015 47.4257 19.4783 34.8883 7.97331C33.7154 6.89731 32.0268 6.35277 31.4683 4.62769C39.3095 9.66355 45.3977 16.4506 50.5579 24.183C51.1852 25.1196 51.5547 26.2697 52.5816 26.9057V26.9101Z" fill="#E22799"/>
<path d="M39.8047 83.0638C42.781 75.5052 41.9365 67.8471 40.4392 60.1761C40.3525 59.7391 40.0466 59.3367 39.8458 58.917C39.2113 56.2475 38.5813 53.5737 37.9468 50.9042C39.9508 53.1497 40.6127 55.9793 41.4526 58.6704C44.0455 66.9948 45.1821 75.5485 45.351 84.2233C43.4612 84.0113 41.5896 83.7258 39.8093 83.0638H39.8047Z" fill="#9B1066"/>
<path d="M110.354 58.8977C108.353 66.3678 107.616 73.8638 110.005 81.4161C110.173 81.9481 110.254 82.5104 110.378 83.0598C108.758 83.4491 107.134 83.8384 105.511 84.2233C105.639 73.414 107.158 62.8771 110.883 52.7814C111.144 52.0764 111.308 51.3151 111.989 50.9042C111.444 53.5687 110.899 56.2332 110.354 58.8977Z" fill="#9B1066"/>
<path d="M87.9253 56.3705C89.1494 47.0387 92.2548 38.3211 96.6573 30.0257C97.0782 29.2367 97.4218 28.405 97.7955 27.5904C97.8256 27.5265 98.3668 26.763 98.5987 26.4432C102.25 21.3678 105.918 16.3096 110.634 12.1086C112.532 10.4196 114.327 8.59849 116.617 7.4043C116.308 7.86491 116.076 8.4151 115.676 8.77335C99.767 21.5981 92.8475 37.5236 88.5953 55.9525C88.5567 56.1231 88.5352 56.3534 88.4192 56.4345C88.3204 56.5027 88.0971 56.4004 87.9296 56.3705H87.9253Z" fill="#E12799"/>
<path d="M124.936 26.1009C121.911 28.1827 118.912 30.3118 115.886 32.3936C115.819 32.3249 115.679 32.2048 115.692 32.1919C120.842 25.6673 121.306 17.8507 122.591 10.2101C123.191 6.66028 124.652 3.25206 127.899 0.925537C128.111 5.05489 127.7 9.17996 128.44 13.3222C129.116 17.1339 128.142 20.7997 125.64 23.9933C125.157 24.6114 124.224 25.1179 124.936 26.1009Z" fill="#7D064F"/>
<path d="M115.691 33.3191C113.225 35.7858 110.758 38.2567 108.287 40.7233L115.691 33.3191Z" fill="#E3289A"/>
<path d="M34.0336 32.3936C31.2057 30.3086 28.382 28.228 25.5541 26.143C26.2369 25.4294 25.5836 24.8748 25.2507 24.4148C22.2458 20.2277 21.719 15.6794 22.5956 10.6196C23.1392 7.47709 22.7347 4.16262 22.7557 0.925537C26.6667 3.89179 27.8594 8.37986 28.2809 12.8335C28.9257 19.7032 30.0425 26.2677 34.2359 31.9207C34.2864 31.9895 34.1094 32.2303 34.0378 32.3893L34.0336 32.3936Z" fill="#7D064F"/>
<path d="M42.5747 40.7233C40.1066 38.2553 37.6385 35.7872 35.1704 33.3191C38.3704 35.0608 40.8045 37.5586 42.5747 40.7233Z" fill="#E4289B"/>
<path d="M9.17643 16.6235C11.0915 18.2168 14.5302 20.0332 15.2338 20.4081C16.3121 20.9794 17.1072 21.3498 17.5027 21.5328C22.1738 23.7375 27.1737 26.866 27.9106 27.3346C35.8206 32.3465 41.649 40.7235 41.649 40.7235C41.649 40.7235 32.5692 32.8241 29.9922 30.4587C27.8856 28.5262 24.9964 26.442 20.4169 24.2105C18.8183 23.4295 18.1688 23.6438 17.0864 23.318C8.36878 20.7116 5.02577 13.1692 9.17643 16.6235Z" fill="#E4289B"/>
<path d="M132.752 21.5076C132.752 21.5076 127.569 23.7112 125.626 24.8131C123.682 25.9149 115.692 32.3055 114.18 33.848C112.668 35.3906 109.213 39.7979 109.213 39.7979C109.213 39.7979 118.283 30.1018 128.649 24.8131C132.536 22.8298 135.128 21.2872 135.128 21.2872L132.752 21.5076Z" fill="#E3289A"/>
<path d="M91.6277 43.5C91.3262 44.5971 90.8782 46.2426 90.3716 48.251C88.2153 56.7856 87.1937 62.9663 87.0221 62.9361C86.9174 62.9188 87.2063 60.6642 87.4408 59.0488C87.9976 55.2005 88.969 49.8923 90.7903 43.5H91.6277Z" fill="#E12799"/>
<path d="M62.0107 3.70215H88.6213L96.2554 23.1383C95.6621 21.9503 92.7655 16.5868 92.7655 16.5868C92.7655 16.5868 90.5669 11.1709 87.5307 6.10437L66.3731 7.19629L69.2087 17.0236L62.0107 3.70215Z" fill="#E3289A"/>
<path d="M62.7509 60.8003L63.8616 74.0425L61.085 57.3829L62.7509 60.8003Z" fill="#E3289A"/>
</svg>
